<svg width="1067" height="1067" viewBox="0 0 1067 1067" fill="none" xmlns="http://www.w3.org/2000/svg">
<path d="M1066.67 1066.67H0V0.000144958H1066.67V1066.67Z" fill="#100F0D"/>
<path d="M697.42 549.239C672.473 556.865 637.78 553.092 615.66 519.919L601.207 498.239L588.7 479.479L615.66 439.065C637.753 405.905 672.273 402.079 697.42 409.732C722.461 417.292 749.207 439.612 749.207 479.505C749.207 519.372 722.461 541.679 697.42 549.239ZM460.195 519.919C438.073 553.065 403.487 556.892 378.367 549.239C353.367 541.679 326.62 519.372 326.62 479.505C326.62 439.612 353.367 417.292 378.393 409.732C385.273 407.639 392.873 406.399 400.74 406.399C421.513 406.399 444.127 414.985 460.195 439.065L487.153 479.479L460.195 519.919ZM721.913 328.825C654.007 308.319 584.688 333.145 545.34 392.185L537.915 403.292L530.513 392.185C491.113 333.145 421.927 308.159 353.887 328.852C285.993 349.399 242.1 408.545 242.1 479.505C242.1 550.452 285.993 609.572 353.887 630.132C421.78 650.759 491.087 625.865 530.513 566.799L537.915 555.679L545.34 566.799C546.993 569.279 548.688 571.693 550.447 574.039C580.767 614.759 626.14 637.252 674.62 637.252C690.193 637.252 706.087 634.945 721.94 630.159C789.833 609.572 833.713 550.452 833.713 479.505C833.713 408.519 789.833 349.399 721.913 328.825Z" fill="white"/>
<path d="M601.207 498.239L550.447 574.039C548.688 571.693 546.993 569.279 545.34 566.799L537.915 555.679L588.7 479.479L601.207 498.239Z" fill="#BBBCBD"/>
<path d="M537.908 403.276L487.147 479.076C485.388 476.729 483.695 474.316 482.04 471.836L474.613 460.716L525.4 384.516L537.908 403.276Z" fill="#BBBCBD"/>
</svg>
