<svg width="700" height="700" viewBox="0 0 700 700" fill="none" xmlns="http://www.w3.org/2000/svg">
<g clip-path="url(#clip0_1_2)">
<path d="M700 0H0V700H700V0Z" fill="white"/>
<path d="M580.77 367.795H512.676C511.255 367.793 509.894 367.202 508.89 366.152C507.885 365.102 507.321 363.679 507.319 362.194V326.758C507.32 325.273 507.885 323.849 508.89 322.799C509.894 321.749 511.255 321.158 512.676 321.157H580.77C582.19 321.158 583.551 321.749 584.556 322.799C585.56 323.849 586.125 325.273 586.126 326.758V362.194C586.125 363.679 585.56 365.102 584.556 366.152C583.551 367.202 582.19 367.793 580.77 367.795Z" fill="white"/>
<path d="M580.77 368.454H512.676C511.088 368.452 509.567 367.792 508.444 366.618C507.322 365.445 506.691 363.854 506.689 362.194V326.758C506.691 325.098 507.322 323.507 508.444 322.333C509.567 321.16 511.088 320.5 512.676 320.498H580.77C582.357 320.5 583.879 321.16 585.001 322.333C586.123 323.507 586.755 325.098 586.757 326.758V362.194C586.755 363.854 586.123 365.445 585.001 366.618C583.879 367.792 582.357 368.452 580.77 368.454ZM512.676 321.816C511.422 321.817 510.221 322.338 509.335 323.265C508.449 324.191 507.95 325.447 507.949 326.758V362.194C507.95 363.504 508.449 364.76 509.335 365.687C510.221 366.613 511.422 367.134 512.676 367.136H580.77C582.023 367.134 583.224 366.613 584.11 365.687C584.996 364.76 585.495 363.504 585.496 362.194V326.758C585.495 325.447 584.996 324.191 584.11 323.265C583.224 322.338 582.023 321.817 580.77 321.816H512.676Z" fill="#CCCCCC"/>
<path d="M569.583 385.23H523.712C522.363 385.228 521.07 384.667 520.117 383.669C519.163 382.671 518.628 381.319 518.628 379.908C518.628 378.498 519.163 377.146 520.117 376.148C521.07 375.15 522.363 374.589 523.712 374.587H569.583C570.933 374.587 572.227 375.148 573.181 376.146C574.136 377.144 574.672 378.497 574.672 379.908C574.672 381.32 574.136 382.673 573.181 383.671C572.227 384.669 570.933 385.23 569.583 385.23Z" fill="#E6E6E6"/>
<path d="M539.235 358.17C538.848 358.169 538.468 358.065 538.13 357.869C537.769 357.665 537.467 357.362 537.258 356.992C537.049 356.623 536.94 356.2 536.943 355.771V335.994C536.943 335.565 537.053 335.145 537.262 334.775C537.471 334.406 537.771 334.103 538.13 333.896C538.489 333.69 538.895 333.588 539.305 333.602C539.715 333.615 540.114 333.744 540.46 333.974L558.403 343.862C558.728 344.078 558.996 344.377 559.182 344.73C559.367 345.083 559.465 345.48 559.465 345.883C559.465 346.286 559.367 346.682 559.182 347.035C558.996 347.389 558.728 347.687 558.403 347.903L540.46 357.792C540.095 358.037 539.669 358.169 539.235 358.17Z" fill="#03001C"/>
<path d="M586.283 374.15C590.589 374.15 594.08 370.5 594.08 365.998C594.08 361.496 590.589 357.846 586.283 357.846C581.976 357.846 578.486 361.496 578.486 365.998C578.486 370.5 581.976 374.15 586.283 374.15Z" fill="#3F3D56"/>
<path d="M585.699 369.256C585.682 369.256 585.666 369.256 585.649 369.255C585.502 369.247 585.359 369.207 585.228 369.136C585.098 369.065 584.983 368.966 584.893 368.844L583.59 367.093C583.508 366.982 583.447 366.856 583.412 366.721C583.376 366.585 583.366 366.444 583.383 366.305C583.4 366.166 583.442 366.032 583.508 365.91C583.575 365.789 583.663 365.682 583.769 365.596L583.816 365.558C583.922 365.471 584.043 365.408 584.172 365.371C584.301 365.334 584.436 365.323 584.569 365.341C584.702 365.358 584.83 365.403 584.947 365.472C585.063 365.541 585.166 365.634 585.248 365.745C585.314 365.833 585.397 365.905 585.492 365.957C585.587 366.009 585.692 366.038 585.799 366.044C585.906 366.049 586.012 366.03 586.112 365.989C586.211 365.947 586.301 365.883 586.375 365.802L589.02 362.882C589.206 362.677 589.463 362.557 589.733 362.549C590.004 362.542 590.266 362.646 590.463 362.841L590.506 362.884C590.603 362.98 590.681 363.096 590.736 363.224C590.791 363.351 590.821 363.489 590.824 363.629C590.828 363.769 590.805 363.909 590.757 364.04C590.709 364.17 590.637 364.29 590.545 364.392L586.439 368.923C586.344 369.028 586.229 369.112 586.102 369.169C585.975 369.227 585.837 369.256 585.699 369.256Z" fill="white"/>
<path d="M683 573.687L282.505 580L123.529 550.54H371.711L683 573.687Z" fill="#E6E6E6"/>
<path d="M236.864 554.041C236.864 554.041 237.801 533.51 257.012 535.897L236.864 554.041Z" fill="#3F3D56"/>
<path d="M231.436 534.503C236.746 534.503 241.051 530.002 241.051 524.45C241.051 518.898 236.746 514.397 231.436 514.397C226.126 514.397 221.821 518.898 221.821 524.45C221.821 530.002 226.126 534.503 231.436 534.503Z" fill="#03001C"/>
<path d="M232.586 541.379H229.871V561.244H232.586V541.379Z" fill="#3F3D56"/>
<path d="M553.504 557.548C553.504 557.548 554.441 537.017 573.652 539.404L553.504 557.548Z" fill="#3F3D56"/>
<path d="M548.076 538.011C553.386 538.011 557.691 533.51 557.691 527.957C557.691 522.405 553.386 517.904 548.076 517.904C542.766 517.904 538.461 522.405 538.461 527.957C538.461 533.51 542.766 538.011 548.076 538.011Z" fill="#03001C"/>
<path d="M549.225 544.886H546.511V564.751H549.225V544.886Z" fill="#3F3D56"/>
<path d="M599.792 561.055C599.792 561.055 600.73 540.524 619.941 542.911L599.792 561.055Z" fill="#3F3D56"/>
<path d="M594.364 541.518C599.675 541.518 603.979 537.017 603.979 531.464C603.979 525.912 599.675 521.411 594.364 521.411C589.054 521.411 584.749 525.912 584.749 531.464C584.749 537.017 589.054 541.518 594.364 541.518Z" fill="#03001C"/>
<path d="M595.514 548.393H592.8V568.258H595.514V548.393Z" fill="#3F3D56"/>
<path d="M169.779 547.728C169.779 547.728 170.717 527.197 189.928 529.584L169.779 547.728Z" fill="#3F3D56"/>
<path d="M164.351 528.191C169.661 528.191 173.966 523.69 173.966 518.137C173.966 512.585 169.661 508.084 164.351 508.084C159.041 508.084 154.736 512.585 154.736 518.137C154.736 523.69 159.041 528.191 164.351 528.191Z" fill="#03001C"/>
<path d="M165.501 535.066H162.787V554.931H165.501V535.066Z" fill="#3F3D56"/>
<path d="M446.505 532.577C484.471 532.577 515.249 502.563 515.249 465.539C515.249 428.514 484.471 398.5 446.505 398.5C408.539 398.5 377.762 428.514 377.762 465.539C377.762 502.563 408.539 532.577 446.505 532.577Z" fill="#3F3D56"/>
<path d="M403.16 471.011C404.869 469.005 407.007 467.391 409.423 466.283C411.838 465.176 414.472 464.602 417.139 464.602C419.805 464.602 422.44 465.176 424.855 466.283C427.271 467.391 429.409 469.005 431.118 471.011C434.043 468.273 436.065 464.74 436.923 460.865C437.781 456.991 437.435 452.953 435.931 449.273C434.427 445.593 431.833 442.439 428.484 440.217C425.134 437.995 421.183 436.808 417.139 436.808C413.095 436.808 409.143 437.995 405.794 440.217C402.445 442.439 399.851 445.593 398.346 449.273C396.842 452.953 396.497 456.991 397.355 460.865C398.213 464.74 400.234 468.273 403.16 471.011Z" fill="white"/>
<path d="M457.887 471.011C459.597 469.005 461.735 467.391 464.15 466.283C466.566 465.176 469.2 464.602 471.867 464.602C474.533 464.602 477.167 465.176 479.583 466.283C481.998 467.391 484.136 469.005 485.846 471.011C488.771 468.273 490.793 464.74 491.651 460.865C492.509 456.991 492.163 452.953 490.659 449.273C489.155 445.593 486.561 442.439 483.212 440.217C479.862 437.995 475.911 436.808 471.867 436.808C467.823 436.808 463.871 437.995 460.522 440.217C457.172 442.439 454.578 445.593 453.074 449.273C451.57 452.953 451.225 456.991 452.083 460.865C452.94 464.74 454.962 468.273 457.887 471.011Z" fill="white"/>
<path d="M410.465 456.874C414.274 456.874 417.361 453.811 417.361 450.033C417.361 446.255 414.274 443.192 410.465 443.192C406.656 443.192 403.568 446.255 403.568 450.033C403.568 453.811 406.656 456.874 410.465 456.874Z" fill="#3F3D56"/>
<path d="M464.97 456.874C468.902 456.874 472.089 453.811 472.089 450.033C472.089 446.255 468.902 443.192 464.97 443.192C461.038 443.192 457.851 446.255 457.851 450.033C457.851 453.811 461.038 456.874 464.97 456.874Z" fill="#3F3D56"/>
<path d="M396.894 490.165C401.317 490.165 404.903 486.694 404.903 482.412C404.903 478.13 401.317 474.659 396.894 474.659C392.471 474.659 388.885 478.13 388.885 482.412C388.885 486.694 392.471 490.165 396.894 490.165Z" fill="#655DBB"/>
<path d="M490.109 490.165C494.655 490.165 498.341 486.694 498.341 482.412C498.341 478.13 494.655 474.659 490.109 474.659C485.563 474.659 481.878 478.13 481.878 482.412C481.878 486.694 485.563 490.165 490.109 490.165Z" fill="#655DBB"/>
<path d="M443.524 466.451L437.384 491.989L447.617 482.167L443.524 466.451Z" fill="#655DBB"/>
<path d="M474.573 564.956L467.737 559.355L467.897 564.956H465.774L465.604 559.033L456.375 564.956H452.512L465.535 556.598L465.031 539.048L464.654 525.793L466.771 525.736L467.154 539.048L467.658 556.583L477.873 564.956H474.573Z" fill="#3F3D56"/>
<path d="M442.478 564.956L435.521 559.355L435.683 564.956H433.529L433.356 559.033L423.963 564.956H420.031L433.28 556.598L432.767 539.048L432.383 525.793L434.544 525.736L434.933 539.048L435.44 556.583L445.838 564.956H442.478Z" fill="#3F3D56"/>
<path d="M447.744 393.679C445.847 393.679 444.173 395.119 443.054 397.331C442.067 394.005 439.995 391.692 437.574 391.692C437.41 391.708 437.247 391.735 437.086 391.772C436.155 388.221 433.993 385.731 431.472 385.731C428.102 385.731 425.37 390.179 425.37 395.666C425.37 401.153 428.102 405.601 431.472 405.601C431.637 405.585 431.8 405.558 431.961 405.521C432.891 409.072 435.053 411.562 437.574 411.562C439.472 411.562 441.146 410.122 442.265 407.911C443.252 411.236 445.324 413.549 447.744 413.549C451.115 413.549 453.847 409.101 453.847 403.614C453.847 398.127 451.115 393.679 447.744 393.679Z" fill="#3F3D56"/>
<path d="M381.766 491.077C379.137 491.077 376.533 490.567 374.104 489.577C371.675 488.587 369.467 487.136 367.608 485.307C365.749 483.477 364.274 481.305 363.268 478.915C362.262 476.525 361.744 473.963 361.744 471.376V461.525C361.744 456.3 363.853 451.289 367.608 447.595C371.363 443.9 376.456 441.824 381.766 441.824V491.077Z" fill="#03001C"/>
<path d="M511.244 441.824C513.873 441.824 516.477 442.334 518.906 443.324C521.335 444.314 523.543 445.765 525.402 447.594C527.261 449.424 528.736 451.596 529.742 453.986C530.749 456.376 531.266 458.938 531.266 461.525V471.376C531.266 473.963 530.749 476.525 529.742 478.915C528.736 481.305 527.261 483.477 525.402 485.307C523.543 487.136 521.335 488.587 518.906 489.577C516.477 490.567 513.873 491.077 511.244 491.077V441.824Z" fill="#03001C"/>
<path d="M521.923 462.802H518.706C518.706 423.281 485.519 391.127 444.725 391.127C403.932 391.127 370.744 423.281 370.744 462.802H367.528C367.528 421.562 402.159 388.011 444.725 388.011C487.292 388.011 521.923 421.562 521.923 462.802Z" fill="#03001C"/>
<path d="M262.816 364.886C263.712 365.132 264.546 365.58 265.258 366.199C265.971 366.819 266.544 367.594 266.939 368.47C267.334 369.346 267.541 370.302 267.544 371.271C267.547 372.24 267.347 373.197 266.958 374.076L283.168 390.422L271.749 393.098L258.107 377.166C256.737 376.385 255.69 375.106 255.162 373.571C254.635 372.036 254.664 370.353 255.245 368.839C255.825 367.325 256.916 366.087 258.312 365.358C259.707 364.629 261.31 364.461 262.816 364.886Z" fill="#FFB8B8"/>
<path d="M285.611 407.883L265.614 388.268C265.338 387.997 265.117 387.671 264.963 387.31C264.809 386.948 264.726 386.558 264.719 386.162C264.712 385.767 264.781 385.373 264.921 385.006C265.061 384.638 265.271 384.304 265.537 384.022L269.62 379.698C270.105 379.186 270.753 378.875 271.441 378.825C272.129 378.775 272.811 378.989 273.36 379.426L290.118 392.817L300.573 366.305C300.986 365.259 301.599 364.312 302.375 363.524C303.152 362.735 304.074 362.122 305.086 361.721C306.098 361.32 307.178 361.141 308.259 361.194C309.34 361.247 310.4 361.531 311.371 362.029C312.903 362.804 314.153 364.078 314.934 365.659C315.715 367.24 315.984 369.043 315.701 370.797C313.804 382.857 302.31 398.799 295.628 407.229C294.715 408.377 293.484 409.202 292.105 409.589C290.726 409.976 289.266 409.906 287.926 409.39C287.066 409.054 286.279 408.542 285.611 407.883Z" fill="#03001C"/>
<path d="M274.39 388.855L259.667 366.527C259.478 366.24 259.406 365.885 259.466 365.541C259.527 365.198 259.715 364.893 259.99 364.695L260.581 364.268C260.717 364.17 260.871 364.101 261.033 364.065C261.195 364.028 261.362 364.026 261.525 364.057C261.687 364.088 261.843 364.153 261.982 364.247C262.12 364.341 262.24 364.463 262.334 364.605L277.057 386.933C277.151 387.075 277.217 387.236 277.252 387.405C277.286 387.574 277.289 387.749 277.259 387.919C277.229 388.089 277.167 388.252 277.077 388.397C276.987 388.542 276.871 388.668 276.735 388.766L276.143 389.192C275.868 389.39 275.529 389.466 275.2 389.403C274.871 389.34 274.58 389.143 274.39 388.855Z" fill="white"/>
<path d="M270.274 389.021L258.056 370.491C257.535 369.699 257.336 368.724 257.502 367.779C257.668 366.834 258.186 365.996 258.942 365.45L260.187 364.553L276.34 389.05L275.095 389.948C274.338 390.493 273.405 390.701 272.501 390.527C271.597 390.354 270.796 389.812 270.274 389.021Z" fill="#3F3D56"/>
<path d="M271.752 548.96L264.077 548.034L265.094 516.791L275.169 518.007L271.752 548.96Z" fill="#FFB8B8"/>
<path d="M272.851 556.975L248.103 553.989L248.139 553.662C248.285 552.339 248.679 551.059 249.298 549.896C249.917 548.732 250.749 547.708 251.747 546.88C252.744 546.053 253.888 545.439 255.113 545.074C256.337 544.709 257.618 544.6 258.883 544.752L273.999 546.576L272.851 556.975Z" fill="#2F2E41"/>
<path d="M361.002 543.027L353.62 545.411L341.312 516.774L352.207 513.256L361.002 543.027Z" fill="#FFB8B8"/>
<path d="M365.095 549.9L341.293 557.588L341.2 557.273C340.824 556.001 340.691 554.664 340.81 553.338C340.928 552.013 341.295 550.724 341.889 549.547C342.484 548.37 343.295 547.326 344.275 546.476C345.255 545.627 346.386 544.987 347.602 544.594L362.14 539.899L365.095 549.9Z" fill="#2F2E41"/>
<path d="M263.183 541.758C262.404 541.506 261.749 540.946 261.357 540.198C260.964 539.45 260.866 538.572 261.081 537.75L265.708 482.065C265.922 479.525 266.686 477.069 267.942 474.883L295.947 426.288L321.008 430.997L321.17 431.067C333.35 438.866 344.163 476.686 354.621 513.26C356.247 518.948 357.929 524.829 359.571 530.45C359.876 531.253 359.869 532.148 359.551 532.945C359.233 533.742 358.63 534.378 357.87 534.717L350.282 538.057C349.563 538.376 348.756 538.403 348.019 538.134C347.282 537.864 346.667 537.318 346.294 536.6L307.284 461.927C307.236 461.834 307.167 461.754 307.082 461.694C306.998 461.635 306.9 461.599 306.799 461.587C306.699 461.574 306.597 461.587 306.503 461.625C306.408 461.663 306.325 461.726 306.259 461.806L283.62 488.592L275.3 539.638L275.266 539.749C274.966 540.479 274.423 541.07 273.739 541.415C273.054 541.76 272.274 541.835 271.54 541.626L263.38 541.787L263.329 541.788L263.183 541.758Z" fill="#2F2E41"/>
<path d="M294.592 431.614L294.434 431.561L294.386 431.394C294.269 430.988 282.814 390.459 293.136 364.622L293.147 364.598C293.449 363.983 300.65 349.518 309.016 348.07L309.239 348.032L311.958 353.348C312.813 354.244 327.532 370.224 320.852 397.691C321.451 399.943 329.58 430.865 325.16 435.486C324.165 436.527 322.167 436.933 319.644 436.933C310.769 436.933 295.419 431.888 294.592 431.614Z" fill="#03001C"/>
<path d="M307.291 343.005C318.081 343.005 326.827 333.859 326.827 322.578C326.827 311.297 318.081 302.152 307.291 302.152C296.502 302.152 287.755 311.297 287.755 322.578C287.755 333.859 296.502 343.005 307.291 343.005Z" fill="#2F2E41"/>
<path d="M299.531 342.907C308.079 342.907 315.009 335.662 315.009 326.724C315.009 317.786 308.079 310.54 299.531 310.54C290.982 310.54 284.052 317.786 284.052 326.724C284.052 335.662 290.982 342.907 299.531 342.907Z" fill="#FFB8B8"/>
<path d="M309.491 342.444C308.079 342.968 306.347 343.429 305.236 342.343C304.151 341.283 304.349 339.345 304.988 337.917C305.627 336.488 306.618 335.217 306.922 333.663C307.358 331.435 306.231 329.12 304.624 327.668C303.016 326.215 300.993 325.453 299.017 324.718L288.182 320.691C285.5 319.694 282.61 318.523 281.109 315.9C278.938 312.104 280.923 306.678 284.485 304.464C288.047 302.249 292.547 302.661 296.39 304.219C298.516 305.08 300.538 306.267 302.736 306.873C307.074 308.07 312.007 306.997 315.82 309.554C319.139 311.781 320.678 316.323 320.566 320.574C320.454 324.825 318.957 328.873 317.379 332.76C316.439 335.073 315.436 337.412 313.845 339.252C312.254 341.091 309.955 342.378 307.658 342.04L309.491 342.444Z" fill="#2F2E41"/>
<path d="M323.676 325.873C330.637 325.873 336.28 319.973 336.28 312.694C336.28 305.416 330.637 299.516 323.676 299.516C316.715 299.516 311.073 305.416 311.073 312.694C311.073 319.973 316.715 325.873 323.676 325.873Z" fill="#2F2E41"/>
<path d="M302.88 331.803C302.88 331.564 302.942 331.329 303.059 331.124C303.177 330.919 303.346 330.751 303.548 330.639C303.749 330.526 303.977 330.473 304.205 330.485C304.434 330.498 304.655 330.575 304.844 330.708C305.034 330.842 305.186 331.027 305.282 331.244C305.379 331.46 305.418 331.701 305.394 331.938C305.37 332.176 305.285 332.403 305.147 332.594C305.01 332.785 304.825 332.934 304.613 333.023V335.921C304.613 336.052 304.563 336.178 304.475 336.271C304.386 336.363 304.266 336.416 304.14 336.416C304.015 336.416 303.895 336.363 303.806 336.271C303.718 336.178 303.668 336.052 303.668 335.921V333.023C303.435 332.925 303.236 332.756 303.096 332.539C302.955 332.322 302.88 332.065 302.88 331.803Z" fill="white"/>
<path d="M263.583 378.718C264.505 378.622 265.435 378.739 266.31 379.059C267.184 379.38 267.98 379.898 268.642 380.575C269.305 381.252 269.817 382.073 270.143 382.98C270.469 383.887 270.601 384.857 270.529 385.823L291.171 395.236L281.361 401.906L263.262 391.945C261.719 391.712 260.31 390.894 259.304 389.648C258.298 388.402 257.764 386.813 257.804 385.183C257.843 383.552 258.453 381.994 259.519 380.802C260.584 379.611 262.03 378.869 263.583 378.718Z" fill="#FFB8B8"/>
<path d="M299.282 410.712L274 399.615C273.651 399.461 273.335 399.237 273.07 398.954C272.806 398.671 272.598 398.335 272.459 397.967C272.321 397.599 272.254 397.205 272.263 396.81C272.272 396.414 272.357 396.024 272.512 395.663L274.898 390.122C275.182 389.465 275.685 388.938 276.314 388.641C276.942 388.343 277.652 388.294 278.312 388.504L298.483 394.948L299.445 366.288C299.483 365.158 299.743 364.047 300.207 363.025C300.672 362.003 301.332 361.092 302.148 360.347C302.963 359.603 303.915 359.041 304.946 358.697C305.977 358.353 307.064 358.233 308.141 358.346C309.835 358.514 311.432 359.252 312.69 360.449C313.949 361.647 314.802 363.239 315.122 364.986C317.364 376.981 311.906 396.112 308.452 406.449C307.979 407.858 307.101 409.079 305.937 409.944C304.773 410.81 303.381 411.277 301.953 411.281C301.036 411.279 300.127 411.086 299.282 410.712Z" fill="#03001C"/>
<path d="M258.707 311.273H39.3982C36.6414 311.27 33.9984 310.123 32.049 308.085C30.0996 306.047 29.0031 303.283 29 300.401V183.772C29.0031 180.89 30.0996 178.126 32.049 176.088C33.9984 174.05 36.6414 172.904 39.3982 172.9H258.707C261.463 172.904 264.106 174.05 266.056 176.088C268.005 178.126 269.102 180.89 269.105 183.772V300.401C269.102 303.283 268.005 306.047 266.056 308.085C264.106 310.123 261.463 311.27 258.707 311.273Z" fill="#E6E6E6"/>
<path d="M256.186 303.366H41.919C40.4988 303.364 39.1373 302.774 38.133 301.724C37.1288 300.674 36.5639 299.25 36.5623 297.765V186.408C36.5639 184.923 37.1288 183.5 38.133 182.45C39.1373 181.4 40.4988 180.809 41.919 180.807H256.186C257.606 180.809 258.967 181.4 259.972 182.45C260.976 183.5 261.541 184.923 261.542 186.408V297.765C261.541 299.25 260.976 300.674 259.972 301.724C258.967 302.774 257.606 303.364 256.186 303.366Z" fill="white"/>
<path d="M243.777 331.481L219.679 306.285L250.574 307.102V328.537C250.582 329.363 250.352 330.171 249.913 330.858C249.475 331.544 248.848 332.076 248.116 332.383C247.625 332.598 247.099 332.71 246.567 332.711C246.047 332.709 245.533 332.6 245.054 332.388C244.575 332.177 244.141 331.869 243.777 331.481Z" fill="#E6E6E6"/>
<path d="M355.731 359.648H355.733L354.968 357.172L351.79 346.686L350.651 342.928L349.966 343.173L337.977 347.463L342.279 361.677L342.276 361.774L340.115 362.487C339.891 362.521 339.671 362.575 339.457 362.651C337.864 363.221 337.441 365.209 337.826 366.386C338.212 367.564 339.815 368.057 341.408 367.487C342.979 366.924 344.082 365.118 343.742 363.938H343.744L342.98 361.462L340.2 353.142L351.734 349.015L351.502 348.307L339.964 352.436L339.62 351.407L351.203 347.262L351.242 347.39L354.268 357.387L354.265 357.484L352.104 358.197C351.88 358.231 351.66 358.285 351.445 358.361C349.853 358.931 349.429 360.919 349.815 362.096C350.2 363.274 351.804 363.766 353.396 363.196C354.967 362.634 356.071 360.827 355.731 359.648Z" fill="#3F3D56"/>
<path d="M359.123 385.714C360.705 391.212 355.896 395.062 355.896 395.062C353.309 398.095 356.016 399.988 356.016 399.988L357.047 400.627C357.267 401.208 357.625 401.722 358.086 402.121L359.581 403.173C357.3 399.539 359.871 397.211 359.871 397.211L362.185 393.801L366.932 404.677L364.073 405.978C363.768 406.058 363.471 406.167 363.186 406.303C361.065 407.333 360.756 410.143 361.452 411.711C362.148 413.279 364.432 413.716 366.552 412.687C368.644 411.672 369.917 409.009 369.284 407.431L369.287 407.43L367.887 404.127L367.818 404.167L359.123 385.714ZM358.242 394.865L360.603 391.746C360.315 393.888 359.308 395.853 357.764 397.292C357.28 397.869 356.972 398.584 356.88 399.345C356.69 398.54 356.717 397.695 356.957 396.904C357.197 396.114 357.642 395.408 358.242 394.865Z" fill="#3F3D56"/>
<path d="M353.332 313.067L353.335 313.066L352.273 309.628L347.556 295.51L352.017 296.152C353.112 296.079 354.191 296.452 355.029 297.193C355.867 297.933 356.399 298.983 356.513 300.124L357.015 298.24C357.015 298.24 357.716 294.915 353.841 294.597C353.841 294.597 347.822 295.297 345.325 290.184L351.3 309.926L351.296 310.061L348.295 311.052C347.984 311.098 347.678 311.174 347.38 311.279C345.168 312.07 344.58 314.831 345.115 316.467C345.651 318.102 347.878 318.787 350.09 317.995C352.272 317.214 353.804 314.705 353.332 313.067Z" fill="#3F3D56"/>
<path d="M397.927 340.354L394.925 341.344C394.614 341.39 394.308 341.466 394.011 341.571C391.799 342.363 391.21 345.124 391.746 346.759C392.281 348.395 394.508 349.079 396.721 348.287C398.902 347.507 400.435 344.997 399.962 343.359H399.965L398.904 339.92L395.042 328.364L411.062 322.632L410.74 321.649L394.715 327.383L394.237 325.954L410.325 320.197L410.379 320.376L414.581 334.26L414.578 334.395L411.576 335.386C411.265 335.432 410.959 335.508 410.662 335.613C408.449 336.404 407.861 339.165 408.397 340.801C408.932 342.436 411.159 343.121 413.371 342.329C415.553 341.548 417.086 339.039 416.613 337.401L416.616 337.4L415.555 333.962L411.279 319.856L411.14 319.398L409.558 314.177L391.956 320.476L397.931 340.219L397.927 340.354Z" fill="#3F3D56"/>
<path d="M427.752 234.247L427.757 234.246L425.93 228.327L417.809 204.023L425.49 205.129C425.49 205.129 432.057 204.562 433.229 211.967L434.093 208.724C434.093 208.724 435.3 202.999 428.629 202.453C428.629 202.453 418.267 203.658 413.969 194.856L424.255 228.841L424.248 229.073L419.081 230.778C418.546 230.858 418.019 230.989 417.507 231.169C413.699 232.532 412.686 237.285 413.608 240.1C414.529 242.916 418.364 244.094 422.172 242.731C425.928 241.387 428.565 237.067 427.752 234.247Z" fill="#3F3D56"/>
<path d="M380.189 226.848C380.817 240.559 367.531 246.581 367.531 246.581C359.851 252.053 365.084 258.082 365.084 258.082L367.122 260.187C367.311 261.67 367.856 263.078 368.706 264.282L371.592 267.627C368.311 257.818 375.564 253.972 375.564 253.972L382.817 247.46L387.813 275.561L380.461 276.85C379.71 276.852 378.961 276.925 378.224 277.07C372.734 278.174 370.463 284.507 371.21 288.565C371.957 292.624 377.013 295.019 382.502 293.914C387.917 292.825 392.343 287.416 391.746 283.374L391.753 283.373L390.334 274.864L390.152 274.915L380.189 226.848ZM373.082 247.543L380.31 241.717C377.523 249.508 370.63 252.886 370.63 252.886C369.188 253.93 368.078 255.403 367.444 257.113C367.264 250.416 373.082 247.543 373.082 247.543Z" fill="#3F3D56"/>
<g filter="url(#filter0_ddd_1_2)">
<path d="M162.119 221.816V224.888H163.919C164.335 224.888 164.615 224.784 164.759 224.576C164.903 224.352 164.975 224.08 164.975 223.76V222.944C164.975 222.624 164.903 222.36 164.759 222.152C164.615 221.928 164.335 221.816 163.919 221.816H162.119ZM161.255 234.776H157.559C157.255 234.776 157.031 234.712 156.887 234.584C156.759 234.44 156.695 234.216 156.695 233.912V218.36C156.695 218.056 156.759 217.84 156.887 217.712C157.031 217.568 157.255 217.496 157.559 217.496H165.551C167.343 217.496 168.575 217.872 169.247 218.624C169.935 219.36 170.279 220.32 170.279 221.504V222.608C170.279 223.28 170.175 223.856 169.967 224.336C169.775 224.8 169.431 225.136 168.935 225.344C169.799 225.44 170.495 225.792 171.023 226.4C171.567 227.008 171.839 227.816 171.839 228.824V233.912C171.839 234.216 171.767 234.44 171.623 234.584C171.495 234.712 171.279 234.776 170.975 234.776H167.255C166.951 234.776 166.727 234.712 166.583 234.584C166.455 234.44 166.391 234.216 166.391 233.912V230.24C166.391 229.888 166.319 229.632 166.175 229.472C166.047 229.296 165.815 229.208 165.479 229.208H162.119V233.912C162.119 234.216 162.047 234.44 161.903 234.584C161.775 234.712 161.559 234.776 161.255 234.776ZM186.531 234.776H175.395C175.091 234.776 174.867 234.712 174.723 234.584C174.595 234.44 174.531 234.216 174.531 233.912V218.36C174.531 218.056 174.595 217.84 174.723 217.712C174.867 217.568 175.091 217.496 175.395 217.496H186.531C186.835 217.496 187.051 217.568 187.179 217.712C187.323 217.84 187.395 218.056 187.395 218.36V221.168C187.395 221.472 187.323 221.696 187.179 221.84C187.051 221.968 186.835 222.032 186.531 222.032H179.907V223.88H184.587C184.891 223.88 185.107 223.952 185.235 224.096C185.379 224.224 185.451 224.44 185.451 224.744V227.312C185.451 227.616 185.379 227.84 185.235 227.984C185.107 228.112 184.891 228.176 184.587 228.176H179.907V230.24H186.531C186.835 230.24 187.051 230.312 187.179 230.456C187.323 230.584 187.395 230.8 187.395 231.104V233.912C187.395 234.216 187.323 234.44 187.179 234.584C187.051 234.712 186.835 234.776 186.531 234.776ZM202.234 234.776H191.098C190.794 234.776 190.57 234.712 190.426 234.584C190.298 234.44 190.234 234.216 190.234 233.912V218.36C190.234 218.056 190.298 217.84 190.426 217.712C190.57 217.568 190.794 217.496 191.098 217.496H202.234C202.538 217.496 202.754 217.568 202.882 217.712C203.026 217.84 203.098 218.056 203.098 218.36V221.168C203.098 221.472 203.026 221.696 202.882 221.84C202.754 221.968 202.538 222.032 202.234 222.032H195.61V223.88H200.29C200.594 223.88 200.81 223.952 200.938 224.096C201.082 224.224 201.154 224.44 201.154 224.744V227.312C201.154 227.616 201.082 227.84 200.938 227.984C200.81 228.112 200.594 228.176 200.29 228.176H195.61V230.24H202.234C202.538 230.24 202.754 230.312 202.882 230.456C203.026 230.584 203.098 230.8 203.098 231.104V233.912C203.098 234.216 203.026 234.44 202.882 234.584C202.754 234.712 202.538 234.776 202.234 234.776ZM219.017 234.776H206.801C206.497 234.776 206.273 234.712 206.129 234.584C206.001 234.44 205.937 234.216 205.937 233.912V218.36C205.937 218.056 206.001 217.84 206.129 217.712C206.273 217.568 206.497 217.496 206.801 217.496H210.521C210.825 217.496 211.041 217.568 211.169 217.712C211.313 217.84 211.385 218.056 211.385 218.36V230.24H214.673V226.352C214.673 226.048 214.737 225.832 214.865 225.704C215.009 225.56 215.233 225.488 215.537 225.488H219.017C219.321 225.488 219.537 225.56 219.665 225.704C219.809 225.832 219.881 226.048 219.881 226.352V233.912C219.881 234.216 219.809 234.44 219.665 234.584C219.537 234.712 219.321 234.776 219.017 234.776ZM164.855 263.776H160.967C160.663 263.776 160.439 263.712 160.295 263.584C160.167 263.44 160.103 263.216 160.103 262.912V251.128H156.575C156.271 251.128 156.047 251.064 155.903 250.936C155.775 250.792 155.711 250.568 155.711 250.264V247.36C155.711 247.056 155.775 246.84 155.903 246.712C156.047 246.568 156.271 246.496 156.575 246.496H169.247C169.551 246.496 169.767 246.568 169.895 246.712C170.039 246.84 170.111 247.056 170.111 247.36V250.264C170.111 250.568 170.039 250.792 169.895 250.936C169.767 251.064 169.551 251.128 169.247 251.128H165.719V262.912C165.719 263.216 165.647 263.44 165.503 263.584C165.375 263.712 165.159 263.776 164.855 263.776ZM187.157 259.24C187.157 259.976 187.045 260.648 186.821 261.256C186.613 261.848 186.229 262.36 185.669 262.792C185.125 263.208 184.373 263.536 183.413 263.776C182.453 264.016 181.229 264.136 179.741 264.136C178.253 264.136 177.029 264.016 176.069 263.776C175.109 263.536 174.349 263.208 173.789 262.792C173.245 262.36 172.861 261.848 172.637 261.256C172.429 260.648 172.325 259.976 172.325 259.24V247.36C172.325 247.056 172.389 246.84 172.517 246.712C172.661 246.568 172.885 246.496 173.189 246.496H176.957C177.261 246.496 177.477 246.568 177.605 246.712C177.749 246.84 177.821 247.056 177.821 247.36V258.304C177.821 258.624 177.941 258.896 178.181 259.12C178.421 259.328 178.957 259.432 179.789 259.432C180.637 259.432 181.181 259.328 181.421 259.12C181.661 258.896 181.781 258.624 181.781 258.304V247.36C181.781 247.056 181.845 246.84 181.973 246.712C182.117 246.568 182.341 246.496 182.645 246.496H186.293C186.597 246.496 186.813 246.568 186.941 246.712C187.085 246.84 187.157 247.056 187.157 247.36V259.24ZM194.815 263.776H191.215C190.911 263.776 190.687 263.712 190.543 263.584C190.415 263.44 190.351 263.216 190.351 262.912V247.36C190.351 247.056 190.415 246.84 190.543 246.712C190.687 246.568 190.911 246.496 191.215 246.496H193.711C194.015 246.496 194.271 246.544 194.479 246.64C194.703 246.736 194.919 246.904 195.127 247.144L199.783 252.472V247.36C199.783 247.056 199.847 246.84 199.975 246.712C200.119 246.568 200.343 246.496 200.647 246.496H204.247C204.551 246.496 204.767 246.568 204.895 246.712C205.039 246.84 205.111 247.056 205.111 247.36V262.912C205.111 263.216 205.039 263.44 204.895 263.584C204.767 263.712 204.551 263.776 204.247 263.776H200.647C200.343 263.776 200.119 263.712 199.975 263.584C199.847 263.44 199.783 263.216 199.783 262.912V259.96L195.679 254.992V262.912C195.679 263.216 195.607 263.44 195.463 263.584C195.335 263.712 195.119 263.776 194.815 263.776ZM220.422 263.776H209.286C208.982 263.776 208.758 263.712 208.614 263.584C208.486 263.44 208.422 263.216 208.422 262.912V247.36C208.422 247.056 208.486 246.84 208.614 246.712C208.758 246.568 208.982 246.496 209.286 246.496H220.422C220.726 246.496 220.942 246.568 221.07 246.712C221.214 246.84 221.286 247.056 221.286 247.36V250.168C221.286 250.472 221.214 250.696 221.07 250.84C220.942 250.968 220.726 251.032 220.422 251.032H213.798V252.88H218.478C218.782 252.88 218.998 252.952 219.126 253.096C219.27 253.224 219.342 253.44 219.342 253.744V256.312C219.342 256.616 219.27 256.84 219.126 256.984C218.998 257.112 218.782 257.176 218.478 257.176H213.798V259.24H220.422C220.726 259.24 220.942 259.312 221.07 259.456C221.214 259.584 221.286 259.8 221.286 260.104V262.912C221.286 263.216 221.214 263.44 221.07 263.584C220.942 263.712 220.726 263.776 220.422 263.776ZM232.141 263.776H224.557C224.253 263.776 224.029 263.712 223.885 263.584C223.757 263.44 223.693 263.216 223.693 262.912V260.104C223.693 259.8 223.757 259.584 223.885 259.456C224.029 259.312 224.253 259.24 224.557 259.24H231.013C231.221 259.24 231.373 259.176 231.469 259.048C231.581 258.904 231.637 258.736 231.637 258.544C231.637 258.272 231.581 258.072 231.469 257.944C231.373 257.816 231.221 257.744 231.013 257.728L227.413 257.224C226.293 257.064 225.389 256.696 224.701 256.12C224.029 255.544 223.693 254.584 223.693 253.24V250.72C223.693 249.36 224.133 248.32 225.013 247.6C225.893 246.864 227.109 246.496 228.661 246.496H235.381C235.685 246.496 235.901 246.568 236.029 246.712C236.173 246.84 236.245 247.056 236.245 247.36V250.216C236.245 250.52 236.173 250.744 236.029 250.888C235.901 251.016 235.685 251.08 235.381 251.08H229.789C229.581 251.08 229.421 251.152 229.309 251.296C229.197 251.424 229.141 251.592 229.141 251.8C229.141 252.008 229.197 252.184 229.309 252.328C229.421 252.472 229.581 252.552 229.789 252.568L233.365 253.048C234.485 253.208 235.389 253.576 236.077 254.152C236.765 254.728 237.109 255.688 237.109 257.032V259.552C237.109 260.912 236.661 261.96 235.765 262.696C234.885 263.416 233.677 263.776 232.141 263.776Z" fill="#2F2E41"/>
</g>
<path d="M125.138 257.755H57.0437C55.6236 257.754 54.262 257.163 53.2578 256.113C52.2536 255.063 51.6887 253.64 51.6871 252.155V216.718C51.6887 215.233 52.2535 213.81 53.2578 212.76C54.262 211.71 55.6236 211.119 57.0437 211.117H125.138C126.558 211.119 127.92 211.71 128.924 212.76C129.928 213.81 130.493 215.233 130.495 216.718V252.155C130.493 253.64 129.928 255.063 128.924 256.113C127.92 257.163 126.558 257.754 125.138 257.755Z" fill="white"/>
<path d="M125.138 258.414H57.0437C55.4565 258.413 53.9348 257.753 52.8124 256.579C51.69 255.405 51.0587 253.814 51.0569 252.155V216.718C51.0587 215.059 51.69 213.468 52.8124 212.294C53.9348 211.121 55.4565 210.461 57.0437 210.459H125.138C126.725 210.461 128.247 211.121 129.369 212.294C130.492 213.468 131.123 215.059 131.125 216.718V252.155C131.123 253.814 130.492 255.405 129.369 256.579C128.247 257.753 126.725 258.413 125.138 258.414ZM57.0437 211.776C55.7906 211.778 54.5892 212.299 53.7031 213.225C52.8171 214.152 52.3186 215.408 52.3173 216.718V252.155C52.3186 253.465 52.8171 254.721 53.7031 255.648C54.5892 256.574 55.7906 257.095 57.0437 257.097H125.138C126.391 257.095 127.592 256.574 128.478 255.648C129.365 254.721 129.863 253.465 129.864 252.155V216.718C129.863 215.408 129.365 214.152 128.478 213.225C127.592 212.299 126.391 211.778 125.138 211.776H57.0437Z" fill="#CCCCCC"/>
<path d="M113.951 275.19H68.0797C66.731 275.189 65.438 274.628 64.4848 273.63C63.5316 272.632 62.9961 271.279 62.9961 269.869C62.9961 268.459 63.5316 267.106 64.4848 266.109C65.438 265.111 66.731 264.55 68.0797 264.548H113.951C115.301 264.548 116.595 265.109 117.549 266.107C118.504 267.104 119.04 268.458 119.04 269.869C119.04 271.281 118.504 272.634 117.549 273.632C116.595 274.63 115.301 275.19 113.951 275.19Z" fill="#E6E6E6"/>
<path d="M83.6029 248.131C83.2164 248.13 82.8364 248.026 82.4984 247.83C82.1368 247.626 81.8352 247.323 81.626 246.953C81.4169 246.584 81.3081 246.161 81.3113 245.732V225.955C81.3113 225.526 81.4214 225.105 81.6302 224.736C81.839 224.367 82.1388 224.064 82.4983 223.857C82.8577 223.651 83.2636 223.549 83.6735 223.562C84.0834 223.576 84.4823 223.704 84.8285 223.934L102.771 233.823C103.096 234.039 103.364 234.337 103.55 234.691C103.735 235.044 103.833 235.44 103.833 235.843C103.833 236.246 103.735 236.643 103.55 236.996C103.364 237.35 103.096 237.648 102.771 237.864L84.8285 247.752C84.4629 247.998 84.0376 248.129 83.6029 248.131Z" fill="#03001C"/>
<path d="M130.651 264.111C134.957 264.111 138.448 260.461 138.448 255.959C138.448 251.456 134.957 247.806 130.651 247.806C126.345 247.806 122.854 251.456 122.854 255.959C122.854 260.461 126.345 264.111 130.651 264.111Z" fill="#3F3D56"/>
<path d="M130.067 259.217C130.05 259.217 130.034 259.216 130.017 259.215C129.87 259.208 129.727 259.167 129.596 259.097C129.466 259.026 129.352 258.926 129.261 258.805L127.958 257.053C127.876 256.943 127.815 256.816 127.78 256.681C127.744 256.546 127.735 256.405 127.751 256.266C127.768 256.127 127.81 255.993 127.877 255.871C127.943 255.749 128.031 255.642 128.137 255.556L128.184 255.518C128.29 255.432 128.411 255.369 128.54 255.331C128.669 255.294 128.804 255.284 128.937 255.301C129.07 255.319 129.198 255.363 129.315 255.433C129.431 255.502 129.534 255.595 129.616 255.705C129.682 255.794 129.765 255.866 129.86 255.918C129.955 255.969 130.06 255.999 130.167 256.004C130.274 256.01 130.381 255.991 130.48 255.949C130.579 255.908 130.669 255.844 130.743 255.763L133.388 252.842C133.575 252.637 133.831 252.518 134.101 252.51C134.372 252.502 134.634 252.607 134.831 252.801L134.874 252.845C134.971 252.941 135.05 253.056 135.104 253.184C135.159 253.312 135.189 253.45 135.192 253.59C135.196 253.73 135.173 253.87 135.125 254C135.077 254.131 135.005 254.251 134.913 254.353L130.807 258.884C130.712 258.989 130.597 259.073 130.47 259.13C130.343 259.187 130.206 259.217 130.067 259.217Z" fill="white"/>
</g>
<defs>
<filter id="filter0_ddd_1_2" x="151.711" y="217.496" width="89.398" height="54.64" filterUnits="userSpaceOnUse" color-interpolation-filters="sRGB">
<feFlood flood-opacity="0" result="BackgroundImageFix"/>
<feColorMatrix in="SourceAlpha" type="matrix" values="0 0 0 0 0 0 0 0 0 0 0 0 0 0 0 0 0 0 127 0" result="hardAlpha"/>
<feOffset dy="4"/>
<feGaussianBlur stdDeviation="2"/>
<feComposite in2="hardAlpha" operator="out"/>
<feColorMatrix type="matrix" values="0 0 0 0 0 0 0 0 0 0 0 0 0 0 0 0 0 0 0.25 0"/>
<feBlend mode="normal" in2="BackgroundImageFix" result="effect1_dropShadow_1_2"/>
<feColorMatrix in="SourceAlpha" type="matrix" values="0 0 0 0 0 0 0 0 0 0 0 0 0 0 0 0 0 0 127 0" result="hardAlpha"/>
<feOffset dy="4"/>
<feGaussianBlur stdDeviation="2"/>
<feComposite in2="hardAlpha" operator="out"/>
<feColorMatrix type="matrix" values="0 0 0 0 0 0 0 0 0 0 0 0 0 0 0 0 0 0 0.25 0"/>
<feBlend mode="normal" in2="effect1_dropShadow_1_2" result="effect2_dropShadow_1_2"/>
<feColorMatrix in="SourceAlpha" type="matrix" values="0 0 0 0 0 0 0 0 0 0 0 0 0 0 0 0 0 0 127 0" result="hardAlpha"/>
<feOffset dy="4"/>
<feGaussianBlur stdDeviation="2"/>
<feComposite in2="hardAlpha" operator="out"/>
<feColorMatrix type="matrix" values="0 0 0 0 0 0 0 0 0 0 0 0 0 0 0 0 0 0 0.25 0"/>
<feBlend mode="normal" in2="effect2_dropShadow_1_2" result="effect3_dropShadow_1_2"/>
<feBlend mode="normal" in="SourceGraphic" in2="effect3_dropShadow_1_2" result="shape"/>
</filter>
<clipPath id="clip0_1_2">
<rect width="700" height="700" fill="white"/>
</clipPath>
</defs>
</svg>
