<svg width="700" height="700" viewBox="0 0 700 700" fill="none" xmlns="http://www.w3.org/2000/svg">
<g clip-path="url(#clip0_1_71)">
<path d="M700 0H0V700H700V0Z" fill="white"/>
<path d="M396.5 217C407.27 217 416 208.27 416 197.5C416 186.73 407.27 178 396.5 178C385.73 178 377 186.73 377 197.5C377 208.27 385.73 217 396.5 217Z" fill="#F2F2F2"/>
<path d="M548.289 502.488C577.267 480.717 591.108 444.132 582.443 409.233C582.227 408.366 582 407.501 581.761 406.638C576.016 385.922 561.805 366.233 541.091 359.614C523.699 354.056 504.715 358.33 486.571 356.12C450.953 351.781 423.339 323.354 403.909 293.591C384.479 263.828 369.547 230.512 343.728 205.923C301.171 165.393 231.75 156.667 178.986 183.049C126.221 209.431 92.6107 267.963 94.0441 326.296C95.4776 384.63 130.586 440.402 181.572 469.992C200.302 480.862 221.965 488.563 243.524 485.868C262.231 483.53 279.228 473.615 297.847 470.672C327.119 466.044 356.206 479.099 381.525 494.312C406.843 509.525 431.299 527.557 460.071 534.61C488.008 541.458 522.619 521.774 548.289 502.488Z" fill="#F2F2F2"/>
<path d="M506.167 183.989C505.532 183.569 504.889 183.172 504.254 182.767C485.891 171.14 466.21 161.695 445.616 154.626L440.841 219.843H410.569V145.106C408.663 144.716 406.743 144.347 404.823 144V219.843H368.849C349.045 219.843 330.052 212.054 316.048 198.19C302.044 184.326 294.177 165.522 294.177 145.916C292.25 146.328 290.337 146.769 288.424 147.238V219.843H259.123L254.574 157.655C233.411 165.69 213.319 176.258 194.746 189.121C194.425 189.338 194.104 189.562 193.79 189.779C192.176 190.899 190.584 192.041 189 193.198V442H275.354L273.828 421.073L265.431 306.174H434.525L426.128 421.073L424.603 442H510V186.504C508.73 185.651 507.452 184.813 506.167 183.989ZM288.424 287.199H264.044L259.539 225.539H288.424V287.199ZM404.823 287.199H363.877V285.977C363.877 285.39 363.76 284.809 363.532 284.266C363.305 283.724 362.972 283.231 362.552 282.816C362.133 282.401 361.634 282.072 361.086 281.848C360.538 281.624 359.95 281.509 359.357 281.51H341.556C340.963 281.51 340.377 281.625 339.829 281.85C339.281 282.074 338.784 282.403 338.365 282.818C337.946 283.233 337.613 283.725 337.387 284.268C337.16 284.81 337.044 285.391 337.044 285.977V287.199H294.177V225.539H404.823V287.199ZM410.569 287.199V225.539H440.425L435.92 287.199H410.569Z" fill="#3F3D56"/>
<path d="M62 457C68.3486 464.561 75.2152 471.667 82.5498 478.265L616.45 479C623.785 472.402 630.651 465.296 637 457.735L62 457Z" fill="#3F3D56"/>
<path d="M424 390.935V452.062C424.001 452.841 424.319 453.588 424.884 454.139C425.449 454.69 426.216 454.999 427.015 455H519.985C520.784 454.999 521.551 454.69 522.116 454.139C522.681 453.588 522.999 452.841 523 452.062V390.935C522.998 390.156 522.68 389.41 522.115 388.86C521.549 388.31 520.784 388.001 519.985 388H427.015C426.216 388.001 425.451 388.31 424.885 388.86C424.32 389.41 424.002 390.156 424 390.935Z" fill="#3F3D56"/>
<path d="M426 391.58V451.424C426.001 451.842 426.171 452.242 426.475 452.538C426.778 452.833 427.189 452.999 427.618 453H519.382C519.811 452.999 520.222 452.833 520.525 452.538C520.829 452.242 520.999 451.842 521 451.424V391.58C521 391.161 520.83 390.76 520.526 390.464C520.223 390.168 519.812 390.001 519.382 390H427.618C427.188 390.001 426.777 390.168 426.474 390.464C426.17 390.76 426 391.161 426 391.58Z" fill="#03001C"/>
<path d="M422.411 464.319C422.581 464.533 422.797 464.705 423.043 464.823C423.289 464.941 423.558 465.001 423.831 465H523.174C523.446 465 523.714 464.939 523.959 464.821C524.205 464.704 524.421 464.534 524.592 464.322C524.763 464.111 524.885 463.864 524.949 463.599C525.013 463.335 525.017 463.059 524.961 462.793L523.419 455.453C523.355 455.154 523.217 454.875 523.019 454.643C522.82 454.411 522.566 454.232 522.281 454.123C522.074 454.041 521.854 454 521.632 454H425.367C425.145 454 424.925 454.041 424.718 454.123C424.433 454.232 424.179 454.411 423.98 454.643C423.781 454.875 423.644 455.154 423.58 455.453L422.038 462.793C421.983 463.059 421.988 463.334 422.052 463.598C422.117 463.862 422.24 464.109 422.411 464.319Z" fill="#2F2E41"/>
<path d="M518.35 457H520.65C520.843 457 521 456.913 521 456.806V456.194C521 456.087 520.843 456 520.65 456H518.35C518.157 456 518 456.087 518 456.194V456.806C518 456.913 518.157 457 518.35 457Z" fill="#3F3D56"/>
<path d="M511.466 457H514.534C514.791 457 515 456.913 515 456.806V456.194C515 456.087 514.791 456 514.534 456H511.466C511.209 456 511 456.087 511 456.194V456.806C511 456.913 511.209 457 511.466 457Z" fill="#3F3D56"/>
<path d="M505.35 457H507.65C507.843 457 508 456.913 508 456.806V456.194C508 456.087 507.843 456 507.65 456H505.35C505.157 456 505 456.087 505 456.194V456.806C505 456.913 505.157 457 505.35 457Z" fill="#3F3D56"/>
<path d="M499.35 457H501.65C501.843 457 502 456.913 502 456.806V456.194C502 456.087 501.843 456 501.65 456H499.35C499.157 456 499 456.087 499 456.194V456.806C499 456.913 499.157 457 499.35 457Z" fill="#3F3D56"/>
<path d="M493.35 457H495.65C495.843 457 496 456.913 496 456.806V456.194C496 456.087 495.843 456 495.65 456H493.35C493.157 456 493 456.087 493 456.194V456.806C493 456.913 493.157 457 493.35 457Z" fill="#3F3D56"/>
<path d="M487.35 457H489.65C489.843 457 490 456.913 490 456.806V456.194C490 456.087 489.843 456 489.65 456H487.35C487.157 456 487 456.087 487 456.194V456.806C487 456.913 487.157 457 487.35 457Z" fill="#3F3D56"/>
<path d="M481.35 457H483.65C483.843 457 484 456.913 484 456.806V456.194C484 456.087 483.843 456 483.65 456H481.35C481.157 456 481 456.087 481 456.194V456.806C481 456.913 481.157 457 481.35 457Z" fill="#3F3D56"/>
<path d="M475.35 457H477.65C477.843 457 478 456.913 478 456.806V456.194C478 456.087 477.843 456 477.65 456H475.35C475.157 456 475 456.087 475 456.194V456.806C475 456.913 475.157 457 475.35 457Z" fill="#3F3D56"/>
<path d="M469.35 457H471.65C471.843 457 472 456.913 472 456.806V456.194C472 456.087 471.843 456 471.65 456H469.35C469.157 456 469 456.087 469 456.194V456.806C469 456.913 469.157 457 469.35 457Z" fill="#3F3D56"/>
<path d="M463.35 457H465.65C465.843 457 466 456.913 466 456.806V456.194C466 456.087 465.843 456 465.65 456H463.35C463.157 456 463 456.087 463 456.194V456.806C463 456.913 463.157 457 463.35 457Z" fill="#3F3D56"/>
<path d="M456.35 457H458.65C458.843 457 459 456.913 459 456.806V456.194C459 456.087 458.843 456 458.65 456H456.35C456.157 456 456 456.087 456 456.194V456.806C456 456.913 456.157 457 456.35 457Z" fill="#3F3D56"/>
<path d="M450.35 457H452.65C452.843 457 453 456.913 453 456.806V456.194C453 456.087 452.843 456 452.65 456H450.35C450.157 456 450 456.087 450 456.194V456.806C450 456.913 450.157 457 450.35 457Z" fill="#3F3D56"/>
<path d="M444.35 457H446.65C446.843 457 447 456.913 447 456.806V456.194C447 456.087 446.843 456 446.65 456H444.35C444.157 456 444 456.087 444 456.194V456.806C444 456.913 444.157 457 444.35 457Z" fill="#3F3D56"/>
<path d="M438.35 457H440.65C440.843 457 441 456.913 441 456.806V456.194C441 456.087 440.843 456 440.65 456H438.35C438.157 456 438 456.087 438 456.194V456.806C438 456.913 438.157 457 438.35 457Z" fill="#3F3D56"/>
<path d="M432.35 457H434.65C434.843 457 435 456.913 435 456.806V456.194C435 456.087 434.843 456 434.65 456H432.35C432.157 456 432 456.087 432 456.194V456.806C432 456.913 432.157 457 432.35 457Z" fill="#3F3D56"/>
<path d="M426.35 457H428.65C428.843 457 429 456.913 429 456.806V456.194C429 456.087 428.843 456 428.65 456H426.35C426.157 456 426 456.087 426 456.194V456.806C426 456.913 426.157 457 426.35 457Z" fill="#3F3D56"/>
<path d="M518.35 460H520.65C520.843 460 521 459.913 521 459.806V459.194C521 459.087 520.843 459 520.65 459H518.35C518.157 459 518 459.087 518 459.194V459.806C518 459.913 518.157 460 518.35 460Z" fill="#3F3D56"/>
<path d="M512.35 460H514.65C514.843 460 515 459.913 515 459.806V459.194C515 459.087 514.843 459 514.65 459H512.35C512.157 459 512 459.087 512 459.194V459.806C512 459.913 512.157 460 512.35 460Z" fill="#3F3D56"/>
<path d="M505.35 460H507.65C507.843 460 508 459.913 508 459.806V459.194C508 459.087 507.843 459 507.65 459H505.35C505.157 459 505 459.087 505 459.194V459.806C505 459.913 505.157 460 505.35 460Z" fill="#3F3D56"/>
<path d="M499.35 460H501.65C501.843 460 502 459.913 502 459.806V459.194C502 459.087 501.843 459 501.65 459H499.35C499.157 459 499 459.087 499 459.194V459.806C499 459.913 499.157 460 499.35 460Z" fill="#3F3D56"/>
<path d="M493.35 460H495.65C495.843 460 496 459.913 496 459.806V459.194C496 459.087 495.843 459 495.65 459H493.35C493.157 459 493 459.087 493 459.194V459.806C493 459.913 493.157 460 493.35 460Z" fill="#3F3D56"/>
<path d="M487.35 460H489.65C489.843 460 490 459.913 490 459.806V459.194C490 459.087 489.843 459 489.65 459H487.35C487.157 459 487 459.087 487 459.194V459.806C487 459.913 487.157 460 487.35 460Z" fill="#3F3D56"/>
<path d="M481.35 460H483.65C483.843 460 484 459.913 484 459.806V459.194C484 459.087 483.843 459 483.65 459H481.35C481.157 459 481 459.087 481 459.194V459.806C481 459.913 481.157 460 481.35 460Z" fill="#3F3D56"/>
<path d="M475.35 460H477.65C477.843 460 478 459.913 478 459.806V459.194C478 459.087 477.843 459 477.65 459H475.35C475.157 459 475 459.087 475 459.194V459.806C475 459.913 475.157 460 475.35 460Z" fill="#3F3D56"/>
<path d="M469.35 460H471.65C471.843 460 472 459.913 472 459.806V459.194C472 459.087 471.843 459 471.65 459H469.35C469.157 459 469 459.087 469 459.194V459.806C469 459.913 469.157 460 469.35 460Z" fill="#3F3D56"/>
<path d="M463.35 460H465.65C465.843 460 466 459.913 466 459.806V459.194C466 459.087 465.843 459 465.65 459H463.35C463.157 459 463 459.087 463 459.194V459.806C463 459.913 463.157 460 463.35 460Z" fill="#3F3D56"/>
<path d="M456.466 460H459.534C459.791 460 460 459.913 460 459.806V459.194C460 459.087 459.791 459 459.534 459H456.466C456.209 459 456 459.087 456 459.194V459.806C456 459.913 456.209 460 456.466 460Z" fill="#3F3D56"/>
<path d="M450.35 460H452.65C452.843 460 453 459.913 453 459.806V459.194C453 459.087 452.843 459 452.65 459H450.35C450.157 459 450 459.087 450 459.194V459.806C450 459.913 450.157 460 450.35 460Z" fill="#3F3D56"/>
<path d="M444.35 460H446.65C446.843 460 447 459.913 447 459.806V459.194C447 459.087 446.843 459 446.65 459H444.35C444.157 459 444 459.087 444 459.194V459.806C444 459.913 444.157 460 444.35 460Z" fill="#3F3D56"/>
<path d="M438.35 460H440.65C440.843 460 441 459.913 441 459.806V459.194C441 459.087 440.843 459 440.65 459H438.35C438.157 459 438 459.087 438 459.194V459.806C438 459.913 438.157 460 438.35 460Z" fill="#3F3D56"/>
<path d="M432.35 460H434.65C434.843 460 435 459.913 435 459.806V459.194C435 459.087 434.843 459 434.65 459H432.35C432.157 459 432 459.087 432 459.194V459.806C432 459.913 432.157 460 432.35 460Z" fill="#3F3D56"/>
<path d="M426.35 460H428.65C428.843 460 429 459.913 429 459.806V459.194C429 459.087 428.843 459 428.65 459H426.35C426.157 459 426 459.087 426 459.194V459.806C426 459.913 426.157 460 426.35 460Z" fill="#3F3D56"/>
<path d="M467.35 464H490.65C490.843 464 491 463.826 491 463.611V462.389C491 462.174 490.843 462 490.65 462H467.35C467.157 462 467 462.174 467 462.389V463.611C467 463.826 467.157 464 467.35 464Z" fill="#3F3D56"/>
<path d="M441.953 403H440.047C439.469 403 439 403.448 439 404C439 404.552 439.469 405 440.047 405H441.953C442.531 405 443 404.552 443 404C443 403.448 442.531 403 441.953 403Z" fill="white"/>
<path d="M465.953 403H464.047C463.469 403 463 403.448 463 404C463 404.552 463.469 405 464.047 405H465.953C466.531 405 467 404.552 467 404C467 403.448 466.531 403 465.953 403Z" fill="white"/>
<path d="M472.692 403H470.308C469.586 403 469 403.448 469 404C469 404.552 469.586 405 470.308 405H472.692C473.414 405 474 404.552 474 404C474 403.448 473.414 403 472.692 403Z" fill="white"/>
<path d="M458.874 403H446.126C445.504 403 445 403.448 445 404C445 404.552 445.504 405 446.126 405H458.874C459.496 405 460 404.552 460 404C460 403.448 459.496 403 458.874 403Z" fill="white"/>
<path d="M490.874 403H478.126C477.504 403 477 403.448 477 404C477 404.552 477.504 405 478.126 405H490.874C491.496 405 492 404.552 492 404C492 403.448 491.496 403 490.874 403Z" fill="white"/>
<path d="M448.692 408H446.308C445.586 408 445 408.448 445 409C445 409.552 445.586 410 446.308 410H448.692C449.414 410 450 409.552 450 409C450 408.448 449.414 408 448.692 408Z" fill="white"/>
<path d="M471.953 408H470.047C469.469 408 469 408.448 469 409C469 409.552 469.469 410 470.047 410H471.953C472.531 410 473 409.552 473 409C473 408.448 472.531 408 471.953 408Z" fill="white"/>
<path d="M478.953 408H477.047C476.469 408 476 408.448 476 409C476 409.552 476.469 410 477.047 410H478.953C479.531 410 480 409.552 480 409C480 408.448 479.531 408 478.953 408Z" fill="white"/>
<path d="M465.874 408H453.126C452.504 408 452 408.448 452 409C452 409.552 452.504 410 453.126 410H465.874C466.496 410 467 409.552 467 409C467 408.448 466.496 408 465.874 408Z" fill="white"/>
<path d="M497.799 408H484.201C483.538 408 483 408.448 483 409C483 409.552 483.538 410 484.201 410H497.799C498.462 410 499 409.552 499 409C499 408.448 498.462 408 497.799 408Z" fill="white"/>
<path d="M454.692 413H452.308C451.586 413 451 413.448 451 414C451 414.552 451.586 415 452.308 415H454.692C455.414 415 456 414.552 456 414C456 413.448 455.414 413 454.692 413Z" fill="white"/>
<path d="M478.692 413H476.308C475.586 413 475 413.448 475 414C475 414.552 475.586 415 476.308 415H478.692C479.414 415 480 414.552 480 414C480 413.448 479.414 413 478.692 413Z" fill="white"/>
<path d="M484.953 413H483.047C482.469 413 482 413.448 482 414C482 414.552 482.469 415 483.047 415H484.953C485.531 415 486 414.552 486 414C486 413.448 485.531 413 484.953 413Z" fill="white"/>
<path d="M471.874 413H459.126C458.504 413 458 413.448 458 414C458 414.552 458.504 415 459.126 415H471.874C472.496 415 473 414.552 473 414C473 413.448 472.496 413 471.874 413Z" fill="white"/>
<path d="M503.874 413H491.126C490.504 413 490 413.448 490 414C490 414.552 490.504 415 491.126 415H503.874C504.496 415 505 414.552 505 414C505 413.448 504.496 413 503.874 413Z" fill="white"/>
<path d="M460.953 418H459.047C458.469 418 458 418.448 458 419C458 419.552 458.469 420 459.047 420H460.953C461.531 420 462 419.552 462 419C462 418.448 461.531 418 460.953 418Z" fill="white"/>
<path d="M484.953 418H483.047C482.469 418 482 418.448 482 419C482 419.552 482.469 420 483.047 420H484.953C485.531 420 486 419.552 486 419C486 418.448 485.531 418 484.953 418Z" fill="white"/>
<path d="M491.692 418H489.308C488.586 418 488 418.448 488 419C488 419.552 488.586 420 489.308 420H491.692C492.414 420 493 419.552 493 419C493 418.448 492.414 418 491.692 418Z" fill="white"/>
<path d="M477.874 418H465.126C464.504 418 464 418.448 464 419C464 419.552 464.504 420 465.126 420H477.874C478.496 420 479 419.552 479 419C479 418.448 478.496 418 477.874 418Z" fill="white"/>
<path d="M465.953 438H464.047C463.469 438 463 438.672 463 439.5C463 440.328 463.469 441 464.047 441H465.953C466.531 441 467 440.328 467 439.5C467 438.672 466.531 438 465.953 438Z" fill="white"/>
<path d="M472.692 438H470.308C469.586 438 469 438.672 469 439.5C469 440.328 469.586 441 470.308 441H472.692C473.414 441 474 440.328 474 439.5C474 438.672 473.414 438 472.692 438Z" fill="white"/>
<path d="M490.874 439H478.126C477.504 439 477 439.448 477 440C477 440.552 477.504 441 478.126 441H490.874C491.496 441 492 440.552 492 440C492 439.448 491.496 439 490.874 439Z" fill="white"/>
<path d="M441.953 438H440.047C439.469 438 439 438.672 439 439.5C439 440.328 439.469 441 440.047 441H441.953C442.531 441 443 440.328 443 439.5C443 438.672 442.531 438 441.953 438Z" fill="white"/>
<path d="M458.874 439H446.126C445.504 439 445 439.448 445 440C445 440.552 445.504 441 446.126 441H458.874C459.496 441 460 440.552 460 440C460 439.448 459.496 439 458.874 439Z" fill="white"/>
<path d="M448.692 433H446.308C445.586 433 445 433.672 445 434.5C445 435.328 445.586 436 446.308 436H448.692C449.414 436 450 435.328 450 434.5C450 433.672 449.414 433 448.692 433Z" fill="white"/>
<path d="M471.953 433H470.047C469.469 433 469 433.672 469 434.5C469 435.328 469.469 436 470.047 436H471.953C472.531 436 473 435.328 473 434.5C473 433.672 472.531 433 471.953 433Z" fill="white"/>
<path d="M478.953 433H477.047C476.469 433 476 433.672 476 434.5C476 435.328 476.469 436 477.047 436H478.953C479.531 436 480 435.328 480 434.5C480 433.672 479.531 433 478.953 433Z" fill="white"/>
<path d="M465.874 433H453.126C452.504 433 452 433.672 452 434.5C452 435.328 452.504 436 453.126 436H465.874C466.496 436 467 435.328 467 434.5C467 433.672 466.496 433 465.874 433Z" fill="white"/>
<path d="M454.692 428H452.308C451.586 428 451 428.448 451 429C451 429.552 451.586 430 452.308 430H454.692C455.414 430 456 429.552 456 429C456 428.448 455.414 428 454.692 428Z" fill="white"/>
<path d="M478.692 428H476.308C475.586 428 475 428.448 475 429C475 429.552 475.586 430 476.308 430H478.692C479.414 430 480 429.552 480 429C480 428.448 479.414 428 478.692 428Z" fill="white"/>
<path d="M484.953 428H483.047C482.469 428 482 428.448 482 429C482 429.552 482.469 430 483.047 430H484.953C485.531 430 486 429.552 486 429C486 428.448 485.531 428 484.953 428Z" fill="white"/>
<path d="M471.874 428H459.126C458.504 428 458 428.672 458 429.5C458 430.328 458.504 431 459.126 431H471.874C472.496 431 473 430.328 473 429.5C473 428.672 472.496 428 471.874 428Z" fill="white"/>
<path d="M460.953 423H459.047C458.469 423 458 423.448 458 424C458 424.552 458.469 425 459.047 425H460.953C461.531 425 462 424.552 462 424C462 423.448 461.531 423 460.953 423Z" fill="white"/>
<path d="M484.953 423H483.047C482.469 423 482 423.448 482 424C482 424.552 482.469 425 483.047 425H484.953C485.531 425 486 424.552 486 424C486 423.448 485.531 423 484.953 423Z" fill="white"/>
<path d="M491.692 423H489.308C488.586 423 488 423.448 488 424C488 424.552 488.586 425 489.308 425H491.692C492.414 425 493 424.552 493 424C493 423.448 492.414 423 491.692 423Z" fill="white"/>
<path d="M477.874 423H465.126C464.504 423 464 423.672 464 424.5C464 425.328 464.504 426 465.126 426H477.874C478.496 426 479 425.328 479 424.5C479 423.672 478.496 423 477.874 423Z" fill="white"/>
<path d="M430.805 498L421 482.699L451.776 458.478L464.479 444.584C466.13 442.779 468.231 441.434 470.573 440.681C472.916 439.929 475.417 439.797 477.827 440.298C480.237 440.799 482.472 441.916 484.308 443.537C486.144 445.158 487.517 447.227 488.29 449.535C489.435 452.957 489.188 456.684 487.603 459.93C486.017 463.175 483.217 465.686 479.792 466.932L459.704 474.237L430.805 498Z" fill="#FFB6B6"/>
<path d="M202 387.513V462H255V387.513C255.001 386.977 254.827 386.455 254.505 386.024C254.182 385.593 253.727 385.275 253.208 385.116C252.962 385.037 252.706 384.997 252.448 385H204.56C204.224 384.999 203.891 385.064 203.581 385.19C203.271 385.316 202.989 385.501 202.751 385.734C202.513 385.968 202.324 386.245 202.196 386.55C202.067 386.855 202 387.183 202 387.513ZM222.684 413.107C222.697 411.639 223.3 410.235 224.359 409.201C225.419 408.168 226.85 407.588 228.341 407.588C229.833 407.588 231.264 408.168 232.324 409.201C233.383 410.235 233.985 411.639 233.999 413.107V421.75C233.992 423.222 233.392 424.632 232.332 425.67C231.272 426.709 229.837 427.292 228.341 427.292C226.846 427.292 225.411 426.709 224.351 425.67C223.291 424.632 222.691 423.222 222.684 421.75V413.107Z" fill="#2F2E41"/>
<path d="M202 459V466.524C202.001 466.914 202.15 467.287 202.415 467.564C202.68 467.84 203.039 467.997 203.415 468H253.585C253.961 467.998 254.321 467.842 254.586 467.565C254.851 467.289 255 466.914 255 466.524V459H202Z" fill="#3F3D56"/>
<path d="M119 276.482V411.51C119.001 413.231 119.695 414.881 120.928 416.098C122.162 417.314 123.834 417.999 125.579 418H328.421C330.166 417.999 331.838 417.314 333.072 416.098C334.305 414.881 334.999 413.231 335 411.51V276.482C334.996 274.763 334.301 273.116 333.068 271.901C331.835 270.686 330.164 270.002 328.421 270H125.579C123.836 270.002 122.165 270.686 120.932 271.901C119.699 273.116 119.004 274.763 119 276.482Z" fill="#3F3D56"/>
<path d="M124 277.485V409.522C124.002 410.444 124.373 411.328 125.034 411.98C125.695 412.631 126.59 412.998 127.525 413H327.475C328.41 412.998 329.305 412.631 329.966 411.98C330.627 411.328 330.998 410.444 331 409.522V277.485C331 276.562 330.629 275.677 329.968 275.023C329.307 274.37 328.411 274.002 327.475 274H127.525C126.589 274.002 125.693 274.37 125.032 275.023C124.371 275.677 124 276.562 124 277.485Z" fill="white"/>
<path d="M161.491 467.196C161.694 467.448 161.952 467.651 162.245 467.791C162.539 467.93 162.861 468.002 163.186 468H281.82C282.144 468 282.464 467.927 282.757 467.789C283.05 467.65 283.308 467.449 283.512 467.199C283.717 466.949 283.862 466.657 283.939 466.345C284.015 466.032 284.02 465.706 283.954 465.391L282.112 456.717C282.036 456.364 281.871 456.034 281.634 455.76C281.397 455.485 281.094 455.274 280.753 455.145C280.506 455.049 280.243 455 279.978 455H165.02C164.755 455 164.493 455.049 164.246 455.145C163.905 455.274 163.602 455.485 163.365 455.76C163.127 456.034 162.963 456.364 162.887 456.717L161.045 465.391C160.98 465.706 160.986 466.031 161.063 466.343C161.14 466.655 161.286 466.947 161.491 467.196Z" fill="#2F2E41"/>
<path d="M320.274 292H133.726C133.532 291.997 133.347 291.943 133.212 291.85C133.076 291.756 133 291.631 133 291.5C133 291.369 133.076 291.244 133.212 291.15C133.347 291.057 133.532 291.003 133.726 291H320.274C320.468 291.003 320.653 291.057 320.788 291.15C320.924 291.244 321 291.369 321 291.5C321 291.631 320.924 291.756 320.788 291.85C320.653 291.943 320.468 291.997 320.274 292Z" fill="#3F3D56"/>
<path d="M146.5 287C148.985 287 151 284.985 151 282.5C151 280.015 148.985 278 146.5 278C144.015 278 142 280.015 142 282.5C142 284.985 144.015 287 146.5 287Z" fill="#3F3D56"/>
<path d="M161.5 287C163.985 287 166 284.985 166 282.5C166 280.015 163.985 278 161.5 278C159.015 278 157 280.015 157 282.5C157 284.985 159.015 287 161.5 287Z" fill="#3F3D56"/>
<path d="M177 287C179.209 287 181 284.985 181 282.5C181 280.015 179.209 278 177 278C174.791 278 173 280.015 173 282.5C173 284.985 174.791 287 177 287Z" fill="#3F3D56"/>
<path d="M311.22 280H300.773C300.566 280.003 300.37 280.057 300.225 280.15C300.081 280.244 300 280.369 300 280.5C300 280.631 300.081 280.756 300.225 280.85C300.37 280.943 300.566 280.997 300.773 281H311.22C311.428 280.998 311.626 280.945 311.772 280.851C311.918 280.758 312 280.631 312 280.5C312 280.369 311.918 280.242 311.772 280.149C311.626 280.055 311.428 280.002 311.22 280Z" fill="#3F3D56"/>
<path d="M311.219 282H300.773C300.567 282.006 300.37 282.114 300.225 282.301C300.081 282.488 300 282.739 300 283C300 283.261 300.081 283.513 300.225 283.699C300.37 283.886 300.567 283.994 300.773 284H311.219C311.427 283.997 311.626 283.89 311.772 283.703C311.918 283.516 312 283.263 312 283C312 282.737 311.918 282.484 311.772 282.297C311.626 282.11 311.427 282.003 311.219 282Z" fill="#3F3D56"/>
<path d="M311.22 285H300.773C300.566 285.006 300.37 285.114 300.225 285.301C300.081 285.488 300 285.739 300 286C300 286.261 300.081 286.512 300.225 286.699C300.37 286.886 300.566 286.994 300.773 287H311.22C311.428 286.996 311.626 286.889 311.772 286.702C311.918 286.515 312 286.263 312 286C312 285.737 311.918 285.485 311.772 285.298C311.626 285.111 311.428 285.004 311.22 285Z" fill="#3F3D56"/>
<path d="M568.485 461.905C568.811 462.822 569.43 463.615 570.253 464.171C571.075 464.727 572.059 465.017 573.063 464.999L592.682 464.512C593.693 464.493 594.671 464.159 595.469 463.559C596.268 462.96 596.844 462.127 597.111 461.186L599.887 432.55C600.872 432.98 601.944 433.193 603.025 433.172C603.964 433.149 604.89 432.948 605.748 432.581C606.607 432.213 607.382 431.686 608.03 431.029C608.677 430.372 609.184 429.599 609.522 428.753C609.86 427.907 610.021 427.006 609.998 426.1C609.974 425.194 609.766 424.301 609.385 423.472C609.003 422.644 608.457 421.896 607.776 421.272C607.095 420.647 606.293 420.158 605.417 419.832C604.54 419.507 603.605 419.351 602.666 419.373C602.234 419.372 601.803 419.415 601.38 419.502C600.921 419.023 600.362 418.641 599.74 418.383C599.119 418.124 598.448 417.994 597.771 418L567.594 418.752C567.344 418.761 567.094 418.791 566.849 418.841C566.188 418.96 565.56 419.214 565.009 419.587C564.457 419.96 563.995 420.442 563.653 421.001C563.311 421.561 563.098 422.184 563.026 422.83C562.955 423.476 563.028 424.129 563.241 424.745L568.485 461.905ZM600.456 430.606L602.431 423.782C602.656 422.994 602.661 422.162 602.447 421.371C602.542 421.371 602.627 421.327 602.723 421.327C604.077 421.3 605.388 421.792 606.367 422.696C607.345 423.599 607.913 424.84 607.945 426.147C607.976 427.453 607.47 428.719 606.536 429.665C605.602 430.612 604.317 431.163 602.962 431.197C602.087 431.223 601.22 431.019 600.456 430.606Z" fill="#2F2E41"/>
<path d="M567 418.907C567.637 422.728 574.801 425.414 583.415 424.947C591.337 424.565 597.813 421.648 599 418.19C598.561 418.054 598.104 417.99 597.646 418.001L567.738 418.811C567.49 418.821 567.243 418.853 567 418.907Z" fill="#3F3D56"/>
<path d="M585.609 445.989C585.648 445.98 585.684 445.965 585.717 445.944L589.838 443.342C589.888 443.31 589.928 443.267 589.957 443.217C589.985 443.166 590 443.11 590 443.053C590 442.995 589.985 442.939 589.957 442.888C589.929 442.838 589.888 442.795 589.838 442.764L585.555 440.057C585.516 440.032 585.472 440.015 585.426 440.006C585.379 439.998 585.332 439.998 585.286 440.007C585.24 440.016 585.196 440.034 585.157 440.06C585.118 440.085 585.084 440.118 585.059 440.156C585.033 440.194 585.015 440.237 585.006 440.281C584.997 440.326 584.998 440.372 585.008 440.416C585.017 440.461 585.036 440.503 585.063 440.541C585.089 440.578 585.123 440.61 585.163 440.635L588.988 443.052L585.325 445.365C585.255 445.41 585.202 445.478 585.178 445.556C585.154 445.634 585.16 445.719 585.194 445.793C585.228 445.868 585.288 445.929 585.364 445.965C585.44 446.001 585.527 446.01 585.609 445.989Z" fill="#6D4AF2"/>
<path d="M578.729 446.988C578.798 446.968 578.861 446.925 578.909 446.866C578.956 446.806 578.987 446.731 578.997 446.652C579.006 446.572 578.995 446.491 578.963 446.419C578.932 446.347 578.882 446.287 578.82 446.247L575.013 443.796L578.692 440.726C578.73 440.695 578.762 440.655 578.786 440.61C578.81 440.564 578.826 440.514 578.833 440.462C578.84 440.409 578.838 440.356 578.826 440.305C578.815 440.253 578.794 440.205 578.766 440.163C578.738 440.12 578.703 440.084 578.662 440.057C578.622 440.03 578.577 440.012 578.531 440.004C578.484 439.997 578.437 439.999 578.391 440.012C578.345 440.025 578.302 440.048 578.264 440.079L574.145 443.516C574.097 443.556 574.059 443.609 574.034 443.669C574.009 443.73 573.997 443.797 574.001 443.864C574.004 443.93 574.022 443.995 574.054 444.052C574.085 444.109 574.129 444.156 574.18 444.189L578.462 446.947C578.543 446.999 578.639 447.013 578.729 446.988Z" fill="#6D4AF2"/>
<path d="M584.711 448.988C584.748 448.979 584.784 448.964 584.816 448.944C584.859 448.918 584.896 448.884 584.926 448.843C584.956 448.803 584.977 448.757 584.989 448.708C585.001 448.66 585.003 448.609 584.995 448.56C584.988 448.51 584.97 448.462 584.944 448.42L578.709 438.183C578.656 438.096 578.571 438.034 578.472 438.011C578.374 437.987 578.27 438.003 578.183 438.056C578.097 438.108 578.035 438.193 578.011 438.291C577.987 438.39 578.003 438.494 578.056 438.58L584.291 448.817C584.334 448.887 584.397 448.941 584.473 448.972C584.549 449.003 584.632 449.008 584.711 448.988Z" fill="#6D4AF2"/>
<path d="M274 416.067L274.159 416.561L274.168 416.577L278.966 430.885L284.486 447.372L294.871 478.356L294.972 483.169V483.186L295.744 521.903L293.604 527.152L296.012 535.758C296.012 535.758 294.905 522.75 288.965 530.22C285.602 534.465 281.667 538.809 278.438 542.882C283.144 544.75 287.925 546.439 292.782 547.95C293.831 548.279 294.888 548.592 295.945 548.904C296.171 548.97 296.398 549.036 296.624 549.102C312.725 553.772 329.37 556.396 346.151 556.91C347.024 556.934 347.879 556.951 348.71 556.967C349.004 556.975 349.289 556.984 349.574 556.984C350.514 556.992 351.445 557 352.384 557C354.28 557 356.168 556.973 358.047 556.918C371.955 556.533 385.781 554.699 399.294 551.447C399.202 545.975 398.95 539.583 398.589 532.754C398.421 529.406 394.655 525.777 394.428 522.273C394.269 519.64 397.65 517.163 397.474 514.489C396.333 498.027 394.907 504.346 393.85 492.688C393.741 491.545 393.64 490.45 393.548 489.405C392.868 481.919 392.398 477.237 392.398 477.237L396.912 449.338L404 405.536L403.455 404.656L402.842 404.36L365.454 386.21L363.424 381.109C362.832 379.64 361.806 378.377 360.477 377.484C359.148 376.591 357.577 376.109 355.966 376.099L331.337 376C330.059 375.994 328.798 376.288 327.658 376.856C326.519 377.424 325.534 378.25 324.785 379.266L318.116 388.325L274 416.067Z" fill="#3F3D56"/>
<path d="M301 471.308L295.453 483.002L291.666 490.989L285.151 524.59L281.89 528L279.096 515.928L249.849 522.325C248.89 517.074 249.592 522.503 249 516.742C249.167 516.578 249.342 516.413 249.517 516.249C249.984 515.822 250.376 515.419 250.368 515.033C250.034 495.163 251.035 461.349 259.393 440.863C260.702 437.518 262.428 434.347 264.532 431.421C264.698 431.199 264.857 430.978 265.015 430.756C268.869 425.439 271.305 420.205 274.758 416.482V416.474C274.78 416.457 274.799 416.438 274.816 416.416C274.829 416.41 274.84 416.402 274.85 416.392L298.573 404L299.59 432.169L300.316 452.417L301 471.308Z" fill="#3F3D56"/>
<path d="M386 474.611L392.959 489.271L395.389 494.377L401.93 528.102L405.195 531.517L408.008 519.402L409.33 519.135L433.169 514.274L440.117 536C441.683 533.431 442.3 530.408 441.863 527.443C441.427 524.478 439.964 521.752 437.722 519.727C437.247 519.304 436.852 518.892 436.863 518.503C437.259 495.044 435.801 452.208 422.639 434.578C418.459 428.983 415.951 423.41 412.301 419.517C412.29 419.506 412.29 419.495 412.279 419.495L403.399 405.179L402.856 404.3L402.246 404L386 474.611Z" fill="#3F3D56"/>
<path d="M344.5 369C362.449 369 377 354.673 377 337C377 319.327 362.449 305 344.5 305C326.551 305 312 319.327 312 337C312 354.673 326.551 369 344.5 369Z" fill="#FFB6B6"/>
<path d="M388.34 314.004C388.089 313.737 387.786 313.524 387.449 313.376C387.112 313.228 386.749 313.149 386.381 313.144L386.869 311.8C387.028 311.377 387.071 310.919 386.994 310.473C386.916 310.028 386.721 309.611 386.427 309.266C386.134 308.92 385.753 308.658 385.324 308.507C384.895 308.355 384.433 308.319 383.986 308.403L382.209 308.743L382.377 307.565C382.441 307.126 382.389 306.679 382.226 306.266C382.063 305.853 381.794 305.49 381.447 305.211C381.099 304.932 380.685 304.749 380.244 304.677C379.803 304.606 379.351 304.65 378.933 304.804C378.552 304.953 378.142 305.016 377.734 304.987C377.326 304.958 376.929 304.839 376.573 304.638C376.216 304.444 375.906 304.174 375.664 303.848C375.423 303.523 375.256 303.148 375.175 302.752L374.556 299.789L374.491 299.63C371.476 294.644 365.68 291.016 358.588 289.686C352.275 288.494 345.802 289.101 339.562 289.672C337.087 289.903 334.29 290.163 331.96 291.58C329.98 292.794 328.305 295.222 328.647 297.672C322.495 295.8 315.898 299.536 312.628 304.248C308.755 309.856 308.121 316.88 308.019 322.373C307.743 335.366 310.444 345.997 316.029 353.975C316.437 354.553 316.538 355.76 317.347 356.165L317.179 355.897C318.082 356.345 319 357.068 318.657 357.841C317.674 360.067 324.206 364.988 328.808 366.614C337.203 369.585 348.365 369.332 356.215 368.262L356.491 366.419C359.324 366.036 361.319 365.306 361.88 364.165C362.87 363.326 363.714 362.575 364.45 361.881L364.457 361.874C364.472 361.859 364.501 361.838 364.515 361.823C368.061 358.448 368.884 356.526 369.256 353.599C369.612 350.73 368.979 347.818 368.331 345.195C381.976 347.29 362.957 330.77 375.67 327.576C375.816 327.531 375.965 327.495 376.115 327.467C376.486 327.381 376.857 327.294 377.214 327.193C378.934 326.729 380.581 326.031 382.107 325.119C385.661 322.972 386.833 320.125 388.668 316.916C388.933 316.46 389.044 315.931 388.985 315.407C388.926 314.883 388.7 314.392 388.34 314.004Z" fill="#2F2E41"/>
<path d="M460 477.253C459.993 478.512 459.978 480.275 459.919 482.456C459.912 482.758 459.905 483.068 459.897 483.384C459.802 487.392 459.707 490.753 459.553 494.488C459.546 494.747 459.538 494.999 459.524 495.258C459.319 500.468 458.996 506.534 458.439 516.141C457.406 533.886 455.603 518.58 453.793 524.805C453.706 525.114 453.61 525.481 453.522 525.913C453.248 527.48 452.786 529.009 452.145 530.468C451.185 531.029 450.196 531.569 449.221 532.109C446.444 533.627 443.623 535.088 440.78 536.477C439.182 537.254 437.578 538.017 435.965 538.751C435.709 538.866 435.46 538.981 435.211 539.089C426.955 542.839 418.448 546.027 409.747 548.631C408.047 549.135 406.354 549.624 404.64 550.077C402.852 550.567 401.064 551.027 399.254 551.459C385.79 554.705 372.012 556.536 358.153 556.921C356.285 556.978 354.402 557 352.511 557C351.573 557 350.65 556.993 349.712 556.986C349.426 556.986 349.14 556.978 348.855 556.971C348.027 556.95 347.169 556.935 346.304 556.914C329.582 556.401 312.996 553.782 296.953 549.12L296.271 548.926C295.216 548.609 294.168 548.3 293.121 547.969C288.284 546.465 283.519 544.781 278.824 542.917C275.241 541.5 271.699 539.979 268.199 538.355C268.167 538.346 268.137 538.332 268.111 538.312C267.379 537.981 266.638 537.635 265.906 537.283C265.81 537.232 265.708 537.182 265.605 537.132C262.872 535.822 260.168 534.45 257.494 533.015C255.244 527.942 252.078 526.971 250.115 522.509C249.543 521.184 249.13 519.798 248.884 518.379C248.884 518.364 248.876 518.35 248.876 518.328C249.081 521.005 248.004 513.579 248.869 518.299C248.862 518.213 248.854 518.12 248.847 518.012C248.825 517.753 248.796 517.436 248.752 517.04C246.238 492.941 246.4 465.38 245.308 442.669C245.234 441.201 245.159 439.795 245.081 438.452C245.059 438.006 245.029 437.567 245 437.135C245.051 437.005 245.11 436.869 245.176 436.739C245.19 436.702 245.207 436.666 245.227 436.631C245.249 436.587 245.273 436.543 245.3 436.502C245.315 436.48 245.337 436.451 245.352 436.43C245.362 436.405 245.375 436.381 245.388 436.358C245.454 436.257 245.528 436.149 245.608 436.048C245.645 436.005 245.674 435.969 245.711 435.933C245.736 435.896 245.766 435.863 245.799 435.833C245.821 435.798 245.848 435.766 245.879 435.739C245.909 435.71 245.938 435.674 245.975 435.638C245.99 435.616 246.01 435.596 246.033 435.581C246.091 435.515 246.155 435.455 246.224 435.401C246.485 435.165 246.764 434.948 247.059 434.753C247.162 434.688 247.272 434.624 247.374 434.552C248.113 434.118 248.89 433.752 249.697 433.458C249.975 433.357 250.254 433.264 250.554 433.163C250.664 433.134 250.767 433.098 250.877 433.062C251.038 433.012 251.199 432.961 251.368 432.925C252.203 432.681 253.104 432.472 254.079 432.278C254.196 432.256 254.321 432.235 254.445 432.206C254.621 432.17 254.804 432.141 254.988 432.112C255.237 432.069 255.493 432.026 255.75 431.983C257.926 431.644 260.395 431.393 263.121 431.227C263.378 431.213 263.634 431.198 263.891 431.184C264.191 431.17 264.491 431.155 264.799 431.141C265.056 431.126 265.32 431.119 265.583 431.112C265.84 431.098 266.104 431.09 266.375 431.083C267.115 431.062 267.877 431.04 268.654 431.026C270.867 430.982 273.197 430.997 275.644 431.047C276.78 431.076 277.938 431.105 279.125 431.155C279.205 431.155 279.279 431.162 279.352 431.162C280.385 431.198 281.426 431.241 282.495 431.299C283.243 431.335 283.998 431.371 284.752 431.414C285.463 431.457 286.181 431.501 286.907 431.551C287.471 431.58 288.035 431.623 288.607 431.659C289.09 431.695 289.574 431.731 290.058 431.76L290.717 431.803C291.076 431.832 291.435 431.853 291.802 431.889C292.608 431.954 293.414 432.019 294.234 432.083C295.048 432.155 295.876 432.227 296.704 432.299C297.532 432.371 298.367 432.45 299.202 432.53C299.29 432.537 299.371 432.544 299.452 432.551C300.214 432.63 300.976 432.702 301.745 432.781C301.921 432.796 302.104 432.81 302.28 432.832C303.014 432.904 303.761 432.989 304.502 433.066C304.729 433.09 304.955 433.114 305.183 433.138C305.763 433.2 306.334 433.254 306.918 433.321C307.688 433.407 308.472 433.487 309.234 433.587C309.827 433.652 310.421 433.717 311.015 433.789C311.945 433.897 312.89 434.012 313.836 434.134C314.195 434.177 314.554 434.221 314.913 434.271C317.609 434.602 320.335 434.969 323.105 435.35C327.304 435.933 331.569 436.567 335.863 437.25C340.164 437.934 344.49 438.656 348.84 439.416C349.939 439.61 351.038 439.805 352.145 440.006C352.643 440.1 353.141 440.193 353.639 440.287C354.489 440.438 355.339 440.596 356.189 440.755C357.039 440.913 357.889 441.071 358.739 441.237C359.751 441.431 360.769 441.625 361.78 441.82C368.441 443.115 375.065 444.497 381.528 445.943C382.591 446.18 383.653 446.425 384.709 446.663C386.819 447.145 388.91 447.634 390.981 448.131C391.553 448.26 392.117 448.397 392.681 448.534C394.088 448.879 395.495 449.224 396.88 449.577L397.122 449.642C398.14 449.886 399.137 450.138 400.133 450.397C402.485 451.002 404.798 451.613 407.072 452.232C408.582 452.643 410.074 453.057 411.55 453.477C413.755 454.103 415.917 454.737 418.02 455.377C418.54 455.535 419.06 455.694 419.573 455.845C421.112 456.313 422.629 456.787 424.102 457.262C425.274 457.637 426.417 458.018 427.546 458.399C428.674 458.781 429.781 459.162 430.865 459.544C431.561 459.788 432.25 460.047 432.939 460.292C433.928 460.652 434.903 461.012 435.855 461.371C436.149 461.479 436.434 461.594 436.72 461.702C436.903 461.782 437.079 461.846 437.255 461.918C437.599 462.055 437.951 462.184 438.288 462.321C438.633 462.451 438.97 462.587 439.307 462.731C439.636 462.861 439.974 462.998 440.296 463.134C440.626 463.264 440.948 463.401 441.271 463.545C441.542 463.653 441.805 463.768 442.062 463.883C442.582 464.106 443.102 464.329 443.608 464.559C443.857 464.674 444.106 464.782 444.355 464.897L444.927 465.156C445.008 465.2 445.088 465.236 445.169 465.272C445.352 465.358 445.543 465.452 445.726 465.538C446.151 465.732 446.568 465.941 446.979 466.135C447.528 466.409 448.063 466.682 448.576 466.948C449.096 467.222 449.602 467.495 450.086 467.761C450.166 467.805 450.24 467.848 450.32 467.891C450.43 467.949 450.54 468.013 450.65 468.071C451.024 468.28 451.383 468.495 451.742 468.704C452.445 469.129 453.112 469.546 453.735 469.963C453.874 470.057 454.006 470.151 454.145 470.237C454.607 470.561 455.046 470.877 455.457 471.201C455.457 471.208 455.457 471.208 455.464 471.208C455.603 471.309 455.735 471.417 455.867 471.518C455.977 471.619 456.094 471.705 456.204 471.806C456.585 472.129 456.937 472.439 457.259 472.755C457.367 472.853 457.47 472.957 457.567 473.065C457.61 473.1 457.649 473.138 457.684 473.18C457.831 473.324 457.963 473.468 458.087 473.612C458.107 473.632 458.124 473.653 458.139 473.677C458.315 473.878 458.476 474.08 458.63 474.281C458.703 474.382 458.784 474.483 458.85 474.583C458.937 474.706 459.025 474.835 459.099 474.958C459.165 475.058 459.223 475.166 459.282 475.267C459.437 475.526 459.57 475.798 459.678 476.08C459.76 476.271 459.826 476.468 459.875 476.67C459.931 476.861 459.973 477.056 460 477.253Z" fill="#2F2E41"/>
<path opacity="0.2" d="M460 477.219C459.993 478.477 459.978 480.239 459.919 482.418C459.912 482.72 459.897 483.03 459.89 483.346C459.817 486.403 459.707 490.178 459.553 494.443C459.546 494.702 459.538 494.953 459.524 495.212C459.319 500.419 458.996 506.482 458.439 516.082C457.406 533.817 455.604 518.52 453.794 524.741C448.767 521.706 443.257 518.527 437.366 515.262C436.303 514.673 435.231 514.081 434.149 513.486C422.367 507.035 409.207 500.275 395.468 493.58C394.926 493.314 394.376 493.048 393.834 492.789C362.363 477.521 328.012 462.67 300.183 452.76C294.812 450.847 289.682 449.121 284.861 447.604C274.705 444.418 265.927 442.189 259.171 441.225C252.137 440.218 247.279 440.578 245.315 442.656C245.242 441.189 245.166 439.784 245.088 438.442C245.059 437.996 245.029 437.557 245 437.126C245.045 437.007 245.104 436.894 245.161 436.78C245.169 436.764 245.175 436.747 245.183 436.73C245.197 436.693 245.214 436.657 245.234 436.622C245.256 436.578 245.281 436.534 245.308 436.493C245.332 436.442 245.361 436.394 245.396 436.349C245.462 436.248 245.535 436.14 245.615 436.04C245.675 435.964 245.738 435.892 245.806 435.824C245.828 435.789 245.856 435.758 245.887 435.73C245.916 435.702 245.945 435.666 245.982 435.63C245.998 435.607 246.017 435.588 246.04 435.572C246.098 435.507 246.162 435.447 246.231 435.392C246.492 435.156 246.772 434.94 247.066 434.745C247.169 434.681 247.279 434.616 247.381 434.544C248.12 434.11 248.897 433.744 249.704 433.451C249.983 433.35 250.261 433.257 250.561 433.156C250.671 433.127 250.774 433.091 250.884 433.055C251.045 433.005 251.206 432.955 251.375 432.919C252.21 432.674 253.111 432.465 254.086 432.271C254.379 432.214 254.687 432.156 254.995 432.106C255.244 432.063 255.5 432.02 255.757 431.976C257.933 431.638 260.402 431.387 263.128 431.221C263.384 431.207 263.641 431.193 263.897 431.178C264.198 431.164 264.498 431.149 264.806 431.135C265.062 431.121 265.326 431.113 265.59 431.106C265.846 431.092 266.11 431.085 266.381 431.078C267.121 431.056 267.883 431.034 268.66 431.02C270.873 430.984 273.203 430.998 275.65 431.049C276.786 431.07 277.944 431.106 279.131 431.157C279.204 431.157 279.285 431.164 279.358 431.164C280.391 431.193 281.439 431.243 282.502 431.293C283.249 431.329 284.004 431.365 284.758 431.408C285.469 431.451 286.187 431.495 286.913 431.545C287.477 431.574 288.041 431.617 288.613 431.653C289.096 431.689 289.58 431.725 290.063 431.753C290.642 431.797 291.221 431.84 291.807 431.883C292.613 431.948 293.419 432.012 294.24 432.077C295.053 432.149 295.881 432.221 296.709 432.293C297.537 432.365 298.373 432.444 299.208 432.523C299.296 432.53 299.376 432.537 299.457 432.545C300.219 432.624 300.981 432.696 301.751 432.775C306.015 433.199 310.404 433.695 314.918 434.263C317.614 434.601 320.345 434.963 323.11 435.349C327.308 435.932 331.573 436.565 335.867 437.241C340.168 437.924 344.494 438.645 348.844 439.405C349.943 439.6 351.042 439.794 352.148 439.995C353.496 440.24 354.845 440.489 356.193 440.743C357.043 440.901 357.893 441.059 358.743 441.225C359.754 441.419 360.773 441.613 361.784 441.807C368.444 443.102 375.068 444.483 381.531 445.928C382.594 446.165 383.656 446.41 384.711 446.647C386.821 447.129 388.912 447.618 390.983 448.114C391.555 448.251 392.119 448.388 392.683 448.524C394.098 448.87 395.497 449.215 396.882 449.56V449.567C396.962 449.581 397.043 449.603 397.124 449.625C398.135 449.876 399.139 450.128 400.135 450.387C402.487 450.991 404.8 451.6 407.074 452.214C408.584 452.631 410.079 453.041 411.551 453.458C413.757 454.091 415.918 454.723 418.021 455.356C418.542 455.515 419.062 455.673 419.575 455.824C421.114 456.298 422.623 456.771 424.103 457.241C425.276 457.615 426.419 457.996 427.547 458.377C428.675 458.758 429.782 459.139 430.866 459.52C431.57 459.765 432.258 460.017 432.94 460.261C433.936 460.621 434.904 460.98 435.856 461.347C436.149 461.455 436.435 461.57 436.721 461.678C437.256 461.879 437.776 462.088 438.289 462.296C438.633 462.426 438.97 462.562 439.307 462.706C439.637 462.836 439.974 462.972 440.297 463.109C440.626 463.238 440.949 463.375 441.271 463.519C441.542 463.627 441.806 463.742 442.063 463.857C442.583 464.08 443.103 464.303 443.609 464.533C443.858 464.648 444.107 464.756 444.356 464.871L444.928 465.13C445.008 465.173 445.089 465.209 445.169 465.245C445.792 465.532 446.393 465.82 446.979 466.108C447.529 466.381 448.064 466.654 448.577 466.92C449.185 467.237 449.764 467.546 450.32 467.863C450.43 467.92 450.54 467.985 450.65 468.042C451.024 468.251 451.383 468.467 451.742 468.675C452.445 469.099 453.112 469.517 453.735 469.934C454.351 470.351 454.922 470.761 455.457 471.171C455.457 471.178 455.457 471.178 455.464 471.178C455.721 471.379 455.97 471.581 456.204 471.775C456.585 472.098 456.937 472.408 457.26 472.724C457.368 472.822 457.47 472.925 457.567 473.033C457.61 473.068 457.649 473.107 457.685 473.148C457.838 473.314 457.992 473.479 458.139 473.645C458.315 473.846 458.476 474.047 458.63 474.249C458.703 474.349 458.784 474.45 458.85 474.551C458.938 474.673 459.025 474.802 459.099 474.925C459.165 475.025 459.223 475.133 459.282 475.234C459.437 475.493 459.57 475.765 459.678 476.047C459.758 476.238 459.824 476.435 459.875 476.636C459.931 476.827 459.973 477.022 460 477.219Z" fill="black"/>
<g filter="url(#filter0_dd_1_71)">
<path d="M186.376 341H176.94C176.585 341 176.324 340.925 176.156 340.776C176.007 340.608 175.932 340.347 175.932 339.992V321.848C175.932 321.493 176.007 321.241 176.156 321.092C176.324 320.924 176.585 320.84 176.94 320.84H186.376C188.709 320.84 190.436 321.307 191.556 322.24C192.695 323.173 193.264 324.611 193.264 326.552V335.288C193.264 337.229 192.695 338.667 191.556 339.6C190.436 340.533 188.709 341 186.376 341ZM182.288 326.188V335.708H185.62C186.068 335.708 186.395 335.596 186.6 335.372C186.824 335.148 186.936 334.803 186.936 334.336V327.532C186.936 327.065 186.824 326.729 186.6 326.524C186.395 326.3 186.068 326.188 185.62 326.188H182.288ZM210.823 341H197.831C197.476 341 197.215 340.925 197.047 340.776C196.897 340.608 196.823 340.347 196.823 339.992V321.848C196.823 321.493 196.897 321.241 197.047 321.092C197.215 320.924 197.476 320.84 197.831 320.84H210.823C211.177 320.84 211.429 320.924 211.579 321.092C211.747 321.241 211.831 321.493 211.831 321.848V325.124C211.831 325.479 211.747 325.74 211.579 325.908C211.429 326.057 211.177 326.132 210.823 326.132H203.095V328.288H208.555C208.909 328.288 209.161 328.372 209.311 328.54C209.479 328.689 209.563 328.941 209.563 329.296V332.292C209.563 332.647 209.479 332.908 209.311 333.076C209.161 333.225 208.909 333.3 208.555 333.3H203.095V335.708H210.823C211.177 335.708 211.429 335.792 211.579 335.96C211.747 336.109 211.831 336.361 211.831 336.716V339.992C211.831 340.347 211.747 340.608 211.579 340.776C211.429 340.925 211.177 341 210.823 341ZM226.903 341H216.151C215.796 341 215.535 340.925 215.367 340.776C215.218 340.608 215.143 340.347 215.143 339.992V321.848C215.143 321.493 215.218 321.241 215.367 321.092C215.535 320.924 215.796 320.84 216.151 320.84H225.083C226.912 320.84 228.266 321.195 229.143 321.904C230.02 322.595 230.459 323.668 230.459 325.124V326.468C230.459 327.252 230.319 327.896 230.039 328.4C229.778 328.885 229.367 329.249 228.807 329.492C230.002 329.604 230.888 330.015 231.467 330.724C232.046 331.433 232.335 332.469 232.335 333.832V336.408C232.335 337.976 231.887 339.133 230.991 339.88C230.114 340.627 228.751 341 226.903 341ZM221.443 325.6V328.624H223.823C224.178 328.624 224.439 328.531 224.607 328.344C224.794 328.157 224.887 327.877 224.887 327.504V326.72C224.887 326.347 224.794 326.067 224.607 325.88C224.439 325.693 224.178 325.6 223.823 325.6H221.443ZM221.443 332.936V336.24H225.083C225.438 336.24 225.699 336.147 225.867 335.96C226.054 335.773 226.147 335.493 226.147 335.12V334.028C226.147 333.655 226.054 333.384 225.867 333.216C225.699 333.029 225.438 332.936 225.083 332.936H221.443ZM252.596 335.708C252.596 336.567 252.465 337.351 252.204 338.06C251.961 338.751 251.513 339.348 250.86 339.852C250.225 340.337 249.348 340.72 248.228 341C247.108 341.28 245.68 341.42 243.944 341.42C242.208 341.42 240.78 341.28 239.66 341C238.54 340.72 237.653 340.337 237 339.852C236.365 339.348 235.917 338.751 235.656 338.06C235.413 337.351 235.292 336.567 235.292 335.708V321.848C235.292 321.493 235.367 321.241 235.516 321.092C235.684 320.924 235.945 320.84 236.3 320.84H240.696C241.051 320.84 241.303 320.924 241.452 321.092C241.62 321.241 241.704 321.493 241.704 321.848V334.616C241.704 334.989 241.844 335.307 242.124 335.568C242.404 335.811 243.029 335.932 244 335.932C244.989 335.932 245.624 335.811 245.904 335.568C246.184 335.307 246.324 334.989 246.324 334.616V321.848C246.324 321.493 246.399 321.241 246.548 321.092C246.716 320.924 246.977 320.84 247.332 320.84H251.588C251.943 320.84 252.195 320.924 252.344 321.092C252.512 321.241 252.596 321.493 252.596 321.848V335.708ZM271.723 341H262.903C260.569 341 258.833 340.533 257.695 339.6C256.575 338.667 256.015 337.229 256.015 335.288V326.552C256.015 324.611 256.575 323.173 257.695 322.24C258.833 321.307 260.569 320.84 262.903 320.84H269.903C270.257 320.84 270.509 320.924 270.659 321.092C270.827 321.241 270.911 321.493 270.911 321.848V325.236C270.911 325.591 270.827 325.852 270.659 326.02C270.509 326.169 270.257 326.244 269.903 326.244H264.079C263.5 326.244 263.071 326.365 262.791 326.608C262.511 326.832 262.371 327.177 262.371 327.644V334.336C262.371 334.803 262.473 335.148 262.679 335.372C262.903 335.596 263.229 335.708 263.659 335.708H266.375V331.34C266.375 330.985 266.449 330.733 266.599 330.584C266.767 330.416 267.028 330.332 267.383 330.332H271.723C272.077 330.332 272.329 330.416 272.479 330.584C272.647 330.733 272.731 330.985 272.731 331.34V339.992C272.731 340.347 272.647 340.608 272.479 340.776C272.329 340.925 272.077 341 271.723 341ZM186.376 375H176.94C176.585 375 176.324 374.925 176.156 374.776C176.007 374.608 175.932 374.347 175.932 373.992V355.848C175.932 355.493 176.007 355.241 176.156 355.092C176.324 354.924 176.585 354.84 176.94 354.84H186.376C188.709 354.84 190.436 355.307 191.556 356.24C192.695 357.173 193.264 358.611 193.264 360.552V369.288C193.264 371.229 192.695 372.667 191.556 373.6C190.436 374.533 188.709 375 186.376 375ZM182.288 360.188V369.708H185.62C186.068 369.708 186.395 369.596 186.6 369.372C186.824 369.148 186.936 368.803 186.936 368.336V361.532C186.936 361.065 186.824 360.729 186.6 360.524C186.395 360.3 186.068 360.188 185.62 360.188H182.288ZM203.151 359.88V363.464H205.251C205.736 363.464 206.063 363.343 206.231 363.1C206.399 362.839 206.483 362.521 206.483 362.148V361.196C206.483 360.823 206.399 360.515 206.231 360.272C206.063 360.011 205.736 359.88 205.251 359.88H203.151ZM202.143 375H197.831C197.476 375 197.215 374.925 197.047 374.776C196.897 374.608 196.823 374.347 196.823 373.992V355.848C196.823 355.493 196.897 355.241 197.047 355.092C197.215 354.924 197.476 354.84 197.831 354.84H207.155C209.245 354.84 210.683 355.279 211.467 356.156C212.269 357.015 212.671 358.135 212.671 359.516V360.804C212.671 361.588 212.549 362.26 212.307 362.82C212.083 363.361 211.681 363.753 211.103 363.996C212.111 364.108 212.923 364.519 213.539 365.228C214.173 365.937 214.491 366.88 214.491 368.056V373.992C214.491 374.347 214.407 374.608 214.239 374.776C214.089 374.925 213.837 375 213.483 375H209.143C208.788 375 208.527 374.925 208.359 374.776C208.209 374.608 208.135 374.347 208.135 373.992V369.708C208.135 369.297 208.051 368.999 207.883 368.812C207.733 368.607 207.463 368.504 207.071 368.504H203.151V373.992C203.151 374.347 203.067 374.608 202.899 374.776C202.749 374.925 202.497 375 202.143 375ZM218.191 375C217.837 375 217.575 374.925 217.407 374.776C217.258 374.608 217.183 374.347 217.183 373.992V370.66C217.183 370.305 217.258 370.053 217.407 369.904C217.575 369.736 217.837 369.652 218.191 369.652H220.963V360.244H218.191C217.837 360.244 217.575 360.169 217.407 360.02C217.258 359.852 217.183 359.591 217.183 359.236V355.848C217.183 355.493 217.258 355.241 217.407 355.092C217.575 354.924 217.837 354.84 218.191 354.84H230.119C230.474 354.84 230.726 354.924 230.875 355.092C231.043 355.241 231.127 355.493 231.127 355.848V359.236C231.127 359.591 231.043 359.852 230.875 360.02C230.726 360.169 230.474 360.244 230.119 360.244H227.403V369.652H230.119C230.474 369.652 230.726 369.736 230.875 369.904C231.043 370.053 231.127 370.305 231.127 370.66V373.992C231.127 374.347 231.043 374.608 230.875 374.776C230.726 374.925 230.474 375 230.119 375H218.191ZM239.932 375H235.592C235.238 375 234.976 374.925 234.808 374.776C234.659 374.608 234.584 374.347 234.584 373.992V355.848C234.584 355.493 234.659 355.241 234.808 355.092C234.976 354.924 235.238 354.84 235.592 354.84H248.08C248.435 354.84 248.687 354.924 248.836 355.092C249.004 355.241 249.088 355.493 249.088 355.848V359.18C249.088 359.535 249.004 359.796 248.836 359.964C248.687 360.113 248.435 360.188 248.08 360.188H240.94V363.1H245.812C246.167 363.1 246.419 363.184 246.568 363.352C246.736 363.501 246.82 363.753 246.82 364.108V367.468C246.82 367.823 246.736 368.084 246.568 368.252C246.419 368.401 246.167 368.476 245.812 368.476H240.94V373.992C240.94 374.347 240.856 374.608 240.688 374.776C240.539 374.925 240.287 375 239.932 375ZM261.413 375H256.877C256.522 375 256.261 374.925 256.093 374.776C255.944 374.608 255.869 374.347 255.869 373.992V360.244H251.753C251.398 360.244 251.137 360.169 250.969 360.02C250.82 359.852 250.745 359.591 250.745 359.236V355.848C250.745 355.493 250.82 355.241 250.969 355.092C251.137 354.924 251.398 354.84 251.753 354.84H266.537C266.892 354.84 267.144 354.924 267.293 355.092C267.461 355.241 267.545 355.493 267.545 355.848V359.236C267.545 359.591 267.461 359.852 267.293 360.02C267.144 360.169 266.892 360.244 266.537 360.244H262.421V373.992C262.421 374.347 262.337 374.608 262.169 374.776C262.02 374.925 261.768 375 261.413 375Z" fill="#03001C"/>
</g>
</g>
<defs>
<filter id="filter0_dd_1_71" x="171.932" y="320.84" width="104.799" height="62.16" filterUnits="userSpaceOnUse" color-interpolation-filters="sRGB">
<feFlood flood-opacity="0" result="BackgroundImageFix"/>
<feColorMatrix in="SourceAlpha" type="matrix" values="0 0 0 0 0 0 0 0 0 0 0 0 0 0 0 0 0 0 127 0" result="hardAlpha"/>
<feOffset dy="4"/>
<feGaussianBlur stdDeviation="2"/>
<feComposite in2="hardAlpha" operator="out"/>
<feColorMatrix type="matrix" values="0 0 0 0 0 0 0 0 0 0 0 0 0 0 0 0 0 0 0.25 0"/>
<feBlend mode="normal" in2="BackgroundImageFix" result="effect1_dropShadow_1_71"/>
<feColorMatrix in="SourceAlpha" type="matrix" values="0 0 0 0 0 0 0 0 0 0 0 0 0 0 0 0 0 0 127 0" result="hardAlpha"/>
<feOffset dy="4"/>
<feGaussianBlur stdDeviation="2"/>
<feComposite in2="hardAlpha" operator="out"/>
<feColorMatrix type="matrix" values="0 0 0 0 0 0 0 0 0 0 0 0 0 0 0 0 0 0 0.25 0"/>
<feBlend mode="normal" in2="effect1_dropShadow_1_71" result="effect2_dropShadow_1_71"/>
<feBlend mode="normal" in="SourceGraphic" in2="effect2_dropShadow_1_71" result="shape"/>
</filter>
<clipPath id="clip0_1_71">
<rect width="700" height="700" fill="white"/>
</clipPath>
</defs>
</svg>
