<svg width="708" height="708" viewBox="0 0 708 708" fill="none" xmlns="http://www.w3.org/2000/svg">
<g clip-path="url(#clip0_1_78)" filter="url(#filter0_d_1_78)">
<path d="M704 0H4V700H704V0Z" fill="white"/>
<path d="M249.339 579C354.141 579 439.101 561.875 439.101 540.75C439.101 519.625 354.141 502.5 249.339 502.5C144.536 502.5 59.5771 519.625 59.5771 540.75C59.5771 561.875 144.536 579 249.339 579Z" fill="#3F3D56"/>
<path d="M97.4403 531.542C97.4403 531.542 62.2556 521.76 55.6173 522.482C48.9791 523.205 65.674 488.935 76.7926 493.115C87.9111 497.294 102.736 508.287 111.21 492.76C119.684 477.234 124.439 468.875 134.762 469.711C145.086 470.547 159.383 463.032 169.7 469.711C180.017 476.391 187.265 484.629 201.515 484.275C215.764 483.92 229.273 450.494 240.371 463.867C251.469 477.241 264.78 489.474 275.214 485.025C285.647 480.577 297.553 487.264 307.083 494.786C316.612 502.309 333.293 498.965 339.643 493.115C345.994 487.264 350.769 483.085 364.265 483.906C377.76 484.728 420.652 494.772 436.538 507.281C452.425 519.79 415.891 535.7 398.415 535.7C380.939 535.7 377.767 540.715 362.675 548.237C347.583 555.76 322.942 544.058 305.493 556.595C288.045 569.133 265.76 549.909 235.617 556.595C205.474 563.282 211.791 572.469 194.315 565.804C176.839 559.138 183.196 556.595 157.78 554.938C132.365 553.28 104.572 559.117 102.188 548.251C99.8037 537.385 83.9377 534.878 74.4017 531.535C64.8657 528.191 97.4403 531.542 97.4403 531.542Z" fill="#3F3D56"/>
<path d="M535.687 441.385L537.058 440.478L537.462 440.209C534.462 439.683 531.725 438.116 529.701 435.766C527.678 433.416 526.488 430.424 526.329 427.283C526.169 424.141 527.049 421.036 528.824 418.481C530.598 415.925 533.162 414.07 536.092 413.222L536.023 418.931L539.058 412.719C540.816 412.634 542.573 412.908 544.228 413.525C545.884 414.143 547.405 415.091 548.706 416.317C550.007 417.542 551.062 419.02 551.81 420.667C552.558 422.314 552.986 424.097 553.067 425.915C553.067 426.184 553.067 426.439 553.067 426.701C554.137 425.498 555.029 424.138 555.712 422.664C557 419.696 557.02 416.345 556.924 412.265C556.719 404.19 556.383 396.052 555.945 387.934C552.776 387.572 549.837 386.052 547.655 383.648C545.474 381.245 544.194 378.115 544.045 374.823C544.025 374.405 544.025 373.987 544.045 373.569C544.045 373.463 544.045 373.357 544.045 373.257C544.045 372.854 544.107 372.457 544.169 372.06C544.165 371.997 544.165 371.933 544.169 371.869C544.216 371.536 544.285 371.21 544.36 370.885C544.36 370.764 544.422 370.644 544.449 370.523C544.545 370.169 544.648 369.815 544.771 369.475C544.812 369.362 544.854 369.255 544.902 369.142C544.997 368.887 545.1 368.639 545.21 368.391C545.265 368.264 545.319 368.129 545.381 368.002L545.429 367.902C546.846 365.011 549.199 362.725 552.078 361.441C554.956 360.158 558.179 359.957 561.185 360.876L561.096 368.306L564.097 362.172C566.041 363.33 567.672 364.975 568.841 366.955C570.009 368.936 570.677 371.188 570.783 373.505C570.838 374.706 570.739 375.909 570.489 377.083C570.489 377.182 570.434 377.274 570.413 377.373C570.393 377.472 570.324 377.741 570.276 377.918C570.228 378.095 570.146 378.379 570.071 378.627C569.995 378.875 569.961 378.967 569.899 379.137C569.838 379.307 569.701 379.618 569.598 379.845C569.536 379.98 569.481 380.121 569.42 380.263C569.249 380.617 569.064 380.971 568.865 381.311C568.796 381.432 568.714 381.545 568.646 381.658C568.502 381.885 568.358 382.119 568.2 382.367C568.043 382.615 568.002 382.636 567.899 382.763C567.796 382.891 567.604 383.146 567.447 383.33C567.289 383.514 567.221 383.585 567.104 383.713C566.988 383.84 566.776 384.067 566.597 384.237L566.248 384.577L565.638 385.101L565.323 385.356C565.001 385.597 564.679 385.823 564.337 386.064L564.145 386.178C563.863 386.356 563.573 386.519 563.275 386.666L562.891 386.843C562.651 386.957 562.405 387.07 562.151 387.162L561.713 387.325C561.466 387.417 561.22 387.495 560.966 387.566L560.514 387.686C560.24 387.757 559.959 387.814 559.678 387.863H559.623C559.806 391.292 559.971 394.718 560.117 398.141C560.915 396.445 562.04 394.935 563.422 393.705C564.805 392.474 566.417 391.549 568.158 390.986C569.899 390.423 571.733 390.233 573.548 390.43C575.362 390.626 577.119 391.204 578.709 392.128L576.346 398.842L581.217 394.005C583.828 396.473 585.385 399.912 585.546 403.567C585.607 404.85 585.492 406.135 585.204 407.385C584.597 410.096 583.215 412.555 581.238 414.441C579.26 416.328 576.779 417.555 574.117 417.962C571.455 418.37 568.736 417.939 566.315 416.726C563.893 415.512 561.882 413.573 560.541 411.16C560.541 411.508 560.541 411.869 560.541 412.202C560.631 415.8 560.74 420.277 559.007 424.243C557.767 426.82 556.098 429.151 554.074 431.128C552.855 432.41 551.595 433.65 550.307 434.854C549.033 436.616 547.373 438.041 545.463 439.012C543.34 440.703 541.143 442.287 538.873 443.765L537.688 444.658C536.414 445.479 535.105 446.315 533.824 447.186L534.509 447.13C537.348 446.992 540.156 447.792 542.526 449.413C544.897 451.034 546.707 453.392 547.697 456.147L539.325 463.23L548.539 461.02C548.531 463.358 547.951 465.655 546.855 467.699C545.758 469.743 544.18 471.468 542.267 472.713C540.353 473.958 538.167 474.683 535.91 474.821C533.653 474.958 531.399 474.504 529.358 473.501C529.57 473.763 529.775 474.032 529.981 474.301L531.2 475.874C536.681 483.014 538.167 489.785 535.468 494.949L532.187 493.115C534.811 488.085 530.865 481.654 528.275 478.24C527.885 477.723 527.48 477.205 527.076 476.688C523.596 472.219 519.65 467.147 519.746 460.928C519.815 451.55 528.618 445.911 535.687 441.385Z" fill="#F1F1F1"/>
<path d="M469.476 431.943L467.373 430.583C467.168 430.455 466.969 430.321 466.77 430.186C471.258 429.391 475.35 427.041 478.376 423.523C481.401 420.005 483.179 415.528 483.418 410.827C483.657 406.125 482.343 401.48 479.691 397.653C477.039 393.827 473.208 391.046 468.826 389.769L468.928 398.318L464.386 389.018H464.332C461.699 388.891 459.068 389.302 456.59 390.227C454.111 391.151 451.832 392.572 449.884 394.407C447.937 396.242 446.357 398.456 445.237 400.922C444.117 403.388 443.477 406.059 443.355 408.78C443.355 409.177 443.355 409.567 443.355 409.956C441.75 408.151 440.414 406.11 439.388 403.9C437.463 399.466 437.429 394.444 437.58 388.317C437.881 376.218 438.388 364.028 439.046 351.88C443.788 351.334 448.186 349.058 451.451 345.461C454.715 341.863 456.633 337.18 456.858 332.252C456.858 331.615 456.858 330.991 456.858 330.368V329.9C456.816 329.298 456.762 328.703 456.673 328.115C456.673 328.016 456.673 327.924 456.625 327.825C456.542 327.329 456.44 326.84 456.323 326.352C456.282 326.167 456.241 325.99 456.193 325.806C456.049 325.275 455.898 324.758 455.713 324.241C455.659 324.071 455.59 323.908 455.522 323.738C455.378 323.355 455.227 322.987 455.063 322.619C454.974 322.42 454.891 322.229 454.802 322.038C454.777 321.99 454.754 321.94 454.734 321.889C453.13 318.618 450.715 315.846 447.736 313.855C444.758 311.864 441.322 310.726 437.779 310.556C435.548 310.452 433.317 310.73 431.175 311.377L431.305 322.505L426.818 313.297C423.121 315.478 420.196 318.823 418.471 322.846C416.745 326.868 416.309 331.355 417.227 335.652C417.227 335.794 417.302 335.935 417.336 336.084C417.398 336.36 417.467 336.63 417.535 336.899C417.604 337.168 417.741 337.607 417.85 337.926C417.96 338.245 418.015 338.436 418.11 338.684C418.241 339.052 418.398 339.392 418.556 339.767C418.645 339.98 418.727 340.192 418.823 340.398C419.076 340.929 419.35 341.453 419.652 341.963C419.755 342.147 419.871 342.317 419.981 342.487C420.2 342.835 420.412 343.196 420.666 343.507C420.81 343.713 420.967 343.904 421.118 344.102C421.269 344.301 421.563 344.676 421.803 344.952L422.31 345.526C422.557 345.795 422.81 346.057 423.07 346.312L423.598 346.815C423.892 347.085 424.201 347.347 424.516 347.595C424.673 347.722 424.824 347.857 424.988 347.984C425.461 348.345 425.948 348.692 426.455 349.004C426.55 349.068 426.653 349.117 426.749 349.174C427.174 349.429 427.605 349.677 428.044 349.882L428.626 350.152C428.989 350.322 429.352 350.485 429.729 350.626C429.948 350.718 430.168 350.796 430.414 350.874C430.784 351.002 431.161 351.122 431.538 351.228L432.223 351.412C432.641 351.512 433.059 351.597 433.476 351.675H433.559C433.275 356.803 433.029 361.931 432.819 367.06C431.622 364.52 429.936 362.26 427.865 360.418C425.793 358.577 423.38 357.192 420.772 356.35C418.164 355.507 415.417 355.225 412.7 355.52C409.983 355.814 407.353 356.68 404.971 358.064L408.52 368.108L401.224 360.869C399.286 362.698 397.716 364.905 396.604 367.363C395.492 369.82 394.859 372.481 394.743 375.191C394.65 377.112 394.821 379.036 395.25 380.907C396.163 384.957 398.232 388.629 401.189 391.447C404.146 394.265 407.854 396.099 411.832 396.71C415.81 397.321 419.873 396.681 423.495 394.873C427.116 393.066 430.129 390.174 432.141 386.574C432.141 387.098 432.141 387.622 432.093 388.14C431.962 393.53 431.791 400.231 434.388 406.216C436.148 410.275 438.984 413.562 441.779 416.515C443.606 418.442 445.488 420.303 447.424 422.097C449.326 424.739 451.808 426.876 454.665 428.33C457.862 430.857 461.155 433.218 464.544 435.414L466.668 436.774C468.572 437.999 470.531 439.26 472.45 440.563C472.114 440.563 471.764 440.492 471.436 440.478C467.184 440.271 462.979 441.467 459.428 443.894C455.878 446.321 453.166 449.853 451.685 453.979L464.215 464.526L450.425 461.225C450.431 464.733 451.297 468.182 452.941 471.251C454.585 474.319 456.954 476.907 459.827 478.772C462.7 480.638 465.983 481.721 469.371 481.92C472.758 482.119 476.138 481.428 479.197 479.911C478.882 480.308 478.574 480.705 478.266 481.108C477.649 481.902 477.033 482.688 476.437 483.467C468.277 494.156 466.01 504.292 470.045 512.027L474.964 509.286C471.031 501.756 476.943 492.123 480.821 487.051C481.403 486.279 482.006 485.507 482.616 484.728C487.829 478.034 493.734 470.441 493.577 461.133C493.241 447.172 480.067 438.75 469.476 431.943Z" fill="#F1F1F1"/>
<path d="M367.848 539.022C367.848 539.022 344.138 532.533 339.671 533.008C335.204 533.483 346.446 510.809 353.934 513.571C361.422 516.334 371.417 523.615 377.123 513.338C382.83 503.06 386.029 497.528 392.996 498.08C399.963 498.633 409.582 493.653 416.535 498.08C423.488 502.507 428.366 507.954 437.97 507.72C447.575 507.487 456.666 485.358 464.153 494.205C471.641 503.053 480.595 511.163 487.624 508.216C494.652 505.27 502.695 509.697 509.1 514.676C515.506 519.656 526.754 517.446 531.022 513.571C535.29 509.697 538.517 506.934 547.614 507.487C556.712 508.039 585.601 514.676 596.302 522.978C607.002 531.28 582.388 541.784 570.619 541.784C558.849 541.784 556.705 545.106 546.539 550.086C536.372 555.065 519.787 547.316 508.018 555.618C496.249 563.92 481.266 551.191 460.934 555.618C440.601 560.045 444.883 566.13 433.106 561.703C421.33 557.275 425.619 555.618 408.499 554.513C391.379 553.408 372.65 557.275 371.04 550.086C369.43 542.896 358.709 541.232 352.317 539.022C345.926 536.812 367.848 539.022 367.848 539.022Z" fill="#3F3D56"/>
<path d="M564.214 462.536L555.034 491.627L554.636 492.895L539.271 541.6L512.964 559.981L385.221 504.441L397.326 453.823L397.97 451.16L404.451 424.066L404.464 424.003L443.787 418.917L564.214 462.536Z" fill="#F8CE6D"/>
<path opacity="0.1" d="M564.213 462.536L539.27 541.6L512.964 559.981L537.112 473.699L404.45 424.066L404.464 424.003L443.786 418.917L564.213 462.536Z" fill="black"/>
<path opacity="0.1" d="M433.113 429.492L430.996 428.16L452.22 425.858L543.141 459.093L540.579 460.482L450.884 427.778L433.113 429.492Z" fill="black"/>
<path opacity="0.1" d="M555.033 491.627L528.481 504.54L397.97 451.16L397.326 453.823L527.953 506.438L554.636 492.895" fill="black"/>
<path d="M413.732 443.177C414.481 440.685 412.978 437.988 410.377 437.152C407.775 436.317 405.06 437.66 404.311 440.152C403.563 442.644 405.065 445.341 407.667 446.176C410.268 447.012 412.984 445.669 413.732 443.177Z" fill="#3F3D56"/>
<path d="M528.762 489.228C529.51 486.736 528.008 484.039 525.406 483.204C522.804 482.369 520.089 483.712 519.34 486.204C518.592 488.696 520.094 491.393 522.696 492.228C525.298 493.063 528.013 491.72 528.762 489.228Z" fill="#3F3D56"/>
<path d="M510.583 546.422C511.331 543.93 509.829 541.233 507.227 540.398C504.626 539.563 501.91 540.906 501.162 543.398C500.413 545.89 501.916 548.587 504.517 549.422C507.119 550.257 509.834 548.914 510.583 546.422Z" fill="#3F3D56"/>
<path d="M399.659 498.435C400.407 495.943 398.905 493.246 396.303 492.411C393.702 491.575 390.986 492.918 390.238 495.41C389.489 497.902 390.992 500.6 393.593 501.435C396.195 502.27 398.911 500.927 399.659 498.435Z" fill="#3F3D56"/>
<path d="M420.008 426.977C419.734 427.898 417.535 426.977 414.74 426.071C411.945 425.164 409.766 424.172 410.04 423.237C410.314 422.302 412.945 421.821 415.74 422.72C418.535 423.62 420.289 426.057 420.008 426.977Z" fill="#3F3D56"/>
<path d="M434.081 423.659C434.357 422.74 432.524 421.334 429.988 420.52C427.451 419.706 425.171 419.791 424.895 420.71C424.619 421.629 426.452 423.034 428.988 423.848C431.525 424.663 433.805 424.578 434.081 423.659Z" fill="#3F3D56"/>
<path d="M479.17 449.375C478.896 450.296 476.149 449.446 473.484 448.589C470.819 447.732 468.743 446.775 469.017 445.855C469.291 444.934 471.819 444.438 474.498 445.267C477.176 446.095 479.458 448.44 479.17 449.375Z" fill="#3F3D56"/>
<path d="M536.002 470.476C535.694 471.51 532.776 470.611 529.946 469.704C527.117 468.797 524.918 467.756 525.226 466.722C525.535 465.688 528.241 465.057 531.07 465.964C533.899 466.871 536.318 469.442 536.002 470.476Z" fill="#3F3D56"/>
<path d="M552.622 467.997C552.307 469.031 549.396 468.132 546.566 467.225C543.737 466.318 541.531 465.277 541.846 464.243C542.161 463.209 544.86 462.578 547.69 463.485C550.519 464.392 552.93 466.963 552.622 467.997Z" fill="#3F3D56"/>
<path d="M560.815 462.947C560.5 463.981 558.075 463.244 555.76 462.493C553.444 461.742 551.649 460.836 551.93 459.802C552.211 458.767 554.547 458.002 556.883 458.753C559.219 459.504 561.124 461.912 560.815 462.947Z" fill="#3F3D56"/>
<path d="M505.935 442.249C505.688 443.071 503.195 442.313 500.825 441.541C498.454 440.769 496.557 439.905 496.81 439.083C497.064 438.261 499.324 437.787 501.722 438.552C504.12 439.317 506.175 441.42 505.935 442.249Z" fill="#3F3D56"/>
<path d="M452.599 422.831C452.875 421.912 451.323 420.597 449.134 419.894C446.944 419.191 444.945 419.366 444.669 420.285C444.393 421.204 445.945 422.519 448.134 423.222C450.324 423.925 452.323 423.75 452.599 422.831Z" fill="#3F3D56"/>
<path opacity="0.1" d="M477.403 477.177C477.695 476.204 477.657 475.157 477.296 474.209C476.934 473.261 476.271 472.469 475.416 471.964C475.824 471.485 476.129 470.922 476.313 470.313C476.536 469.574 476.569 468.788 476.409 468.031C476.25 467.275 475.903 466.574 475.403 465.997C474.904 465.421 474.268 464.988 473.558 464.741C472.848 464.494 472.089 464.442 471.354 464.59C471.642 463.562 471.565 462.461 471.136 461.486C470.707 460.512 469.954 459.729 469.015 459.279C468.075 458.829 467.011 458.742 466.014 459.035C465.018 459.327 464.156 459.978 463.585 460.871C463.028 460.455 462.383 460.181 461.704 460.074C461.024 459.966 460.33 460.027 459.678 460.252C459.025 460.477 458.435 460.86 457.954 461.367C457.473 461.875 457.116 462.494 456.912 463.173C456.912 463.273 456.864 463.365 456.844 463.457L456.693 463.535C456.212 463.087 455.64 462.756 455.02 462.567C454.399 462.378 453.745 462.335 453.106 462.442C452.467 462.548 451.859 462.802 451.328 463.183C450.796 463.565 450.354 464.064 450.034 464.646C449.713 465.227 449.523 465.876 449.477 466.543C449.431 467.211 449.531 467.88 449.768 468.503C450.005 469.125 450.375 469.685 450.849 470.141C451.323 470.596 451.89 470.936 452.507 471.135C452.731 471.208 452.96 471.26 453.193 471.291L453.247 472.934L473.977 481.696L473.84 480.28C474.658 480.166 475.427 479.813 476.058 479.264C476.689 478.714 477.155 477.991 477.403 477.177Z" fill="black"/>
<path opacity="0.1" d="M472.559 491.245C472.115 492.155 471.385 492.882 470.489 493.305C469.592 493.729 468.582 493.824 467.627 493.575C467.604 494.211 467.447 494.835 467.168 495.403C466.912 495.928 466.559 496.397 466.129 496.782C465.698 497.166 465.199 497.459 464.658 497.644C464.118 497.829 463.548 497.902 462.981 497.859C462.413 497.816 461.86 497.657 461.351 497.393C460.716 497.061 460.169 496.575 459.755 495.976C459.271 496.919 458.476 497.652 457.515 498.042C456.554 498.432 455.49 498.455 454.514 498.105C453.539 497.755 452.716 497.057 452.195 496.135C451.673 495.214 451.488 494.13 451.671 493.079C451.195 493.011 450.732 492.863 450.301 492.64C449.276 492.107 448.498 491.175 448.137 490.049C447.776 488.922 447.862 487.694 448.376 486.633L448.513 486.371L448.459 486.208C447.832 486.189 447.217 486.027 446.657 485.734C445.628 485.195 444.848 484.255 444.489 483.121C444.129 481.987 444.221 480.752 444.742 479.688C445.264 478.624 446.172 477.817 447.269 477.446C448.366 477.075 449.56 477.169 450.589 477.708C450.792 477.813 450.986 477.934 451.171 478.07L452.309 476.929L473.162 485.55L472.114 486.47C472.618 487.141 472.928 487.945 473.007 488.791C473.086 489.636 472.93 490.487 472.559 491.245Z" fill="black"/>
<path opacity="0.1" d="M459.83 467.537L454.795 484.409C454.424 485.646 454.524 486.983 455.075 488.146C455.627 489.309 456.588 490.21 457.761 490.664C458.386 490.904 459.05 491.009 459.715 490.975C460.38 490.94 461.031 490.766 461.629 490.462C462.227 490.158 462.758 489.732 463.191 489.209C463.624 488.686 463.949 488.077 464.146 487.42L469.181 470.54C469.374 469.885 469.436 469.197 469.364 468.516C469.292 467.836 469.087 467.178 468.761 466.582C468.436 465.986 467.997 465.464 467.471 465.049C466.945 464.634 466.343 464.333 465.701 464.165C464.491 463.846 463.209 464.017 462.118 464.644C461.026 465.271 460.208 466.306 459.83 467.537Z" fill="black"/>
<path d="M460.05 468.564L455.48 483.694C455.146 484.803 455.235 486.002 455.731 487.045C456.227 488.088 457.091 488.894 458.145 489.297C458.705 489.511 459.301 489.605 459.896 489.574C460.492 489.542 461.076 489.385 461.611 489.113C462.146 488.841 462.622 488.458 463.01 487.989C463.398 487.52 463.689 486.975 463.866 486.385L468.408 471.248C468.584 470.659 468.642 470.038 468.579 469.424C468.516 468.811 468.333 468.217 468.04 467.679C467.748 467.141 467.353 466.67 466.879 466.294C466.405 465.919 465.862 465.648 465.284 465.497C464.198 465.225 463.052 465.39 462.08 465.96C461.108 466.53 460.382 467.461 460.05 468.564Z" fill="#3F3D56"/>
<path d="M400.484 546.764C400.484 546.764 376.774 540.275 372.307 540.757C367.841 541.239 379.083 518.551 386.57 521.32C394.058 524.09 404.053 531.358 409.76 521.08C415.466 510.802 418.665 505.277 425.632 505.829C432.599 506.382 442.218 501.402 449.171 505.829C456.124 510.256 461.002 515.696 470.607 515.463C480.211 515.229 489.302 493.1 496.796 501.955C504.291 510.809 513.238 518.905 520.267 515.965C527.295 513.026 535.338 517.446 541.736 522.425C548.135 527.405 559.397 525.188 563.658 521.32C567.919 517.453 571.146 514.676 580.244 515.229C589.341 515.781 618.23 522.426 628.931 530.72C639.632 539.015 615.024 549.533 603.248 549.533C591.472 549.533 589.341 552.848 579.175 557.828C569.009 562.808 552.417 555.065 540.647 563.36C528.878 571.655 513.896 558.94 493.563 563.36C473.23 567.78 477.512 573.872 465.743 569.452C453.973 565.032 458.248 563.36 441.128 562.255C424.009 561.15 405.279 565.025 403.676 557.828C402.073 550.631 391.379 548.981 384.953 546.764C378.528 544.547 400.484 546.764 400.484 546.764Z" fill="#3F3D56"/>
<path d="M601.734 528.12C603.789 524.217 601.46 519.429 598.802 515.951C596.144 512.473 592.897 508.868 592.965 504.413C593.068 498.038 599.611 494.276 604.838 490.89C608.719 488.385 612.297 485.411 615.497 482.029C616.84 480.731 617.949 479.196 618.772 477.496C619.854 475.003 619.827 472.169 619.758 469.442C619.534 460.347 619.098 451.259 618.45 442.178" stroke="#3F3D56" stroke-width="4" stroke-miterlimit="10"/>
<path d="M628.39 441.682C628.317 440.017 627.839 438.398 627.001 436.974C626.163 435.551 624.991 434.368 623.594 433.537L621.443 437.942L621.512 432.609C620.483 432.297 619.411 432.163 618.34 432.212C616.447 432.309 614.625 432.983 613.103 434.15C611.581 435.316 610.428 436.923 609.788 438.767C609.148 440.61 609.05 442.609 609.507 444.51C609.965 446.411 610.956 448.129 612.357 449.448C613.757 450.767 615.505 451.628 617.378 451.921C619.251 452.215 621.166 451.928 622.882 451.097C624.598 450.267 626.037 448.929 627.018 447.254C628 445.578 628.479 443.64 628.396 441.682H628.39Z" fill="#57B793"/>
<path d="M611.243 508.967C610.234 510.988 608.585 512.589 606.57 513.503C604.556 514.416 602.299 514.585 600.178 513.982C598.057 513.38 596.201 512.041 594.921 510.192C593.64 508.343 593.014 506.095 593.146 503.825C593.278 501.554 594.161 499.4 595.646 497.723C597.132 496.046 599.13 494.947 601.305 494.612C603.481 494.277 605.702 494.725 607.596 495.881C609.49 497.037 610.942 498.831 611.709 500.963L605.701 506.042L612.312 504.462C612.305 506.03 611.938 507.574 611.243 508.967Z" fill="#57B793"/>
<path d="M606.495 489.665C604.107 489.837 601.743 489.079 599.868 487.541C597.993 486.003 596.742 483.795 596.36 481.351C595.979 478.908 596.496 476.405 597.808 474.335C599.121 472.265 601.134 470.778 603.454 470.165L603.406 474.259L605.577 469.803C606.84 469.737 608.104 469.929 609.295 470.369C610.486 470.809 611.581 471.489 612.517 472.368C613.453 473.248 614.211 474.31 614.749 475.494C615.286 476.678 615.591 477.96 615.648 479.267C615.704 480.414 615.565 481.562 615.237 482.66C614.657 484.617 613.506 486.342 611.941 487.596C610.376 488.851 608.473 489.573 606.495 489.665Z" fill="#57B793"/>
<path d="M629.835 473.607C628.359 473.663 626.891 473.366 625.544 472.739C624.198 472.112 623.009 471.172 622.072 469.992C621.135 468.812 620.473 467.424 620.14 465.936C619.806 464.449 619.81 462.902 620.149 461.416C620.489 459.93 621.156 458.545 622.099 457.369C623.041 456.193 624.233 455.259 625.582 454.638C626.932 454.017 628.401 453.726 629.877 453.789C631.352 453.852 632.794 454.266 634.089 454.999L632.39 459.816L635.884 456.345C637.757 458.118 638.873 460.586 638.988 463.209C639.033 464.13 638.953 465.053 638.748 465.95C638.273 468.057 637.145 469.945 635.536 471.328C633.927 472.71 631.925 473.511 629.835 473.607Z" fill="#57B793"/>
<path opacity="0.1" d="M627.095 444.332C624.875 444.579 622.717 445.295 620.491 445.437C618.264 445.578 615.819 445.033 614.414 443.241C613.654 442.277 613.27 441.059 612.633 440.004C612.025 439.023 611.192 438.213 610.208 437.645C609.628 438.899 609.309 440.265 609.273 441.654C609.236 443.043 609.482 444.425 609.995 445.71C610.508 446.994 611.277 448.153 612.251 449.111C613.225 450.069 614.383 450.804 615.65 451.269C616.917 451.734 618.264 451.919 619.604 451.811C620.944 451.703 622.247 451.306 623.429 450.643C624.611 449.981 625.645 449.07 626.464 447.968C627.283 446.866 627.869 445.598 628.184 444.247C627.823 444.261 627.46 444.289 627.095 444.332Z" fill="black"/>
<path opacity="0.1" d="M629.835 473.607C628.18 473.684 626.534 473.317 625.056 472.544C623.578 471.77 622.319 470.615 621.399 469.19C620.479 467.766 619.931 466.12 619.806 464.412C619.682 462.704 619.986 460.991 620.69 459.44C621.455 459.963 622.116 460.634 622.635 461.417C623.32 462.486 623.738 463.726 624.546 464.703C626.04 466.524 628.595 467.119 630.917 467.013C633.24 466.906 635.48 466.219 637.768 466C638.09 466 638.453 465.95 638.741 465.943C638.268 468.05 637.142 469.939 635.534 471.323C633.926 472.706 631.925 473.509 629.835 473.607Z" fill="black"/>
<path opacity="0.1" d="M606.495 489.665C604.854 489.748 603.219 489.394 601.748 488.636C600.276 487.879 599.018 486.743 598.094 485.337C597.169 483.932 596.61 482.305 596.469 480.612C596.328 478.919 596.61 477.216 597.288 475.668C598.087 476.205 598.784 476.889 599.343 477.687C600.09 478.778 600.556 480.039 601.398 481.045C603.022 482.908 605.748 483.566 608.208 483.51C610.667 483.453 612.88 482.851 615.243 482.66C614.664 484.619 613.511 486.344 611.945 487.598C610.378 488.853 608.475 489.575 606.495 489.665Z" fill="black"/>
<path opacity="0.1" d="M611.243 508.967C610.203 511.37 608.282 513.247 605.903 514.185C603.524 515.124 600.883 515.047 598.559 513.971C596.235 512.896 594.42 510.91 593.512 508.45C592.604 505.991 592.679 503.259 593.719 500.857C594.509 501.395 595.218 502.052 595.822 502.805C596.74 503.952 597.343 505.262 598.398 506.346C600.364 508.344 603.536 509.18 606.365 509.243C607.995 509.251 609.624 509.159 611.243 508.967Z" fill="black"/>
<path d="M587.231 523.623C587.231 523.623 594.822 523.382 597.11 521.696C599.398 520.01 608.756 518.005 609.352 520.704C609.948 523.403 620.751 534.163 612.188 534.205C603.625 534.248 592.28 532.831 589.999 531.372C587.718 529.913 587.231 523.623 587.231 523.623Z" fill="#03001C"/>
<path opacity="0.2" d="M612.359 533.27C603.789 533.341 592.452 531.853 590.17 530.437C588.43 529.339 587.738 525.415 587.505 523.601H587.252C587.252 523.601 587.731 529.934 589.992 531.393C592.253 532.852 603.611 534.276 612.181 534.226C614.654 534.226 615.504 533.298 615.463 531.953C615.1 532.746 614.182 533.249 612.359 533.27Z" fill="black"/>
<path d="M178.268 326.294C178.268 326.294 151.87 317.792 155.922 331.78C159.975 345.769 182.21 338.703 182.21 338.703L178.268 326.294Z" fill="#FFB8B8"/>
<path d="M279.179 273.789C279.179 273.789 265.651 254.673 252.507 274.518C239.337 294.401 227.092 310.724 227.092 310.724L194.384 321.751L175.461 323.487L180.674 340.883L235.693 332.63C235.693 332.63 296.947 295.007 279.179 273.789Z" fill="#2F2E41"/>
<path d="M218.794 379.65C218.794 379.65 198.242 394.525 199.612 407.984C200.983 421.442 209.888 458.275 209.888 458.275L228.385 455.442C228.385 455.442 230.44 427.109 223.59 416.484L256.472 397.359L218.794 379.65Z" fill="#FFB8B8"/>
<path d="M264.351 414.713C264.351 414.713 262.981 440.921 266.406 451.546C269.831 462.171 273.257 501.838 273.257 501.838H292.438C292.438 501.838 301.344 467.13 290.383 451.546C290.383 451.546 286.958 431.005 296.549 421.088L264.351 414.713Z" fill="#FFB8B8"/>
<path d="M259.898 342.109C259.898 342.109 215.369 371.15 215.369 380.359L250.992 410.817L263.323 396.65L261.953 417.9L300.316 425.692C300.316 425.692 314.017 371.859 313.332 369.734C312.647 367.609 310.592 336.442 310.592 336.442L259.898 342.109Z" fill="#2F2E41"/>
<path d="M228.385 451.9L208.518 456.15L212.048 471.155C213.785 478.539 213.983 486.222 212.628 493.692C212.628 493.692 233.18 499.359 233.18 496.525C233.18 493.692 228.385 482.359 229.755 474.567C231.125 466.775 228.385 451.9 228.385 451.9Z" fill="#03001C"/>
<path d="M238.661 505.025C237.976 502.192 232.284 489.346 232.047 491.519C231.81 493.692 220.849 497.234 216.739 492.984C216.739 492.984 211.258 488.025 209.203 492.984C207.148 497.942 203.038 506.442 203.038 506.442C203.038 506.442 184.541 515.65 187.281 520.609C187.836 521.612 189.371 522.035 191.467 522.072C191.418 522.203 191.393 522.342 191.392 522.483V522.985C191.392 523.294 191.511 523.59 191.722 523.809C191.933 524.028 192.22 524.15 192.519 524.15H193.005C193.304 524.15 193.59 524.028 193.802 523.809C194.013 523.59 194.132 523.294 194.132 522.985V522.483C194.131 522.302 194.089 522.124 194.009 521.963C194.569 521.912 195.15 521.845 195.748 521.764C195.59 521.968 195.503 522.221 195.502 522.483V522.985C195.502 523.294 195.621 523.59 195.832 523.809C196.044 524.028 196.33 524.15 196.629 524.15H197.115C197.414 524.15 197.701 524.028 197.912 523.809C198.124 523.59 198.242 523.294 198.242 522.985V522.483C198.242 522.275 198.187 522.071 198.085 521.893C197.982 521.714 197.835 521.568 197.659 521.468C199.236 521.196 200.882 520.85 202.518 520.466C202.411 520.646 202.354 520.854 202.353 521.066V521.568C202.353 521.877 202.471 522.174 202.683 522.392C202.894 522.611 203.181 522.734 203.48 522.734H203.966C204.265 522.734 204.551 522.611 204.763 522.392C204.974 522.174 205.093 521.877 205.093 521.568V521.066C205.093 520.841 205.029 520.62 204.91 520.431C204.791 520.243 204.622 520.094 204.423 520.002C205.65 519.693 206.853 519.37 207.998 519.051C207.891 519.231 207.834 519.438 207.833 519.649V520.151C207.833 520.461 207.952 520.757 208.163 520.976C208.375 521.194 208.662 521.317 208.961 521.317H209.446C209.745 521.317 210.032 521.194 210.243 520.976C210.455 520.757 210.573 520.461 210.573 520.151V519.649C210.573 519.401 210.496 519.16 210.353 518.961C210.21 518.762 210.01 518.615 209.781 518.542C213.804 517.37 216.739 516.359 216.739 516.359C216.739 516.359 220.147 515.076 224.275 513.344V513.776C224.275 514.086 224.393 514.382 224.605 514.601C224.816 514.819 225.103 514.942 225.402 514.942H225.887C226.186 514.942 226.473 514.819 226.685 514.601C226.896 514.382 227.015 514.086 227.015 513.776V513.274C227.014 513.098 226.975 512.923 226.899 512.765C226.824 512.606 226.714 512.468 226.579 512.36C227.407 512 228.243 511.629 229.07 511.253V511.651C229.07 511.961 229.189 512.257 229.4 512.476C229.612 512.694 229.898 512.817 230.197 512.817H230.683C230.982 512.817 231.269 512.694 231.48 512.476C231.692 512.257 231.81 511.961 231.81 511.651V511.149C231.81 510.962 231.766 510.777 231.682 510.611C231.598 510.445 231.477 510.302 231.328 510.195C232.222 509.764 233.083 509.333 233.877 508.911C233.873 508.949 233.865 508.986 233.865 509.024V509.526C233.865 509.836 233.984 510.132 234.196 510.351C234.407 510.569 234.694 510.692 234.993 510.692H235.478C235.777 510.692 236.064 510.569 236.276 510.351C236.487 510.132 236.606 509.836 236.606 509.526V509.024C236.606 508.756 236.516 508.495 236.351 508.287C236.187 508.079 235.958 507.936 235.704 507.882C237.619 506.732 238.827 505.712 238.661 505.025Z" fill="#2F2E41"/>
<path d="M293.808 498.65L272.105 497.234C272.105 497.234 273.421 520.609 270.79 528.4C268.16 536.192 269.475 539.025 269.475 539.025L288.547 540.442L293.808 498.65Z" fill="#03001C"/>
<path d="M294.075 550.312C293.977 547.394 291 533.603 290.331 535.677C289.661 537.751 278.226 538.852 275.063 533.809C275.063 533.809 270.703 527.778 267.693 532.185C264.683 536.591 258.949 544.018 258.949 544.018C258.949 544.018 239.002 549.036 240.683 554.476C241.022 555.577 242.439 556.321 244.482 556.81C244.407 556.927 244.354 557.058 244.325 557.195L244.223 557.686C244.161 557.989 244.217 558.304 244.38 558.564C244.543 558.823 244.799 559.005 245.091 559.069L245.566 559.174C245.858 559.238 246.163 559.18 246.414 559.012C246.665 558.844 246.841 558.579 246.903 558.277L247.005 557.786C247.04 557.609 247.035 557.426 246.989 557.251C247.547 557.322 248.129 557.382 248.73 557.432C248.534 557.597 248.398 557.826 248.345 558.081L248.243 558.572C248.181 558.875 248.237 559.19 248.4 559.45C248.563 559.709 248.819 559.891 249.111 559.955L249.586 560.06C249.878 560.125 250.183 560.066 250.434 559.898C250.685 559.73 250.861 559.465 250.923 559.163L251.025 558.672C251.066 558.469 251.054 558.258 250.99 558.061C250.925 557.865 250.811 557.689 250.659 557.554C252.256 557.628 253.935 557.644 255.613 557.622C255.472 557.775 255.374 557.966 255.33 558.173L255.229 558.664C255.167 558.966 255.223 559.282 255.386 559.541C255.549 559.8 255.804 559.982 256.097 560.047L256.571 560.152C256.864 560.216 257.169 560.158 257.42 559.989C257.671 559.821 257.847 559.557 257.909 559.254L258.01 558.764C258.056 558.543 258.038 558.314 257.96 558.104C257.881 557.893 257.746 557.711 257.569 557.579C258.832 557.541 260.074 557.485 261.258 557.419C261.117 557.572 261.019 557.762 260.976 557.969L260.875 558.46C260.812 558.762 260.869 559.078 261.031 559.337C261.194 559.596 261.45 559.778 261.742 559.843L262.217 559.947C262.509 560.012 262.815 559.954 263.066 559.785C263.316 559.617 263.492 559.353 263.555 559.05L263.656 558.56C263.705 558.317 263.679 558.064 263.579 557.839C263.48 557.613 263.313 557.426 263.104 557.306C267.275 557.027 270.35 556.67 270.35 556.67C270.35 556.67 273.942 556.151 278.328 555.346L278.24 555.769C278.178 556.072 278.234 556.387 278.397 556.647C278.56 556.906 278.815 557.088 279.108 557.153L279.583 557.257C279.875 557.322 280.18 557.263 280.431 557.095C280.682 556.927 280.858 556.663 280.92 556.36L281.022 555.869C281.057 555.696 281.053 555.517 281.011 555.346C280.969 555.175 280.89 555.016 280.78 554.881C281.663 554.707 282.555 554.525 283.439 554.335L283.359 554.725C283.297 555.027 283.353 555.343 283.516 555.602C283.678 555.862 283.934 556.044 284.226 556.108L284.701 556.213C284.994 556.277 285.299 556.219 285.55 556.051C285.801 555.882 285.977 555.618 286.039 555.316L286.14 554.825C286.178 554.641 286.172 554.451 286.123 554.271C286.075 554.09 285.985 553.924 285.861 553.788C286.822 553.559 287.751 553.323 288.612 553.081C288.601 553.118 288.586 553.152 288.579 553.19L288.477 553.681C288.415 553.983 288.471 554.298 288.634 554.558C288.797 554.817 289.053 554.999 289.345 555.064L289.82 555.168C290.112 555.233 290.417 555.174 290.668 555.006C290.919 554.838 291.095 554.574 291.157 554.271L291.259 553.78C291.313 553.517 291.277 553.243 291.159 553.004C291.04 552.765 290.845 552.576 290.607 552.469C292.712 551.757 294.099 551.019 294.075 550.312Z" fill="#2F2E41"/>
<path d="M259.898 250.025C270.87 250.025 279.765 240.829 279.765 229.484C279.765 218.139 270.87 208.942 259.898 208.942C248.926 208.942 240.031 218.139 240.031 229.484C240.031 240.829 248.926 250.025 259.898 250.025Z" fill="#FFB8B8"/>
<path d="M277.709 227.359C277.709 227.359 288.67 241.525 294.151 240.817L270.173 259.942C270.173 259.942 267.433 247.9 264.008 246.484C260.583 245.067 277.709 227.359 277.709 227.359Z" fill="#FFB8B8"/>
<path d="M320.526 332.546C320.526 332.546 320.524 254.384 307.843 247.651C295.169 240.922 286.786 237.081 286.786 237.081C286.599 239.646 285.894 242.142 284.717 244.407C283.539 246.672 281.915 248.657 279.949 250.233C275.747 253.587 271.56 256.369 269.221 256.378L269.146 256.046L268.861 255.204L261.953 266.317C261.953 266.317 255.787 267.734 253.732 271.984C252.62 274.283 257.863 297.429 254.76 318.379C252.126 336.154 241.03 352.2 240.716 354.15C240.184 357.448 253.671 348.808 259.744 344.769C259.834 344.873 259.898 344.942 259.898 344.942C259.898 344.942 256.472 346.359 263.323 344.234C267.205 343.03 272.624 342.963 276.594 343.131C276.589 344.362 276.617 345.339 276.682 346.004C277.367 353.088 311.62 363.004 316.415 360.879C321.211 358.754 320.526 332.546 320.526 332.546Z" fill="#2F2E41"/>
<path d="M296.548 359.463C296.548 359.463 275.996 378.588 289.698 382.129C303.399 385.671 308.879 362.296 308.879 362.296L296.548 359.463Z" fill="#FFB8B8"/>
<path d="M272.571 409.046C272.571 409.046 282.162 399.838 287.643 404.796C293.123 409.755 296.548 413.296 296.548 413.296C296.548 413.296 280.792 403.38 272.571 409.046Z" fill="#03001C"/>
<path d="M275.062 519.226C275.062 519.226 280.468 514.036 283.557 516.831C286.646 519.625 288.577 521.622 288.577 521.622C288.577 521.622 279.696 516.032 275.062 519.226Z" fill="#2F2E41"/>
<path d="M214.501 470.95C214.501 470.95 218.212 464.358 221.954 466.102C225.695 467.846 228.104 469.175 228.104 469.175C228.104 469.175 218.035 466.5 214.501 470.95Z" fill="#2F2E41"/>
<path d="M315.349 257.37C308.558 243.256 287.896 250.954 291.253 266.331C291.303 266.56 291.356 266.792 291.411 267.025C294.949 281.582 300.732 295.454 308.537 308.109L301.001 342.817L292.781 360.525L309.907 364.775L331.144 311.65C331.144 311.65 325.286 278.024 315.349 257.37Z" fill="#2F2E41"/>
<path opacity="0.2" d="M305.454 309.171L292.438 360.171L303.399 336.088L305.454 309.171Z" fill="black"/>
<path d="M272.374 205.539C272.374 205.539 261.393 193.585 250.339 201.113C239.285 208.642 234.042 215.955 235.126 221.047C236.209 226.138 239.417 233.221 239.417 233.221C239.417 233.221 237.424 222.672 246.576 221.891C255.729 221.111 268.374 214.848 268.374 214.848L276.928 233.735C276.928 233.735 278.137 229.358 281.489 230.613C284.842 231.869 282.243 206.939 272.374 205.539Z" fill="#2F2E41"/>
<path d="M142.017 137.443C142.017 137.443 114.882 136.66 103.563 188.487C103.563 188.487 100.765 216.161 76.7333 224.611L72.0852 219.29L67.9164 223.038L185.421 357.749L189.763 354.332L134.281 290.465C144.153 286.025 164.176 270.202 168.667 214.412C168.667 214.412 174.941 171.023 203.521 165.712L142.017 137.443Z" fill="url(#paint0_linear_1_78)"/>
<path d="M73.0129 226.704L129.715 291.235C129.715 291.235 162.882 288.294 168.769 215.172C168.769 215.172 174.915 172.727 202.864 167.536L142.713 139.875C142.713 139.875 116.171 139.124 105.098 189.808C105.094 189.809 101.926 221.244 73.0129 226.704Z" fill="#03001C"/>
<path d="M70.2166 223.612L184.739 354.893L188.984 351.549L74.3038 219.94L70.2166 223.612Z" fill="#F0F5FA"/>
<g filter="url(#filter1_ddd_1_78)">
<path d="M425.896 203H419.696C419.189 203 418.816 202.893 418.576 202.68C418.363 202.44 418.256 202.067 418.256 201.56V175.64C418.256 175.133 418.363 174.773 418.576 174.56C418.816 174.32 419.189 174.2 419.696 174.2H437.536C438.043 174.2 438.403 174.32 438.616 174.56C438.856 174.773 438.976 175.133 438.976 175.64V180.4C438.976 180.907 438.856 181.28 438.616 181.52C438.403 181.733 438.043 181.84 437.536 181.84H427.336V186H434.296C434.803 186 435.163 186.12 435.376 186.36C435.616 186.573 435.736 186.933 435.736 187.44V192.24C435.736 192.747 435.616 193.12 435.376 193.36C435.163 193.573 434.803 193.68 434.296 193.68H427.336V201.56C427.336 202.067 427.216 202.44 426.976 202.68C426.763 202.893 426.403 203 425.896 203ZM452.016 182.6L450.136 188.68H456.416L454.536 182.6C454.43 182.36 454.31 182.187 454.176 182.08C454.07 181.973 453.936 181.92 453.776 181.92H452.776C452.616 181.92 452.47 181.973 452.336 182.08C452.23 182.187 452.123 182.36 452.016 182.6ZM449.736 201.56C449.736 202.067 449.616 202.44 449.376 202.68C449.163 202.893 448.803 203 448.296 203H442.416C441.91 203 441.536 202.893 441.296 202.68C441.083 202.44 440.976 202.067 440.976 201.56V191C440.976 190.2 441.096 189.28 441.336 188.24C441.603 187.2 442.003 185.987 442.536 184.6L446.016 175.52C446.176 175.067 446.416 174.733 446.736 174.52C447.083 174.307 447.523 174.2 448.056 174.2H458.816C459.323 174.2 459.736 174.307 460.056 174.52C460.403 174.733 460.656 175.067 460.816 175.52L464.296 184.6C464.83 185.987 465.216 187.2 465.456 188.24C465.723 189.28 465.856 190.2 465.856 191V201.56C465.856 202.067 465.736 202.44 465.496 202.68C465.283 202.893 464.923 203 464.416 203H458.376C457.843 203 457.443 202.893 457.176 202.68C456.936 202.44 456.816 202.067 456.816 201.56V195.96H449.736V201.56ZM484.155 203H471.515C471.008 203 470.635 202.893 470.395 202.68C470.182 202.44 470.075 202.067 470.075 201.56V196.88C470.075 196.373 470.182 196.013 470.395 195.8C470.635 195.56 471.008 195.44 471.515 195.44H482.275C482.622 195.44 482.875 195.333 483.035 195.12C483.222 194.88 483.315 194.6 483.315 194.28C483.315 193.827 483.222 193.493 483.035 193.28C482.875 193.067 482.622 192.947 482.275 192.92L476.275 192.08C474.408 191.813 472.902 191.2 471.755 190.24C470.635 189.28 470.075 187.68 470.075 185.44V181.24C470.075 178.973 470.808 177.24 472.275 176.04C473.742 174.813 475.768 174.2 478.355 174.2H489.555C490.062 174.2 490.422 174.32 490.635 174.56C490.875 174.773 490.995 175.133 490.995 175.64V180.4C490.995 180.907 490.875 181.28 490.635 181.52C490.422 181.733 490.062 181.84 489.555 181.84H480.235C479.888 181.84 479.622 181.96 479.435 182.2C479.248 182.413 479.155 182.693 479.155 183.04C479.155 183.387 479.248 183.68 479.435 183.92C479.622 184.16 479.888 184.293 480.235 184.32L486.195 185.12C488.062 185.387 489.568 186 490.715 186.96C491.862 187.92 492.435 189.52 492.435 191.76V195.96C492.435 198.227 491.688 199.973 490.195 201.2C488.728 202.4 486.715 203 484.155 203ZM510.02 203H503.54C503.033 203 502.66 202.893 502.42 202.68C502.207 202.44 502.1 202.067 502.1 201.56V181.92H496.22C495.713 181.92 495.34 181.813 495.1 181.6C494.887 181.36 494.78 180.987 494.78 180.48V175.64C494.78 175.133 494.887 174.773 495.1 174.56C495.34 174.32 495.713 174.2 496.22 174.2H517.34C517.847 174.2 518.207 174.32 518.42 174.56C518.66 174.773 518.78 175.133 518.78 175.64V180.48C518.78 180.987 518.66 181.36 518.42 181.6C518.207 181.813 517.847 181.92 517.34 181.92H511.46V201.56C511.46 202.067 511.34 202.44 511.1 202.68C510.887 202.893 510.527 203 510.02 203ZM462.649 251H456.649C456.143 251 455.769 250.893 455.529 250.68C455.316 250.44 455.209 250.067 455.209 249.56V223.64C455.209 223.133 455.316 222.773 455.529 222.56C455.769 222.32 456.143 222.2 456.649 222.2H460.809C461.316 222.2 461.743 222.28 462.089 222.44C462.463 222.6 462.823 222.88 463.169 223.28L470.929 232.16V223.64C470.929 223.133 471.036 222.773 471.249 222.56C471.489 222.32 471.863 222.2 472.369 222.2H478.369C478.876 222.2 479.236 222.32 479.449 222.56C479.689 222.773 479.809 223.133 479.809 223.64V249.56C479.809 250.067 479.689 250.44 479.449 250.68C479.236 250.893 478.876 251 478.369 251H472.369C471.863 251 471.489 250.893 471.249 250.68C471.036 250.44 470.929 250.067 470.929 249.56V244.64L464.089 236.36V249.56C464.089 250.067 463.969 250.44 463.729 250.68C463.516 250.893 463.156 251 462.649 251ZM401.951 299H395.751C395.244 299 394.871 298.893 394.631 298.68C394.417 298.44 394.311 298.067 394.311 297.56V271.64C394.311 271.133 394.417 270.773 394.631 270.56C394.871 270.32 395.244 270.2 395.751 270.2H413.591C414.097 270.2 414.457 270.32 414.671 270.56C414.911 270.773 415.031 271.133 415.031 271.64V276.4C415.031 276.907 414.911 277.28 414.671 277.52C414.457 277.733 414.097 277.84 413.591 277.84H403.391V282H410.351C410.857 282 411.217 282.12 411.431 282.36C411.671 282.573 411.791 282.933 411.791 283.44V288.24C411.791 288.747 411.671 289.12 411.431 289.36C411.217 289.573 410.857 289.68 410.351 289.68H403.391V297.56C403.391 298.067 403.271 298.44 403.031 298.68C402.817 298.893 402.457 299 401.951 299ZM428.077 277.4V282.52H431.077C431.771 282.52 432.237 282.347 432.477 282C432.717 281.627 432.837 281.173 432.837 280.64V279.28C432.837 278.747 432.717 278.307 432.477 277.96C432.237 277.587 431.771 277.4 431.077 277.4H428.077ZM426.637 299H420.477C419.971 299 419.597 298.893 419.357 298.68C419.144 298.44 419.037 298.067 419.037 297.56V271.64C419.037 271.133 419.144 270.773 419.357 270.56C419.597 270.32 419.971 270.2 420.477 270.2H433.797C436.784 270.2 438.837 270.827 439.957 272.08C441.104 273.307 441.677 274.907 441.677 276.88V278.72C441.677 279.84 441.504 280.8 441.157 281.6C440.837 282.373 440.264 282.933 439.437 283.28C440.877 283.44 442.037 284.027 442.917 285.04C443.824 286.053 444.277 287.4 444.277 289.08V297.56C444.277 298.067 444.157 298.44 443.917 298.68C443.704 298.893 443.344 299 442.837 299H436.637C436.131 299 435.757 298.893 435.517 298.68C435.304 298.44 435.197 298.067 435.197 297.56V291.44C435.197 290.853 435.077 290.427 434.837 290.16C434.624 289.867 434.237 289.72 433.677 289.72H428.077V297.56C428.077 298.067 427.957 298.44 427.717 298.68C427.504 298.893 427.144 299 426.637 299ZM472.969 291.44C472.969 292.667 472.782 293.787 472.409 294.8C472.062 295.787 471.422 296.64 470.489 297.36C469.582 298.053 468.315 298.6 466.689 299C465.089 299.4 463.049 299.6 460.569 299.6C458.089 299.6 456.035 299.4 454.409 299C452.782 298.6 451.502 298.053 450.569 297.36C449.662 296.64 449.022 295.787 448.649 294.8C448.302 293.787 448.129 292.667 448.129 291.44V277.8C448.129 276.573 448.302 275.467 448.649 274.48C449.022 273.467 449.662 272.6 450.569 271.88C451.502 271.16 452.782 270.6 454.409 270.2C456.035 269.8 458.089 269.6 460.569 269.6C463.049 269.6 465.089 269.8 466.689 270.2C468.315 270.6 469.582 271.16 470.489 271.88C471.422 272.6 472.062 273.467 472.409 274.48C472.782 275.467 472.969 276.573 472.969 277.8V291.44ZM457.209 290C457.209 290.533 457.409 290.987 457.809 291.36C458.209 291.707 459.129 291.88 460.569 291.88C462.009 291.88 462.929 291.707 463.329 291.36C463.729 290.987 463.929 290.533 463.929 290V279.24C463.929 278.733 463.729 278.307 463.329 277.96C462.929 277.587 462.009 277.4 460.569 277.4C459.129 277.4 458.209 277.587 457.809 277.96C457.409 278.307 457.209 278.733 457.209 279.24V290ZM499.861 299H479.501C478.994 299 478.621 298.893 478.381 298.68C478.167 298.44 478.061 298.067 478.061 297.56V271.64C478.061 271.133 478.167 270.773 478.381 270.56C478.621 270.32 478.994 270.2 479.501 270.2H485.701C486.207 270.2 486.567 270.32 486.781 270.56C487.021 270.773 487.141 271.133 487.141 271.64V291.44H492.621V284.96C492.621 284.453 492.727 284.093 492.941 283.88C493.181 283.64 493.554 283.52 494.061 283.52H499.861C500.367 283.52 500.727 283.64 500.941 283.88C501.181 284.093 501.301 284.453 501.301 284.96V297.56C501.301 298.067 501.181 298.44 500.941 298.68C500.727 298.893 500.367 299 499.861 299ZM506.673 299C506.167 299 505.793 298.893 505.553 298.68C505.34 298.44 505.233 298.067 505.233 297.56V292.8C505.233 292.293 505.34 291.933 505.553 291.72C505.793 291.48 506.167 291.36 506.673 291.36H510.633V277.92H506.673C506.167 277.92 505.793 277.813 505.553 277.6C505.34 277.36 505.233 276.987 505.233 276.48V271.64C505.233 271.133 505.34 270.773 505.553 270.56C505.793 270.32 506.167 270.2 506.673 270.2H523.713C524.22 270.2 524.58 270.32 524.793 270.56C525.033 270.773 525.153 271.133 525.153 271.64V276.48C525.153 276.987 525.033 277.36 524.793 277.6C524.58 277.813 524.22 277.92 523.713 277.92H519.833V291.36H523.713C524.22 291.36 524.58 291.48 524.793 291.72C525.033 291.933 525.153 292.293 525.153 292.8V297.56C525.153 298.067 525.033 298.44 524.793 298.68C524.58 298.893 524.22 299 523.713 299H506.673ZM549.252 299H539.492C536.159 299 533.679 298.333 532.052 297C530.452 295.667 529.652 293.613 529.652 290.84V278.4C529.652 275.627 530.452 273.573 532.052 272.24C533.679 270.88 536.159 270.2 539.492 270.2H549.252C549.759 270.2 550.119 270.32 550.332 270.56C550.572 270.773 550.692 271.133 550.692 271.64V276.48C550.692 276.987 550.572 277.36 550.332 277.6C550.119 277.813 549.759 277.92 549.252 277.92H541.212C540.385 277.92 539.772 278.093 539.372 278.44C538.972 278.76 538.772 279.253 538.772 279.92V289.44C538.772 290.107 538.972 290.6 539.372 290.92C539.772 291.213 540.385 291.36 541.212 291.36H549.252C549.759 291.36 550.119 291.48 550.332 291.72C550.572 291.933 550.692 292.293 550.692 292.8V297.56C550.692 298.067 550.572 298.44 550.332 298.68C550.119 298.893 549.759 299 549.252 299Z" fill="#2F2E41"/>
</g>
</g>
<defs>
<filter id="filter0_d_1_78" x="0" y="0" width="708" height="708" filterUnits="userSpaceOnUse" color-interpolation-filters="sRGB">
<feFlood flood-opacity="0" result="BackgroundImageFix"/>
<feColorMatrix in="SourceAlpha" type="matrix" values="0 0 0 0 0 0 0 0 0 0 0 0 0 0 0 0 0 0 127 0" result="hardAlpha"/>
<feOffset dy="4"/>
<feGaussianBlur stdDeviation="2"/>
<feComposite in2="hardAlpha" operator="out"/>
<feColorMatrix type="matrix" values="0 0 0 0 0 0 0 0 0 0 0 0 0 0 0 0 0 0 0.25 0"/>
<feBlend mode="normal" in2="BackgroundImageFix" result="effect1_dropShadow_1_78"/>
<feBlend mode="normal" in="SourceGraphic" in2="effect1_dropShadow_1_78" result="shape"/>
</filter>
<filter id="filter1_ddd_1_78" x="390.311" y="174.2" width="164.381" height="133.4" filterUnits="userSpaceOnUse" color-interpolation-filters="sRGB">
<feFlood flood-opacity="0" result="BackgroundImageFix"/>
<feColorMatrix in="SourceAlpha" type="matrix" values="0 0 0 0 0 0 0 0 0 0 0 0 0 0 0 0 0 0 127 0" result="hardAlpha"/>
<feOffset dy="4"/>
<feGaussianBlur stdDeviation="2"/>
<feComposite in2="hardAlpha" operator="out"/>
<feColorMatrix type="matrix" values="0 0 0 0 0 0 0 0 0 0 0 0 0 0 0 0 0 0 0.25 0"/>
<feBlend mode="normal" in2="BackgroundImageFix" result="effect1_dropShadow_1_78"/>
<feColorMatrix in="SourceAlpha" type="matrix" values="0 0 0 0 0 0 0 0 0 0 0 0 0 0 0 0 0 0 127 0" result="hardAlpha"/>
<feOffset dy="4"/>
<feGaussianBlur stdDeviation="2"/>
<feComposite in2="hardAlpha" operator="out"/>
<feColorMatrix type="matrix" values="0 0 0 0 0 0 0 0 0 0 0 0 0 0 0 0 0 0 0.25 0"/>
<feBlend mode="normal" in2="effect1_dropShadow_1_78" result="effect2_dropShadow_1_78"/>
<feColorMatrix in="SourceAlpha" type="matrix" values="0 0 0 0 0 0 0 0 0 0 0 0 0 0 0 0 0 0 127 0" result="hardAlpha"/>
<feOffset dy="4"/>
<feGaussianBlur stdDeviation="2"/>
<feComposite in2="hardAlpha" operator="out"/>
<feColorMatrix type="matrix" values="0 0 0 0 0 0 0 0 0 0 0 0 0 0 0 0 0 0 0.25 0"/>
<feBlend mode="normal" in2="effect2_dropShadow_1_78" result="effect3_dropShadow_1_78"/>
<feBlend mode="normal" in="SourceGraphic" in2="effect3_dropShadow_1_78" result="shape"/>
</filter>
<linearGradient id="paint0_linear_1_78" x1="232.979" y1="291.837" x2="89.1159" y2="192.369" gradientUnits="userSpaceOnUse">
<stop stop-color="#808080" stop-opacity="0.25"/>
<stop offset="0.54" stop-color="#808080" stop-opacity="0.12"/>
<stop offset="1" stop-color="#808080" stop-opacity="0.1"/>
</linearGradient>
<clipPath id="clip0_1_78">
<rect width="700" height="700" fill="white" transform="translate(4)"/>
</clipPath>
</defs>
</svg>
