<svg width="634" height="596" viewBox="0 0 634 596" fill="none" xmlns="http://www.w3.org/2000/svg">
<path d="M78.3605 111.048C78.3605 112.799 76.9423 114.216 75.1923 114.216C73.4428 114.216 72.0245 112.799 72.0245 111.048C72.0245 109.299 73.4428 107.88 75.1923 107.88C76.9423 107.88 78.3605 109.299 78.3605 111.048Z" fill="#100F0D"/>
<path d="M549.048 78.16C549.048 79.9094 547.629 81.328 545.88 81.328C544.13 81.328 542.712 79.9094 542.712 78.16C542.712 76.4107 544.13 74.992 545.88 74.992C547.629 74.992 549.048 76.4107 549.048 78.16Z" fill="#100F0D"/>
<path d="M327.872 557.659C327.872 559.408 326.453 560.827 324.704 560.827C322.953 560.827 321.536 559.408 321.536 557.659C321.536 555.908 322.953 554.491 324.704 554.491C326.453 554.491 327.872 555.908 327.872 557.659Z" fill="#100F0D"/>
<path d="M168.039 592.383C168.039 594.131 166.62 595.551 164.871 595.551C163.12 595.551 161.703 594.131 161.703 592.383C161.703 590.632 163.12 589.215 164.871 589.215C166.62 589.215 168.039 590.632 168.039 592.383Z" fill="#F25A1F"/>
<path d="M12.8298 400.103C12.8298 401.852 11.4115 403.271 9.6615 403.271C7.91256 403.271 6.4939 401.852 6.4939 400.103C6.4939 398.353 7.91256 396.935 9.6615 396.935C11.4115 396.935 12.8298 398.353 12.8298 400.103Z" fill="#F25A1F"/>
<path d="M491.252 573.772C491.252 575.521 489.832 576.94 488.084 576.94C486.333 576.94 484.916 575.521 484.916 573.772C484.916 572.023 486.333 570.604 488.084 570.604C489.832 570.604 491.252 572.023 491.252 573.772Z" fill="#F25A1F"/>
<path d="M393.499 7.08667C393.499 8.836 392.081 10.2546 390.331 10.2546C388.581 10.2546 387.163 8.836 387.163 7.08667C387.163 5.336 388.581 3.91864 390.331 3.91864C392.081 3.91864 393.499 5.336 393.499 7.08667Z" fill="#F25A1F"/>
<path d="M563.428 10.2546C563.428 12.004 562.009 13.4226 560.26 13.4226C558.509 13.4226 557.092 12.004 557.092 10.2546C557.092 8.50397 558.509 7.08667 560.26 7.08667C562.009 7.08667 563.428 8.50397 563.428 10.2546Z" fill="#F25A1F"/>
<path d="M22.8147 128.129C22.8147 129.879 21.3959 131.296 19.6459 131.296C17.897 131.296 16.4781 129.879 16.4781 128.129C16.4781 126.379 17.897 124.961 19.6459 124.961C21.3959 124.961 22.8147 126.379 22.8147 128.129Z" fill="#F25A1F"/>
<path d="M207.105 3.32263C207.105 5.07196 205.687 6.49066 203.937 6.49066C202.188 6.49066 200.769 5.07196 200.769 3.32263C200.769 1.57329 202.188 0.154659 203.937 0.154659C205.687 0.154659 207.105 1.57329 207.105 3.32263Z" fill="#F25A1F"/>
<path d="M246.055 529.64C246.055 531.39 244.636 532.808 242.887 532.808C241.137 532.808 239.719 531.39 239.719 529.64C239.719 527.891 241.137 526.471 242.887 526.471C244.636 526.471 246.055 527.891 246.055 529.64Z" fill="#F79510"/>
<path d="M45.4767 517.367C45.4767 519.117 44.0584 520.535 42.309 520.535C40.5595 520.535 39.1407 519.117 39.1407 517.367C39.1407 515.617 40.5595 514.199 42.309 514.199C44.0584 514.199 45.4767 515.617 45.4767 517.367Z" fill="#F79510"/>
<path d="M461.981 514.199C461.981 515.948 460.563 517.367 458.813 517.367C457.063 517.367 455.645 515.948 455.645 514.199C455.645 512.449 457.063 511.031 458.813 511.031C460.563 511.031 461.981 512.449 461.981 514.199Z" fill="#F79510"/>
<path d="M598.943 459.125C598.943 460.875 597.524 462.293 595.775 462.293C594.025 462.293 592.605 460.875 592.605 459.125C592.605 457.375 594.025 455.957 595.775 455.957C597.524 455.957 598.943 457.375 598.943 459.125Z" fill="#F79510"/>
<path d="M116.125 31.9106C116.125 33.66 114.706 35.0787 112.957 35.0787C111.207 35.0787 109.788 33.66 109.788 31.9106C109.788 30.16 111.207 28.7427 112.957 28.7427C114.706 28.7427 116.125 30.16 116.125 31.9106Z" fill="#F79510"/>
<path d="M598.943 131.296C598.943 133.047 597.524 134.464 595.775 134.464C594.025 134.464 592.605 133.047 592.605 131.296C592.605 129.547 594.025 128.129 595.775 128.129C597.524 128.129 598.943 129.547 598.943 131.296Z" fill="#F79510"/>
<path d="M379.241 62.896C379.241 64.6453 377.821 66.064 376.073 66.064C374.323 66.064 372.904 64.6453 372.904 62.896C372.904 61.1467 374.323 59.728 376.073 59.728C377.821 59.728 379.241 61.1467 379.241 62.896Z" fill="#F79510"/>
<path d="M292.597 54.692C292.597 56.4413 291.179 57.86 289.429 57.86C287.68 57.86 286.261 56.4413 286.261 54.692C286.261 52.9413 287.68 51.524 289.429 51.524C291.179 51.524 292.597 52.9413 292.597 54.692Z" fill="#100F0D"/>
<path d="M560.26 514.199C560.26 515.948 558.841 517.367 557.092 517.367C555.341 517.367 553.924 515.948 553.924 514.199C553.924 512.449 555.341 511.031 557.092 511.031C558.841 511.031 560.26 512.449 560.26 514.199Z" fill="#100F0D"/>
<path d="M112.957 520.409C112.957 522.16 111.538 523.578 109.788 523.578C108.039 523.578 106.62 522.16 106.62 520.409C106.62 518.66 108.039 517.241 109.788 517.241C111.538 517.241 112.957 518.66 112.957 520.409Z" fill="#100F0D"/>
<path d="M502.461 467.983L503.062 466.752L143.645 291.327C131.452 285.377 123.815 273.976 123.827 262.436C123.827 261.729 123.855 261.02 123.912 260.312L132.271 157.645C132.884 150.184 136.497 144.015 141.952 139.644C147.405 135.279 154.713 132.755 162.612 132.755C167.296 132.756 172.187 133.641 177.023 135.553L519.803 271.083C526.309 273.655 531.796 277.787 535.733 282.788C539.671 287.789 542.055 293.648 542.405 299.691L550.684 442.253C550.716 442.799 550.73 443.337 550.73 443.872C550.724 451.848 547.27 458.516 541.73 463.276C536.19 468.028 528.544 470.817 520.264 470.816C514.668 470.816 508.784 469.544 503.062 466.752L502.461 467.983L501.86 469.213C507.954 472.188 514.253 473.555 520.264 473.555C529.156 473.553 537.428 470.569 543.513 465.356C549.599 460.151 553.477 452.663 553.471 443.872C553.471 443.285 553.453 442.692 553.419 442.095L545.14 299.532C544.753 292.869 542.132 286.487 537.885 281.093C533.637 275.699 527.759 271.283 520.809 268.535L178.029 133.005C172.876 130.968 167.641 130.016 162.612 130.016C154.132 130.017 146.227 132.719 140.241 137.504C134.256 142.284 130.207 149.188 129.541 157.423L121.182 260.089C121.118 260.872 121.087 261.655 121.087 262.436C121.099 275.205 129.437 287.437 142.444 293.788L501.86 469.213L502.461 467.983Z" fill="#100F0D"/>
<path d="M93.2215 331.177L93.1115 329.737L69.2105 331.567C61.9641 332.121 55.5803 335.799 51.0407 341.217C46.4975 346.636 43.7595 353.811 43.7579 361.472C43.7579 362.809 43.8417 364.161 44.0141 365.521L53.1767 437.784C54.9896 452.195 66.1032 462.103 78.6563 462.101C81.8615 462.103 85.1505 461.453 88.3715 460.081L581.949 250.043C587.587 247.644 591.996 243.512 594.98 238.545C597.965 233.576 599.543 227.769 599.544 221.94C599.545 214.987 597.288 207.975 592.429 202.393L536.656 138.321C531.741 132.672 524.976 129.644 518.017 129.647C514.388 129.647 510.709 130.468 507.221 132.147L101.038 327.585C98.5063 328.804 95.8261 329.531 93.1115 329.737L93.2215 331.177L93.3319 332.616C96.4125 332.381 99.4443 331.557 102.29 330.187L508.472 134.748C511.579 133.255 514.824 132.535 518.017 132.533C524.14 132.537 530.084 135.175 534.479 140.217L590.252 204.289C594.608 209.293 596.655 215.601 596.656 221.94C596.657 227.248 595.211 232.559 592.505 237.057C589.799 241.559 585.851 245.244 580.819 247.385L87.2412 457.425C84.3683 458.648 81.4729 459.215 78.6563 459.215C67.6699 459.213 57.7177 450.544 56.0401 437.421L46.8781 365.159C46.7215 363.92 46.6448 362.689 46.6448 361.472C46.6439 354.504 49.1459 347.967 53.2527 343.072C57.3631 338.175 63.0385 334.935 69.4308 334.445L93.3319 332.616L93.2215 331.177Z" fill="#100F0D"/>
<path d="M559.191 425.543L559.067 425.405C560.004 424.371 560.86 423.279 561.627 422.137C565.681 416.127 567.243 408.716 565.147 400.813L558.95 377.533C562.06 373.416 564.108 368.653 564.761 363.575L573.041 394.7C576.471 407.584 570.144 419.171 559.191 425.543ZM558.029 374.069L550.914 347.336L556.997 346.44C557.795 346.323 558.581 346.187 559.357 346.031L561.342 353.356C561.956 355.62 562.247 357.861 562.247 360.059C562.247 365.068 560.733 369.859 558.029 374.069Z" fill="#D8D7D5"/>
<path d="M558.661 425.845C558.797 425.7 558.933 425.553 559.067 425.405L559.191 425.543C559.015 425.645 558.839 425.745 558.661 425.845Z" fill="#CAC8C7"/>
<path d="M95.8803 170.539C99.9448 166.197 105.461 162.897 111.811 161.089L115.602 165.655C115.483 165.653 115.364 165.652 115.245 165.652C111.993 165.652 108.844 166.021 105.861 166.719C102.264 167.548 98.9016 168.847 95.8803 170.539Z" fill="#D8D7D5"/>
<path d="M312.091 201.937L131.433 167.928L132.044 160.437L330.492 197.8L312.091 201.937ZM128.727 167.417L123.487 166.432C120.815 165.928 118.177 165.676 115.602 165.655L111.811 161.089C115.359 160.079 119.166 159.535 123.128 159.535C125.161 159.535 127.233 159.679 129.333 159.976L128.727 167.417Z" fill="#CAC8C7"/>
<path d="M131.433 167.928L128.727 167.417L129.333 159.976C130.013 160.072 130.695 160.184 131.38 160.313L132.044 160.437L131.433 167.928Z" fill="#100F0D"/>
<path d="M561.627 422.137C553.971 433.533 537.427 439.943 519.991 435.287L120.145 328.484C105.271 324.512 94.397 313.308 92.8767 300.393L80.824 197.849C79.0568 182.784 90.233 170.321 105.861 166.719C111.311 165.445 117.31 165.268 123.487 166.432L498.447 237.021C513.169 239.801 524.935 249.689 528.221 262.057L565.147 400.813C567.243 408.716 565.681 416.127 561.627 422.137Z" fill="#F25A1F"/>
<path d="M531.493 436.817C527.764 436.817 523.901 436.331 519.991 435.287L340.203 387.263L336.38 386.243L506.864 391.448L561.627 422.137C559.373 425.492 556.349 428.415 552.76 430.749C551.905 431.305 551.021 431.825 550.107 432.313C544.728 435.175 538.337 436.817 531.493 436.817ZM501.692 388.549L324.796 383.148L318.743 381.531L453.7 361.655L501.692 388.549Z" fill="#F14C1C"/>
<path d="M87.2469 252.499L80.824 197.849C80.7297 197.048 80.6724 196.252 80.6505 195.467C86.6115 190.912 94.4751 188.071 103.234 188.071C103.235 188.071 103.235 188.071 103.237 188.071C104.7 188.071 106.189 188.149 107.698 188.313L107.846 186.952L107.994 185.589C106.387 185.416 104.799 185.331 103.237 185.331C94.7267 185.331 86.9704 187.84 80.7844 192C82.1037 179.631 92.3084 169.843 105.861 166.719L147.107 189.833L107.994 185.589L107.846 186.952L107.698 188.313L153.204 193.251L209.764 224.948L87.2469 252.499Z" fill="#F14C1C"/>
<mask id="mask0_2_152" style="mask-type:luminance" maskUnits="userSpaceOnUse" x="116" y="178" width="17" height="17">
<path d="M130.503 181.015C133.643 184.155 133.643 189.247 130.503 192.387C127.361 195.528 122.27 195.528 119.129 192.387C115.989 189.247 115.989 184.155 119.129 181.015C122.27 177.873 127.361 177.873 130.503 181.015Z" fill="white"/>
</mask>
<g mask="url(#mask0_2_152)">
<path d="M130.503 181.015C133.643 184.155 133.643 189.247 130.503 192.387C127.361 195.528 122.27 195.528 119.129 192.387C115.989 189.247 115.989 184.155 119.129 181.015C122.27 177.873 127.361 177.873 130.503 181.015Z" fill="url(#paint0_radial_2_152)"/>
</g>
<mask id="mask1_2_152" style="mask-type:luminance" maskUnits="userSpaceOnUse" x="491" y="382" width="17" height="17">
<path d="M504.853 385.017C507.993 388.157 507.993 393.249 504.853 396.391C501.712 399.531 496.621 399.531 493.481 396.391C490.34 393.249 490.34 388.157 493.481 385.017C496.621 381.876 501.712 381.876 504.853 385.017Z" fill="white"/>
</mask>
<g mask="url(#mask1_2_152)">
<path d="M504.853 385.017C507.993 388.157 507.993 393.249 504.853 396.391C501.712 399.531 496.621 399.531 493.481 396.391C490.34 393.249 490.34 388.157 493.481 385.017C496.621 381.876 501.712 381.876 504.853 385.017Z" fill="url(#paint1_radial_2_152)"/>
</g>
<path d="M388.353 156.893L411.481 87.5C411.72 86.7826 411.332 86.0067 410.615 85.768C409.897 85.528 409.121 85.916 408.881 86.6333L385.755 156.028C385.515 156.745 385.903 157.521 386.621 157.76C387.339 157.999 388.113 157.612 388.353 156.893Z" fill="#100F0D"/>
<path d="M328.42 153.327L271.559 107.315C270.971 106.84 270.108 106.931 269.632 107.519C269.156 108.107 269.248 108.969 269.836 109.445L326.697 155.456C327.285 155.932 328.148 155.84 328.624 155.252C329.1 154.664 329.008 153.803 328.42 153.327Z" fill="#100F0D"/>
<path d="M361.385 139.164L352.467 103.695C352.283 102.961 351.537 102.516 350.804 102.701C350.071 102.885 349.625 103.629 349.811 104.363L358.729 139.832C358.913 140.565 359.659 141.011 360.392 140.827C361.125 140.641 361.571 139.897 361.385 139.164Z" fill="#100F0D"/>
<path d="M280.489 442.124L231.292 496.253C230.783 496.813 230.824 497.679 231.384 498.188C231.944 498.696 232.809 498.655 233.319 498.096L282.516 443.967C283.025 443.407 282.984 442.54 282.424 442.032C281.864 441.523 280.999 441.564 280.489 442.124Z" fill="#100F0D"/>
<path d="M333.869 469.605L367.287 534.672C367.633 535.345 368.459 535.61 369.131 535.266C369.804 534.92 370.069 534.093 369.724 533.421L336.305 468.355C335.96 467.681 335.135 467.416 334.461 467.761C333.789 468.108 333.524 468.933 333.869 469.605Z" fill="#100F0D"/>
<path d="M297.992 469.239L291.817 505.286C291.689 506.032 292.191 506.74 292.936 506.868C293.681 506.996 294.389 506.495 294.517 505.749L300.692 469.701C300.82 468.956 300.319 468.248 299.573 468.12C298.828 467.992 298.12 468.493 297.992 469.239Z" fill="#100F0D"/>
<path d="M126.556 404.457C123.16 403.887 119.933 402.892 116.974 401.513C111.264 398.855 106.566 394.788 103.552 389.569L71.5787 334.281L77.8745 333.799L111.393 391.76C114.406 396.979 119.104 401.047 124.816 403.703C125.387 403.968 125.967 404.22 126.556 404.457ZM69.9751 331.508L51.8625 300.188C50.2281 297.361 49.1923 294.407 48.7011 291.417L67.3297 315.565L76.2709 331.027L69.9751 331.508Z" fill="#DDDBD9"/>
<path d="M67.3297 315.565L48.7011 291.417C46.1152 275.667 58.6606 258.921 78.598 254.444L79.6423 254.209L81.3089 258.108C60.8709 265.321 50.2246 285.979 59.7043 302.379L67.3297 315.565Z" fill="#D8D7D5"/>
<path d="M71.5787 334.281L69.9751 331.508L76.271 331.027L77.8746 333.799L71.5787 334.281Z" fill="#100F0D"/>
<path d="M83.9308 257.272L82.36 253.597L87.2469 252.499L87.7 256.351L86.4391 256.633C85.5891 256.825 84.7532 257.037 83.9308 257.272ZM354.207 196.421L351.262 193.129L406.117 180.793L390.691 188.216L354.207 196.421ZM403.192 185.405L418.618 177.983L450.858 170.733C454.06 170.011 457.266 169.661 460.402 169.661C465.576 169.661 470.562 170.612 475.041 172.412C472.832 172.041 470.556 171.851 468.244 171.851C465.108 171.851 461.901 172.201 458.701 172.923L403.192 185.405Z" fill="#D8D7D5"/>
<path d="M338.061 199.225L330.492 197.8L333.019 197.232L338.061 199.225ZM344.143 198.684L337.768 196.164L351.263 193.129L354.207 196.421L344.143 198.684Z" fill="#CAC8C7"/>
<path d="M340.061 199.601L338.061 199.225L333.019 197.232L337.768 196.164L344.143 198.684L340.061 199.601Z" fill="#100F0D"/>
<path d="M390.691 188.216L406.117 180.793L418.619 177.983L403.192 185.405L390.691 188.216Z" fill="#100F0D"/>
<path d="M321.66 203.74L312.091 201.937L330.492 197.8L338.061 199.225L339.393 199.752L321.66 203.74Z" fill="#A9A9A8"/>
<path d="M339.393 199.752L338.061 199.225L340.061 199.601L339.393 199.752Z" fill="#100F0D"/>
<path d="M214.799 227.769L209.764 224.948L286.437 207.707L298.297 208.993L214.799 227.769ZM306.563 207.135L294.703 205.848L312.091 201.937L321.66 203.74L306.563 207.135Z" fill="#F14C1C"/>
<path d="M87.7 256.351L87.2469 252.499L209.764 224.948L214.799 227.769L87.7 256.351Z" fill="#D44220"/>
<path d="M556.791 348.589L147.359 408.892C139.182 410.098 131.226 408.934 124.61 405.852C118.898 403.196 114.2 399.128 111.187 393.909L59.498 304.528C49.2537 286.805 62.5114 264.112 86.2328 258.782L458.495 175.072C467.176 173.113 475.888 173.894 483.188 176.962C488.187 179.03 492.528 182.181 495.747 186.262L584.608 299.05C599.235 317.609 584.102 344.576 556.791 348.589Z" fill="#F79510"/>
<path d="M107.846 186.952L107.698 188.313L505.307 231.453C512.46 232.229 518.939 234.883 524.019 238.828C529.101 242.773 532.779 247.997 534.389 253.939L561.342 353.356C561.956 355.62 562.247 357.861 562.247 360.059C562.247 367.877 558.557 375.168 552.412 380.544C546.266 385.916 537.683 389.335 528 389.333C527.581 389.333 527.16 389.327 526.736 389.315L158.307 378.064C144.309 377.641 132.084 369.945 127.341 358.816L71.2068 227.509C69.7464 224.092 69.0756 220.679 69.0751 217.36C69.0745 209.603 72.7557 202.304 78.8901 196.909C85.0215 191.519 93.5839 188.069 103.237 188.071C104.7 188.071 106.189 188.149 107.698 188.313L107.846 186.952L107.994 185.589C106.387 185.416 104.799 185.331 103.237 185.331C92.9281 185.332 83.7256 189.012 77.0813 194.852C70.4396 200.687 66.3365 208.717 66.336 217.36C66.3355 221.049 67.0865 224.84 68.6881 228.585L124.823 359.892C130.087 372.169 143.296 380.343 158.224 380.803L526.652 392.052C527.104 392.067 527.553 392.073 528 392.073C538.329 392.072 547.553 388.428 554.214 382.607C560.873 376.791 564.986 368.759 564.986 360.059C564.986 357.62 564.662 355.133 563.986 352.639L537.033 253.221C535.252 246.649 531.199 240.932 525.699 236.664C520.197 232.395 513.244 229.56 505.603 228.731L107.994 185.589L107.846 186.952Z" fill="#100F0D"/>
<path d="M176.019 272.687L178.669 309.974L170.785 310.534L168.135 273.247L176.019 272.687ZM191.616 292.804L192.765 308.972L185.009 309.523L183.022 281.558L190.414 281.032L190.764 285.966L191.092 285.943C191.595 284.273 192.542 282.912 193.931 281.862C195.319 280.8 197.051 280.195 199.127 280.047C201.069 279.909 202.792 280.214 204.297 280.961C205.802 281.708 207.011 282.842 207.924 284.363C208.837 285.871 209.37 287.712 209.524 289.885L210.79 307.691L203.034 308.242L201.867 291.82C201.757 290.107 201.225 288.803 200.271 287.907C199.316 286.999 198.062 286.601 196.508 286.711C195.464 286.785 194.558 287.075 193.789 287.581C193.032 288.086 192.459 288.786 192.071 289.68C191.695 290.56 191.543 291.602 191.616 292.804ZM224.915 307.218C223.13 307.344 221.518 307.148 220.079 306.628C218.638 306.096 217.467 305.246 216.567 304.078C215.678 302.897 215.168 301.384 215.037 299.539C214.926 297.985 215.119 296.66 215.614 295.564C216.11 294.467 216.826 293.562 217.764 292.849C218.701 292.136 219.783 291.571 221.01 291.155C222.249 290.737 223.556 290.412 224.93 290.181C226.544 289.895 227.844 289.644 228.829 289.428C229.813 289.199 230.519 288.917 230.946 288.582C231.374 288.247 231.566 287.782 231.524 287.187L231.516 287.078C231.435 285.924 231.007 285.058 230.234 284.479C229.473 283.899 228.431 283.655 227.108 283.749C225.712 283.849 224.623 284.237 223.842 284.915C223.06 285.58 222.568 286.384 222.366 287.325L215.152 287.252C215.395 285.527 216.007 284.008 216.987 282.694C217.966 281.368 219.276 280.311 220.915 279.523C222.566 278.723 224.509 278.243 226.742 278.085C228.295 277.974 229.795 278.051 231.241 278.314C232.699 278.576 234.008 279.05 235.167 279.737C236.338 280.422 237.288 281.342 238.016 282.498C238.744 283.642 239.167 285.045 239.285 286.708L240.626 305.57L233.27 306.093L232.995 302.215L232.776 302.231C232.389 303.137 231.843 303.95 231.138 304.671C230.432 305.38 229.565 305.96 228.535 306.411C227.505 306.851 226.298 307.119 224.915 307.218ZM226.756 301.707C227.896 301.626 228.888 301.33 229.73 300.819C230.571 300.295 231.213 299.628 231.655 298.815C232.098 298.003 232.284 297.105 232.214 296.122L232.003 293.155C231.772 293.33 231.448 293.499 231.033 293.663C230.629 293.813 230.17 293.962 229.656 294.108C229.141 294.243 228.625 294.371 228.109 294.493C227.593 294.603 227.124 294.703 226.703 294.794C225.803 294.992 225.023 295.261 224.364 295.601C223.705 295.94 223.205 296.372 222.864 296.897C222.522 297.409 222.377 298.029 222.429 298.757C222.504 299.813 222.943 300.593 223.748 301.097C224.563 301.588 225.566 301.792 226.756 301.707ZM263.731 291.961L262.589 275.903L270.345 275.352L272.333 303.317L264.886 303.846L264.525 298.767L264.234 298.787C263.719 300.471 262.763 301.862 261.365 302.962C259.979 304.061 258.236 304.685 256.137 304.834C254.267 304.967 252.592 304.659 251.112 303.91C249.631 303.162 248.435 302.033 247.523 300.524C246.622 299.014 246.089 297.167 245.921 294.983L244.656 277.177L252.412 276.626L253.579 293.049C253.708 294.698 254.244 295.972 255.186 296.869C256.128 297.765 257.334 298.162 258.802 298.057C259.737 297.991 260.596 297.716 261.379 297.234C262.161 296.739 262.771 296.049 263.208 295.164C263.657 294.278 263.832 293.21 263.731 291.961ZM291.922 313.05C289.41 313.229 287.231 313.036 285.385 312.472C283.553 311.919 282.067 311.091 280.927 309.989C279.787 308.887 279.007 307.613 278.588 306.166L285.692 304.692C285.951 305.234 286.334 305.732 286.841 306.184C287.349 306.635 288.002 306.979 288.8 307.215C289.61 307.463 290.58 307.546 291.709 307.466C293.396 307.346 294.756 306.835 295.79 305.932C296.837 305.04 297.292 303.635 297.156 301.718L296.792 296.602L296.464 296.625C296.18 297.426 295.722 298.196 295.091 298.937C294.461 299.677 293.627 300.303 292.59 300.816C291.553 301.329 290.294 301.638 288.813 301.743C286.713 301.892 284.767 301.543 282.975 300.694C281.193 299.833 279.721 298.431 278.558 296.488C277.407 294.533 276.721 292.008 276.501 288.913C276.276 285.745 276.604 283.062 277.485 280.865C278.365 278.667 279.624 276.98 281.26 275.802C282.909 274.623 284.759 273.961 286.81 273.816C288.376 273.704 289.706 273.878 290.8 274.337C291.893 274.784 292.789 275.379 293.488 276.122C294.199 276.853 294.757 277.581 295.163 278.309L295.454 278.288L295.12 273.591L302.821 273.044L304.828 301.282C304.997 303.661 304.556 305.693 303.505 307.378C302.453 309.063 300.925 310.379 298.918 311.327C296.925 312.286 294.593 312.861 291.922 313.05ZM290.857 295.742C292.107 295.654 293.141 295.269 293.959 294.589C294.788 293.895 295.392 292.95 295.77 291.752C296.16 290.541 296.297 289.116 296.18 287.477C296.064 285.839 295.732 284.435 295.185 283.266C294.638 282.085 293.904 281.192 292.982 280.587C292.061 279.981 290.975 279.723 289.725 279.812C288.45 279.902 287.401 280.324 286.576 281.078C285.75 281.82 285.156 282.814 284.793 284.06C284.431 285.305 284.306 286.723 284.419 288.313C284.533 289.928 284.857 291.308 285.39 292.453C285.934 293.585 286.66 294.443 287.567 295.025C288.486 295.594 289.583 295.833 290.857 295.742ZM328.068 287.389L326.927 271.33L334.683 270.779L336.67 298.745L329.224 299.274L328.863 294.194L328.572 294.215C328.057 295.898 327.101 297.29 325.703 298.39C324.317 299.488 322.574 300.112 320.474 300.262C318.605 300.394 316.93 300.087 315.45 299.338C313.969 298.589 312.773 297.46 311.86 295.952C310.96 294.442 310.426 292.595 310.259 290.411L308.993 272.605L316.749 272.054L317.917 288.476C318.046 290.126 318.582 291.399 319.524 292.296C320.466 293.193 321.671 293.589 323.14 293.485C324.075 293.418 324.933 293.144 325.716 292.661C326.499 292.166 327.108 291.477 327.546 290.592C327.995 289.706 328.169 288.638 328.068 287.389ZM342.874 298.304L340.887 270.338L348.406 269.804L348.753 274.683L349.044 274.663C349.431 272.891 350.193 271.519 351.332 270.548C352.47 269.564 353.822 269.017 355.387 268.905C355.776 268.878 356.196 268.872 356.649 268.889C357.101 268.905 357.501 268.944 357.846 269.005L358.336 275.887C357.964 275.804 357.453 275.742 356.804 275.703C356.154 275.664 355.563 275.663 355.029 275.701C353.888 275.782 352.886 276.104 352.023 276.665C351.171 277.214 350.516 277.943 350.056 278.854C349.608 279.764 349.425 280.79 349.506 281.931L350.63 297.753L342.874 298.304ZM371.064 296.831C369.28 296.958 367.668 296.761 366.228 296.241C364.787 295.709 363.617 294.859 362.716 293.691C361.827 292.51 361.317 290.997 361.186 289.152C361.075 287.599 361.268 286.274 361.763 285.177C362.259 284.08 362.975 283.176 363.913 282.462C364.85 281.749 365.932 281.184 367.159 280.768C368.398 280.35 369.705 280.026 371.079 279.794C372.693 279.508 373.993 279.257 374.978 279.041C375.962 278.813 376.668 278.531 377.096 278.195C377.523 277.86 377.716 277.395 377.673 276.8L377.666 276.691C377.584 275.538 377.156 274.671 376.383 274.092C375.622 273.512 374.58 273.269 373.257 273.363C371.861 273.462 370.773 273.85 369.991 274.528C369.209 275.194 368.717 275.997 368.516 276.939L361.301 276.866C361.544 275.141 362.156 273.621 363.136 272.307C364.115 270.981 365.425 269.924 367.065 269.137C368.716 268.336 370.658 267.857 372.891 267.698C374.445 267.587 375.944 267.664 377.39 267.927C378.849 268.189 380.157 268.664 381.316 269.35C382.487 270.035 383.437 270.956 384.166 272.112C384.893 273.255 385.316 274.659 385.435 276.322L386.775 295.184L379.42 295.706L379.144 291.828L378.926 291.844C378.539 292.75 377.993 293.563 377.287 294.284C376.581 294.993 375.714 295.573 374.685 296.025C373.655 296.464 372.448 296.733 371.064 296.831ZM372.905 291.32C374.046 291.239 375.037 290.943 375.879 290.432C376.72 289.909 377.362 289.241 377.804 288.429C378.247 287.616 378.433 286.719 378.363 285.736L378.152 282.768C377.921 282.943 377.597 283.112 377.182 283.276C376.778 283.427 376.319 283.575 375.805 283.722C375.29 283.856 374.774 283.984 374.258 284.106C373.742 284.216 373.273 284.316 372.853 284.407C371.952 284.605 371.172 284.874 370.513 285.214C369.854 285.554 369.354 285.986 369.013 286.51C368.671 287.022 368.526 287.642 368.578 288.371C368.653 289.427 369.093 290.207 369.897 290.711C370.713 291.202 371.715 291.405 372.905 291.32ZM405.68 265.734L406.094 271.56L389.253 272.757L388.839 266.93L405.68 265.734ZM392.186 259.959L399.942 259.407L401.795 285.479C401.846 286.195 401.995 286.746 402.242 287.131C402.488 287.504 402.81 287.755 403.21 287.886C403.622 288.015 404.089 288.061 404.611 288.024C404.975 287.998 405.337 287.942 405.697 287.855C406.056 287.757 406.331 287.682 406.522 287.632L408.152 293.317C407.773 293.466 407.236 293.644 406.544 293.852C405.852 294.072 405.003 294.236 403.998 294.344C402.134 294.55 400.478 294.417 399.03 293.947C397.593 293.476 396.444 292.667 395.582 291.52C394.719 290.374 394.229 288.884 394.111 287.05L392.186 259.959ZM412.72 293.34L410.732 265.374L418.488 264.823L420.476 292.789L412.72 293.34ZM414.372 261.493C413.219 261.575 412.203 261.263 411.323 260.557C410.454 259.838 409.982 258.938 409.905 257.858C409.829 256.79 410.171 255.844 410.93 255.022C411.7 254.186 412.661 253.728 413.814 253.646C414.968 253.564 415.978 253.882 416.847 254.601C417.726 255.307 418.204 256.194 418.28 257.262C418.357 258.343 418.01 259.301 417.24 260.136C416.481 260.959 415.525 261.411 414.372 261.493ZM439.363 291.995C436.535 292.196 434.046 291.769 431.897 290.714C429.76 289.646 428.056 288.072 426.786 285.991C425.515 283.897 424.777 281.418 424.574 278.554C424.369 275.665 424.747 273.101 425.711 270.861C426.673 268.609 428.137 266.809 430.103 265.462C432.08 264.101 434.483 263.321 437.311 263.12C440.139 262.919 442.622 263.352 444.759 264.42C446.908 265.475 448.618 267.049 449.889 269.143C451.159 271.224 451.897 273.709 452.102 276.597C452.306 279.462 451.926 282.02 450.964 284.272C450.001 286.512 448.531 288.312 446.554 289.673C444.588 291.02 442.191 291.794 439.363 291.995ZM438.972 285.985C440.259 285.893 441.307 285.453 442.117 284.663C442.926 283.861 443.504 282.808 443.85 281.502C444.209 280.196 444.33 278.73 444.215 277.103C444.099 275.477 443.772 274.042 443.232 272.8C442.704 271.556 441.983 270.595 441.069 269.916C440.155 269.237 439.054 268.943 437.768 269.034C436.469 269.126 435.403 269.574 434.569 270.378C433.748 271.18 433.158 272.235 432.8 273.541C432.453 274.847 432.338 276.313 432.453 277.939C432.569 279.565 432.891 281 433.418 282.244C433.958 283.486 434.691 284.447 435.617 285.125C436.555 285.79 437.674 286.077 438.972 285.985ZM464.738 273.394L465.887 289.561L458.131 290.112L456.144 262.147L463.536 261.622L463.887 266.556L464.214 266.532C464.718 264.862 465.664 263.502 467.053 262.451C468.442 261.389 470.174 260.784 472.249 260.637C474.191 260.499 475.915 260.803 477.419 261.55C478.924 262.297 480.133 263.431 481.046 264.952C481.959 266.461 482.492 268.302 482.647 270.474L483.912 288.28L476.156 288.832L474.989 272.409C474.879 270.697 474.348 269.393 473.393 268.497C472.438 267.589 471.184 267.19 469.63 267.3C468.586 267.375 467.68 267.665 466.911 268.171C466.154 268.676 465.581 269.375 465.193 270.269C464.817 271.15 464.665 272.191 464.738 273.394ZM496.642 249.9L497.788 276.059L491.124 276.532L488.54 250.476L496.642 249.9ZM495.284 287.948C494.082 288.033 493.02 287.682 492.098 286.893C491.175 286.093 490.677 285.091 490.604 283.889C490.507 282.7 490.859 281.65 491.661 280.74C492.462 279.829 493.464 279.33 494.665 279.245C495.818 279.163 496.862 279.516 497.796 280.303C498.731 281.091 499.246 282.079 499.343 283.268C499.388 284.07 499.227 284.819 498.862 285.516C498.508 286.2 498.018 286.765 497.391 287.213C496.763 287.648 496.061 287.893 495.284 287.948Z" fill="white"/>
<path d="M310.464 334.818C309.409 334.893 308.46 334.816 307.616 334.587C306.773 334.361 306.047 333.994 305.44 333.485C304.832 332.974 304.351 332.332 303.997 331.559C303.643 330.787 303.43 329.895 303.358 328.883C303.287 327.885 303.372 326.968 303.612 326.134C303.855 325.299 304.243 324.571 304.777 323.948C305.311 323.322 305.981 322.822 306.789 322.449C307.6 322.076 308.537 321.852 309.602 321.776C310.587 321.706 311.477 321.787 312.271 322.02C313.068 322.252 313.755 322.615 314.332 323.109C314.912 323.6 315.368 324.2 315.701 324.911C316.037 325.618 316.235 326.413 316.294 327.296C316.341 327.904 316.327 328.467 316.254 328.984C316.182 329.5 316.041 329.957 315.834 330.354C315.629 330.748 315.346 331.068 314.985 331.317C314.623 331.562 314.176 331.718 313.643 331.786C313.261 331.843 312.948 331.837 312.704 331.768C312.46 331.699 312.269 331.584 312.132 331.425C311.997 331.262 311.904 331.067 311.851 330.842L311.791 330.846C311.726 331.05 311.584 331.241 311.364 331.42C311.144 331.595 310.87 331.739 310.542 331.852C310.218 331.961 309.868 332.018 309.493 332.021C309.101 332.026 308.724 331.961 308.362 331.827C308.004 331.693 307.678 331.485 307.386 331.204C307.097 330.922 306.859 330.565 306.672 330.133C306.488 329.701 306.374 329.194 306.33 328.612C306.292 328.037 306.337 327.53 306.466 327.093C306.597 326.655 306.785 326.281 307.029 325.971C307.276 325.661 307.557 325.412 307.873 325.223C308.189 325.035 308.51 324.905 308.837 324.836C309.207 324.753 309.561 324.728 309.899 324.76C310.236 324.793 310.524 324.864 310.761 324.973C311.001 325.082 311.155 325.208 311.221 325.349L311.291 325.344L311.251 324.789L312.803 324.678L313.147 329.518C313.167 329.746 313.231 329.92 313.339 330.038C313.447 330.157 313.585 330.21 313.754 330.198C313.982 330.182 314.165 330.067 314.303 329.855C314.444 329.642 314.538 329.325 314.584 328.903C314.634 328.481 314.636 327.947 314.59 327.303C314.546 326.681 314.424 326.141 314.226 325.684C314.03 325.223 313.773 324.837 313.456 324.527C313.141 324.214 312.783 323.967 312.381 323.786C311.98 323.606 311.549 323.483 311.089 323.42C310.633 323.356 310.167 323.341 309.69 323.374C308.867 323.433 308.157 323.61 307.56 323.905C306.963 324.196 306.475 324.582 306.097 325.06C305.719 325.539 305.449 326.088 305.287 326.708C305.128 327.324 305.072 327.987 305.12 328.698C305.179 329.482 305.337 330.168 305.595 330.758C305.856 331.344 306.212 331.827 306.665 332.207C307.117 332.587 307.662 332.861 308.298 333.028C308.935 333.195 309.656 333.25 310.463 333.193C310.843 333.166 311.213 333.113 311.573 333.034C311.933 332.952 312.257 332.863 312.546 332.766C312.835 332.666 313.066 332.573 313.239 332.487L313.832 333.891C313.632 334.025 313.357 334.155 313.008 334.283C312.661 334.414 312.267 334.527 311.826 334.621C311.387 334.719 310.933 334.785 310.464 334.818ZM309.917 330.351C310.32 330.322 310.636 330.222 310.863 330.05C311.093 329.877 311.249 329.635 311.329 329.324C311.413 329.009 311.436 328.627 311.397 328.177C311.366 327.781 311.291 327.449 311.172 327.182C311.057 326.911 310.875 326.713 310.627 326.587C310.381 326.459 310.049 326.409 309.629 326.439C309.262 326.465 308.955 326.565 308.708 326.739C308.465 326.912 308.285 327.144 308.17 327.435C308.057 327.722 308.013 328.054 308.036 328.431C308.064 328.781 308.144 329.11 308.276 329.416C308.407 329.719 308.605 329.959 308.87 330.136C309.135 330.31 309.484 330.382 309.917 330.351ZM324.378 321.967C324.901 321.93 325.409 321.982 325.905 322.122C326.403 322.263 326.856 322.512 327.263 322.868C327.674 323.224 328.013 323.712 328.279 324.331C328.549 324.947 328.718 325.714 328.787 326.633C328.848 327.495 328.805 328.273 328.659 328.964C328.515 329.652 328.279 330.246 327.953 330.744C327.626 331.242 327.217 331.634 326.725 331.918C326.234 332.199 325.674 332.361 325.045 332.406C324.368 332.454 323.76 332.366 323.222 332.142C322.685 331.914 322.241 331.585 321.891 331.155C321.545 330.721 321.318 330.222 321.212 329.658L323.329 329.508C323.438 329.872 323.632 330.147 323.911 330.333C324.19 330.516 324.525 330.594 324.915 330.566C325.576 330.519 326.058 330.196 326.361 329.596C326.664 328.993 326.781 328.189 326.713 327.184L326.643 327.189C326.512 327.497 326.326 327.768 326.083 328.001C325.84 328.231 325.556 328.416 325.23 328.555C324.908 328.694 324.56 328.777 324.186 328.804C323.588 328.846 323.044 328.744 322.555 328.496C322.065 328.248 321.667 327.888 321.361 327.415C321.055 326.941 320.88 326.389 320.835 325.757C320.783 325.077 320.897 324.459 321.177 323.904C321.456 323.349 321.87 322.901 322.417 322.56C322.967 322.215 323.621 322.017 324.378 321.967ZM324.513 323.652C324.179 323.676 323.887 323.776 323.637 323.953C323.391 324.13 323.201 324.358 323.068 324.637C322.938 324.915 322.887 325.219 322.913 325.55C322.937 325.884 323.031 326.179 323.196 326.437C323.363 326.691 323.58 326.888 323.846 327.029C324.115 327.166 324.415 327.222 324.745 327.199C324.993 327.181 325.22 327.119 325.425 327.011C325.63 326.903 325.804 326.763 325.948 326.59C326.095 326.414 326.205 326.215 326.279 325.993C326.353 325.772 326.382 325.541 326.365 325.3C326.339 324.979 326.242 324.69 326.074 324.433C325.906 324.176 325.686 323.975 325.413 323.832C325.14 323.689 324.84 323.629 324.513 323.652ZM331.825 330.598C331.498 330.622 331.208 330.526 330.957 330.311C330.709 330.096 330.574 329.823 330.55 329.493C330.527 329.169 330.623 328.883 330.838 328.635C331.056 328.387 331.329 328.251 331.657 328.228C331.974 328.205 332.26 328.301 332.514 328.516C332.769 328.73 332.908 329 332.931 329.324C332.946 329.542 332.904 329.746 332.805 329.936C332.708 330.122 332.575 330.276 332.404 330.398C332.233 330.516 332.04 330.583 331.825 330.598ZM331.471 325.614C331.143 325.638 330.854 325.542 330.603 325.327C330.355 325.112 330.22 324.839 330.196 324.509C330.173 324.185 330.269 323.901 330.484 323.656C330.703 323.408 330.975 323.272 331.303 323.249C331.62 323.226 331.906 323.322 332.16 323.537C332.415 323.748 332.553 324.016 332.576 324.34C332.592 324.561 332.55 324.767 332.451 324.957C332.354 325.143 332.221 325.295 332.05 325.414C331.879 325.532 331.686 325.599 331.471 325.614ZM338.812 331.512C337.958 331.57 337.21 331.412 336.565 331.039C335.924 330.666 335.41 330.096 335.023 329.329C334.64 328.562 334.41 327.624 334.334 326.512C334.256 325.405 334.352 324.449 334.624 323.646C334.899 322.842 335.328 322.215 335.911 321.765C336.497 321.312 337.214 321.054 338.064 320.994C338.914 320.934 339.659 321.087 340.3 321.453C340.944 321.82 341.459 322.381 341.845 323.138C342.231 323.891 342.461 324.822 342.537 325.93C342.616 327.044 342.518 328.008 342.244 328.821C341.973 329.635 341.546 330.271 340.964 330.731C340.382 331.191 339.665 331.452 338.812 331.512ZM338.685 329.732C339.267 329.691 339.711 329.365 340.016 328.755C340.322 328.145 340.431 327.255 340.345 326.085C340.29 325.315 340.165 324.679 339.97 324.178C339.778 323.677 339.529 323.307 339.223 323.07C338.921 322.832 338.576 322.727 338.189 322.755C337.611 322.796 337.168 323.118 336.862 323.721C336.556 324.324 336.443 325.203 336.521 326.357C336.577 327.137 336.701 327.783 336.893 328.294C337.089 328.802 337.34 329.176 337.646 329.417C337.952 329.655 338.298 329.76 338.685 329.732ZM348.426 330.829C347.573 330.886 346.824 330.729 346.179 330.356C345.538 329.983 345.024 329.413 344.638 328.646C344.254 327.879 344.025 326.94 343.949 325.829C343.87 324.722 343.967 323.766 344.239 322.963C344.514 322.159 344.943 321.532 345.525 321.082C346.111 320.628 346.829 320.371 347.679 320.311C348.528 320.25 349.273 320.403 349.914 320.77C350.558 321.136 351.073 321.698 351.459 322.454C351.845 323.208 352.076 324.138 352.151 325.246C352.23 326.36 352.133 327.324 351.858 328.138C351.587 328.951 351.161 329.588 350.579 330.048C349.997 330.508 349.279 330.768 348.426 330.829ZM348.3 329.049C348.881 329.007 349.325 328.682 349.631 328.072C349.936 327.462 350.046 326.572 349.959 325.402C349.905 324.632 349.78 323.996 349.584 323.495C349.393 322.993 349.144 322.624 348.838 322.387C348.535 322.149 348.19 322.044 347.804 322.071C347.225 322.112 346.783 322.435 346.477 323.038C346.171 323.641 346.057 324.52 346.136 325.674C346.191 326.454 346.315 327.1 346.508 327.611C346.703 328.119 346.954 328.493 347.26 328.734C347.566 328.971 347.913 329.076 348.3 329.049ZM359.085 329.847L356.784 330.011L359.568 319.605L362.335 319.409L366.558 329.316L364.257 329.48L361.156 321.825L361.077 321.831L359.085 329.847ZM358.657 325.865L364.092 325.479L364.211 327.155L358.776 327.542L358.657 325.865ZM367.059 319.073L369.707 318.885L372.989 325.51L373.108 325.501L375.42 318.479L378.068 318.291L378.79 328.447L376.707 328.595L376.237 321.984L376.153 321.99L373.991 328.738L372.572 328.839L369.476 322.44L369.392 322.446L369.863 329.081L367.78 329.229L367.059 319.073Z" fill="white"/>
<mask id="mask2_2_152" style="mask-type:luminance" maskUnits="userSpaceOnUse" x="138" y="366" width="17" height="17">
<path d="M152.217 368.932C155.357 372.073 155.357 377.165 152.217 380.305C149.076 383.447 143.985 383.447 140.844 380.305C137.703 377.165 137.703 372.073 140.844 368.932C143.985 365.792 149.076 365.792 152.217 368.932Z" fill="white"/>
</mask>
<g mask="url(#mask2_2_152)">
<path d="M152.217 368.932C155.357 372.073 155.357 377.165 152.217 380.305C149.076 383.447 143.985 383.447 140.844 380.305C137.703 377.165 137.703 372.073 140.844 368.932C143.985 365.792 149.076 365.792 152.217 368.932Z" fill="url(#paint2_radial_2_152)"/>
</g>
<mask id="mask3_2_152" style="mask-type:luminance" maskUnits="userSpaceOnUse" x="402" y="213" width="17" height="17">
<path d="M416.517 215.503C419.657 218.643 419.657 223.735 416.517 226.876C413.377 230.016 408.284 230.016 405.144 226.876C402.003 223.735 402.003 218.643 405.144 215.503C408.284 212.361 413.377 212.361 416.517 215.503Z" fill="white"/>
</mask>
<g mask="url(#mask3_2_152)">
<path d="M416.517 215.503C419.657 218.643 419.657 223.735 416.517 226.876C413.377 230.016 408.284 230.016 405.144 226.876C402.003 223.735 402.003 218.643 405.144 215.503C408.284 212.361 413.377 212.361 416.517 215.503Z" fill="url(#paint3_radial_2_152)"/>
</g>
<path d="M441.176 132.357L438.265 129.004L438.668 128.509L515.523 81.3867L509.148 70.0427L499.703 53.2214L501.507 50.9947L513.669 72.6547L520.045 83.9987L441.176 132.357Z" fill="#DDDBD9"/>
<path d="M429.96 139.235L438.265 129.004L441.176 132.357L429.96 139.235Z" fill="#D8D7D5"/>
<path d="M515.523 81.3867L425.436 136.623L434.553 125.392L496.985 48.3814L509.148 70.0427L515.523 81.3867Z" fill="#F79510"/>
<path d="M425.436 136.623L434.553 125.392L509.148 70.0427L515.523 81.3867L438.668 128.509L425.436 136.623Z" fill="#F68C11"/>
<path d="M161.847 530.792L158.551 524.921L194.563 480.499L198.489 485.591L161.847 530.792Z" fill="#DDDBD9"/>
<path d="M198.489 485.591L194.563 480.499L229.105 437.889L230.777 435.829L246.82 425.993L235.992 439.331L198.489 485.591Z" fill="#D8D7D5"/>
<path d="M132.943 490.152L239.933 424.552L229.105 437.889L154.96 529.349L140.516 503.625L132.943 490.152Z" fill="#F79510"/>
<path d="M140.516 503.625L132.943 490.152L239.933 424.552L229.105 437.889L140.516 503.625Z" fill="#F68C11"/>
<path d="M1.90527 337.435L1.90057 335.072L39.5516 320.035L39.7543 319.955L46.3584 319.687L40.6969 321.944L1.90527 337.435Z" fill="#DDDBD9"/>
<path d="M0.725586 319.576L45.2131 317.779L39.5516 320.035L0.75996 335.527L0.739133 325.06L0.725586 319.576Z" fill="#F79510"/>
<path d="M0.739133 325.06L0.725586 319.576L45.2131 317.779L39.5516 320.035L0.739133 325.06Z" fill="#F68C11"/>
<path d="M391.585 501.357L387.675 493.336L393.46 500.304L391.585 501.357Z" fill="#E9E9E8"/>
<path d="M393.46 500.304L387.675 493.336L356.607 429.603L360.705 433.503L399.151 496.203L407.887 491.293L416.407 486.509L417.005 487.079L400.323 496.448L393.46 500.304Z" fill="#DDDBD9"/>
<path d="M399.151 496.203L356.607 426.819L365.257 433.841L424.569 481.925L407.887 491.293L399.151 496.203Z" fill="#F25A1F"/>
<path d="M399.151 496.203L356.607 426.819L365.257 433.841L407.887 491.293L399.151 496.203Z" fill="#F14C1C"/>
<path d="M615.092 373.201L585.813 358.116L590.279 358.732L620.892 362.927L617.084 369.669L615.092 373.201Z" fill="#100F0D"/>
<path d="M615.092 373.201L585.813 358.116L590.279 358.732L617.084 369.669L615.092 373.201Z" fill="#100F0D"/>
<path d="M52.6193 245.035L48.9178 244.64L23.5417 241.955L26.5141 236.292L28.0693 233.327L52.6193 245.035Z" fill="#D8D7D5"/>
<path d="M28.0693 231.191L52.6193 242.9L48.9178 242.505L23.5417 239.82L26.5141 234.157L28.0693 231.191Z" fill="#100F0D"/>
<path d="M256.525 139.235L247.037 134.196L181.983 99.704L185.737 96.5067L247.037 129.008L247.193 129.091L256.525 139.235Z" fill="#CAC8C7"/>
<path d="M203.387 76.2854L256.525 134.047L247.037 129.008L181.983 94.516L196.031 82.5547L203.387 76.2854Z" fill="#F25A1F"/>
<path d="M256.525 134.047L247.193 129.091L247.037 129.008L196.031 82.5547L203.387 76.2854L256.525 134.047Z" fill="#F14C1C"/>
<path d="M632.149 270.183L572.786 267.709L580.563 265.327L633.848 248.967L632.731 262.889L632.149 270.183Z" fill="#F25A1F"/>
<path d="M632.149 270.183L572.786 267.709L580.563 265.327L632.731 262.889L632.149 270.183Z" fill="#F14C1C"/>
<path d="M142.203 357.484L128.296 355.651L120.961 367.093L107.482 365.319L100.14 376.764L86.6615 374.991L79.3152 386.437L66.26 384.723L66.0819 386.081L79.998 387.908L87.3443 376.461L100.823 378.236L108.166 366.791L121.644 368.565L128.98 357.123L142.024 358.841L142.203 357.484Z" fill="#F04324"/>
<path d="M556.978 206.889L543.072 205.057L535.736 216.5L522.257 214.725L514.914 226.171L501.436 224.397L494.091 235.844L481.034 234.129L480.856 235.488L494.774 237.316L502.118 225.868L515.598 227.643L522.941 216.197L536.418 217.972L543.756 206.529L556.8 208.248L556.978 206.889Z" fill="#F04324"/>
<path d="M172.156 160.699L167.655 148.247L155.255 144.719L150.869 132.593L138.473 129.068L134.085 116.941L121.675 113.404L117.401 101.6L116.113 102.067L120.626 114.529L133.036 118.067L137.424 130.195L149.82 133.72L154.205 145.844L166.604 149.372L170.868 161.165L172.156 160.699Z" fill="#F79710"/>
<path d="M515.125 506.36L514.321 492.703L502.397 486.853L501.615 473.592L489.693 467.744L488.908 454.48L476.976 448.619L476.211 435.744L474.844 435.825L475.656 449.496L487.588 455.357L488.373 468.623L500.295 474.469L501.077 487.732L513.001 493.58L513.759 506.441L515.125 506.36Z" fill="#F79710"/>
<path d="M164.399 220.748L171.569 226.872L179.609 221.944L176.001 230.657L183.173 236.78L173.772 236.041L170.164 244.755L167.961 235.585L158.561 234.847L166.6 229.917L164.399 220.748Z" fill="#C03C21"/>
<path d="M457.763 353.351L457.031 362.753L465.745 366.355L456.577 368.564L455.845 377.965L450.912 369.929L441.744 372.137L447.863 364.963L442.929 356.925L451.644 360.527L457.763 353.351Z" fill="#C03C21"/>
<path d="M528.384 147.228L527.652 156.629L536.367 160.231L527.2 162.44L526.467 171.841L521.533 163.805L512.365 166.013L518.484 158.839L513.549 150.801L522.265 154.404L528.384 147.228Z" fill="#C03C21"/>
<path d="M84.6235 418.089L83.8918 427.491L92.6063 431.092L83.4386 433.3L82.7058 442.703L77.7724 434.667L68.6052 436.875L74.7235 429.699L69.7902 421.663L78.5048 425.264L84.6235 418.089Z" fill="#C03C21"/>
<defs>
<radialGradient id="paint0_radial_2_152" cx="0" cy="0" r="1" gradientUnits="userSpaceOnUse" gradientTransform="translate(124.816 186.7) scale(8.04219 8.04219)">
<stop stop-color="white"/>
<stop offset="1" stop-color="#FDE3E5"/>
</radialGradient>
<radialGradient id="paint1_radial_2_152" cx="0" cy="0" r="1" gradientUnits="userSpaceOnUse" gradientTransform="translate(499.167 390.704) scale(8.04219 8.04219)">
<stop stop-color="white"/>
<stop offset="1" stop-color="#FDE3E5"/>
</radialGradient>
<radialGradient id="paint2_radial_2_152" cx="0" cy="0" r="1" gradientUnits="userSpaceOnUse" gradientTransform="translate(146.531 374.619) scale(8.04218 8.04219)">
<stop stop-color="white"/>
<stop offset="1" stop-color="#FDE3E5"/>
</radialGradient>
<radialGradient id="paint3_radial_2_152" cx="0" cy="0" r="1" gradientUnits="userSpaceOnUse" gradientTransform="translate(410.831 221.189) scale(8.04219 8.04217)">
<stop stop-color="white"/>
<stop offset="1" stop-color="#FDE3E5"/>
</radialGradient>
</defs>
</svg>
