<svg width="634" height="596" viewBox="0 0 634 596" fill="none" xmlns="http://www.w3.org/2000/svg">
<path d="M78.3605 111.048C78.3605 112.799 76.9423 114.216 75.1923 114.216C73.4428 114.216 72.0245 112.799 72.0245 111.048C72.0245 109.299 73.4428 107.88 75.1923 107.88C76.9423 107.88 78.3605 109.299 78.3605 111.048Z" fill="#100F0D"/>
<path d="M549.048 78.16C549.048 79.9094 547.629 81.328 545.88 81.328C544.13 81.328 542.712 79.9094 542.712 78.16C542.712 76.4107 544.13 74.992 545.88 74.992C547.629 74.992 549.048 76.4107 549.048 78.16Z" fill="#100F0D"/>
<path d="M327.872 557.659C327.872 559.408 326.453 560.827 324.704 560.827C322.953 560.827 321.536 559.408 321.536 557.659C321.536 555.908 322.953 554.491 324.704 554.491C326.453 554.491 327.872 555.908 327.872 557.659Z" fill="#100F0D"/>
<path d="M168.039 592.383C168.039 594.131 166.62 595.551 164.871 595.551C163.12 595.551 161.703 594.131 161.703 592.383C161.703 590.632 163.12 589.215 164.871 589.215C166.62 589.215 168.039 590.632 168.039 592.383Z" fill="#F25A1F"/>
<path d="M12.8298 400.103C12.8298 401.852 11.4115 403.271 9.6615 403.271C7.91256 403.271 6.4939 401.852 6.4939 400.103C6.4939 398.353 7.91256 396.935 9.6615 396.935C11.4115 396.935 12.8298 398.353 12.8298 400.103Z" fill="#F25A1F"/>
<path d="M491.252 573.772C491.252 575.521 489.832 576.94 488.084 576.94C486.333 576.94 484.916 575.521 484.916 573.772C484.916 572.023 486.333 570.604 488.084 570.604C489.832 570.604 491.252 572.023 491.252 573.772Z" fill="#F25A1F"/>
<path d="M393.499 7.08667C393.499 8.836 392.081 10.2546 390.331 10.2546C388.581 10.2546 387.163 8.836 387.163 7.08667C387.163 5.336 388.581 3.91864 390.331 3.91864C392.081 3.91864 393.499 5.336 393.499 7.08667Z" fill="#F25A1F"/>
<path d="M563.428 10.2546C563.428 12.004 562.009 13.4226 560.26 13.4226C558.509 13.4226 557.092 12.004 557.092 10.2546C557.092 8.50397 558.509 7.08667 560.26 7.08667C562.009 7.08667 563.428 8.50397 563.428 10.2546Z" fill="#F25A1F"/>
<path d="M22.8147 128.129C22.8147 129.879 21.3959 131.296 19.6459 131.296C17.897 131.296 16.4781 129.879 16.4781 128.129C16.4781 126.379 17.897 124.961 19.6459 124.961C21.3959 124.961 22.8147 126.379 22.8147 128.129Z" fill="#F25A1F"/>
<path d="M207.105 3.32263C207.105 5.07196 205.687 6.49066 203.937 6.49066C202.188 6.49066 200.769 5.07196 200.769 3.32263C200.769 1.57329 202.188 0.154659 203.937 0.154659C205.687 0.154659 207.105 1.57329 207.105 3.32263Z" fill="#F25A1F"/>
<path d="M246.055 529.64C246.055 531.39 244.636 532.808 242.887 532.808C241.137 532.808 239.719 531.39 239.719 529.64C239.719 527.891 241.137 526.471 242.887 526.471C244.636 526.471 246.055 527.891 246.055 529.64Z" fill="#F79510"/>
<path d="M45.4767 517.367C45.4767 519.117 44.0584 520.535 42.309 520.535C40.5595 520.535 39.1407 519.117 39.1407 517.367C39.1407 515.617 40.5595 514.199 42.309 514.199C44.0584 514.199 45.4767 515.617 45.4767 517.367Z" fill="#F79510"/>
<path d="M461.981 514.199C461.981 515.948 460.563 517.367 458.813 517.367C457.063 517.367 455.645 515.948 455.645 514.199C455.645 512.449 457.063 511.031 458.813 511.031C460.563 511.031 461.981 512.449 461.981 514.199Z" fill="#F79510"/>
<path d="M598.943 459.125C598.943 460.875 597.524 462.293 595.775 462.293C594.025 462.293 592.605 460.875 592.605 459.125C592.605 457.375 594.025 455.957 595.775 455.957C597.524 455.957 598.943 457.375 598.943 459.125Z" fill="#F79510"/>
<path d="M116.125 31.9106C116.125 33.66 114.706 35.0787 112.957 35.0787C111.207 35.0787 109.788 33.66 109.788 31.9106C109.788 30.16 111.207 28.7427 112.957 28.7427C114.706 28.7427 116.125 30.16 116.125 31.9106Z" fill="#F79510"/>
<path d="M598.943 131.296C598.943 133.047 597.524 134.464 595.775 134.464C594.025 134.464 592.605 133.047 592.605 131.296C592.605 129.547 594.025 128.129 595.775 128.129C597.524 128.129 598.943 129.547 598.943 131.296Z" fill="#F79510"/>
<path d="M379.241 62.896C379.241 64.6453 377.821 66.064 376.073 66.064C374.323 66.064 372.904 64.6453 372.904 62.896C372.904 61.1467 374.323 59.728 376.073 59.728C377.821 59.728 379.241 61.1467 379.241 62.896Z" fill="#F79510"/>
<path d="M292.597 54.692C292.597 56.4413 291.179 57.86 289.429 57.86C287.68 57.86 286.261 56.4413 286.261 54.692C286.261 52.9413 287.68 51.524 289.429 51.524C291.179 51.524 292.597 52.9413 292.597 54.692Z" fill="#100F0D"/>
<path d="M560.26 514.199C560.26 515.948 558.841 517.367 557.092 517.367C555.341 517.367 553.924 515.948 553.924 514.199C553.924 512.449 555.341 511.031 557.092 511.031C558.841 511.031 560.26 512.449 560.26 514.199Z" fill="#100F0D"/>
<path d="M112.957 520.409C112.957 522.16 111.538 523.578 109.788 523.578C108.039 523.578 106.62 522.16 106.62 520.409C106.62 518.66 108.039 517.241 109.788 517.241C111.538 517.241 112.957 518.66 112.957 520.409Z" fill="#100F0D"/>
<path d="M502.461 467.983L503.062 466.752L143.645 291.327C131.452 285.377 123.815 273.976 123.827 262.436C123.827 261.729 123.855 261.02 123.912 260.312L132.271 157.645C132.884 150.184 136.497 144.015 141.952 139.644C147.405 135.279 154.713 132.755 162.612 132.755C167.296 132.756 172.187 133.641 177.023 135.553L519.802 271.083C526.309 273.655 531.796 277.787 535.733 282.788C539.671 287.789 542.055 293.648 542.405 299.691L550.684 442.253C550.716 442.799 550.73 443.337 550.73 443.872C550.724 451.848 547.271 458.516 541.73 463.276C536.19 468.028 528.544 470.817 520.264 470.816C514.668 470.816 508.784 469.544 503.062 466.752L502.461 467.983L501.86 469.213C507.954 472.188 514.253 473.555 520.264 473.555C529.156 473.553 537.428 470.569 543.513 465.356C549.599 460.151 553.477 452.663 553.471 443.872C553.471 443.285 553.453 442.692 553.419 442.095L545.14 299.532C544.753 292.869 542.132 286.487 537.885 281.093C533.637 275.699 527.759 271.283 520.809 268.535L178.029 133.005C172.876 130.968 167.641 130.016 162.612 130.016C154.132 130.017 146.227 132.719 140.241 137.504C134.256 142.284 130.207 149.188 129.541 157.423L121.182 260.089C121.118 260.872 121.087 261.655 121.087 262.436C121.099 275.205 129.437 287.437 142.444 293.788L501.86 469.213L502.461 467.983Z" fill="#100F0D"/>
<path d="M93.2215 331.177L93.1115 329.737L69.2105 331.567C61.9641 332.121 55.5803 335.799 51.0407 341.217C46.4975 346.636 43.7595 353.811 43.7579 361.472C43.7579 362.809 43.8417 364.161 44.0141 365.521L53.1767 437.784C54.9896 452.195 66.1032 462.103 78.6563 462.101C81.8615 462.103 85.1505 461.453 88.3715 460.081L581.949 250.043C587.587 247.644 591.996 243.512 594.98 238.545C597.965 233.576 599.543 227.769 599.544 221.94C599.545 214.987 597.288 207.975 592.429 202.393L536.656 138.321C531.741 132.672 524.976 129.644 518.017 129.647C514.388 129.647 510.709 130.468 507.221 132.147L101.038 327.585C98.5063 328.804 95.8261 329.531 93.1115 329.737L93.2215 331.177L93.3319 332.616C96.4125 332.381 99.4443 331.557 102.29 330.187L508.472 134.748C511.579 133.255 514.824 132.535 518.017 132.533C524.14 132.537 530.084 135.175 534.479 140.217L590.252 204.289C594.608 209.293 596.655 215.601 596.656 221.94C596.657 227.248 595.211 232.559 592.505 237.057C589.799 241.559 585.851 245.244 580.819 247.385L87.2412 457.425C84.3683 458.648 81.4729 459.215 78.6563 459.215C67.6699 459.213 57.7177 450.544 56.0401 437.421L46.8781 365.159C46.7215 363.92 46.6448 362.689 46.6448 361.472C46.6439 354.504 49.1459 347.967 53.2527 343.072C57.3631 338.175 63.0385 334.935 69.4308 334.445L93.3319 332.616L93.2215 331.177Z" fill="#100F0D"/>
<path d="M559.191 425.543L559.067 425.405C560.004 424.371 560.86 423.279 561.627 422.137C565.681 416.127 567.243 408.716 565.147 400.813L558.95 377.533C562.06 373.416 564.108 368.653 564.761 363.575L573.041 394.7C576.471 407.584 570.144 419.171 559.191 425.543ZM558.029 374.069L550.914 347.336L556.997 346.44C557.795 346.323 558.581 346.187 559.357 346.031L561.342 353.356C561.956 355.62 562.247 357.861 562.247 360.059C562.247 365.068 560.733 369.859 558.029 374.069Z" fill="#D8D7D5"/>
<path d="M558.661 425.845C558.797 425.7 558.933 425.553 559.067 425.405L559.191 425.543C559.015 425.645 558.839 425.745 558.661 425.845Z" fill="#CAC8C7"/>
<path d="M95.8803 170.539C99.9448 166.197 105.461 162.897 111.811 161.089L115.602 165.655C115.483 165.653 115.364 165.652 115.245 165.652C111.993 165.652 108.844 166.021 105.861 166.719C102.264 167.548 98.9016 168.847 95.8803 170.539Z" fill="#D8D7D5"/>
<path d="M312.091 201.937L131.433 167.928L132.044 160.437L330.492 197.8L312.091 201.937ZM128.727 167.417L123.487 166.432C120.815 165.928 118.177 165.676 115.602 165.655L111.811 161.089C115.359 160.079 119.166 159.535 123.128 159.535C125.161 159.535 127.233 159.679 129.333 159.976L128.727 167.417Z" fill="#CAC8C7"/>
<path d="M131.433 167.928L128.727 167.417L129.333 159.976C130.013 160.072 130.695 160.184 131.38 160.313L132.044 160.437L131.433 167.928Z" fill="#100F0D"/>
<path d="M561.627 422.137C553.971 433.533 537.427 439.943 519.991 435.287L120.145 328.484C105.271 324.512 94.397 313.308 92.8767 300.393L80.824 197.849C79.0568 182.784 90.233 170.321 105.861 166.719C111.311 165.445 117.31 165.268 123.487 166.432L498.447 237.021C513.169 239.801 524.935 249.689 528.221 262.057L565.147 400.813C567.243 408.716 565.681 416.127 561.627 422.137Z" fill="#F25A1F"/>
<path d="M531.493 436.817C527.764 436.817 523.901 436.331 519.991 435.287L340.203 387.263L336.38 386.243L506.864 391.448L561.627 422.137C559.373 425.492 556.349 428.415 552.76 430.749C551.905 431.305 551.021 431.825 550.107 432.313C544.728 435.175 538.337 436.817 531.493 436.817ZM501.692 388.549L324.796 383.148L318.743 381.531L453.7 361.655L501.692 388.549Z" fill="#F14C1C"/>
<path d="M87.2469 252.499L80.824 197.849C80.7297 197.048 80.6724 196.252 80.6505 195.467C86.6115 190.912 94.4751 188.071 103.234 188.071C103.235 188.071 103.235 188.071 103.237 188.071C104.7 188.071 106.189 188.149 107.698 188.313L107.846 186.952L107.994 185.589C106.387 185.416 104.799 185.331 103.237 185.331C94.7267 185.331 86.9704 187.84 80.7844 192C82.1037 179.631 92.3084 169.843 105.861 166.719L147.107 189.833L107.994 185.589L107.846 186.952L107.698 188.313L153.204 193.251L209.764 224.948L87.2469 252.499Z" fill="#F14C1C"/>
<mask id="mask0_4_2" style="mask-type:luminance" maskUnits="userSpaceOnUse" x="116" y="178" width="17" height="17">
<path d="M130.503 181.015C133.643 184.155 133.643 189.247 130.503 192.387C127.361 195.528 122.27 195.528 119.129 192.387C115.989 189.247 115.989 184.155 119.129 181.015C122.27 177.873 127.361 177.873 130.503 181.015Z" fill="white"/>
</mask>
<g mask="url(#mask0_4_2)">
<path d="M130.503 181.015C133.643 184.155 133.643 189.247 130.503 192.387C127.361 195.528 122.27 195.528 119.129 192.387C115.989 189.247 115.989 184.155 119.129 181.015C122.27 177.873 127.361 177.873 130.503 181.015Z" fill="url(#paint0_radial_4_2)"/>
</g>
<mask id="mask1_4_2" style="mask-type:luminance" maskUnits="userSpaceOnUse" x="491" y="382" width="17" height="17">
<path d="M504.853 385.017C507.993 388.157 507.993 393.249 504.853 396.391C501.712 399.531 496.621 399.531 493.481 396.391C490.34 393.249 490.34 388.157 493.481 385.017C496.621 381.876 501.712 381.876 504.853 385.017Z" fill="white"/>
</mask>
<g mask="url(#mask1_4_2)">
<path d="M504.853 385.017C507.993 388.157 507.993 393.249 504.853 396.391C501.712 399.531 496.621 399.531 493.481 396.391C490.34 393.249 490.34 388.157 493.481 385.017C496.621 381.876 501.712 381.876 504.853 385.017Z" fill="url(#paint1_radial_4_2)"/>
</g>
<path d="M388.353 156.893L411.481 87.5C411.72 86.7826 411.332 86.0067 410.615 85.768C409.897 85.528 409.121 85.916 408.881 86.6333L385.755 156.028C385.515 156.745 385.903 157.521 386.621 157.76C387.339 157.999 388.113 157.612 388.353 156.893Z" fill="#100F0D"/>
<path d="M328.42 153.327L271.559 107.315C270.971 106.84 270.108 106.931 269.632 107.519C269.156 108.107 269.248 108.969 269.836 109.445L326.697 155.456C327.285 155.932 328.148 155.84 328.624 155.252C329.1 154.664 329.008 153.803 328.42 153.327Z" fill="#100F0D"/>
<path d="M361.385 139.164L352.467 103.695C352.283 102.961 351.537 102.516 350.804 102.701C350.071 102.885 349.625 103.629 349.811 104.363L358.729 139.832C358.913 140.565 359.659 141.011 360.392 140.827C361.125 140.641 361.571 139.897 361.385 139.164Z" fill="#100F0D"/>
<path d="M280.489 442.124L231.292 496.253C230.783 496.813 230.824 497.679 231.384 498.188C231.944 498.696 232.809 498.655 233.319 498.096L282.516 443.967C283.025 443.407 282.984 442.54 282.424 442.032C281.864 441.523 280.999 441.564 280.489 442.124Z" fill="#100F0D"/>
<path d="M333.869 469.605L367.287 534.672C367.633 535.345 368.459 535.61 369.131 535.266C369.804 534.92 370.069 534.093 369.724 533.421L336.305 468.355C335.96 467.681 335.135 467.416 334.461 467.761C333.789 468.108 333.524 468.933 333.869 469.605Z" fill="#100F0D"/>
<path d="M297.992 469.239L291.817 505.286C291.689 506.032 292.191 506.74 292.936 506.868C293.681 506.996 294.389 506.495 294.517 505.749L300.692 469.701C300.82 468.956 300.319 468.248 299.573 468.12C298.828 467.992 298.12 468.493 297.992 469.239Z" fill="#100F0D"/>
<path d="M126.556 404.457C123.16 403.887 119.933 402.892 116.974 401.513C111.264 398.855 106.566 394.788 103.552 389.569L71.5787 334.281L77.8745 333.799L111.393 391.76C114.406 396.979 119.104 401.047 124.816 403.703C125.387 403.968 125.967 404.22 126.556 404.457ZM69.9751 331.508L51.8625 300.188C50.2281 297.361 49.1923 294.407 48.7011 291.417L67.3297 315.565L76.2709 331.027L69.9751 331.508Z" fill="#DDDBD9"/>
<path d="M67.3298 315.565L48.7011 291.417C46.1152 275.667 58.6606 258.921 78.598 254.444L79.6423 254.209L81.3089 258.108C60.8709 265.321 50.2246 285.979 59.7043 302.379L67.3298 315.565Z" fill="#D8D7D5"/>
<path d="M71.5787 334.281L69.9751 331.508L76.271 331.027L77.8746 333.799L71.5787 334.281Z" fill="#100F0D"/>
<path d="M83.9308 257.272L82.36 253.597L87.2469 252.499L87.7 256.351L86.4391 256.633C85.5891 256.825 84.7532 257.037 83.9308 257.272ZM354.207 196.421L351.262 193.129L406.117 180.793L390.69 188.216L354.207 196.421ZM403.192 185.405L418.618 177.983L450.858 170.733C454.06 170.011 457.266 169.661 460.402 169.661C465.576 169.661 470.562 170.612 475.041 172.412C472.832 172.041 470.556 171.851 468.244 171.851C465.108 171.851 461.901 172.201 458.701 172.923L403.192 185.405Z" fill="#D8D7D5"/>
<path d="M338.061 199.225L330.492 197.8L333.019 197.232L338.061 199.225ZM344.143 198.684L337.768 196.164L351.263 193.129L354.207 196.421L344.143 198.684Z" fill="#CAC8C7"/>
<path d="M340.061 199.601L338.061 199.225L333.019 197.232L337.768 196.164L344.143 198.684L340.061 199.601Z" fill="#100F0D"/>
<path d="M390.691 188.216L406.117 180.793L418.619 177.983L403.192 185.405L390.691 188.216Z" fill="#100F0D"/>
<path d="M321.66 203.74L312.091 201.937L330.492 197.8L338.061 199.225L339.393 199.752L321.66 203.74Z" fill="#A9A9A8"/>
<path d="M339.393 199.752L338.061 199.225L340.061 199.601L339.393 199.752Z" fill="#100F0D"/>
<path d="M214.799 227.769L209.764 224.948L286.437 207.707L298.297 208.993L214.799 227.769ZM306.563 207.135L294.703 205.848L312.091 201.937L321.66 203.74L306.563 207.135Z" fill="#F14C1C"/>
<path d="M87.7 256.351L87.2469 252.499L209.764 224.948L214.799 227.769L87.7 256.351Z" fill="#D44220"/>
<path d="M556.791 348.589L147.359 408.892C139.182 410.098 131.226 408.934 124.61 405.852C118.898 403.196 114.2 399.128 111.187 393.909L59.498 304.528C49.2537 286.805 62.5114 264.112 86.2328 258.782L458.495 175.072C467.176 173.113 475.888 173.894 483.188 176.962C488.187 179.03 492.528 182.181 495.747 186.262L584.608 299.05C599.235 317.609 584.102 344.576 556.791 348.589Z" fill="#F79510"/>
<path d="M107.846 186.952L107.698 188.313L505.307 231.453C512.46 232.229 518.939 234.883 524.019 238.828C529.101 242.773 532.779 247.997 534.389 253.939L561.342 353.356C561.956 355.62 562.247 357.861 562.247 360.059C562.247 367.877 558.557 375.168 552.412 380.544C546.266 385.916 537.682 389.335 528 389.333C527.581 389.333 527.16 389.327 526.736 389.315L158.307 378.064C144.309 377.641 132.084 369.945 127.341 358.816L71.2068 227.509C69.7464 224.092 69.0756 220.679 69.0751 217.36C69.0745 209.603 72.7557 202.304 78.8901 196.909C85.0215 191.519 93.5839 188.069 103.237 188.071C104.7 188.071 106.189 188.149 107.698 188.313L107.846 186.952L107.994 185.589C106.387 185.416 104.799 185.331 103.237 185.331C92.9281 185.332 83.7256 189.012 77.0813 194.852C70.4396 200.687 66.3365 208.717 66.336 217.36C66.3355 221.049 67.0865 224.84 68.6881 228.585L124.823 359.892C130.087 372.169 143.296 380.343 158.224 380.803L526.652 392.052C527.104 392.067 527.553 392.073 528 392.073C538.329 392.072 547.553 388.428 554.214 382.607C560.873 376.791 564.986 368.759 564.986 360.059C564.986 357.62 564.662 355.133 563.986 352.639L537.033 253.221C535.252 246.649 531.199 240.932 525.699 236.664C520.197 232.395 513.244 229.56 505.603 228.731L107.994 185.589L107.846 186.952Z" fill="#100F0D"/>
<path d="M176.019 272.687L178.669 309.974L170.785 310.534L168.135 273.247L176.019 272.687ZM191.616 292.804L192.765 308.972L185.009 309.523L183.022 281.558L190.414 281.032L190.764 285.966L191.092 285.943C191.595 284.273 192.542 282.912 193.931 281.862C195.319 280.8 197.051 280.195 199.127 280.047C201.069 279.909 202.792 280.214 204.297 280.961C205.802 281.708 207.011 282.842 207.924 284.363C208.837 285.871 209.37 287.712 209.524 289.885L210.79 307.691L203.034 308.242L201.867 291.82C201.757 290.107 201.225 288.803 200.271 287.907C199.316 286.999 198.062 286.601 196.508 286.711C195.464 286.785 194.558 287.075 193.789 287.581C193.032 288.086 192.459 288.786 192.071 289.68C191.695 290.56 191.543 291.602 191.616 292.804ZM224.915 307.218C223.13 307.344 221.518 307.148 220.079 306.628C218.638 306.096 217.467 305.246 216.567 304.078C215.678 302.897 215.168 301.384 215.037 299.539C214.926 297.985 215.119 296.66 215.614 295.564C216.11 294.467 216.826 293.562 217.764 292.849C218.701 292.136 219.783 291.571 221.01 291.155C222.249 290.737 223.556 290.412 224.93 290.181C226.544 289.895 227.844 289.644 228.829 289.428C229.813 289.199 230.519 288.917 230.946 288.582C231.374 288.247 231.566 287.782 231.524 287.187L231.516 287.078C231.435 285.924 231.007 285.058 230.234 284.479C229.473 283.899 228.431 283.655 227.108 283.749C225.712 283.849 224.623 284.237 223.842 284.915C223.06 285.58 222.568 286.384 222.366 287.325L215.152 287.252C215.395 285.527 216.007 284.008 216.987 282.694C217.966 281.368 219.276 280.311 220.915 279.523C222.566 278.723 224.509 278.243 226.742 278.085C228.295 277.974 229.795 278.051 231.241 278.314C232.699 278.576 234.008 279.05 235.167 279.737C236.338 280.422 237.288 281.342 238.016 282.498C238.744 283.642 239.167 285.046 239.285 286.708L240.626 305.57L233.27 306.093L232.995 302.215L232.776 302.231C232.389 303.137 231.843 303.95 231.138 304.671C230.432 305.38 229.565 305.96 228.535 306.411C227.505 306.851 226.298 307.119 224.915 307.218ZM226.756 301.707C227.896 301.626 228.888 301.33 229.73 300.819C230.571 300.295 231.213 299.628 231.655 298.815C232.098 298.003 232.284 297.105 232.214 296.122L232.003 293.155C231.772 293.33 231.448 293.499 231.033 293.663C230.629 293.813 230.17 293.962 229.656 294.108C229.141 294.243 228.625 294.371 228.109 294.493C227.593 294.603 227.124 294.703 226.703 294.794C225.803 294.992 225.023 295.261 224.364 295.601C223.705 295.94 223.205 296.372 222.864 296.897C222.522 297.409 222.377 298.029 222.429 298.757C222.504 299.813 222.943 300.593 223.748 301.097C224.563 301.588 225.566 301.792 226.756 301.707ZM263.731 291.961L262.589 275.903L270.345 275.352L272.333 303.317L264.886 303.846L264.525 298.767L264.234 298.787C263.719 300.471 262.763 301.862 261.365 302.962C259.979 304.061 258.236 304.685 256.137 304.834C254.267 304.967 252.592 304.659 251.112 303.91C249.631 303.162 248.435 302.033 247.523 300.524C246.622 299.014 246.089 297.167 245.921 294.984L244.656 277.177L252.412 276.626L253.579 293.049C253.708 294.698 254.244 295.972 255.186 296.869C256.128 297.765 257.334 298.162 258.802 298.057C259.737 297.991 260.596 297.716 261.379 297.234C262.161 296.739 262.771 296.049 263.208 295.164C263.657 294.278 263.832 293.21 263.731 291.961ZM291.922 313.05C289.41 313.229 287.231 313.036 285.385 312.472C283.553 311.919 282.067 311.091 280.927 309.989C279.787 308.887 279.007 307.613 278.588 306.166L285.692 304.692C285.951 305.234 286.334 305.732 286.841 306.184C287.349 306.635 288.002 306.979 288.8 307.215C289.61 307.463 290.58 307.546 291.709 307.466C293.396 307.346 294.756 306.835 295.79 305.932C296.837 305.04 297.292 303.635 297.156 301.718L296.792 296.602L296.464 296.625C296.18 297.426 295.722 298.196 295.091 298.937C294.461 299.677 293.627 300.303 292.59 300.816C291.553 301.329 290.294 301.638 288.813 301.743C286.713 301.892 284.767 301.543 282.975 300.694C281.193 299.833 279.721 298.431 278.558 296.488C277.407 294.533 276.721 292.008 276.501 288.913C276.276 285.745 276.604 283.062 277.485 280.865C278.365 278.667 279.624 276.98 281.26 275.802C282.909 274.623 284.759 273.961 286.81 273.816C288.376 273.704 289.706 273.878 290.8 274.337C291.893 274.784 292.789 275.379 293.488 276.122C294.199 276.853 294.757 277.581 295.163 278.309L295.454 278.288L295.12 273.591L302.821 273.044L304.828 301.282C304.997 303.661 304.556 305.693 303.505 307.378C302.453 309.063 300.925 310.379 298.918 311.327C296.925 312.286 294.593 312.861 291.922 313.05ZM290.857 295.742C292.107 295.654 293.141 295.269 293.959 294.589C294.788 293.895 295.392 292.95 295.77 291.752C296.16 290.541 296.297 289.116 296.18 287.477C296.064 285.839 295.732 284.435 295.185 283.266C294.638 282.085 293.904 281.192 292.982 280.587C292.061 279.981 290.975 279.723 289.725 279.812C288.45 279.902 287.401 280.324 286.576 281.078C285.75 281.82 285.156 282.814 284.793 284.06C284.431 285.305 284.306 286.723 284.419 288.313C284.533 289.928 284.857 291.308 285.39 292.453C285.934 293.585 286.66 294.443 287.567 295.025C288.486 295.594 289.583 295.833 290.857 295.742ZM328.068 287.389L326.927 271.33L334.683 270.779L336.67 298.745L329.224 299.274L328.863 294.194L328.572 294.215C328.057 295.898 327.101 297.29 325.703 298.39C324.317 299.488 322.574 300.112 320.474 300.262C318.605 300.395 316.93 300.087 315.45 299.338C313.969 298.589 312.773 297.46 311.86 295.952C310.96 294.442 310.426 292.595 310.259 290.411L308.993 272.605L316.749 272.054L317.917 288.476C318.046 290.126 318.582 291.399 319.524 292.296C320.466 293.193 321.671 293.589 323.14 293.485C324.075 293.418 324.933 293.144 325.716 292.661C326.499 292.166 327.108 291.477 327.546 290.592C327.995 289.706 328.169 288.638 328.068 287.389ZM342.874 298.304L340.887 270.338L348.406 269.804L348.753 274.683L349.044 274.663C349.431 272.891 350.193 271.519 351.332 270.548C352.47 269.564 353.822 269.017 355.387 268.905C355.776 268.878 356.196 268.872 356.649 268.889C357.101 268.905 357.501 268.944 357.846 269.005L358.336 275.887C357.964 275.804 357.453 275.742 356.804 275.703C356.154 275.664 355.563 275.663 355.029 275.701C353.888 275.782 352.886 276.104 352.023 276.665C351.171 277.214 350.516 277.943 350.056 278.854C349.608 279.764 349.425 280.79 349.506 281.931L350.63 297.753L342.874 298.304ZM371.064 296.831C369.28 296.958 367.668 296.761 366.228 296.241C364.787 295.709 363.617 294.859 362.716 293.691C361.827 292.51 361.317 290.997 361.186 289.152C361.075 287.599 361.268 286.274 361.763 285.177C362.259 284.08 362.975 283.176 363.913 282.462C364.85 281.749 365.932 281.184 367.159 280.768C368.398 280.35 369.705 280.026 371.079 279.794C372.693 279.508 373.993 279.257 374.978 279.041C375.962 278.813 376.668 278.531 377.096 278.195C377.523 277.86 377.716 277.395 377.673 276.8L377.666 276.691C377.584 275.538 377.156 274.671 376.383 274.092C375.622 273.512 374.58 273.269 373.257 273.363C371.861 273.462 370.773 273.85 369.991 274.528C369.209 275.194 368.717 275.997 368.516 276.939L361.301 276.866C361.544 275.141 362.156 273.621 363.136 272.307C364.115 270.981 365.425 269.924 367.065 269.137C368.716 268.336 370.658 267.857 372.891 267.698C374.445 267.587 375.944 267.664 377.39 267.927C378.849 268.189 380.157 268.664 381.316 269.35C382.487 270.035 383.437 270.956 384.166 272.112C384.893 273.255 385.316 274.659 385.435 276.322L386.775 295.184L379.42 295.706L379.144 291.828L378.926 291.844C378.539 292.75 377.993 293.563 377.287 294.284C376.581 294.993 375.714 295.573 374.685 296.025C373.655 296.464 372.448 296.733 371.064 296.831ZM372.905 291.32C374.046 291.239 375.037 290.943 375.879 290.432C376.72 289.909 377.362 289.241 377.804 288.429C378.247 287.616 378.433 286.719 378.363 285.736L378.152 282.768C377.921 282.943 377.597 283.112 377.182 283.276C376.778 283.427 376.319 283.575 375.805 283.722C375.29 283.856 374.774 283.984 374.258 284.106C373.742 284.216 373.273 284.316 372.853 284.407C371.952 284.605 371.172 284.874 370.513 285.214C369.854 285.554 369.354 285.986 369.013 286.51C368.671 287.022 368.526 287.642 368.578 288.371C368.653 289.427 369.093 290.207 369.897 290.711C370.713 291.202 371.715 291.405 372.905 291.32ZM405.68 265.734L406.094 271.56L389.253 272.757L388.839 266.93L405.68 265.734ZM392.186 259.959L399.942 259.407L401.795 285.479C401.846 286.195 401.995 286.746 402.242 287.131C402.488 287.504 402.81 287.756 403.21 287.886C403.622 288.015 404.089 288.061 404.611 288.024C404.975 287.998 405.337 287.942 405.697 287.855C406.056 287.757 406.331 287.682 406.522 287.632L408.152 293.317C407.773 293.466 407.236 293.644 406.544 293.852C405.852 294.072 405.003 294.236 403.998 294.344C402.134 294.55 400.478 294.417 399.03 293.947C397.593 293.476 396.444 292.667 395.582 291.52C394.719 290.374 394.229 288.884 394.111 287.05L392.186 259.959ZM412.72 293.34L410.732 265.375L418.488 264.823L420.476 292.789L412.72 293.34ZM414.372 261.493C413.219 261.575 412.203 261.263 411.323 260.557C410.454 259.838 409.982 258.938 409.905 257.858C409.829 256.79 410.171 255.844 410.93 255.022C411.7 254.186 412.661 253.728 413.814 253.646C414.968 253.564 415.978 253.882 416.847 254.601C417.726 255.307 418.204 256.194 418.28 257.262C418.357 258.343 418.01 259.301 417.24 260.136C416.481 260.959 415.525 261.411 414.372 261.493ZM439.363 291.995C436.535 292.196 434.046 291.769 431.897 290.714C429.76 289.646 428.056 288.072 426.786 285.991C425.515 283.897 424.777 281.418 424.574 278.554C424.369 275.665 424.747 273.101 425.711 270.861C426.673 268.609 428.137 266.809 430.103 265.462C432.08 264.101 434.483 263.321 437.311 263.12C440.139 262.919 442.622 263.352 444.759 264.42C446.908 265.475 448.618 267.049 449.889 269.143C451.159 271.224 451.897 273.709 452.102 276.597C452.306 279.462 451.926 282.02 450.964 284.272C450.001 286.512 448.531 288.312 446.554 289.673C444.588 291.02 442.191 291.794 439.363 291.995ZM438.972 285.985C440.259 285.893 441.307 285.453 442.117 284.663C442.926 283.861 443.504 282.808 443.85 281.502C444.209 280.196 444.33 278.73 444.215 277.103C444.099 275.477 443.772 274.042 443.232 272.8C442.704 271.556 441.983 270.595 441.069 269.916C440.155 269.237 439.054 268.943 437.768 269.034C436.469 269.126 435.403 269.574 434.569 270.378C433.748 271.18 433.158 272.235 432.8 273.541C432.453 274.847 432.338 276.313 432.453 277.939C432.569 279.565 432.891 281 433.418 282.244C433.958 283.486 434.691 284.447 435.617 285.125C436.555 285.79 437.674 286.077 438.972 285.985ZM464.738 273.394L465.887 289.561L458.131 290.113L456.144 262.147L463.536 261.622L463.887 266.556L464.214 266.532C464.718 264.862 465.664 263.502 467.053 262.451C468.442 261.389 470.174 260.784 472.249 260.637C474.191 260.499 475.915 260.803 477.419 261.55C478.924 262.297 480.133 263.431 481.046 264.952C481.959 266.461 482.492 268.302 482.647 270.474L483.912 288.28L476.156 288.832L474.989 272.409C474.879 270.697 474.348 269.393 473.393 268.497C472.438 267.589 471.184 267.19 469.63 267.3C468.586 267.375 467.68 267.665 466.911 268.171C466.154 268.676 465.581 269.375 465.193 270.269C464.817 271.15 464.665 272.191 464.738 273.394ZM496.642 249.9L497.788 276.059L491.124 276.532L488.54 250.476L496.642 249.9ZM495.284 287.948C494.082 288.033 493.02 287.682 492.098 286.893C491.175 286.093 490.677 285.091 490.604 283.889C490.507 282.7 490.859 281.65 491.661 280.74C492.462 279.829 493.464 279.331 494.665 279.245C495.818 279.163 496.862 279.516 497.796 280.303C498.731 281.091 499.246 282.079 499.343 283.268C499.388 284.07 499.227 284.819 498.862 285.516C498.508 286.2 498.018 286.765 497.391 287.213C496.763 287.648 496.061 287.893 495.284 287.948Z" fill="white"/>
<path d="M260.759 330.508C261.281 330.471 261.79 330.523 262.285 330.664C262.783 330.804 263.236 331.053 263.644 331.409C264.055 331.766 264.393 332.253 264.66 332.872C264.93 333.488 265.099 334.255 265.167 335.174C265.229 336.037 265.186 336.814 265.039 337.506C264.895 338.194 264.66 338.787 264.333 339.285C264.006 339.784 263.597 340.175 263.106 340.459C262.614 340.74 262.054 340.903 261.426 340.947C260.748 340.995 260.14 340.907 259.603 340.683C259.065 340.455 258.621 340.126 258.272 339.696C257.925 339.262 257.699 338.763 257.592 338.199L259.71 338.049C259.819 338.413 260.013 338.688 260.292 338.875C260.571 339.057 260.905 339.135 261.295 339.107C261.956 339.06 262.438 338.737 262.741 338.137C263.044 337.534 263.161 336.73 263.093 335.725L263.024 335.73C262.893 336.038 262.706 336.309 262.463 336.542C262.221 336.772 261.936 336.957 261.611 337.096C261.288 337.235 260.94 337.318 260.567 337.345C259.968 337.387 259.424 337.285 258.935 337.037C258.446 336.79 258.048 336.429 257.742 335.956C257.436 335.482 257.26 334.93 257.215 334.299C257.164 333.618 257.277 333 257.557 332.445C257.837 331.89 258.25 331.442 258.797 331.101C259.348 330.756 260.001 330.558 260.759 330.508ZM260.893 332.193C260.559 332.217 260.268 332.317 260.018 332.494C259.771 332.671 259.581 332.899 259.448 333.178C259.318 333.456 259.267 333.761 259.294 334.091C259.318 334.425 259.412 334.721 259.576 334.978C259.744 335.232 259.96 335.429 260.226 335.57C260.495 335.707 260.795 335.764 261.126 335.74C261.374 335.723 261.6 335.66 261.805 335.552C262.01 335.445 262.184 335.304 262.328 335.131C262.475 334.955 262.586 334.756 262.66 334.535C262.734 334.313 262.762 334.082 262.745 333.841C262.719 333.52 262.622 333.231 262.454 332.974C262.286 332.717 262.066 332.517 261.793 332.373C261.521 332.23 261.221 332.17 260.893 332.193ZM268.205 339.14C267.878 339.163 267.589 339.067 267.338 338.852C267.09 338.637 266.954 338.365 266.931 338.034C266.908 337.71 267.004 337.424 267.219 337.176C267.437 336.928 267.71 336.792 268.037 336.769C268.354 336.747 268.64 336.843 268.895 337.057C269.149 337.272 269.288 337.541 269.311 337.865C269.326 338.083 269.284 338.287 269.185 338.477C269.089 338.663 268.955 338.817 268.784 338.939C268.613 339.057 268.42 339.124 268.205 339.14ZM267.851 334.156C267.524 334.179 267.235 334.083 266.983 333.868C266.736 333.653 266.6 333.381 266.576 333.05C266.553 332.726 266.649 332.442 266.865 332.197C267.083 331.949 267.356 331.813 267.683 331.79C268 331.768 268.286 331.864 268.541 332.078C268.795 332.289 268.934 332.557 268.957 332.881C268.973 333.102 268.931 333.308 268.831 333.498C268.735 333.684 268.601 333.837 268.43 333.955C268.259 334.074 268.066 334.14 267.851 334.156ZM274.958 339.985C274.217 340.038 273.549 339.958 272.952 339.744C272.359 339.527 271.879 339.206 271.513 338.78C271.15 338.35 270.943 337.84 270.891 337.249L273.053 337.095C273.084 337.342 273.18 337.555 273.342 337.733C273.508 337.907 273.72 338.037 273.978 338.121C274.237 338.206 274.523 338.237 274.837 338.215C275.164 338.191 275.45 338.113 275.693 337.979C275.936 337.846 276.121 337.672 276.249 337.456C276.376 337.241 276.43 337 276.411 336.732C276.392 336.461 276.299 336.227 276.132 336.029C275.968 335.828 275.742 335.678 275.452 335.579C275.166 335.48 274.831 335.444 274.448 335.471L273.501 335.539L273.388 333.962L274.336 333.894C274.66 333.871 274.942 333.795 275.182 333.665C275.425 333.534 275.609 333.365 275.734 333.157C275.858 332.945 275.911 332.706 275.892 332.438C275.874 332.183 275.797 331.965 275.661 331.781C275.528 331.595 275.348 331.455 275.123 331.361C274.9 331.267 274.645 331.231 274.357 331.251C274.066 331.272 273.804 331.344 273.57 331.467C273.336 331.586 273.153 331.747 273.021 331.949C272.889 332.151 272.828 332.382 272.836 332.64L270.778 332.786C270.746 332.201 270.877 331.673 271.169 331.204C271.461 330.734 271.873 330.354 272.404 330.064C272.938 329.77 273.552 329.599 274.246 329.549C274.947 329.5 275.569 329.583 276.113 329.801C276.657 330.018 277.09 330.333 277.411 330.745C277.736 331.154 277.916 331.626 277.951 332.162C277.994 332.73 277.851 333.217 277.521 333.623C277.194 334.028 276.75 334.302 276.189 334.445L276.195 334.525C276.949 334.567 277.536 334.787 277.956 335.182C278.379 335.574 278.612 336.086 278.653 336.717C278.698 337.296 278.567 337.822 278.262 338.295C277.96 338.769 277.524 339.155 276.954 339.455C276.384 339.755 275.718 339.931 274.958 339.985ZM284.397 339.399C283.544 339.457 282.795 339.299 282.151 338.926C281.51 338.553 280.996 337.983 280.609 337.216C280.225 336.449 279.996 335.511 279.92 334.399C279.841 333.292 279.938 332.336 280.21 331.533C280.485 330.729 280.914 330.102 281.497 329.652C282.082 329.199 282.8 328.941 283.65 328.881C284.499 328.821 285.245 328.974 285.885 329.34C286.529 329.707 287.045 330.268 287.431 331.025C287.816 331.778 288.047 332.709 288.122 333.817C288.202 334.931 288.104 335.895 287.83 336.708C287.558 337.522 287.132 338.158 286.55 338.618C285.968 339.078 285.25 339.339 284.397 339.399ZM284.271 337.619C284.853 337.578 285.296 337.252 285.602 336.642C285.907 336.032 286.017 335.142 285.931 333.972C285.876 333.202 285.751 332.566 285.556 332.065C285.364 331.564 285.115 331.194 284.809 330.957C284.506 330.719 284.162 330.614 283.775 330.642C283.196 330.683 282.754 331.005 282.448 331.608C282.142 332.211 282.028 333.09 282.107 334.244C282.163 335.024 282.287 335.67 282.479 336.181C282.675 336.689 282.925 337.063 283.232 337.304C283.538 337.542 283.884 337.647 284.271 337.619ZM295.056 338.418L292.755 338.581L295.539 328.176L298.306 327.979L302.529 337.886L300.228 338.05L297.127 330.395L297.048 330.401L295.056 338.418ZM294.628 334.436L300.064 334.049L300.183 335.726L294.748 336.112L294.628 334.436ZM303.03 327.643L305.678 327.455L308.96 334.08L309.079 334.072L311.391 327.049L314.039 326.861L314.761 337.017L312.678 337.165L312.208 330.555L312.124 330.561L309.962 337.308L308.544 337.409L305.447 331.01L305.363 331.016L305.834 337.652L303.752 337.8L303.03 327.643ZM318.779 328.303L318.653 326.533L326.995 325.94L327.12 327.711L324.011 327.932L324.607 336.317L322.485 336.468L321.889 328.082L318.779 328.303ZM331.398 335.984C330.628 336.039 329.95 335.923 329.365 335.635C328.782 335.344 328.318 334.916 327.972 334.349C327.626 333.779 327.425 333.103 327.37 332.323C327.314 331.536 327.417 330.838 327.679 330.228C327.941 329.614 328.34 329.124 328.876 328.757C329.414 328.387 330.069 328.174 330.839 328.119C331.609 328.064 332.286 328.182 332.868 328.473C333.453 328.761 333.919 329.19 334.265 329.76C334.611 330.327 334.812 331.003 334.868 331.79C334.923 332.57 334.82 333.267 334.558 333.881C334.296 334.491 333.895 334.981 333.357 335.352C332.821 335.719 332.168 335.93 331.398 335.984ZM331.292 334.347C331.642 334.322 331.928 334.202 332.148 333.987C332.369 333.769 332.526 333.482 332.62 333.126C332.718 332.77 332.751 332.371 332.72 331.928C332.688 331.485 332.599 331.094 332.452 330.756C332.308 330.417 332.112 330.155 331.863 329.97C331.614 329.785 331.314 329.705 330.963 329.73C330.61 329.755 330.319 329.877 330.092 330.096C329.869 330.315 329.708 330.602 329.61 330.958C329.516 331.313 329.484 331.713 329.516 332.156C329.547 332.599 329.635 332.989 329.779 333.328C329.926 333.667 330.125 333.928 330.378 334.113C330.633 334.294 330.938 334.372 331.292 334.347ZM343.419 324.773L344.141 334.929L341.994 335.082L341.417 326.964L341.357 326.968L339.135 328.591L339 326.687L341.401 324.916L343.419 324.773ZM350.553 334.698C349.7 334.755 348.951 334.597 348.306 334.224C347.665 333.851 347.151 333.281 346.764 332.515C346.381 331.748 346.151 330.809 346.076 329.698C345.997 328.59 346.093 327.635 346.365 326.831C346.64 326.028 347.069 325.401 347.652 324.951C348.238 324.497 348.956 324.24 349.805 324.179C350.655 324.119 351.4 324.272 352.041 324.639C352.685 325.005 353.2 325.566 353.586 326.323C353.972 327.077 354.202 328.007 354.278 329.115C354.357 330.229 354.259 331.193 353.985 332.007C353.714 332.82 353.287 333.457 352.705 333.917C352.123 334.377 351.406 334.637 350.553 334.698ZM350.426 332.917C351.008 332.876 351.452 332.55 351.757 331.941C352.063 331.331 352.172 330.441 352.086 329.271C352.031 328.5 351.906 327.865 351.711 327.363C351.519 326.862 351.27 326.493 350.965 326.255C350.662 326.018 350.317 325.912 349.93 325.94C349.352 325.981 348.909 326.303 348.603 326.906C348.297 327.51 348.184 328.388 348.262 329.542C348.318 330.323 348.442 330.968 348.634 331.48C348.83 331.988 349.081 332.362 349.387 332.602C349.693 332.84 350.039 332.945 350.426 332.917ZM357.34 332.805C357.013 332.828 356.723 332.732 356.472 332.518C356.224 332.303 356.089 332.03 356.065 331.699C356.042 331.375 356.138 331.089 356.353 330.841C356.571 330.593 356.844 330.458 357.171 330.434C357.489 330.412 357.775 330.508 358.029 330.722C358.284 330.937 358.422 331.206 358.446 331.53C358.461 331.748 358.419 331.952 358.32 332.142C358.223 332.328 358.09 332.482 357.919 332.604C357.748 332.723 357.555 332.79 357.34 332.805ZM356.986 327.821C356.658 327.844 356.369 327.748 356.118 327.534C355.87 327.319 355.734 327.046 355.711 326.715C355.688 326.391 355.784 326.107 355.999 325.863C356.218 325.614 356.49 325.479 356.818 325.455C357.135 325.433 357.421 325.529 357.675 325.743C357.93 325.955 358.068 326.222 358.091 326.546C358.107 326.768 358.065 326.973 357.966 327.163C357.869 327.349 357.736 327.502 357.565 327.62C357.394 327.739 357.201 327.806 356.986 327.821ZM364.025 323.308L364.747 333.465L362.6 333.617L362.023 325.499L361.963 325.503L359.741 327.127L359.606 325.222L362.007 323.452L364.025 323.308ZM370.88 333.168C370.179 333.218 369.545 333.134 368.978 332.915C368.414 332.696 367.956 332.371 367.603 331.941C367.25 331.511 367.046 331.004 366.992 330.419L369.074 330.271C369.126 330.663 369.314 330.97 369.638 331.193C369.963 331.416 370.337 331.512 370.76 331.482C371.098 331.458 371.39 331.363 371.637 331.196C371.888 331.025 372.076 330.801 372.202 330.522C372.332 330.241 372.384 329.925 372.359 329.574C372.334 329.217 372.236 328.909 372.064 328.648C371.896 328.388 371.674 328.191 371.399 328.058C371.124 327.924 370.816 327.868 370.475 327.889C370.178 327.91 369.893 327.992 369.62 328.134C369.351 328.276 369.147 328.459 369.006 328.681L367.073 328.475L367.173 323.085L373.382 322.643L373.507 324.399L369.068 324.714L368.986 327.277L369.046 327.273C369.206 327.009 369.461 326.782 369.81 326.591C370.158 326.4 370.556 326.288 371.002 326.257C371.614 326.213 372.169 326.318 372.669 326.572C373.169 326.825 373.576 327.194 373.889 327.676C374.202 328.156 374.38 328.721 374.423 329.373C374.475 330.057 374.36 330.677 374.077 331.232C373.797 331.783 373.382 332.231 372.832 332.576C372.285 332.917 371.634 333.115 370.88 333.168ZM381.204 332.295L378.903 332.459L381.687 322.053L384.454 321.857L388.677 331.764L386.376 331.927L383.275 324.273L383.196 324.279L381.204 332.295ZM380.776 328.313L386.211 327.927L386.331 329.603L380.895 329.989L380.776 328.313ZM389.178 321.521L391.826 321.333L395.108 327.958L395.227 327.949L397.539 320.927L400.187 320.738L400.909 330.895L398.826 331.043L398.356 324.432L398.272 324.438L396.11 331.186L394.692 331.287L391.595 324.888L391.511 324.894L391.982 331.529L389.9 331.677L389.178 321.521Z" fill="white"/>
<mask id="mask2_4_2" style="mask-type:luminance" maskUnits="userSpaceOnUse" x="138" y="366" width="17" height="17">
<path d="M152.217 368.932C155.357 372.073 155.357 377.165 152.217 380.305C149.076 383.447 143.985 383.447 140.844 380.305C137.703 377.165 137.703 372.073 140.844 368.932C143.985 365.792 149.076 365.792 152.217 368.932Z" fill="white"/>
</mask>
<g mask="url(#mask2_4_2)">
<path d="M152.217 368.932C155.357 372.073 155.357 377.165 152.217 380.305C149.076 383.447 143.985 383.447 140.844 380.305C137.703 377.165 137.703 372.073 140.844 368.932C143.985 365.792 149.076 365.792 152.217 368.932Z" fill="url(#paint2_radial_4_2)"/>
</g>
<mask id="mask3_4_2" style="mask-type:luminance" maskUnits="userSpaceOnUse" x="402" y="213" width="17" height="17">
<path d="M416.517 215.503C419.657 218.643 419.657 223.735 416.517 226.876C413.377 230.016 408.284 230.016 405.144 226.876C402.003 223.735 402.003 218.643 405.144 215.503C408.284 212.361 413.377 212.361 416.517 215.503Z" fill="white"/>
</mask>
<g mask="url(#mask3_4_2)">
<path d="M416.517 215.503C419.657 218.643 419.657 223.735 416.517 226.876C413.377 230.016 408.284 230.016 405.144 226.876C402.003 223.735 402.003 218.643 405.144 215.503C408.284 212.361 413.377 212.361 416.517 215.503Z" fill="url(#paint3_radial_4_2)"/>
</g>
<path d="M441.176 132.357L438.265 129.004L438.668 128.509L515.523 81.3867L509.148 70.0427L499.703 53.2214L501.507 50.9947L513.669 72.6547L520.045 83.9987L441.176 132.357Z" fill="#DDDBD9"/>
<path d="M429.96 139.235L438.265 129.004L441.176 132.357L429.96 139.235Z" fill="#D8D7D5"/>
<path d="M515.523 81.3867L425.436 136.623L434.553 125.392L496.985 48.3814L509.148 70.0427L515.523 81.3867Z" fill="#F79510"/>
<path d="M425.436 136.623L434.553 125.392L509.148 70.0427L515.523 81.3867L438.668 128.509L425.436 136.623Z" fill="#F68C11"/>
<path d="M161.847 530.792L158.551 524.921L194.563 480.499L198.489 485.591L161.847 530.792Z" fill="#DDDBD9"/>
<path d="M198.489 485.591L194.563 480.499L229.105 437.889L230.777 435.829L246.82 425.993L235.992 439.331L198.489 485.591Z" fill="#D8D7D5"/>
<path d="M132.943 490.152L239.933 424.552L229.105 437.889L154.96 529.349L140.516 503.625L132.943 490.152Z" fill="#F79510"/>
<path d="M140.516 503.625L132.943 490.152L239.933 424.552L229.105 437.889L140.516 503.625Z" fill="#F68C11"/>
<path d="M1.90527 337.435L1.90057 335.072L39.5516 320.035L39.7543 319.955L46.3584 319.687L40.6969 321.944L1.90527 337.435Z" fill="#DDDBD9"/>
<path d="M0.725586 319.576L45.2131 317.779L39.5516 320.035L0.75996 335.527L0.739133 325.06L0.725586 319.576Z" fill="#F79510"/>
<path d="M0.739133 325.06L0.725586 319.576L45.2131 317.779L39.5516 320.035L0.739133 325.06Z" fill="#F68C11"/>
<path d="M391.585 501.357L387.675 493.336L393.46 500.304L391.585 501.357Z" fill="#E9E9E8"/>
<path d="M393.46 500.304L387.675 493.336L356.607 429.603L360.705 433.503L399.151 496.203L407.887 491.293L416.407 486.509L417.005 487.079L400.323 496.448L393.46 500.304Z" fill="#DDDBD9"/>
<path d="M399.151 496.203L356.607 426.819L365.257 433.841L424.569 481.925L407.887 491.293L399.151 496.203Z" fill="#F25A1F"/>
<path d="M399.151 496.203L356.607 426.819L365.257 433.841L407.887 491.293L399.151 496.203Z" fill="#F14C1C"/>
<path d="M615.092 373.201L585.813 358.116L590.279 358.732L620.892 362.927L617.084 369.669L615.092 373.201Z" fill="#100F0D"/>
<path d="M615.092 373.201L585.813 358.116L590.279 358.732L617.084 369.669L615.092 373.201Z" fill="#100F0D"/>
<path d="M52.6194 245.035L48.9177 244.64L23.5417 241.955L26.5141 236.292L28.0693 233.327L52.6194 245.035Z" fill="#D8D7D5"/>
<path d="M28.0693 231.191L52.6194 242.9L48.9177 242.505L23.5417 239.82L26.5141 234.157L28.0693 231.191Z" fill="#100F0D"/>
<path d="M256.525 139.235L247.037 134.196L181.983 99.704L185.737 96.5066L247.037 129.008L247.193 129.091L256.525 139.235Z" fill="#CAC8C7"/>
<path d="M203.387 76.2854L256.525 134.047L247.037 129.008L181.983 94.516L196.031 82.5547L203.387 76.2854Z" fill="#F25A1F"/>
<path d="M256.525 134.047L247.193 129.091L247.037 129.008L196.031 82.5547L203.387 76.2854L256.525 134.047Z" fill="#F14C1C"/>
<path d="M632.149 270.183L572.786 267.709L580.563 265.327L633.848 248.967L632.731 262.889L632.149 270.183Z" fill="#F25A1F"/>
<path d="M632.149 270.183L572.786 267.709L580.563 265.327L632.731 262.889L632.149 270.183Z" fill="#F14C1C"/>
<path d="M142.203 357.484L128.296 355.651L120.961 367.093L107.482 365.319L100.14 376.764L86.6615 374.991L79.3152 386.437L66.26 384.723L66.0819 386.081L79.998 387.908L87.3443 376.461L100.823 378.236L108.166 366.791L121.644 368.565L128.98 357.123L142.024 358.841L142.203 357.484Z" fill="#F04324"/>
<path d="M556.978 206.889L543.072 205.057L535.736 216.5L522.257 214.725L514.914 226.171L501.436 224.397L494.091 235.844L481.034 234.129L480.856 235.488L494.774 237.316L502.118 225.868L515.598 227.643L522.941 216.197L536.418 217.972L543.756 206.529L556.8 208.248L556.978 206.889Z" fill="#F04324"/>
<path d="M172.156 160.699L167.655 148.247L155.255 144.719L150.869 132.593L138.473 129.068L134.085 116.941L121.675 113.404L117.401 101.6L116.113 102.067L120.626 114.529L133.036 118.067L137.424 130.195L149.82 133.72L154.205 145.844L166.604 149.372L170.868 161.165L172.156 160.699Z" fill="#F79710"/>
<path d="M515.125 506.36L514.321 492.703L502.397 486.853L501.615 473.592L489.693 467.744L488.908 454.48L476.976 448.619L476.211 435.744L474.844 435.825L475.656 449.496L487.588 455.357L488.373 468.623L500.295 474.469L501.077 487.732L513.001 493.58L513.759 506.441L515.125 506.36Z" fill="#F79710"/>
<path d="M164.399 220.748L171.569 226.872L179.609 221.944L176.001 230.657L183.173 236.78L173.772 236.041L170.164 244.755L167.961 235.585L158.561 234.847L166.6 229.917L164.399 220.748Z" fill="#C03C21"/>
<path d="M457.763 353.351L457.031 362.753L465.745 366.355L456.577 368.564L455.845 377.965L450.912 369.929L441.744 372.137L447.863 364.963L442.929 356.925L451.644 360.527L457.763 353.351Z" fill="#C03C21"/>
<path d="M528.384 147.228L527.652 156.629L536.367 160.231L527.2 162.44L526.467 171.841L521.533 163.805L512.365 166.013L518.484 158.839L513.549 150.801L522.265 154.404L528.384 147.228Z" fill="#C03C21"/>
<path d="M84.6235 418.089L83.8918 427.491L92.6063 431.092L83.4386 433.3L82.7058 442.703L77.7724 434.667L68.6052 436.875L74.7235 429.699L69.7902 421.663L78.5048 425.264L84.6235 418.089Z" fill="#C03C21"/>
<defs>
<radialGradient id="paint0_radial_4_2" cx="0" cy="0" r="1" gradientUnits="userSpaceOnUse" gradientTransform="translate(124.816 186.7) scale(8.04219 8.04219)">
<stop stop-color="white"/>
<stop offset="1" stop-color="#FDE3E5"/>
</radialGradient>
<radialGradient id="paint1_radial_4_2" cx="0" cy="0" r="1" gradientUnits="userSpaceOnUse" gradientTransform="translate(499.167 390.704) scale(8.04219 8.04219)">
<stop stop-color="white"/>
<stop offset="1" stop-color="#FDE3E5"/>
</radialGradient>
<radialGradient id="paint2_radial_4_2" cx="0" cy="0" r="1" gradientUnits="userSpaceOnUse" gradientTransform="translate(146.531 374.619) scale(8.04218 8.04219)">
<stop stop-color="white"/>
<stop offset="1" stop-color="#FDE3E5"/>
</radialGradient>
<radialGradient id="paint3_radial_4_2" cx="0" cy="0" r="1" gradientUnits="userSpaceOnUse" gradientTransform="translate(410.831 221.189) scale(8.04219 8.04217)">
<stop stop-color="white"/>
<stop offset="1" stop-color="#FDE3E5"/>
</radialGradient>
</defs>
</svg>
