<svg width="700" height="700" viewBox="0 0 700 700" fill="none" xmlns="http://www.w3.org/2000/svg">
<rect width="700" height="700" fill="#F5F5F5"/>
<g clip-path="url(#clip0_0_1)">
<path d="M700 0H0V700H700V0Z" fill="white"/>
<path fill-rule="evenodd" clip-rule="evenodd" d="M199.57 263.087C154.686 262.287 117.029 313.537 117.029 313.537H122.544C201.474 234.574 277.294 312.789 225.436 399.221C197.668 448.469 160.392 455.676 160.392 455.676C196.843 449.419 218.758 419.211 218.758 419.211C260.32 384.114 282.273 260.858 199.57 263.087Z" fill="#03001C"/>
<path fill-rule="evenodd" clip-rule="evenodd" d="M92.6854 358.38C92.6854 358.38 104.097 328.751 111.323 322.745L112.845 325.148C112.845 325.148 97.2498 345.968 92.6854 358.38Z" fill="#03001C"/>
<path d="M149.78 552.832C149.78 552.832 149.873 546.369 151.497 545.71C151.497 545.71 159.261 539.639 160.698 537.076C160.698 537.076 165.933 528.334 168.005 526.909C168.005 526.909 170.069 521.978 171.066 521.692L174.947 512.292C174.947 512.292 184.149 505.347 185.502 502.125C185.502 502.125 187.574 497.389 188.656 497.194C188.656 497.194 190.195 481.241 189.02 475.828C189.02 475.828 188.301 465.199 187.489 464.148C187.489 464.148 185.417 451.142 182.075 448.765C182.075 448.765 195.962 441.172 202.728 434.807C202.728 434.807 215.727 423.412 218.611 419.424L221.859 422.361C221.859 422.361 224.116 422.361 223.753 426.92C223.753 426.92 229.436 433.383 230.155 434.709L234.662 439.738C234.662 439.738 239.077 442.018 242.511 449.807C242.511 449.807 253.607 471.083 253.878 474.119C253.878 474.119 259.197 468.804 263.891 471.84C263.891 471.84 267.511 474.876 265.16 478.864L254.419 493.491C254.419 493.491 248.465 496.055 246.842 496.34C246.842 496.34 242.156 497.96 235.932 506.31L207.788 534.03L203.094 535.455C203.094 535.455 201.192 542.113 201.648 544.766C201.648 544.766 201.2 549.982 199.846 550.935C199.846 550.935 194.518 550.375 193.258 547.614L187.939 540.395C187.939 540.395 177.199 550.944 171.067 561.573C171.067 561.573 171.693 565.366 170.254 566.506C170.254 566.506 153.475 570.876 150.499 563.469C150.499 563.469 150.051 557.389 149.239 557.389C149.239 557.389 148.875 552.832 149.78 552.832Z" fill="#03001C"/>
<path d="M153.121 560.719V554.924C153.121 554.924 154.913 551.318 158.076 552.458C158.076 552.458 166.475 553.509 166.652 556.731L167.549 560.15C167.549 560.15 168.808 562.331 166.467 563.186C166.467 563.186 157.815 564.993 153.121 560.719Z" fill="#FEFEFE"/>
<path d="M196.151 545.051L193.351 540.208C193.351 540.208 192.633 538.49 194.704 538.588C194.704 538.588 198.306 537.448 199.212 537.448C199.212 537.448 199.854 542.86 199.127 545.994C199.127 545.994 197.326 546.956 196.151 545.051Z" fill="#FEFEFE"/>
<path d="M203.635 484.089C203.635 484.089 207.424 480.867 214.731 481.81C214.731 481.81 221.404 483.511 222.308 485.318C222.308 485.318 214.097 481.419 208.955 483.039L211.035 483.324C211.035 483.324 204.988 483.617 203.635 484.089Z" fill="#FEFEFE"/>
<path d="M244.864 491.397C244.864 491.397 249.017 485.415 251.36 485.415C251.36 485.415 258.657 482.842 254.15 474.777C254.15 474.777 260.375 469.187 263.893 472.693C263.893 472.693 265.161 474.866 264.891 476.2C264.891 476.2 260.29 481.711 257.491 483.706C257.491 483.706 250.734 489.786 249.195 489.688C249.195 489.688 247.3 491.495 244.864 491.397Z" fill="#FEFEFE"/>
<path d="M133.636 361.399C133.636 361.399 128.316 352.754 128.765 348.295C128.765 348.295 127.226 345.161 132.368 337.567C132.368 337.567 139.218 326.555 151.582 332.724C151.582 332.724 155.287 333.766 159.253 342.312C159.253 342.312 164.488 345.169 165.206 345.072C165.206 345.072 166.196 347.44 160.877 350.003L162.408 353.902C162.408 353.902 166.468 353.047 166.56 352.38L166.924 354.276L166.92 354.278L167.04 354.883L167.101 354.845L167.55 357.035C167.55 357.035 174.045 350.474 178.104 346.014C178.104 346.014 179.998 338.892 181.444 336.043C181.444 336.043 179.542 325.129 179.998 324.746C179.998 324.746 184.142 320.944 189.199 321.8C189.199 321.8 187.846 316.494 185.503 316.868V315.728C185.503 315.728 178.103 316.779 178.738 323.135C178.738 323.135 175.938 324.559 172.513 321.71L170.254 315.158C170.254 315.158 167.92 313.44 165.57 317.241C165.57 317.241 140.13 322.849 121.186 325.885C121.186 325.885 94.0217 330.256 85.2777 326.838C85.2777 326.838 81.8525 320.375 84.8296 316.769L90.242 316.867C90.242 316.867 84.652 318.007 84.111 319.716C84.111 319.716 110.633 321.897 122.988 317.34C122.988 317.34 160.884 310.316 165.57 309.079C165.57 309.079 164.944 307.281 163.675 307.752C163.675 307.752 127.039 314.206 119.918 313.921C119.918 313.921 157.721 306.986 163.134 307.084C163.134 307.084 164.673 306.141 167.465 309.176C167.465 309.176 168.733 308.419 169.089 307.751C169.089 307.751 168.903 311.17 170.527 311.17C170.527 311.17 170.628 313.066 171.254 313.066L173.69 316.769C173.69 316.769 184.608 312.968 186.681 312.114C186.681 312.114 186.503 309.746 186.139 309.649L173.057 314.108L170.079 308.411L172.964 312.684C172.964 312.684 181.987 309.836 186.318 308.793L184.964 303.282C184.964 303.282 186.224 306.612 186.588 302.241L187.222 305.089C187.222 305.089 190.283 304.805 188.119 308.223C188.119 308.223 188.939 313.92 189.388 315.059L195.155 318.006L192.271 319.902L195.611 320C195.611 320 191.103 323.134 192.364 325.413C192.364 325.413 195.154 328.253 198.673 326.071C198.673 326.071 200.397 327.781 201.024 327.781C201.024 327.781 201.65 329.498 199.578 330.54L195.611 348.674C195.611 348.674 194.613 353.526 193.082 354.755L182.435 376.023C182.435 376.023 197.506 389.135 199.13 392.928L210.226 411.062L210.133 413.153L213.017 414.578C213.017 414.578 199.13 435.284 180.364 446.483C180.364 446.483 178.106 442.299 180.001 436.032C180.001 436.032 177.396 428.438 178.022 428.438C178.022 428.438 176.93 424.45 175.129 423.31L156.278 405.649L142.84 392.447C142.84 392.447 140.844 390.835 141.03 380.58C141.03 380.58 136.886 379.343 138.146 375.737C138.146 375.737 135.262 370.796 135.981 369.942C135.981 369.942 139.414 369.942 139.863 369.088C139.863 369.088 142.662 372.613 145.004 372.417C145.004 372.417 139.406 367.663 138.594 368.234C138.594 368.234 134.636 366.338 134.18 364.628C134.18 364.628 137.884 368.34 137.157 365.866L134.535 364.059C134.532 364.061 134.262 361.488 133.636 361.399Z" fill="#03001C"/>
<path d="M170.915 300.489L184.447 299.065V300.418C184.447 300.418 181.944 299.065 181.064 301.486C181.064 301.486 178.696 298.567 177.41 301.558C177.41 301.558 174.231 298.994 173.351 302.555C173.351 302.555 171.321 300.561 170.915 300.489Z" fill="#03001C"/>
<path d="M187.017 299.991C187.017 299.991 187.761 298.139 190.4 299.137C190.4 299.137 199.669 298.069 201.158 301.345C201.158 301.345 202.578 304.621 202.578 306.116L207.179 307.042L206.638 312.526L204.271 313.808C204.271 313.808 203.797 319.433 203.662 320.716C203.662 320.716 202.173 312.241 199.197 314.235C199.197 314.235 196.626 314.022 195.678 312.669L192.092 310.746L195.678 311.245C195.678 311.245 199.737 312.028 197.302 308.753C197.302 308.753 202.918 309.679 200.415 307.257L201.768 306.758C201.768 306.758 200.753 300.847 199.604 300.42C199.604 300.42 198.183 300.705 198.453 301.916C198.453 301.916 196.559 298.284 194.732 301.132C194.732 301.132 193.244 299.067 191.417 300.064C191.415 300.063 189.25 298.852 187.017 299.991Z" fill="#03001C"/>
<path d="M135.431 359.787C135.431 359.787 135.025 363.206 136.446 364.345C136.446 364.345 144.295 371.467 146.527 372.108C146.527 372.108 157.487 373.035 166.891 366.055C166.891 366.055 166.552 360.073 166.282 359.93L168.176 358.363V357.437L166.078 359.075L164.929 356.084L167.161 354.731L166.823 353.804C166.823 353.804 157.689 358.932 146.323 361.354L140.572 362.778C140.572 362.778 137.46 363.633 137.257 358.291L136.919 358.576C136.919 358.576 136.58 363.775 140.504 363.775C140.504 363.775 161.411 358.221 164.117 356.582C164.117 356.582 165.267 357.507 165.673 365.912C165.673 365.912 149.3 374.672 144.294 369.402L137.258 363.989C137.258 363.989 135.161 361.141 135.431 359.787Z" fill="#FEFEFE"/>
<path d="M147.641 371.109L150.82 361.281L151.902 360.783L148.79 371.038L147.641 371.109Z" fill="#FEFEFE"/>
<path d="M159.345 368.616C159.345 368.616 158.601 359.928 157.315 358.718L158.668 358.503C158.668 358.503 159.886 365.768 160.292 368.332L159.345 368.616Z" fill="#FEFEFE"/>
<path d="M140.401 364.202C140.401 364.202 140.536 368.404 152.443 365.555C152.443 365.555 163.742 363.347 167.937 358.22L167.801 357.366C167.801 357.366 162.525 362.921 153.391 363.918C153.391 363.918 145.07 366.837 140.401 364.202Z" fill="#FEFEFE"/>
<g filter="url(#filter0_ddd_0_1)">
<path d="M341.696 405C340.885 405 340.288 404.829 339.904 404.488C339.563 404.104 339.392 403.507 339.392 402.696V395.08C339.392 394.269 339.563 393.693 339.904 393.352C340.288 392.968 340.885 392.776 341.696 392.776H348.032V371.272H341.696C340.885 371.272 340.288 371.101 339.904 370.76C339.563 370.376 339.392 369.779 339.392 368.968V361.224C339.392 360.413 339.563 359.837 339.904 359.496C340.288 359.112 340.885 358.92 341.696 358.92H368.96C369.771 358.92 370.347 359.112 370.688 359.496C371.072 359.837 371.264 360.413 371.264 361.224V368.968C371.264 369.779 371.072 370.376 370.688 370.76C370.347 371.101 369.771 371.272 368.96 371.272H362.752V392.776H368.96C369.771 392.776 370.347 392.968 370.688 393.352C371.072 393.693 371.264 394.269 371.264 395.08V402.696C371.264 403.507 371.072 404.104 370.688 404.488C370.347 404.829 369.771 405 368.96 405H341.696ZM391.39 405H381.47C380.659 405 380.062 404.829 379.678 404.488C379.337 404.104 379.166 403.507 379.166 402.696V361.224C379.166 360.413 379.337 359.837 379.678 359.496C380.062 359.112 380.659 358.92 381.47 358.92H401.054C406.857 358.92 410.825 360.072 412.958 362.376C415.091 364.68 416.158 367.688 416.158 371.4V379.592C416.158 383.304 415.091 386.312 412.958 388.616C410.825 390.92 406.857 392.072 401.054 392.072H393.694V402.696C393.694 403.507 393.502 404.104 393.118 404.488C392.777 404.829 392.201 405 391.39 405ZM393.566 370.888V380.552H399.326C400.563 380.552 401.374 380.232 401.758 379.592C402.142 378.952 402.334 378.227 402.334 377.416V374.024C402.334 373.213 402.142 372.488 401.758 371.848C401.374 371.208 400.563 370.888 399.326 370.888H393.566ZM457.671 405H425.095C424.284 405 423.687 404.829 423.303 404.488C422.962 404.104 422.791 403.507 422.791 402.696V361.224C422.791 360.413 422.962 359.837 423.303 359.496C423.687 359.112 424.284 358.92 425.095 358.92H435.015C435.826 358.92 436.402 359.112 436.743 359.496C437.127 359.837 437.319 360.413 437.319 361.224V392.904H446.087V382.536C446.087 381.725 446.258 381.149 446.599 380.808C446.983 380.424 447.58 380.232 448.391 380.232H457.671C458.482 380.232 459.058 380.424 459.399 380.808C459.783 381.149 459.975 381.725 459.975 382.536V402.696C459.975 403.507 459.783 404.104 459.399 404.488C459.058 404.829 458.482 405 457.671 405ZM367.296 482H342.72C341.909 482 341.312 481.829 340.928 481.488C340.587 481.104 340.416 480.507 340.416 479.696V438.224C340.416 437.413 340.587 436.837 340.928 436.496C341.312 436.112 341.909 435.92 342.72 435.92H363.136C367.317 435.92 370.411 436.731 372.416 438.352C374.421 439.931 375.424 442.384 375.424 445.712V448.784C375.424 450.576 375.104 452.048 374.464 453.2C373.867 454.309 372.928 455.141 371.648 455.696C374.379 455.952 376.405 456.891 377.728 458.512C379.051 460.133 379.712 462.501 379.712 465.616V471.504C379.712 475.088 378.688 477.733 376.64 479.44C374.635 481.147 371.52 482 367.296 482ZM354.816 446.8V453.712H360.256C361.067 453.712 361.664 453.499 362.048 453.072C362.475 452.645 362.688 452.005 362.688 451.152V449.36C362.688 448.507 362.475 447.867 362.048 447.44C361.664 447.013 361.067 446.8 360.256 446.8H354.816ZM354.816 463.568V471.12H363.136C363.947 471.12 364.544 470.907 364.928 470.48C365.355 470.053 365.568 469.413 365.568 468.56V466.064C365.568 465.211 365.355 464.592 364.928 464.208C364.544 463.781 363.947 463.568 363.136 463.568H354.816ZM421.671 482H389.095C388.284 482 387.687 481.829 387.303 481.488C386.962 481.104 386.791 480.507 386.791 479.696V438.224C386.791 437.413 386.962 436.837 387.303 436.496C387.687 436.112 388.284 435.92 389.095 435.92H399.015C399.826 435.92 400.402 436.112 400.743 436.496C401.127 436.837 401.319 437.413 401.319 438.224V469.904H410.087V459.536C410.087 458.725 410.258 458.149 410.599 457.808C410.983 457.424 411.58 457.232 412.391 457.232H421.671C422.482 457.232 423.058 457.424 423.399 457.808C423.783 458.149 423.975 458.725 423.975 459.536V479.696C423.975 480.507 423.783 481.104 423.399 481.488C423.058 481.829 422.482 482 421.671 482ZM432.571 482C431.76 482 431.163 481.829 430.779 481.488C430.438 481.104 430.267 480.507 430.267 479.696V472.08C430.267 471.269 430.438 470.693 430.779 470.352C431.163 469.968 431.76 469.776 432.571 469.776H438.907V448.272H432.571C431.76 448.272 431.163 448.101 430.779 447.76C430.438 447.376 430.267 446.779 430.267 445.968V438.224C430.267 437.413 430.438 436.837 430.779 436.496C431.163 436.112 431.76 435.92 432.571 435.92H459.835C460.646 435.92 461.222 436.112 461.563 436.496C461.947 436.837 462.139 437.413 462.139 438.224V445.968C462.139 446.779 461.947 447.376 461.563 447.76C461.222 448.101 460.646 448.272 459.835 448.272H453.627V469.776H459.835C460.646 469.776 461.222 469.968 461.563 470.352C461.947 470.693 462.139 471.269 462.139 472.08V479.696C462.139 480.507 461.947 481.104 461.563 481.488C461.222 481.829 460.646 482 459.835 482H432.571ZM491.801 482H481.433C480.622 482 480.025 481.829 479.641 481.488C479.3 481.104 479.129 480.507 479.129 479.696V448.272H469.721C468.91 448.272 468.313 448.101 467.929 447.76C467.588 447.376 467.417 446.779 467.417 445.968V438.224C467.417 437.413 467.588 436.837 467.929 436.496C468.313 436.112 468.91 435.92 469.721 435.92H503.513C504.324 435.92 504.9 436.112 505.241 436.496C505.625 436.837 505.817 437.413 505.817 438.224V445.968C505.817 446.779 505.625 447.376 505.241 447.76C504.9 448.101 504.324 448.272 503.513 448.272H494.105V479.696C494.105 480.507 493.913 481.104 493.529 481.488C493.188 481.829 492.612 482 491.801 482ZM543.992 482H512.248C511.437 482 510.84 481.829 510.456 481.488C510.115 481.104 509.944 480.507 509.944 479.696V471.12C509.944 470.309 510.072 469.605 510.328 469.008C510.584 468.368 510.989 467.749 511.544 467.152L527.096 448.272H513.4C512.589 448.272 511.992 448.101 511.608 447.76C511.267 447.376 511.096 446.779 511.096 445.968V438.224C511.096 437.413 511.267 436.837 511.608 436.496C511.992 436.112 512.589 435.92 513.4 435.92H542.84C543.651 435.92 544.227 436.112 544.568 436.496C544.952 436.837 545.144 437.413 545.144 438.224V447.76C545.144 448.613 545.016 449.36 544.76 450C544.504 450.597 544.099 451.195 543.544 451.792L528.696 469.776H543.992C544.803 469.776 545.379 469.968 545.72 470.352C546.104 470.693 546.296 471.269 546.296 472.08V479.696C546.296 480.507 546.104 481.104 545.72 481.488C545.379 481.829 544.803 482 543.992 482Z" fill="#2F2E41"/>
</g>
<path d="M308.7 241.204C308.7 249.045 315.303 255.409 323.454 255.409C327.443 255.409 331.062 253.882 333.714 251.401C336.486 248.819 338.201 245.205 338.201 241.204C338.201 233.364 331.598 227 323.454 227C320.901 227 318.506 227.625 316.413 228.716C316.058 228.906 315.711 229.109 315.371 229.327C312.182 231.335 309.863 234.499 309.04 238.201C308.934 238.623 308.858 239.052 308.813 239.488C308.737 240.048 308.7 240.623 308.7 241.204Z" fill="#03001C"/>
<path d="M308.7 239.476C308.934 239.737 309.176 240.021 309.441 240.344C310.333 241.436 310.689 242.027 311.188 242.85C311.619 243.565 312.163 244.456 313.229 245.963C315.43 249.068 316.534 250.628 318.251 252.042C319.945 253.434 322.055 255.171 325.223 255.394C325.442 255.409 325.662 255.409 325.873 255.409C329.708 255.409 332.506 253.065 333.572 252.012C336.362 249.245 336.945 245.886 337.066 244.572C337.164 243.511 337.3 239.791 334.903 236.447C332.785 233.496 329.859 232.443 327.023 231.413C325.17 230.744 323.764 230.506 322.516 230.291C320.807 229.999 319.34 229.745 317.094 228.546C316.784 228.377 316.527 228.231 316.307 228.093C315.952 228.292 315.604 228.508 315.264 228.738C315.317 228.769 315.377 228.807 315.438 228.846C315.733 229.023 316.096 229.238 316.595 229.507C318.992 230.79 320.618 231.075 322.334 231.367C323.597 231.582 324.906 231.805 326.668 232.443C329.466 233.458 332.112 234.411 334.033 237.093C336.211 240.129 336.082 243.503 335.999 244.464C335.886 245.663 335.356 248.714 332.823 251.228C331.802 252.235 329.034 254.563 325.299 254.302C322.463 254.102 320.504 252.488 318.924 251.197C317.321 249.875 316.247 248.353 314.107 245.333C313.056 243.849 312.526 242.973 312.103 242.273C311.604 241.451 311.21 240.798 310.273 239.653C309.766 239.03 309.32 238.53 308.927 238.115C308.821 238.561 308.745 239.015 308.7 239.476Z" fill="#E6E6E6"/>
<path d="M667 568H41V569H667V568Z" fill="#2F2E41"/>
</g>
<defs>
<filter id="filter0_ddd_0_1" x="335.392" y="358.92" width="214.904" height="131.08" filterUnits="userSpaceOnUse" color-interpolation-filters="sRGB">
<feFlood flood-opacity="0" result="BackgroundImageFix"/>
<feColorMatrix in="SourceAlpha" type="matrix" values="0 0 0 0 0 0 0 0 0 0 0 0 0 0 0 0 0 0 127 0" result="hardAlpha"/>
<feOffset dy="4"/>
<feGaussianBlur stdDeviation="2"/>
<feComposite in2="hardAlpha" operator="out"/>
<feColorMatrix type="matrix" values="0 0 0 0 0 0 0 0 0 0 0 0 0 0 0 0 0 0 0.25 0"/>
<feBlend mode="normal" in2="BackgroundImageFix" result="effect1_dropShadow_0_1"/>
<feColorMatrix in="SourceAlpha" type="matrix" values="0 0 0 0 0 0 0 0 0 0 0 0 0 0 0 0 0 0 127 0" result="hardAlpha"/>
<feOffset dy="4"/>
<feGaussianBlur stdDeviation="2"/>
<feComposite in2="hardAlpha" operator="out"/>
<feColorMatrix type="matrix" values="0 0 0 0 0 0 0 0 0 0 0 0 0 0 0 0 0 0 0.25 0"/>
<feBlend mode="normal" in2="effect1_dropShadow_0_1" result="effect2_dropShadow_0_1"/>
<feColorMatrix in="SourceAlpha" type="matrix" values="0 0 0 0 0 0 0 0 0 0 0 0 0 0 0 0 0 0 127 0" result="hardAlpha"/>
<feOffset dy="4"/>
<feGaussianBlur stdDeviation="2"/>
<feComposite in2="hardAlpha" operator="out"/>
<feColorMatrix type="matrix" values="0 0 0 0 0 0 0 0 0 0 0 0 0 0 0 0 0 0 0.25 0"/>
<feBlend mode="normal" in2="effect2_dropShadow_0_1" result="effect3_dropShadow_0_1"/>
<feBlend mode="normal" in="SourceGraphic" in2="effect3_dropShadow_0_1" result="shape"/>
</filter>
<clipPath id="clip0_0_1">
<rect width="700" height="700" fill="white"/>
</clipPath>
</defs>
</svg>
