<svg width="700" height="700" viewBox="0 0 700 700" fill="none" xmlns="http://www.w3.org/2000/svg">
<g clip-path="url(#clip0_1_2)">
<path d="M700 0H0V700H700V0Z" fill="white"/>
<g filter="url(#filter0_ddd_1_2)">
<path d="M239.62 188H235.15C234.77 188 234.49 187.92 234.31 187.76C234.15 187.58 234.07 187.3 234.07 186.92V167.48C234.07 167.1 234.15 166.83 234.31 166.67C234.49 166.49 234.77 166.4 235.15 166.4H239.98C240.3 166.4 240.56 166.47 240.76 166.61C240.98 166.75 241.18 166.98 241.36 167.3L244.06 172.19C244.16 172.37 244.24 172.5 244.3 172.58C244.38 172.66 244.48 172.7 244.6 172.7H244.87C244.99 172.7 245.08 172.66 245.14 172.58C245.22 172.5 245.31 172.37 245.41 172.19L248.08 167.3C248.26 166.98 248.45 166.75 248.65 166.61C248.87 166.47 249.14 166.4 249.46 166.4H254.32C254.7 166.4 254.97 166.49 255.13 166.67C255.31 166.83 255.4 167.1 255.4 167.48V186.92C255.4 187.3 255.31 187.58 255.13 187.76C254.97 187.92 254.7 188 254.32 188H249.7C249.32 188 249.04 187.92 248.86 187.76C248.7 187.58 248.62 187.3 248.62 186.92V176.36L246.85 179.63C246.67 179.97 246.45 180.22 246.19 180.38C245.95 180.52 245.64 180.59 245.26 180.59H244.06C243.68 180.59 243.36 180.52 243.1 180.38C242.86 180.22 242.65 179.97 242.47 179.63L240.7 176.36V186.92C240.7 187.3 240.61 187.58 240.43 187.76C240.27 187.92 240 188 239.62 188ZM267.359 172.7L265.949 177.26H270.659L269.249 172.7C269.169 172.52 269.079 172.39 268.979 172.31C268.899 172.23 268.799 172.19 268.679 172.19H267.929C267.809 172.19 267.699 172.23 267.599 172.31C267.519 172.39 267.439 172.52 267.359 172.7ZM265.649 186.92C265.649 187.3 265.559 187.58 265.379 187.76C265.219 187.92 264.949 188 264.569 188H260.159C259.779 188 259.499 187.92 259.319 187.76C259.159 187.58 259.079 187.3 259.079 186.92V179C259.079 178.4 259.169 177.71 259.349 176.93C259.549 176.15 259.849 175.24 260.249 174.2L262.859 167.39C262.979 167.05 263.159 166.8 263.399 166.64C263.659 166.48 263.989 166.4 264.389 166.4H272.459C272.839 166.4 273.149 166.48 273.389 166.64C273.649 166.8 273.839 167.05 273.959 167.39L276.569 174.2C276.969 175.24 277.259 176.15 277.439 176.93C277.639 177.71 277.739 178.4 277.739 179V186.92C277.739 187.3 277.649 187.58 277.469 187.76C277.309 187.92 277.039 188 276.659 188H272.129C271.729 188 271.429 187.92 271.229 187.76C271.049 187.58 270.959 187.3 270.959 186.92V182.72H265.649V186.92ZM288.223 171.8V175.64H290.473C290.993 175.64 291.343 175.51 291.523 175.25C291.703 174.97 291.793 174.63 291.793 174.23V173.21C291.793 172.81 291.703 172.48 291.523 172.22C291.343 171.94 290.993 171.8 290.473 171.8H288.223ZM287.143 188H282.523C282.143 188 281.863 187.92 281.683 187.76C281.523 187.58 281.443 187.3 281.443 186.92V167.48C281.443 167.1 281.523 166.83 281.683 166.67C281.863 166.49 282.143 166.4 282.523 166.4H292.513C294.753 166.4 296.293 166.87 297.133 167.81C297.993 168.73 298.423 169.93 298.423 171.41V172.79C298.423 173.63 298.293 174.35 298.033 174.95C297.793 175.53 297.363 175.95 296.743 176.21C297.823 176.33 298.693 176.77 299.353 177.53C300.033 178.29 300.373 179.3 300.373 180.56V186.92C300.373 187.3 300.283 187.58 300.103 187.76C299.943 187.92 299.673 188 299.293 188H294.643C294.263 188 293.983 187.92 293.803 187.76C293.643 187.58 293.563 187.3 293.563 186.92V182.33C293.563 181.89 293.473 181.57 293.293 181.37C293.133 181.15 292.843 181.04 292.423 181.04H288.223V186.92C288.223 187.3 288.133 187.58 287.953 187.76C287.793 187.92 287.523 188 287.143 188ZM309.468 188H304.818C304.438 188 304.158 187.92 303.978 187.76C303.818 187.58 303.738 187.3 303.738 186.92V167.48C303.738 167.1 303.818 166.83 303.978 166.67C304.158 166.49 304.438 166.4 304.818 166.4H309.468C309.848 166.4 310.118 166.49 310.278 166.67C310.458 166.83 310.548 167.1 310.548 167.48V174.38H311.748L314.838 167.39C314.978 167.03 315.168 166.78 315.408 166.64C315.648 166.48 315.958 166.4 316.338 166.4H320.958C321.298 166.4 321.528 166.49 321.648 166.67C321.768 166.83 321.758 167.07 321.618 167.39L318.558 174.38C319.678 174.44 320.568 174.84 321.228 175.58C321.908 176.3 322.248 177.26 322.248 178.46V186.92C322.248 187.3 322.158 187.58 321.978 187.76C321.818 187.92 321.548 188 321.168 188H316.548C316.168 188 315.888 187.92 315.708 187.76C315.548 187.58 315.468 187.3 315.468 186.92V181.07C315.468 180.75 315.388 180.5 315.228 180.32C315.068 180.14 314.828 180.05 314.508 180.05H310.548V186.92C310.548 187.3 310.458 187.58 310.278 187.76C310.118 187.92 309.848 188 309.468 188ZM344.511 182.33C344.511 183.25 344.371 184.09 344.091 184.85C343.831 185.59 343.351 186.23 342.651 186.77C341.971 187.29 341.031 187.7 339.831 188C338.631 188.3 337.101 188.45 335.241 188.45C333.381 188.45 331.851 188.3 330.651 188C329.451 187.7 328.501 187.29 327.801 186.77C327.121 186.23 326.641 185.59 326.361 184.85C326.101 184.09 325.971 183.25 325.971 182.33V167.48C325.971 167.1 326.051 166.83 326.211 166.67C326.391 166.49 326.671 166.4 327.051 166.4H331.761C332.141 166.4 332.411 166.49 332.571 166.67C332.751 166.83 332.841 167.1 332.841 167.48V181.16C332.841 181.56 332.991 181.9 333.291 182.18C333.591 182.44 334.261 182.57 335.301 182.57C336.361 182.57 337.041 182.44 337.341 182.18C337.641 181.9 337.791 181.56 337.791 181.16V167.48C337.791 167.1 337.871 166.83 338.031 166.67C338.211 166.49 338.491 166.4 338.871 166.4H343.431C343.811 166.4 344.081 166.49 344.241 166.67C344.421 166.83 344.511 167.1 344.511 167.48V182.33ZM354.234 188H349.584C349.204 188 348.924 187.92 348.744 187.76C348.584 187.58 348.504 187.3 348.504 186.92V167.48C348.504 167.1 348.584 166.83 348.744 166.67C348.924 166.49 349.204 166.4 349.584 166.4H358.764C361.484 166.4 363.344 166.94 364.344 168.02C365.344 169.1 365.844 170.51 365.844 172.25V176.09C365.844 177.83 365.344 179.24 364.344 180.32C363.344 181.4 361.484 181.94 358.764 181.94H355.314V186.92C355.314 187.3 355.224 187.58 355.044 187.76C354.884 187.92 354.614 188 354.234 188ZM355.254 172.01V176.54H357.954C358.534 176.54 358.914 176.39 359.094 176.09C359.274 175.79 359.364 175.45 359.364 175.07V173.48C359.364 173.1 359.274 172.76 359.094 172.46C358.914 172.16 358.534 172.01 357.954 172.01H355.254ZM380.948 188H376.478C376.098 188 375.818 187.92 375.638 187.76C375.478 187.58 375.398 187.3 375.398 186.92V167.48C375.398 167.1 375.478 166.83 375.638 166.67C375.818 166.49 376.098 166.4 376.478 166.4H381.308C381.628 166.4 381.888 166.47 382.088 166.61C382.308 166.75 382.508 166.98 382.688 167.3L385.388 172.19C385.488 172.37 385.568 172.5 385.628 172.58C385.708 172.66 385.808 172.7 385.928 172.7H386.198C386.318 172.7 386.408 172.66 386.468 172.58C386.548 172.5 386.638 172.37 386.738 172.19L389.408 167.3C389.588 166.98 389.778 166.75 389.978 166.61C390.198 166.47 390.468 166.4 390.788 166.4H395.648C396.028 166.4 396.298 166.49 396.458 166.67C396.638 166.83 396.728 167.1 396.728 167.48V186.92C396.728 187.3 396.638 187.58 396.458 187.76C396.298 187.92 396.028 188 395.648 188H391.028C390.648 188 390.368 187.92 390.188 187.76C390.028 187.58 389.948 187.3 389.948 186.92V176.36L388.178 179.63C387.998 179.97 387.778 180.22 387.518 180.38C387.278 180.52 386.968 180.59 386.588 180.59H385.388C385.008 180.59 384.688 180.52 384.428 180.38C384.188 180.22 383.978 179.97 383.798 179.63L382.028 176.36V186.92C382.028 187.3 381.938 187.58 381.758 187.76C381.598 187.92 381.328 188 380.948 188ZM408.687 172.7L407.277 177.26H411.987L410.577 172.7C410.497 172.52 410.407 172.39 410.307 172.31C410.227 172.23 410.127 172.19 410.007 172.19H409.257C409.137 172.19 409.027 172.23 408.927 172.31C408.847 172.39 408.767 172.52 408.687 172.7ZM406.977 186.92C406.977 187.3 406.887 187.58 406.707 187.76C406.547 187.92 406.277 188 405.897 188H401.487C401.107 188 400.827 187.92 400.647 187.76C400.487 187.58 400.407 187.3 400.407 186.92V179C400.407 178.4 400.497 177.71 400.677 176.93C400.877 176.15 401.177 175.24 401.577 174.2L404.187 167.39C404.307 167.05 404.487 166.8 404.727 166.64C404.987 166.48 405.317 166.4 405.717 166.4H413.787C414.167 166.4 414.477 166.48 414.717 166.64C414.977 166.8 415.167 167.05 415.287 167.39L417.897 174.2C418.297 175.24 418.587 176.15 418.767 176.93C418.967 177.71 419.067 178.4 419.067 179V186.92C419.067 187.3 418.977 187.58 418.797 187.76C418.637 187.92 418.367 188 417.987 188H413.457C413.057 188 412.757 187.92 412.557 187.76C412.377 187.58 412.287 187.3 412.287 186.92V182.72H406.977V186.92ZM432.959 188H428.099C427.719 188 427.439 187.92 427.259 187.76C427.099 187.58 427.019 187.3 427.019 186.92V183.08L422.429 176.93C421.969 176.31 421.659 175.77 421.499 175.31C421.359 174.85 421.289 174.16 421.289 173.24V167.48C421.289 167.1 421.369 166.83 421.529 166.67C421.709 166.49 421.989 166.4 422.369 166.4H426.989C427.369 166.4 427.639 166.49 427.799 166.67C427.979 166.83 428.069 167.1 428.069 167.48V172.4C428.069 172.6 428.079 172.81 428.099 173.03C428.119 173.25 428.199 173.46 428.339 173.66L429.719 175.82C429.819 176 429.919 176.13 430.019 176.21C430.139 176.29 430.279 176.33 430.439 176.33H430.739C430.899 176.33 431.029 176.29 431.129 176.21C431.249 176.13 431.359 176 431.459 175.82L432.839 173.66C432.979 173.46 433.059 173.25 433.079 173.03C433.099 172.81 433.109 172.6 433.109 172.4V167.48C433.109 167.1 433.189 166.83 433.349 166.67C433.529 166.49 433.809 166.4 434.189 166.4H438.659C439.039 166.4 439.309 166.49 439.469 166.67C439.649 166.83 439.739 167.1 439.739 167.48V173.24C439.739 174.16 439.659 174.85 439.499 175.31C439.339 175.77 439.039 176.31 438.599 176.93L434.039 183.11V186.92C434.039 187.3 433.949 187.58 433.769 187.76C433.609 187.92 433.339 188 432.959 188ZM448.892 188H444.242C443.862 188 443.582 187.92 443.402 187.76C443.242 187.58 443.162 187.3 443.162 186.92V167.48C443.162 167.1 443.242 166.83 443.402 166.67C443.582 166.49 443.862 166.4 444.242 166.4H448.892C449.272 166.4 449.542 166.49 449.702 166.67C449.882 166.83 449.972 167.1 449.972 167.48V173.99H454.982V167.48C454.982 167.1 455.062 166.83 455.222 166.67C455.402 166.49 455.682 166.4 456.062 166.4H460.712C461.092 166.4 461.362 166.49 461.522 166.67C461.702 166.83 461.792 167.1 461.792 167.48V186.92C461.792 187.3 461.702 187.58 461.522 187.76C461.362 187.92 461.092 188 460.712 188H456.062C455.682 188 455.402 187.92 455.222 187.76C455.062 187.58 454.982 187.3 454.982 186.92V180.26H449.972V186.92C449.972 187.3 449.882 187.58 449.702 187.76C449.542 187.92 449.272 188 448.892 188ZM480.925 188H467.005C466.625 188 466.345 187.92 466.165 187.76C466.005 187.58 465.925 187.3 465.925 186.92V167.48C465.925 167.1 466.005 166.83 466.165 166.67C466.345 166.49 466.625 166.4 467.005 166.4H480.925C481.305 166.4 481.575 166.49 481.735 166.67C481.915 166.83 482.005 167.1 482.005 167.48V170.99C482.005 171.37 481.915 171.65 481.735 171.83C481.575 171.99 481.305 172.07 480.925 172.07H472.645V174.38H478.495C478.875 174.38 479.145 174.47 479.305 174.65C479.485 174.81 479.575 175.08 479.575 175.46V178.67C479.575 179.05 479.485 179.33 479.305 179.51C479.145 179.67 478.875 179.75 478.495 179.75H472.645V182.33H480.925C481.305 182.33 481.575 182.42 481.735 182.6C481.915 182.76 482.005 183.03 482.005 183.41V186.92C482.005 187.3 481.915 187.58 481.735 187.76C481.575 187.92 481.305 188 480.925 188ZM491.104 188H486.634C486.254 188 485.974 187.92 485.794 187.76C485.634 187.58 485.554 187.3 485.554 186.92V167.48C485.554 167.1 485.634 166.83 485.794 166.67C485.974 166.49 486.254 166.4 486.634 166.4H491.464C491.784 166.4 492.044 166.47 492.244 166.61C492.464 166.75 492.664 166.98 492.844 167.3L495.544 172.19C495.644 172.37 495.724 172.5 495.784 172.58C495.864 172.66 495.964 172.7 496.084 172.7H496.354C496.474 172.7 496.564 172.66 496.624 172.58C496.704 172.5 496.794 172.37 496.894 172.19L499.564 167.3C499.744 166.98 499.934 166.75 500.134 166.61C500.354 166.47 500.624 166.4 500.944 166.4H505.804C506.184 166.4 506.454 166.49 506.614 166.67C506.794 166.83 506.884 167.1 506.884 167.48V186.92C506.884 187.3 506.794 187.58 506.614 187.76C506.454 187.92 506.184 188 505.804 188H501.184C500.804 188 500.524 187.92 500.344 187.76C500.184 187.58 500.104 187.3 500.104 186.92V176.36L498.334 179.63C498.154 179.97 497.934 180.22 497.674 180.38C497.434 180.52 497.124 180.59 496.744 180.59H495.544C495.164 180.59 494.844 180.52 494.584 180.38C494.344 180.22 494.134 179.97 493.954 179.63L492.184 176.36V186.92C492.184 187.3 492.094 187.58 491.914 187.76C491.754 187.92 491.484 188 491.104 188Z" fill="#2F2E41"/>
</g>
<path d="M630 359V528.646C629.994 533.247 628.071 537.658 624.652 540.911C621.232 544.164 616.597 545.994 611.761 546H475L476.27 544.47L628.392 360.943L630 359Z" fill="#E2E2E2"/>
<path d="M292.17 300H135.83C134.549 300 133.321 300.474 132.415 301.318C131.509 302.162 131 303.307 131 304.5C131 305.693 131.509 306.838 132.415 307.682C133.321 308.526 134.549 309 135.83 309H292.17C293.451 309 294.679 308.526 295.585 307.682C296.491 306.838 297 305.693 297 304.5C297 303.307 296.491 302.162 295.585 301.318C294.679 300.474 293.451 300 292.17 300Z" fill="#E6E6E6"/>
<path d="M184.181 274H135.819C134.541 274 133.315 274.474 132.411 275.318C131.508 276.162 131 277.307 131 278.5C131 279.693 131.508 280.838 132.411 281.682C133.315 282.526 134.541 283 135.819 283H184.181C185.459 283 186.685 282.526 187.589 281.682C188.492 280.838 189 279.693 189 278.5C189 277.307 188.492 276.162 187.589 275.318C186.685 274.474 185.459 274 184.181 274Z" fill="#E6E6E6"/>
<path d="M611.828 143H93.1716C88.354 143.006 83.7353 144.832 80.3288 148.079C76.9222 151.325 75.0058 155.727 75 160.318V528.682C75.0058 533.273 76.9222 537.675 80.3288 540.921C83.7353 544.168 88.354 545.994 93.1716 546H611.828C616.646 545.994 621.265 544.168 624.671 540.921C628.078 537.675 629.994 533.273 630 528.682V160.318C629.994 155.727 628.078 151.325 624.671 148.079C621.265 144.832 616.646 143.006 611.828 143ZM628.398 528.682C628.398 530.755 627.97 532.809 627.137 534.725C626.304 536.641 625.084 538.382 623.545 539.848C622.006 541.315 620.18 542.478 618.169 543.271C616.159 544.065 614.004 544.473 611.828 544.473H93.1716C88.777 544.473 84.5624 542.81 81.455 539.848C78.3475 536.887 76.6017 532.87 76.6017 528.682V263.347C76.6017 231.834 89.7371 201.611 113.118 179.328C136.499 157.045 168.211 144.527 201.277 144.527H611.828C614.004 144.527 616.159 144.935 618.169 145.729C620.18 146.522 622.006 147.685 623.545 149.152C625.084 150.618 626.304 152.359 627.137 154.275C627.97 156.191 628.398 158.245 628.398 160.318V528.682Z" fill="#3F3D56"/>
<path d="M579.2 210H125.8C125.588 210 125.384 209.895 125.234 209.707C125.084 209.52 125 209.265 125 209C125 208.735 125.084 208.48 125.234 208.293C125.384 208.105 125.588 208 125.8 208H579.2C579.412 208 579.616 208.105 579.766 208.293C579.916 208.48 580 208.735 580 209C580 209.265 579.916 209.52 579.766 209.707C579.616 209.895 579.412 210 579.2 210Z" fill="#E6E6E6"/>
<path d="M552.5 184C556.09 184 559 181.09 559 177.5C559 173.91 556.09 171 552.5 171C548.91 171 546 173.91 546 177.5C546 181.09 548.91 184 552.5 184Z" fill="#2F2E41"/>
<path d="M576.5 184C580.09 184 583 181.09 583 177.5C583 173.91 580.09 171 576.5 171C572.91 171 570 173.91 570 177.5C570 181.09 572.91 184 576.5 184Z" fill="#2F2E41"/>
<path d="M600.5 184C604.09 184 607 181.09 607 177.5C607 173.91 604.09 171 600.5 171C596.91 171 594 173.91 594 177.5C594 181.09 596.91 184 600.5 184Z" fill="#2F2E41"/>
<path d="M172.762 188C172.628 188 172.495 187.965 172.371 187.897C172.248 187.829 172.135 187.73 172.042 187.604L166.288 179.925C166.103 179.679 166 179.348 166 179.004C166 178.66 166.103 178.33 166.288 178.084L172.042 170.405C172.134 170.28 172.244 170.179 172.366 170.11C172.489 170.04 172.62 170.003 172.753 170C172.887 169.997 173.019 170.029 173.143 170.094C173.266 170.158 173.379 170.254 173.474 170.375C173.57 170.497 173.646 170.642 173.698 170.802C173.75 170.962 173.777 171.134 173.778 171.308C173.779 171.482 173.753 171.655 173.702 171.816C173.652 171.977 173.577 172.123 173.483 172.246L168.419 179.004L173.483 185.763C173.622 185.948 173.716 186.183 173.753 186.437C173.79 186.692 173.769 186.955 173.692 187.194C173.615 187.433 173.486 187.637 173.32 187.78C173.155 187.923 172.961 188 172.762 188Z" fill="#2F2E41"/>
<path d="M184.524 188C184.246 188 183.974 187.923 183.742 187.78C183.511 187.636 183.33 187.432 183.222 187.193C183.114 186.954 183.084 186.691 183.136 186.436C183.188 186.181 183.319 185.946 183.514 185.761L190.61 178.995L183.514 172.23C183.256 171.979 183.115 171.644 183.121 171.297C183.127 170.95 183.279 170.619 183.546 170.376C183.812 170.133 184.17 169.998 184.542 170C184.915 170.002 185.271 170.141 185.534 170.387L193.597 178.074C193.855 178.32 194 178.651 194 178.995C194 179.34 193.855 179.67 193.597 179.917L185.534 187.604C185.403 187.729 185.246 187.829 185.072 187.897C184.899 187.965 184.712 188 184.524 188Z" fill="#2F2E41"/>
<path d="M203.884 455.576L163.196 454.318C157.553 454.143 151.207 454.152 147.181 457.004C142.613 460.241 143.305 465.975 147.098 469.695C150.891 473.414 156.947 475.539 162.891 477.267C194.471 486.446 229.422 488.309 263.358 486.232C297.293 484.155 330.531 478.284 363.604 472.432C366.741 471.877 370.296 471.079 371.575 468.944C372.813 466.879 371.194 464.389 368.679 463.054C366.164 461.72 362.975 461.27 359.899 460.873C304.184 453.713 247.867 452.142 191.825 456.184" fill="#03001C"/>
<path d="M277.645 426.117V417.017C270.694 417.11 245.818 416.95 239.329 417.017C238.846 448.822 235.885 442.592 263.315 442.716C264.575 442.72 265.783 443.199 266.673 444.047C267.564 444.895 268.064 446.043 268.066 447.24V447.377C268.066 448.577 267.564 449.727 266.671 450.575C265.778 451.424 264.567 451.9 263.304 451.9H239.329V461H277.645C277.699 460.97 277.606 452.213 277.645 451.9C279.265 425.537 276.06 435.019 252.767 433.961C251.725 433.911 250.743 433.481 250.024 432.762C249.306 432.043 248.906 431.089 248.907 430.098V429.984C248.908 428.959 249.336 427.975 250.1 427.25C250.863 426.524 251.899 426.117 252.978 426.117H277.645Z" fill="#3F3D56"/>
<path d="M324.645 426.117V417.017C317.694 417.11 292.818 416.95 286.329 417.017C285.841 449.098 282.834 442.481 311.036 442.72C312.109 442.731 313.134 443.143 313.888 443.867C314.643 444.591 315.066 445.569 315.066 446.588C315.066 447.065 315.066 447.555 315.066 448.034C315.066 448.542 314.961 449.044 314.756 449.514C314.551 449.983 314.251 450.409 313.873 450.768C313.495 451.127 313.047 451.412 312.553 451.606C312.059 451.8 311.53 451.9 310.995 451.9H286.329V461H324.645C324.699 460.97 324.606 452.213 324.645 451.9C326.265 425.537 323.06 435.019 299.767 433.961C298.725 433.911 297.743 433.481 297.024 432.762C296.306 432.043 295.906 431.089 295.908 430.098V429.984C295.908 428.959 296.337 427.975 297.1 427.25C297.863 426.524 298.899 426.117 299.978 426.117H324.645Z" fill="#3F3D56"/>
<path d="M227.998 426.376V417H188.903C188.875 425.363 188.923 447.498 188.903 456.068C181.24 468.514 224.774 459.897 228 462.322C227.998 462.319 227.998 452.943 227.998 452.943C198.252 452.794 197.505 458.135 198.462 432.291C198.519 430.705 199.217 429.201 200.407 428.098C201.597 426.994 203.187 426.377 204.842 426.376C213.442 426.376 227.998 426.376 227.998 426.376Z" fill="#3F3D56"/>
<path d="M302.884 347.29L262.196 346.261C256.553 346.118 250.207 346.125 246.181 348.458C241.613 351.107 242.305 355.798 246.098 358.841C249.891 361.885 255.947 363.623 261.891 365.037C293.471 372.546 328.422 374.071 362.358 372.372C396.293 370.673 429.531 365.869 462.604 361.081C465.741 360.627 469.296 359.974 470.575 358.227C471.813 356.538 470.194 354.5 467.679 353.408C465.164 352.316 461.975 351.949 458.899 351.624C403.09 345.764 346.862 344.48 290.825 347.788" fill="#03001C"/>
<path d="M296.542 306.967C295.884 320.843 301.364 325.211 282.458 323.443C281.181 315.165 287.658 303.677 272.802 306.594C275.778 312.599 264.511 358.159 282.456 350.032C283.463 336.344 276.821 330.341 296.542 332.435C298.124 340.896 290.742 353.348 306.198 350.408C303.222 344.4 314.49 298.844 296.542 306.967Z" fill="#3F3D56"/>
<path d="M395.324 306.998C396.678 307.769 382.926 321.203 382.629 322.304C382.216 321.364 369.091 308.221 370.676 306.998C352.412 298.664 363.795 345.08 360.813 351.003C360.816 351.001 370.676 351.001 370.676 351.001V322.173C384.534 339.433 381.961 336.528 395.324 321.325V351.001C413.588 359.338 402.206 312.916 405.187 306.996C405.184 306.998 395.324 306.998 395.324 306.998Z" fill="#3F3D56"/>
<path d="M352.589 307H314.404C312.16 319.761 319.579 315.481 328.725 316.103L328.724 351H338.27V316.103C347.373 315.513 354.861 319.705 352.589 307Z" fill="#3F3D56"/>
<path d="M422.759 341.881C420.508 330.349 420.508 318.532 422.759 307H413.012C413.068 312.765 412.995 336.028 413 346.667C413 347.815 413.488 348.916 414.357 349.729C415.226 350.541 416.405 350.998 417.635 350.999C427.455 351.011 446.202 350.943 452 350.98V341.881H422.759Z" fill="#3F3D56"/>
<path d="M176.856 343H138.143C136.249 343 134.432 343.738 133.092 345.05C131.753 346.363 131 348.143 131 350C131 351.857 131.753 353.637 133.092 354.95C134.432 356.262 136.249 357 138.143 357H176.857C178.751 357 180.568 356.262 181.908 354.95C183.247 353.637 184 351.857 184 350C184 348.143 183.247 346.363 181.908 345.05C180.568 343.738 178.751 343 176.856 343Z" fill="#E6E6E6"/>
<path d="M564.22 527.153C564.755 519.316 564.593 513.306 563.887 512.692C563.588 512.428 563.312 511.475 563.093 510.47C563.848 509.871 564.253 509.169 564.07 508.354C563.186 504.439 549.19 475.617 546.939 475.091C544.687 474.566 545.153 431.854 545.153 431.854L548.439 399.272H548.392C548.659 397.507 549.113 395.779 549.746 394.122C549.872 393.794 550.005 393.477 550.138 393.163C552.859 393.265 555.46 391.985 557.708 388.617C560.156 384.949 562.431 381.686 564.493 378.826C569.362 374.805 575.355 368.598 577.095 361.399C580.171 348.674 566.119 335.652 566.119 335.652L561.746 332.531C561.689 332.355 561.639 332.178 561.593 332.002C561.546 331.826 561.506 331.649 561.47 331.487C562.479 331.361 563.473 331.117 564.433 330.76C564.867 331.076 565.371 331.268 565.896 331.315C566.42 331.363 566.948 331.265 567.426 331.032L567.486 330.997C567.649 330.953 567.808 330.894 567.962 330.82C568.44 330.544 568.892 330.219 569.312 329.85C571.021 328.517 573.064 327.78 574.929 326.715C578.106 324.906 580.879 321.925 581.688 318.19C581.914 316.98 582.035 315.749 582.05 314.515C582.139 313.625 582.069 312.726 581.844 311.863C581.624 311.186 581.215 310.597 580.959 309.934C580.404 308.495 580.627 306.872 580.597 305.317C580.557 302.386 579.599 299.423 577.663 297.325C575.728 295.226 572.831 294.101 570.137 294.711C569.416 294.889 568.709 295.124 568.022 295.417C567.712 295.537 567.406 295.664 567.1 295.769C565.893 296.238 564.689 296.595 563.442 296.288C561.948 295.917 560.648 294.588 559.118 294.778C558.799 294.824 558.489 294.924 558.2 295.075C557.651 295.261 557.137 295.548 556.68 295.921C555.989 296.443 555.334 297.019 554.721 297.642C553.943 298.436 553.198 299.388 553.088 300.527C553.061 300.999 553.123 301.471 553.269 301.917C553.415 302.363 553.643 302.774 553.94 303.127C552.163 304.003 550.579 305.263 549.288 306.827C547.998 308.39 547.029 310.222 546.445 312.205C545.861 314.189 545.675 316.28 545.897 318.344C546.119 320.408 546.746 322.401 547.737 324.193C547.71 324.355 547.683 324.52 547.654 324.687C547.437 325.934 547.16 327.167 546.822 328.383C546.832 328.157 546.864 327.932 546.919 327.713C546.696 327.66 546.466 327.614 546.23 327.572H546.124C545.915 327.534 545.705 327.502 545.492 327.473H545.439C542.242 327.047 538.341 327.424 536.126 328.768C532.492 330.987 529.652 334.418 528.047 338.527C525.713 341.026 523.92 344.035 522.796 347.344C521.16 346.524 519.363 346.13 517.554 346.194C514.86 340.551 509.765 333.519 503.087 341.035C496.059 348.946 504.69 351.263 510.606 351.943C510.802 352.668 511.108 353.354 511.511 353.975C511.939 354.663 512.409 355.32 512.918 355.943C512.729 356.007 512.527 356.018 512.333 355.975C510.972 355.573 511.072 370.308 517.155 374.608C516.145 377.295 514.834 379.845 513.251 382.201C511.01 385.591 509.248 389.309 508.019 393.237C507.39 395.286 506.941 397.237 507.068 398.351C507.08 398.479 507.105 398.606 507.141 398.729C507.157 398.781 507.175 398.831 507.197 398.88C507.218 398.926 507.243 398.97 507.271 399.011C507.296 399.048 507.325 399.082 507.357 399.113C507.387 399.142 507.419 399.168 507.453 399.191C507.488 399.212 507.525 399.23 507.563 399.244C507.602 399.255 507.642 399.264 507.683 399.268H507.703C507.747 399.272 507.792 399.272 507.836 399.268H507.863C507.912 399.264 507.961 399.257 508.009 399.247H508.042L508.192 399.205H508.242L508.395 399.141L508.461 399.113L508.628 399.028L508.701 398.99L508.89 398.873L508.96 398.831L509.196 398.672L509.243 398.641L509.545 398.411C509.253 399.018 508.914 399.677 508.524 400.358C506.602 403.688 503.442 407.546 498.786 408.632C490.139 410.646 467.885 440.809 467.885 440.809C467.885 440.809 461.024 440.305 463.804 463.498C466.585 486.691 467.11 499.279 467.11 499.279L467.233 499.36C464.626 502.506 459.308 508.156 454.685 508.224C448.272 508.315 444.494 512.787 447.541 515.584C450.587 518.381 483.793 513.976 483.793 513.976C483.793 513.976 484.013 504.774 482.433 500.545C482.698 500.297 482.947 500.029 483.178 499.745L481.538 453.227C481.538 453.227 502.268 434.383 512.376 432.556C512.309 432.517 512.243 432.482 512.18 432.447C512.819 432.34 513.469 432.327 514.112 432.408C522.946 433.681 529.651 476.386 529.651 476.386C529.651 476.386 531.277 483.108 536.133 488.289C540.989 493.47 551.765 513.486 551.765 513.486L552.214 513.433L552.273 513.542C552.273 516.575 551.838 521.129 549.613 524.68C545.954 530.528 556.221 532.792 556.221 532.792C556.221 532.792 563.688 534.99 564.22 527.153Z" fill="url(#paint0_linear_1_2)"/>
<path d="M470.333 497.427C470.333 497.427 462.607 508.195 456.215 508.291C449.822 508.386 446.054 512.826 449.094 515.605C452.134 518.385 485.26 514.018 485.26 514.018C485.26 514.018 485.573 500.785 482.706 498.852C479.839 496.92 470.333 497.427 470.333 497.427Z" fill="#444176"/>
<path d="M553.298 510.354C553.298 510.354 554.482 518.882 550.83 524.698C547.178 530.514 557.422 532.757 557.422 532.757C557.422 532.757 564.862 534.954 565.404 527.163C565.946 519.372 565.77 513.408 565.072 512.773C564.373 512.138 563.791 507.754 563.791 507.754L553.298 510.354Z" fill="#444176"/>
<path d="M552.972 513.581C552.972 513.581 542.21 493.675 537.367 488.54C532.525 483.404 530.898 476.703 530.898 476.703C530.898 476.703 524.2 434.242 515.39 432.969C506.579 431.695 482.41 453.601 482.41 453.601L484.133 499.833C478.888 506.28 468.597 499.424 468.597 499.424C468.597 499.424 468.069 486.882 465.295 463.819C462.521 440.756 469.356 441.246 469.356 441.246C469.356 441.246 491.529 411.267 500.157 409.264C504.813 408.188 507.946 404.351 509.865 401.042C510.837 399.376 511.636 397.602 512.247 395.752L549.108 399.931L545.841 432.327C545.841 432.327 545.389 474.791 547.637 475.317C549.886 475.842 563.848 504.506 564.733 508.396C565.617 512.287 552.972 513.581 552.972 513.581Z" fill="#2F2E41"/>
<g opacity="0.1">
<path d="M513.663 433.089C513.263 432.838 512.822 432.672 512.363 432.598C503.552 431.329 479.383 453.231 479.383 453.231L481.109 499.473C479.536 501.406 477.507 502.143 475.455 502.228C478.571 502.997 482.18 502.933 484.658 499.875L482.918 453.623C482.918 453.623 503.586 434.905 513.663 433.089Z" fill="black"/>
<path d="M565.235 508.46C564.35 504.58 550.388 475.906 548.139 475.38C545.891 474.855 546.343 432.39 546.343 432.39L549.609 399.995L546.074 399.593L542.808 431.988C542.808 431.988 542.356 474.453 544.604 474.978C546.852 475.504 560.814 504.168 561.699 508.058C562.298 510.692 556.71 512.128 553.015 512.78L553.477 513.627C553.477 513.627 566.119 512.35 565.235 508.46Z" fill="black"/>
</g>
<path d="M570.962 345.277C570.962 345.277 536.103 344.032 542.476 339.07C546.407 336.005 548.106 330.013 548.835 325.869C549.099 324.404 549.274 322.923 549.36 321.435C549.36 321.435 567.942 319.481 563.372 326.814C562.175 328.74 562.125 330.923 562.707 333.095C564.347 339.218 570.962 345.277 570.962 345.277Z" fill="#FFBEC7"/>
<path d="M533.043 336.375C533.043 336.375 524.609 341.377 522.946 352.832C521.283 364.288 519.916 352.48 519.916 352.48C519.916 352.48 515.083 357.347 513.597 356.909C512.11 356.472 512.373 374.1 520.318 376.357C528.264 378.614 534.54 341.683 534.54 341.683L533.043 336.375Z" fill="#DFE5EE"/>
<path opacity="0.05" d="M533.043 336.375C533.043 336.375 524.609 341.377 522.946 352.832C521.283 364.288 519.916 352.48 519.916 352.48C519.916 352.48 515.083 357.347 513.597 356.909C512.11 356.472 512.373 374.1 520.318 376.357C528.264 378.614 534.54 341.683 534.54 341.683L533.043 336.375Z" fill="black"/>
<path d="M520.95 352.603C520.95 352.603 514.471 330.736 504.394 342.061C494.316 353.386 516.55 353.188 516.55 353.188L520.95 352.603Z" fill="#FFBEC7"/>
<path opacity="0.1" d="M563.376 326.817C562.178 328.743 562.128 330.926 562.71 333.099C559.983 333.476 557.212 332.991 554.743 331.705C552.275 330.419 550.219 328.388 548.835 325.869C549.098 324.404 549.274 322.923 549.36 321.435C549.36 321.435 567.945 319.481 563.376 326.817Z" fill="black"/>
<path d="M574.763 319.983C575.865 311.888 570.571 304.377 562.937 303.208C555.304 302.038 548.221 307.653 547.119 315.748C546.016 323.843 551.31 331.354 558.944 332.523C566.577 333.692 573.66 328.078 574.763 319.983Z" fill="#FFBEC7"/>
<path opacity="0.1" d="M549.107 399.938L548.628 404.675C544.561 403.522 516.656 395.858 510.75 400.464C510.47 400.686 510.174 400.886 509.865 401.06C510.837 399.393 511.636 397.619 512.246 395.77L549.107 399.938Z" fill="black"/>
<path d="M578.179 362.345C576.32 370.023 569.592 376.548 564.589 380.494C562.75 381.96 560.827 383.305 558.832 384.522C558.832 384.522 553.654 387.721 550.913 394.87C549.87 397.608 549.306 400.524 549.25 403.476C549.25 403.476 517.249 394.161 510.876 399.124C507.527 401.734 508.056 398.045 509.313 393.96C510.537 390.054 512.293 386.359 514.525 382.991C516.284 380.307 518.492 376.375 519.158 372.71C520.039 367.843 526.022 349.33 528.803 340.865C530.293 336.232 533.321 332.332 537.324 329.893C539.905 328.345 544.734 328.087 548.1 328.874C548.1 328.874 547.015 332.7 551.998 333.385C552.536 333.459 553.072 333.561 553.601 333.691C555.596 334.189 560.515 335.18 562.697 333.508L567.224 336.728C567.224 336.728 581.242 349.693 578.179 362.345Z" fill="#DFE5EE"/>
<path opacity="0.1" d="M563.452 311.232C563.768 310.604 563.539 309.793 563.086 309.264C562.6 308.768 562.024 308.383 561.394 308.131L558.357 306.671C557.335 306.243 556.382 305.648 555.533 304.908C554.722 304.125 554.136 302.993 554.246 301.839C554.356 300.686 555.098 299.758 555.876 298.972C556.486 298.352 557.139 297.78 557.828 297.261C558.379 296.79 559.032 296.473 559.727 296.337C561.247 296.147 562.544 297.469 564.034 297.84C566.279 298.397 568.438 296.75 570.686 296.242C573.373 295.635 576.277 296.757 578.193 298.841C580.108 300.926 581.08 303.874 581.119 306.788C581.143 308.336 580.93 309.962 581.482 311.373C581.735 312.032 582.147 312.618 582.363 313.291C582.588 314.149 582.658 315.044 582.57 315.93C582.559 317.161 582.442 318.389 582.22 319.598C581.415 323.311 578.648 326.271 575.482 328.062C573.62 329.12 571.584 329.854 569.881 331.177C569.468 331.542 569.022 331.864 568.551 332.139C568.075 332.369 567.551 332.464 567.031 332.417C566.51 332.369 566.009 332.18 565.578 331.868C565.276 331.663 565.027 331.381 564.852 331.049C564.678 330.717 564.585 330.344 564.58 329.963C564.613 329.209 565.092 328.57 565.461 327.925C566.426 326.242 566.652 323.858 565.368 322.43C564.806 321.805 564.038 321.439 563.482 320.8C562.591 319.742 562.484 318.219 562.454 316.808C562.368 314.173 562.305 311.429 563.343 309.048" fill="black"/>
<path d="M563.622 309.052C563.136 308.557 562.56 308.171 561.929 307.92L558.892 306.46C557.87 306.031 556.918 305.436 556.068 304.696C555.257 303.913 554.672 302.781 554.781 301.628C554.891 300.474 555.633 299.547 556.411 298.76C557.022 298.14 557.674 297.569 558.363 297.05C558.914 296.579 559.567 296.261 560.262 296.126C561.782 295.935 563.079 297.258 564.569 297.628C566.814 298.185 568.973 296.538 571.221 296.03C573.909 295.424 576.812 296.545 578.728 298.63C580.644 300.714 581.615 303.663 581.655 306.576C581.678 308.124 581.465 309.75 582.017 311.161C582.27 311.821 582.682 312.406 582.899 313.08C583.123 313.938 583.193 314.833 583.105 315.718C583.09 316.945 582.97 318.168 582.746 319.372C581.941 323.086 579.173 326.045 576.007 327.837C574.145 328.895 572.109 329.628 570.406 330.951C569.993 331.316 569.548 331.639 569.076 331.914C568.6 332.143 568.077 332.239 567.556 332.191C567.035 332.143 566.535 331.954 566.103 331.642C565.801 331.437 565.552 331.156 565.378 330.823C565.203 330.491 565.11 330.118 565.105 329.738C565.138 328.983 565.617 328.344 565.986 327.699C566.951 326.017 567.177 323.632 565.893 322.204C565.331 321.58 564.563 321.213 564.007 320.575C563.116 319.516 563.01 317.993 562.98 316.582C562.893 313.947 562.471 311.464 563.508 309.07" fill="#2F2E41"/>
<path opacity="0.1" d="M573.167 369.278C571.121 371.786 568.178 375.525 564.599 380.494C562.76 381.96 560.837 383.305 558.842 384.522C558.842 384.522 553.664 387.721 550.923 394.87C540.024 395.477 526.85 372.502 526.85 372.502L535.478 362.919L550.185 374.065L554.974 363.184C556.244 360.295 558.203 357.806 560.657 355.964C563.11 354.123 565.974 352.991 568.966 352.681L569.196 352.659C572.259 352.363 574.028 354.303 575.046 356.758C575.878 358.82 576.143 361.09 575.811 363.306C575.478 365.521 574.562 367.592 573.167 369.278Z" fill="black"/>
<g opacity="0.05">
<path d="M545.828 328.616C545.828 328.616 544.744 332.443 549.726 333.127C550.265 333.201 550.8 333.303 551.329 333.434C552.812 333.811 554.323 334.053 555.846 334.157C554.951 334.009 554.159 333.832 553.601 333.691C553.042 333.55 552.536 333.459 551.997 333.385C547.009 332.7 548.099 328.874 548.099 328.874C547.119 328.653 546.124 328.518 545.123 328.471C545.366 328.517 545.602 328.563 545.828 328.616Z" fill="black"/>
<path d="M567.227 336.732L562.701 333.512C562.361 333.762 561.986 333.954 561.59 334.079L564.956 336.474C564.956 336.474 578.971 349.436 575.908 362.087C574.049 369.765 567.32 376.29 562.318 380.237C560.478 381.703 558.556 383.048 556.561 384.265C556.561 384.265 551.382 387.464 548.642 394.613C547.649 397.231 547.095 400.013 547.006 402.834C548.426 403.219 549.261 403.462 549.261 403.462C549.316 400.51 549.88 397.593 550.924 394.856C553.664 387.707 558.842 384.508 558.842 384.508C560.837 383.291 562.76 381.946 564.6 380.48C569.588 376.537 576.33 370.009 578.189 362.33C581.242 349.693 567.227 336.732 567.227 336.732Z" fill="black"/>
<path d="M508.614 398.866L508.375 399.043C508.501 400.157 509.206 400.432 510.886 399.124C512.882 397.579 517.335 397.417 522.527 397.928C516.387 397.142 510.879 397.103 508.614 398.866Z" fill="black"/>
</g>
<path opacity="0.05" d="M517.568 377.563C517.568 377.563 520.139 384.617 523.707 387.174C527.276 389.731 531.949 394.066 531.949 394.066" fill="black"/>
<path d="M566.183 504.654L560.821 480.099C558.533 476.068 556.182 473.903 554.209 472.749C551.668 471.092 549.646 471.102 549.008 471.162L548.289 470.358C545.555 466.263 544.105 455.545 544.105 455.545C543.962 450.519 540.959 447.115 537.094 444.816C530.582 440.679 521.243 439.878 519.257 439.754L517.674 436.414L517.249 436.305L517.149 436.093C516.816 435.998 516.44 435.917 516.078 435.84L518.878 374.897L518.905 374.308L529.964 374.879C530.829 374.889 531.665 374.544 532.295 373.914C532.926 373.285 533.302 372.421 533.345 371.504C533.388 370.587 533.095 369.688 532.526 368.996C531.958 368.303 531.159 367.871 530.296 367.79L517.348 367.12V366.824L518.559 340.491V340.195C519.136 339.717 519.608 339.111 519.943 338.421C520.279 337.731 520.469 336.971 520.501 336.196C520.545 335.512 520.46 334.825 520.251 334.176C520.042 333.528 519.713 332.93 519.283 332.418C518.853 331.906 518.331 331.489 517.748 331.194C517.165 330.898 516.532 330.728 515.886 330.695C515.241 330.662 514.595 330.765 513.988 331C513.38 331.234 512.823 331.595 512.348 332.06C511.874 332.526 511.491 333.087 511.224 333.711C510.956 334.335 510.809 335.009 510.79 335.695C510.751 336.47 510.871 337.245 511.141 337.966C511.412 338.688 511.826 339.339 512.356 339.874V340.17L511.139 366.506V366.803L498.178 366.154C497.312 366.144 496.476 366.489 495.846 367.119C495.215 367.748 494.839 368.612 494.796 369.529C494.753 370.446 495.047 371.345 495.615 372.037C496.184 372.73 496.983 373.162 497.845 373.243L508.365 373.786L508.339 374.375L505.501 436.097C501.435 436.639 497.415 437.525 493.482 438.746L488.905 455.975L475.538 458.543L468.574 474.767L462.082 486.84C461.393 487.108 460.725 487.393 460.086 487.686C435.89 498.514 434.909 525.403 434.909 525.403C441.651 537.593 475.695 532.249 475.695 532.249C495.125 550.72 533.745 539.987 533.745 539.987C543.058 542.421 550.428 543.476 556.241 543.712C572.452 544.368 576.53 538.644 576.53 538.644C582.363 522.956 566.183 504.654 566.183 504.654Z" fill="url(#paint1_linear_1_2)"/>
<path d="M512.545 339.725L509.436 370.58L515.633 371.282L518.743 340.428L512.545 339.725Z" fill="#03001C"/>
<path d="M506.836 372.02L499.869 441.157L510.375 442.347L517.343 373.21L506.836 372.02Z" fill="#F0F5FA"/>
<path opacity="0.05" d="M517.359 373.209L512.239 372.629L505.272 441.766L510.391 442.346L517.359 373.209Z" fill="black"/>
<path opacity="0.1" d="M506.839 372.022L506.551 374.88L517.057 376.071L517.345 373.213L506.839 372.022Z" fill="black"/>
<path opacity="0.1" d="M509.752 367.439L509.436 370.582L515.633 371.284L515.95 368.142L509.752 367.439Z" fill="black"/>
<path d="M528.862 369.886L496.806 366.254C495.02 366.051 493.417 367.422 493.227 369.315C493.036 371.208 494.329 372.907 496.115 373.11L528.171 376.743C529.957 376.945 531.56 375.574 531.751 373.681C531.941 371.788 530.648 370.089 528.862 369.886Z" fill="#03001C"/>
<path d="M436.492 526.461C436.492 526.461 436.223 498.881 461.959 487.665L467.919 475.599L474.152 459.509L487.429 456.335L491.22 439.384C491.22 439.384 505.854 433.924 515.333 435.935L517.229 439.384C517.229 439.384 541.614 439.098 542.695 453.175C542.695 453.175 545.133 466.104 548.655 468.404C548.655 468.404 554.615 466.968 560.575 476.163L567.077 499.723C567.077 499.723 584.146 516.674 578.997 532.189C578.997 532.189 571.953 542.82 536.19 535.639C536.19 535.639 497.988 547.983 477.654 531.054C477.677 531.057 443.809 537.952 436.492 526.461Z" fill="#3F3D56"/>
<path opacity="0.1" d="M453.561 522.152C453.561 522.152 458.979 514.107 458.709 508.361C458.44 502.616 459.986 488.592 459.986 488.592" stroke="white" stroke-miterlimit="10"/>
<path opacity="0.1" d="M473.34 500.602C473.34 500.602 478.758 489.971 478.216 484.226C478.216 484.226 483.907 473.292 488.24 474.171" stroke="white" stroke-miterlimit="10"/>
<path opacity="0.1" d="M503.143 470.436C503.143 470.436 518.043 464.69 518.858 460.091" stroke="white" stroke-miterlimit="10"/>
<path opacity="0.1" d="M508.562 483.651C508.562 483.651 524.276 476.195 524.276 474.171H532.132C532.132 474.171 543.51 489.971 542.156 496.87" stroke="white" stroke-miterlimit="10"/>
<path opacity="0.1" d="M526.987 495.142C526.987 495.142 511.814 493.992 506.396 498.591C500.978 503.191 491.223 505.487 491.223 505.487C491.223 505.487 485.533 518.416 483.368 520.716C481.202 523.016 477.677 531.061 477.677 531.061" stroke="white" stroke-miterlimit="10"/>
<path opacity="0.1" d="M526.987 510.371C526.987 510.371 528.6 516.403 530.779 519.852C532.957 523.301 536.196 535.653 536.196 535.653" stroke="white" stroke-miterlimit="10"/>
<path opacity="0.1" d="M552.453 527.897C552.453 527.897 555.892 538.044 558.915 538.125" stroke="white" stroke-miterlimit="10"/>
<path opacity="0.1" d="M529.93 484.342C529.93 484.342 538.864 486.903 542.599 493.107C546.334 499.311 557.755 504.94 557.755 504.94" stroke="white" stroke-miterlimit="10"/>
<path opacity="0.1" d="M533.758 453.771C533.758 453.771 533.758 466.986 537.28 466.986C540.803 466.986 548.662 468.436 548.662 468.436" stroke="white" stroke-miterlimit="10"/>
<path opacity="0.1" d="M516.507 438.086C516.507 438.086 515.605 460.916 511.002 466.824" stroke="white" stroke-miterlimit="10"/>
<g opacity="0.05">
<path d="M566.542 499.452L560.04 475.892C554.08 466.697 548.12 468.132 548.12 468.132C544.598 465.836 542.16 452.917 542.16 452.917C541.076 438.837 516.693 439.127 516.693 439.127L514.798 435.677C512.396 435.169 509.666 435.138 506.928 435.377C507.594 435.448 508.222 435.547 508.838 435.677L510.733 439.127C510.733 439.127 535.119 438.841 536.2 452.917C536.2 452.917 538.638 465.847 542.16 468.147C542.16 468.147 548.12 466.711 554.08 475.906L560.582 499.466C560.582 499.466 577.65 516.403 572.502 531.921C572.502 531.921 569.026 537.166 554.565 537.797C574.059 538.555 578.462 531.921 578.462 531.921C583.611 516.403 566.542 499.452 566.542 499.452Z" fill="black"/>
<path d="M471.172 530.771C465.436 531.858 459.636 532.524 453.814 532.764C460.599 533.039 467.659 532.263 472.209 531.597C471.861 531.329 471.515 531.054 471.172 530.771Z" fill="black"/>
<path d="M529.694 535.367C521.352 537.848 512.765 539.287 504.108 539.656C516.597 540.136 528.427 537.378 533.306 536.051C532.136 535.843 530.928 535.618 529.694 535.367Z" fill="black"/>
</g>
<path opacity="0.05" d="M518.639 340.269L515.405 339.903L512.584 367.899L515.818 368.266L518.639 340.269Z" fill="black"/>
<path opacity="0.1" d="M518.752 340.438L518.526 342.682C517.577 343.349 516.439 343.643 515.307 343.515C514.176 343.386 513.122 342.842 512.329 341.976L512.556 339.733L518.752 340.438Z" fill="black"/>
<path d="M520.694 338.63C520.98 335.79 519.041 333.242 516.364 332.939C513.686 332.636 511.284 334.691 510.997 337.531C510.711 340.37 512.65 342.918 515.327 343.222C518.005 343.525 520.408 341.469 520.694 338.63Z" fill="#03001C"/>
<path opacity="0.05" d="M520.704 338.643C520.565 340.006 519.922 341.254 518.915 342.114C517.909 342.974 516.621 343.375 515.336 343.228L516.374 332.944C517.011 333.016 517.629 333.22 518.192 333.546C518.755 333.872 519.251 334.312 519.654 334.841C520.056 335.37 520.356 335.979 520.536 336.631C520.716 337.284 520.773 337.967 520.704 338.643Z" fill="black"/>
<path d="M526.246 359.957L523.215 365.163L520.313 362.495L516.339 358.838C516.339 358.838 508.988 359.467 504.283 351.926C502.266 348.699 503.835 346.852 506.283 345.799C508.308 344.949 510.537 344.81 512.642 345.404C514.747 345.998 516.616 347.293 517.973 349.098L526.246 359.957Z" fill="#FFBEC7"/>
<path opacity="0.1" d="M537.414 363.949L534.018 369.793L530.765 366.796L535.544 361.491L537.414 363.949Z" fill="black"/>
<path d="M556.092 362.228L551.302 373.105L536.582 361.96L527.968 371.543C527.968 371.543 547.73 406.008 558.865 389.396C565.62 379.306 571.062 372.28 574.291 368.319C575.688 366.634 576.606 364.563 576.94 362.348C577.273 360.132 577.009 357.861 576.177 355.798C575.159 353.33 573.39 351.407 570.327 351.7L570.097 351.725C567.103 352.033 564.236 353.163 561.78 355.005C559.324 356.847 557.363 359.337 556.092 362.228Z" fill="#DFE5EE"/>
</g>
<defs>
<filter id="filter0_ddd_1_2" x="230.07" y="166.4" width="280.814" height="30.05" filterUnits="userSpaceOnUse" color-interpolation-filters="sRGB">
<feFlood flood-opacity="0" result="BackgroundImageFix"/>
<feColorMatrix in="SourceAlpha" type="matrix" values="0 0 0 0 0 0 0 0 0 0 0 0 0 0 0 0 0 0 127 0" result="hardAlpha"/>
<feOffset dy="4"/>
<feGaussianBlur stdDeviation="2"/>
<feComposite in2="hardAlpha" operator="out"/>
<feColorMatrix type="matrix" values="0 0 0 0 0 0 0 0 0 0 0 0 0 0 0 0 0 0 0.25 0"/>
<feBlend mode="normal" in2="BackgroundImageFix" result="effect1_dropShadow_1_2"/>
<feColorMatrix in="SourceAlpha" type="matrix" values="0 0 0 0 0 0 0 0 0 0 0 0 0 0 0 0 0 0 127 0" result="hardAlpha"/>
<feOffset dy="4"/>
<feGaussianBlur stdDeviation="2"/>
<feComposite in2="hardAlpha" operator="out"/>
<feColorMatrix type="matrix" values="0 0 0 0 0 0 0 0 0 0 0 0 0 0 0 0 0 0 0.25 0"/>
<feBlend mode="normal" in2="effect1_dropShadow_1_2" result="effect2_dropShadow_1_2"/>
<feColorMatrix in="SourceAlpha" type="matrix" values="0 0 0 0 0 0 0 0 0 0 0 0 0 0 0 0 0 0 127 0" result="hardAlpha"/>
<feOffset dy="4"/>
<feGaussianBlur stdDeviation="2"/>
<feComposite in2="hardAlpha" operator="out"/>
<feColorMatrix type="matrix" values="0 0 0 0 0 0 0 0 0 0 0 0 0 0 0 0 0 0 0.25 0"/>
<feBlend mode="normal" in2="effect2_dropShadow_1_2" result="effect3_dropShadow_1_2"/>
<feBlend mode="normal" in="SourceGraphic" in2="effect3_dropShadow_1_2" result="shape"/>
</filter>
<linearGradient id="paint0_linear_1_2" x1="504.696" y1="527.02" x2="531.565" y2="289.93" gradientUnits="userSpaceOnUse">
<stop stop-color="#808080" stop-opacity="0.25"/>
<stop offset="0.54" stop-color="#808080" stop-opacity="0.12"/>
<stop offset="1" stop-color="#808080" stop-opacity="0.1"/>
</linearGradient>
<linearGradient id="paint1_linear_1_2" x1="505.864" y1="543.999" x2="517.483" y2="331.438" gradientUnits="userSpaceOnUse">
<stop stop-color="#2F2E41" stop-opacity="0.85"/>
<stop offset="0.54" stop-color="#808080" stop-opacity="0.12"/>
<stop offset="1" stop-color="#808080" stop-opacity="0.1"/>
</linearGradient>
<clipPath id="clip0_1_2">
<rect width="700" height="700" fill="white"/>
</clipPath>
</defs>
</svg>
