<svg width="658" height="777" viewBox="0 0 658 777" fill="none" xmlns="http://www.w3.org/2000/svg">
<path d="M645.501 760.668C641.785 765.676 637.178 769.958 631.911 773.298C630.791 774.008 629.641 774.678 628.471 775.298H600.942C601.271 774.638 601.592 773.968 601.902 773.298C610.437 755.285 613.114 735.051 609.555 715.439C605.997 695.827 596.381 677.823 582.061 663.958C598.701 669.098 614.081 679.118 624.141 693.328C629.03 700.248 632.506 708.063 634.371 716.328C636.034 699.8 633.392 683.123 626.701 667.918C640.211 678.908 650.732 693.958 654.742 710.898C658.751 727.848 655.842 746.658 645.501 760.668Z" fill="#F0F0F0"/>
<path d="M656.654 776.139H398.916V774.033H657.036L656.654 776.139Z" fill="#3F3D56"/>
<path d="M308.748 263.269C308.748 301.909 295.248 334.899 269.558 359.449C251.328 376.879 223.248 401.309 223.248 427.139V448.509H137.748V427.139C137.748 401.039 109.558 376.559 91.4381 359.449C66.3281 335.759 52.2481 300.529 52.2481 263.269V262.479C52.3584 228.469 65.9733 195.895 90.0983 171.922C114.223 147.949 146.883 134.541 180.893 134.645C214.903 134.75 247.48 148.36 271.456 172.481C295.433 196.602 308.847 229.259 308.748 263.269Z" fill="#03001C"/>
<path d="M223.247 451.51C222.451 451.51 221.688 451.194 221.126 450.631C220.563 450.069 220.247 449.306 220.247 448.51V427.136C220.247 402.011 245.026 378.556 263.12 361.43C264.62 360.008 266.081 358.63 267.483 357.285C292.512 333.357 305.742 300.848 305.742 263.271C305.742 193.042 250.729 138.028 180.5 138.028H180.146C147.096 138.065 115.404 151.187 92.0011 174.524C68.598 197.861 55.3872 229.516 55.2571 262.566V263.266C55.2571 300.066 69.1961 334.329 93.5021 357.273C94.7331 358.436 96.0121 359.633 97.3251 360.862C115.652 378.021 140.752 401.52 140.752 427.137V448.51C140.752 449.306 140.436 450.069 139.873 450.631C139.311 451.194 138.548 451.51 137.752 451.51C136.956 451.51 136.193 451.194 135.631 450.631C135.068 450.069 134.752 449.306 134.752 448.51V427.136C134.752 404.121 110.752 381.65 93.2241 365.236C91.9051 364.002 90.6248 362.8 89.3831 361.631C63.8831 337.559 49.2571 301.707 49.2571 263.267V262.547C49.4571 190.502 108.142 132.024 180.137 132.024H180.508C215.134 131.844 248.412 145.426 273.023 169.783C297.635 194.139 311.562 227.275 311.742 261.9C311.745 262.357 311.745 262.814 311.742 263.271C311.742 302.526 297.871 336.535 271.63 361.622C270.221 362.969 268.754 364.358 267.244 365.787C249.944 382.164 226.244 404.593 226.244 427.136V448.51C226.244 449.306 225.928 450.069 225.365 450.631C224.803 451.194 224.04 451.51 223.244 451.51H223.247Z" fill="#3F3D56"/>
<path d="M208.999 490.005H151.999C150.673 490.005 149.401 489.478 148.464 488.541C147.526 487.603 146.999 486.331 146.999 485.005C146.999 483.679 147.526 482.407 148.464 481.469C149.401 480.532 150.673 480.005 151.999 480.005H208.999C210.325 480.005 211.597 480.532 212.535 481.469C213.472 482.407 213.999 483.679 213.999 485.005C213.999 486.331 213.472 487.603 212.535 488.541C211.597 489.478 210.325 490.005 208.999 490.005Z" fill="#03001C"/>
<path d="M186.628 523.505H174.361C170.1 523.508 165.919 522.349 162.267 520.154C161.725 519.838 161.306 519.35 161.076 518.767C160.846 518.184 160.819 517.54 160.998 516.94C161.163 516.323 161.527 515.779 162.034 515.391C162.541 515.004 163.162 514.795 163.8 514.798H197.189C197.827 514.795 198.448 515.004 198.955 515.391C199.462 515.779 199.826 516.323 199.991 516.94C200.171 517.54 200.143 518.184 199.913 518.767C199.683 519.35 199.264 519.838 198.722 520.154C195.07 522.349 190.889 523.508 186.628 523.505Z" fill="#3F3D56"/>
<path d="M209.009 505.799L151.671 505.792L151.493 505.412C151.324 504.711 151.317 503.982 151.473 503.278C151.629 502.575 151.944 501.917 152.393 501.353C152.848 500.776 153.429 500.309 154.092 499.989C154.754 499.669 155.48 499.503 156.216 499.505H204.773C205.509 499.503 206.236 499.669 206.898 499.989C207.56 500.31 208.141 500.776 208.597 501.354C209.042 501.909 209.356 502.559 209.514 503.253C209.671 503.947 209.669 504.668 209.508 505.361L209.418 505.748L209.009 505.799Z" fill="#3F3D56"/>
<path d="M47.8991 145.411C46.6904 145.412 45.5225 144.974 44.6131 144.178L1.67411 106.697C0.690459 105.821 0.0923638 104.592 0.00983031 103.277C-0.0727032 101.962 0.366999 100.668 1.23334 99.6754C2.09968 98.683 3.32266 98.0726 4.63654 97.9768C5.95042 97.8811 7.249 98.3077 8.2501 99.164L51.1891 136.645C51.956 137.314 52.5004 138.202 52.7494 139.189C52.9984 140.176 52.9402 141.216 52.5825 142.169C52.2249 143.122 51.5848 143.943 50.7479 144.523C49.911 145.102 48.9171 145.412 47.8991 145.412V145.411Z" fill="#E4E4E4"/>
<path d="M305.977 145.411C304.959 145.411 303.965 145.101 303.128 144.522C302.291 143.942 301.651 143.121 301.294 142.168C300.936 141.215 300.878 140.175 301.127 139.188C301.376 138.201 301.92 137.313 302.687 136.644L345.625 99.16C346.626 98.3037 347.925 97.877 349.239 97.9728C350.552 98.0686 351.775 98.679 352.642 99.6714C353.508 100.664 353.948 101.958 353.865 103.273C353.783 104.588 353.185 105.817 352.201 106.693L309.262 144.174C308.353 144.971 307.186 145.411 305.977 145.411Z" fill="#E4E4E4"/>
<path d="M223.247 472.26H137.747C136.421 472.26 135.149 471.733 134.212 470.796C133.274 469.858 132.747 468.586 132.747 467.26C132.747 465.934 133.274 464.662 134.212 463.724C135.149 462.787 136.421 462.26 137.747 462.26H223.247C224.573 462.26 225.845 462.787 226.783 463.724C227.72 464.662 228.247 465.934 228.247 467.26C228.247 468.586 227.72 469.858 226.783 470.796C225.845 471.733 224.573 472.26 223.247 472.26Z" fill="#03001C"/>
<path d="M178.398 341.639L160.618 448.509H150.468L168.528 339.999C168.746 338.691 169.474 337.522 170.553 336.75C171.633 335.978 172.974 335.667 174.283 335.884C175.592 336.102 176.761 336.83 177.533 337.91C178.304 338.989 178.616 340.331 178.398 341.639Z" fill="#E6E6E6"/>
<path d="M212.568 448.509H202.418L184.638 341.639C184.421 340.331 184.732 338.989 185.504 337.91C186.275 336.83 187.444 336.102 188.753 335.884C190.062 335.667 191.404 335.978 192.483 336.75C193.562 337.522 194.291 338.691 194.508 339.999L212.568 448.509Z" fill="#E6E6E6"/>
<path d="M148.003 338.069C148.003 336.743 148.529 335.472 149.467 334.534C150.405 333.596 151.677 333.069 153.003 333.069H207.996C209.322 333.069 210.593 333.596 211.531 334.534C212.469 335.472 212.996 336.743 212.996 338.069C212.996 339.396 212.469 340.667 211.531 341.605C210.593 342.543 209.322 343.069 207.996 343.069H153.003C151.677 343.069 150.405 342.543 149.467 341.605C148.529 340.667 148.003 339.396 148.003 338.069Z" fill="#E6E6E6"/>
<path d="M180.499 95.5C179.173 95.5 177.901 94.9732 176.964 94.0355C176.026 93.0978 175.499 91.8261 175.499 90.5V5C175.499 3.67392 176.026 2.40215 176.964 1.46447C177.901 0.526784 179.173 0 180.499 0C181.825 0 183.097 0.526784 184.035 1.46447C184.972 2.40215 185.499 3.67392 185.499 5V90.5C185.499 91.8261 184.972 93.0978 184.035 94.0355C183.097 94.9732 181.825 95.5 180.499 95.5Z" fill="#E4E4E4"/>
<path d="M589.219 762.149H576.961L571.129 714.861H589.221L589.219 762.149Z" fill="#FEB8B8"/>
<path d="M592.346 774.033H552.815V773.533C552.815 769.453 554.436 765.539 557.322 762.654C560.207 759.769 564.12 758.148 568.2 758.147H592.346L592.346 774.033Z" fill="#2F2E41"/>
<path d="M496.082 761.745L484.238 758.578L490.818 711.388L508.298 716.062L496.082 761.745Z" fill="#FEB8B8"/>
<path d="M496.033 774.033L457.844 763.821L457.973 763.338C459.027 759.396 461.604 756.034 465.137 753.991C468.67 751.949 472.87 751.394 476.812 752.448L500.137 758.685L496.033 774.033Z" fill="#2F2E41"/>
<path d="M596.272 497.137L606.541 509.068L593.261 751.51H564.892L550.592 564.959L506.243 756.513L476.751 749.28L503.567 505.98L596.272 497.137Z" fill="#2F2E41"/>
<path d="M510.423 340.612L538.669 326.44L582.106 327.204L619.486 346.331L598.218 452.549L607.405 507.929C571.897 516.984 534.722 517.29 499.07 508.821L498.786 508.753C498.786 508.753 519.9 433.837 510.912 410.974L510.423 340.612Z" fill="#E6E6E6"/>
<path d="M592.139 284.004C592.108 275.529 588.715 267.413 582.706 261.437C576.696 255.46 568.561 252.113 560.086 252.129C551.611 252.144 543.488 255.522 537.501 261.52C531.514 267.519 528.151 275.647 528.151 284.122C528.151 292.598 531.514 300.726 537.501 306.725C543.488 312.723 551.611 316.101 560.086 316.116C568.561 316.132 576.696 312.785 582.706 306.808C588.715 300.832 592.108 292.716 592.139 284.241V284.004Z" fill="#FEB8B8"/>
<path d="M506.525 418.053C507.133 419.614 508.076 421.024 509.287 422.181C510.499 423.339 511.949 424.217 513.536 424.753C515.124 425.29 516.81 425.472 518.475 425.286C520.14 425.101 521.745 424.553 523.175 423.68L580.528 453.998L582.385 440.027L526.655 407.164C525.03 404.858 522.615 403.229 519.869 402.584C517.122 401.94 514.235 402.325 511.753 403.667C509.272 405.009 507.369 407.215 506.405 409.867C505.442 412.518 505.484 415.431 506.524 418.053H506.525Z" fill="#FEB8B8"/>
<path d="M582.954 420.468C582.019 421.859 580.791 423.027 579.356 423.892C577.92 424.757 576.313 425.296 574.647 425.472C572.98 425.649 571.295 425.457 569.711 424.912C568.127 424.367 566.681 423.48 565.476 422.316L502.876 439.351L503.421 421.613L565.692 405.44C567.783 403.545 570.495 402.483 573.317 402.455C576.138 402.427 578.871 403.435 580.999 405.288C583.127 407.14 584.501 409.709 584.861 412.507C585.221 415.306 584.542 418.139 582.953 420.47L582.954 420.468Z" fill="#FEB8B8"/>
<path d="M607.28 347.1L619.485 346.335C619.485 346.335 633.775 365.19 625.849 385.651C625.849 385.651 627.222 459.151 595.573 456.131C563.924 453.111 553.923 453.112 553.923 453.112L563.423 426.612L584.676 420.05C584.676 420.05 578.126 391.156 590.525 379.134L607.28 347.1Z" fill="#E6E6E6"/>
<path d="M519.148 346.455L517.423 337.612C517.423 337.612 491.983 337.012 486.953 375.563C486.953 375.563 464.076 433.255 486.499 440.684C508.922 448.113 533.588 440.684 533.588 440.684L531.731 415.24L507.061 410.207C507.061 410.207 519.806 393.718 512.866 379.415L519.148 346.455Z" fill="#E6E6E6"/>
<path d="M571.223 299.715C568.87 298.791 566.264 298.839 563.777 298.384C554.883 296.745 548.024 287.677 548.869 278.674C549.081 277.507 549.101 276.314 548.927 275.141C548.311 272.572 545.455 271.193 542.832 270.885C540.209 270.578 537.499 270.971 534.947 270.288C531.007 269.233 528.064 265.64 527.066 261.685C526.216 257.664 526.66 253.477 528.333 249.722L529.557 252.274C530.831 250.923 531.699 249.242 532.064 247.422C533.133 247.479 534.169 247.81 535.074 248.383C535.979 248.956 536.721 249.752 537.23 250.694C538.811 251.4 538.618 247.788 540.194 247.073C540.904 246.902 541.652 246.999 542.294 247.346C545.767 248.512 549.45 246.763 552.891 245.511C558.852 243.348 565.238 242.618 571.533 243.38C575.716 243.891 579.938 245.127 583.193 247.8C585.765 250.13 587.856 252.941 589.349 256.074C593.366 263.582 596.392 271.866 596.31 280.383C596.228 287.356 594.083 294.148 590.145 299.903C588.093 302.889 581.466 313.246 577.061 312.106C571.527 310.676 577.847 302.313 571.223 299.715Z" fill="#2F2E41"/>
<g filter="url(#filter0_ddd_1_102)">
<path d="M108.08 619.4H95.4401C94.9331 619.4 94.5601 619.293 94.3201 619.08C94.1071 618.84 94.0001 618.467 94.0001 617.96V613.28C94.0001 612.773 94.1071 612.413 94.3201 612.2C94.5601 611.96 94.9331 611.84 95.4401 611.84H106.2C106.547 611.84 106.8 611.733 106.96 611.52C107.147 611.28 107.24 611 107.24 610.68C107.24 610.227 107.147 609.893 106.96 609.68C106.8 609.467 106.547 609.347 106.2 609.32L100.2 608.48C98.3331 608.213 96.8271 607.6 95.6801 606.64C94.5601 605.68 94.0001 604.08 94.0001 601.84V597.64C94.0001 595.373 94.7331 593.64 96.2001 592.44C97.6671 591.213 99.6931 590.6 102.28 590.6H113.48C113.987 590.6 114.347 590.72 114.56 590.96C114.8 591.173 114.92 591.533 114.92 592.04V596.8C114.92 597.307 114.8 597.68 114.56 597.92C114.347 598.133 113.987 598.24 113.48 598.24H104.16C103.813 598.24 103.547 598.36 103.36 598.6C103.173 598.813 103.08 599.093 103.08 599.44C103.08 599.787 103.173 600.08 103.36 600.32C103.547 600.56 103.813 600.693 104.16 600.72L110.12 601.52C111.987 601.787 113.493 602.4 114.64 603.36C115.787 604.32 116.36 605.92 116.36 608.16V612.36C116.36 614.627 115.613 616.373 114.12 617.6C112.653 618.8 110.64 619.4 108.08 619.4ZM145.136 611.84C145.136 613.067 144.949 614.187 144.576 615.2C144.229 616.187 143.589 617.04 142.656 617.76C141.749 618.453 140.482 619 138.856 619.4C137.256 619.8 135.216 620 132.736 620C130.256 620 128.202 619.8 126.576 619.4C124.949 619 123.669 618.453 122.736 617.76C121.829 617.04 121.189 616.187 120.816 615.2C120.469 614.187 120.296 613.067 120.296 611.84V598.2C120.296 596.973 120.469 595.867 120.816 594.88C121.189 593.867 121.829 593 122.736 592.28C123.669 591.56 124.949 591 126.576 590.6C128.202 590.2 130.256 590 132.736 590C135.216 590 137.256 590.2 138.856 590.6C140.482 591 141.749 591.56 142.656 592.28C143.589 593 144.229 593.867 144.576 594.88C144.949 595.867 145.136 596.973 145.136 598.2V611.84ZM129.376 610.4C129.376 610.933 129.576 611.387 129.976 611.76C130.376 612.107 131.296 612.28 132.736 612.28C134.176 612.28 135.096 612.107 135.496 611.76C135.896 611.387 136.096 610.933 136.096 610.4V599.64C136.096 599.133 135.896 598.707 135.496 598.36C135.096 597.987 134.176 597.8 132.736 597.8C131.296 597.8 130.376 597.987 129.976 598.36C129.576 598.707 129.376 599.133 129.376 599.64V610.4ZM172.028 619.4H151.668C151.161 619.4 150.788 619.293 150.548 619.08C150.334 618.84 150.228 618.467 150.228 617.96V592.04C150.228 591.533 150.334 591.173 150.548 590.96C150.788 590.72 151.161 590.6 151.668 590.6H157.868C158.374 590.6 158.734 590.72 158.948 590.96C159.188 591.173 159.308 591.533 159.308 592.04V611.84H164.788V605.36C164.788 604.853 164.894 604.493 165.108 604.28C165.348 604.04 165.721 603.92 166.228 603.92H172.028C172.534 603.92 172.894 604.04 173.108 604.28C173.348 604.493 173.468 604.853 173.468 605.36V617.96C173.468 618.467 173.348 618.84 173.108 619.08C172.894 619.293 172.534 619.4 172.028 619.4ZM202.56 611.84C202.56 613.067 202.374 614.187 202 615.2C201.654 616.187 201.014 617.04 200.08 617.76C199.174 618.453 197.92 619 196.32 619.4C194.72 619.8 192.68 620 190.2 620C187.72 620 185.68 619.8 184.08 619.4C182.48 619 181.214 618.453 180.28 617.76C179.374 617.04 178.734 616.187 178.36 615.2C178.014 614.187 177.84 613.067 177.84 611.84V592.04C177.84 591.533 177.947 591.173 178.16 590.96C178.4 590.72 178.774 590.6 179.28 590.6H185.56C186.067 590.6 186.427 590.72 186.64 590.96C186.88 591.173 187 591.533 187 592.04V610.28C187 610.813 187.2 611.267 187.6 611.64C188 611.987 188.894 612.16 190.28 612.16C191.694 612.16 192.6 611.987 193 611.64C193.4 611.267 193.6 610.813 193.6 610.28V592.04C193.6 591.533 193.707 591.173 193.92 590.96C194.16 590.72 194.534 590.6 195.04 590.6H201.12C201.627 590.6 201.987 590.72 202.2 590.96C202.44 591.173 202.56 591.533 202.56 592.04V611.84ZM221.484 619.4H215.004C214.497 619.4 214.124 619.293 213.884 619.08C213.671 618.84 213.564 618.467 213.564 617.96V598.32H207.684C207.177 598.32 206.804 598.213 206.564 598C206.351 597.76 206.244 597.387 206.244 596.88V592.04C206.244 591.533 206.351 591.173 206.564 590.96C206.804 590.72 207.177 590.6 207.684 590.6H228.804C229.311 590.6 229.671 590.72 229.884 590.96C230.124 591.173 230.244 591.533 230.244 592.04V596.88C230.244 597.387 230.124 597.76 229.884 598C229.671 598.213 229.311 598.32 228.804 598.32H222.924V617.96C222.924 618.467 222.804 618.84 222.564 619.08C222.351 619.293 221.991 619.4 221.484 619.4ZM234.934 619.4C234.427 619.4 234.054 619.293 233.814 619.08C233.601 618.84 233.494 618.467 233.494 617.96V613.2C233.494 612.693 233.601 612.333 233.814 612.12C234.054 611.88 234.427 611.76 234.934 611.76H238.894V598.32H234.934C234.427 598.32 234.054 598.213 233.814 598C233.601 597.76 233.494 597.387 233.494 596.88V592.04C233.494 591.533 233.601 591.173 233.814 590.96C234.054 590.72 234.427 590.6 234.934 590.6H251.974C252.481 590.6 252.841 590.72 253.054 590.96C253.294 591.173 253.414 591.533 253.414 592.04V596.88C253.414 597.387 253.294 597.76 253.054 598C252.841 598.213 252.481 598.32 251.974 598.32H248.094V611.76H251.974C252.481 611.76 252.841 611.88 253.054 612.12C253.294 612.333 253.414 612.693 253.414 613.2V617.96C253.414 618.467 253.294 618.84 253.054 619.08C252.841 619.293 252.481 619.4 251.974 619.4H234.934ZM282.753 611.84C282.753 613.067 282.566 614.187 282.193 615.2C281.846 616.187 281.206 617.04 280.273 617.76C279.366 618.453 278.099 619 276.473 619.4C274.873 619.8 272.833 620 270.353 620C267.873 620 265.819 619.8 264.193 619.4C262.566 619 261.286 618.453 260.353 617.76C259.446 617.04 258.806 616.187 258.433 615.2C258.086 614.187 257.913 613.067 257.913 611.84V598.2C257.913 596.973 258.086 595.867 258.433 594.88C258.806 593.867 259.446 593 260.353 592.28C261.286 591.56 262.566 591 264.193 590.6C265.819 590.2 267.873 590 270.353 590C272.833 590 274.873 590.2 276.473 590.6C278.099 591 279.366 591.56 280.273 592.28C281.206 593 281.846 593.867 282.193 594.88C282.566 595.867 282.753 596.973 282.753 598.2V611.84ZM266.993 610.4C266.993 610.933 267.193 611.387 267.593 611.76C267.993 612.107 268.913 612.28 270.353 612.28C271.793 612.28 272.713 612.107 273.113 611.76C273.513 611.387 273.713 610.933 273.713 610.4V599.64C273.713 599.133 273.513 598.707 273.113 598.36C272.713 597.987 271.793 597.8 270.353 597.8C268.913 597.8 267.993 597.987 267.593 598.36C267.193 598.707 266.993 599.133 266.993 599.64V610.4ZM295.285 619.4H289.285C288.778 619.4 288.405 619.293 288.165 619.08C287.952 618.84 287.845 618.467 287.845 617.96V592.04C287.845 591.533 287.952 591.173 288.165 590.96C288.405 590.72 288.778 590.6 289.285 590.6H293.445C293.952 590.6 294.378 590.68 294.725 590.84C295.098 591 295.458 591.28 295.805 591.68L303.565 600.56V592.04C303.565 591.533 303.672 591.173 303.885 590.96C304.125 590.72 304.498 590.6 305.005 590.6H311.005C311.512 590.6 311.872 590.72 312.085 590.96C312.325 591.173 312.445 591.533 312.445 592.04V617.96C312.445 618.467 312.325 618.84 312.085 619.08C311.872 619.293 311.512 619.4 311.005 619.4H305.005C304.498 619.4 304.125 619.293 303.885 619.08C303.672 618.84 303.565 618.467 303.565 617.96V613.04L296.725 604.76V617.96C296.725 618.467 296.605 618.84 296.365 619.08C296.152 619.293 295.792 619.4 295.285 619.4ZM108.08 667.4H95.4401C94.9331 667.4 94.5601 667.293 94.3201 667.08C94.1071 666.84 94.0001 666.467 94.0001 665.96V661.28C94.0001 660.773 94.1071 660.413 94.3201 660.2C94.5601 659.96 94.9331 659.84 95.4401 659.84H106.2C106.547 659.84 106.8 659.733 106.96 659.52C107.147 659.28 107.24 659 107.24 658.68C107.24 658.227 107.147 657.893 106.96 657.68C106.8 657.467 106.547 657.347 106.2 657.32L100.2 656.48C98.3331 656.213 96.8271 655.6 95.6801 654.64C94.5601 653.68 94.0001 652.08 94.0001 649.84V645.64C94.0001 643.373 94.7331 641.64 96.2001 640.44C97.6671 639.213 99.6931 638.6 102.28 638.6H113.48C113.987 638.6 114.347 638.72 114.56 638.96C114.8 639.173 114.92 639.533 114.92 640.04V644.8C114.92 645.307 114.8 645.68 114.56 645.92C114.347 646.133 113.987 646.24 113.48 646.24H104.16C103.813 646.24 103.547 646.36 103.36 646.6C103.173 646.813 103.08 647.093 103.08 647.44C103.08 647.787 103.173 648.08 103.36 648.32C103.547 648.56 103.813 648.693 104.16 648.72L110.12 649.52C111.987 649.787 113.493 650.4 114.64 651.36C115.787 652.32 116.36 653.92 116.36 656.16V660.36C116.36 662.627 115.613 664.373 114.12 665.6C112.653 666.8 110.64 667.4 108.08 667.4ZM128.376 667.4H122.176C121.669 667.4 121.296 667.293 121.056 667.08C120.842 666.84 120.736 666.467 120.736 665.96V640.04C120.736 639.533 120.842 639.173 121.056 638.96C121.296 638.72 121.669 638.6 122.176 638.6H134.416C138.042 638.6 140.522 639.32 141.856 640.76C143.189 642.2 143.856 644.08 143.856 646.4V651.52C143.856 653.84 143.189 655.72 141.856 657.16C140.522 658.6 138.042 659.32 134.416 659.32H129.816V665.96C129.816 666.467 129.696 666.84 129.456 667.08C129.242 667.293 128.882 667.4 128.376 667.4ZM129.736 646.08V652.12H133.336C134.109 652.12 134.616 651.92 134.856 651.52C135.096 651.12 135.216 650.667 135.216 650.16V648.04C135.216 647.533 135.096 647.08 134.856 646.68C134.616 646.28 134.109 646.08 133.336 646.08H129.736ZM157.041 645.8V650.92H160.041C160.735 650.92 161.201 650.747 161.441 650.4C161.681 650.027 161.801 649.573 161.801 649.04V647.68C161.801 647.147 161.681 646.707 161.441 646.36C161.201 645.987 160.735 645.8 160.041 645.8H157.041ZM155.601 667.4H149.441C148.935 667.4 148.561 667.293 148.321 667.08C148.108 666.84 148.001 666.467 148.001 665.96V640.04C148.001 639.533 148.108 639.173 148.321 638.96C148.561 638.72 148.935 638.6 149.441 638.6H162.761C165.748 638.6 167.801 639.227 168.921 640.48C170.068 641.707 170.641 643.307 170.641 645.28V647.12C170.641 648.24 170.468 649.2 170.121 650C169.801 650.773 169.228 651.333 168.401 651.68C169.841 651.84 171.001 652.427 171.881 653.44C172.788 654.453 173.241 655.8 173.241 657.48V665.96C173.241 666.467 173.121 666.84 172.881 667.08C172.668 667.293 172.308 667.4 171.801 667.4H165.601C165.095 667.4 164.721 667.293 164.481 667.08C164.268 666.84 164.161 666.467 164.161 665.96V659.84C164.161 659.253 164.041 658.827 163.801 658.56C163.588 658.267 163.201 658.12 162.641 658.12H157.041V665.96C157.041 666.467 156.921 666.84 156.681 667.08C156.468 667.293 156.108 667.4 155.601 667.4ZM178.528 667.4C178.021 667.4 177.648 667.293 177.408 667.08C177.194 666.84 177.088 666.467 177.088 665.96V661.2C177.088 660.693 177.194 660.333 177.408 660.12C177.648 659.88 178.021 659.76 178.528 659.76H182.488V646.32H178.528C178.021 646.32 177.648 646.213 177.408 646C177.194 645.76 177.088 645.387 177.088 644.88V640.04C177.088 639.533 177.194 639.173 177.408 638.96C177.648 638.72 178.021 638.6 178.528 638.6H195.568C196.074 638.6 196.434 638.72 196.648 638.96C196.888 639.173 197.008 639.533 197.008 640.04V644.88C197.008 645.387 196.888 645.76 196.648 646C196.434 646.213 196.074 646.32 195.568 646.32H191.688V659.76H195.568C196.074 659.76 196.434 659.88 196.648 660.12C196.888 660.333 197.008 660.693 197.008 661.2V665.96C197.008 666.467 196.888 666.84 196.648 667.08C196.434 667.293 196.074 667.4 195.568 667.4H178.528ZM209.387 667.4H203.387C202.88 667.4 202.507 667.293 202.267 667.08C202.053 666.84 201.947 666.467 201.947 665.96V640.04C201.947 639.533 202.053 639.173 202.267 638.96C202.507 638.72 202.88 638.6 203.387 638.6H207.547C208.053 638.6 208.48 638.68 208.827 638.84C209.2 639 209.56 639.28 209.907 639.68L217.667 648.56V640.04C217.667 639.533 217.773 639.173 217.987 638.96C218.227 638.72 218.6 638.6 219.107 638.6H225.107C225.613 638.6 225.973 638.72 226.187 638.96C226.427 639.173 226.547 639.533 226.547 640.04V665.96C226.547 666.467 226.427 666.84 226.187 667.08C225.973 667.293 225.613 667.4 225.107 667.4H219.107C218.6 667.4 218.227 667.293 217.987 667.08C217.773 666.84 217.667 666.467 217.667 665.96V661.04L210.827 652.76V665.96C210.827 666.467 210.707 666.84 210.467 667.08C210.253 667.293 209.893 667.4 209.387 667.4ZM245.664 667.4H239.184C238.677 667.4 238.304 667.293 238.064 667.08C237.85 666.84 237.744 666.467 237.744 665.96V646.32H231.864C231.357 646.32 230.984 646.213 230.744 646C230.53 645.76 230.424 645.387 230.424 644.88V640.04C230.424 639.533 230.53 639.173 230.744 638.96C230.984 638.72 231.357 638.6 231.864 638.6H252.984C253.49 638.6 253.85 638.72 254.064 638.96C254.304 639.173 254.424 639.533 254.424 640.04V644.88C254.424 645.387 254.304 645.76 254.064 646C253.85 646.213 253.49 646.32 252.984 646.32H247.104V665.96C247.104 666.467 246.984 666.84 246.744 667.08C246.53 667.293 246.17 667.4 245.664 667.4Z" fill="#2F2E41"/>
</g>
<defs>
<filter id="filter0_ddd_1_102" x="90.0001" y="590" width="226.445" height="85.4" filterUnits="userSpaceOnUse" color-interpolation-filters="sRGB">
<feFlood flood-opacity="0" result="BackgroundImageFix"/>
<feColorMatrix in="SourceAlpha" type="matrix" values="0 0 0 0 0 0 0 0 0 0 0 0 0 0 0 0 0 0 127 0" result="hardAlpha"/>
<feOffset dy="4"/>
<feGaussianBlur stdDeviation="2"/>
<feComposite in2="hardAlpha" operator="out"/>
<feColorMatrix type="matrix" values="0 0 0 0 0 0 0 0 0 0 0 0 0 0 0 0 0 0 0.25 0"/>
<feBlend mode="normal" in2="BackgroundImageFix" result="effect1_dropShadow_1_102"/>
<feColorMatrix in="SourceAlpha" type="matrix" values="0 0 0 0 0 0 0 0 0 0 0 0 0 0 0 0 0 0 127 0" result="hardAlpha"/>
<feOffset dy="4"/>
<feGaussianBlur stdDeviation="2"/>
<feComposite in2="hardAlpha" operator="out"/>
<feColorMatrix type="matrix" values="0 0 0 0 0 0 0 0 0 0 0 0 0 0 0 0 0 0 0.25 0"/>
<feBlend mode="normal" in2="effect1_dropShadow_1_102" result="effect2_dropShadow_1_102"/>
<feColorMatrix in="SourceAlpha" type="matrix" values="0 0 0 0 0 0 0 0 0 0 0 0 0 0 0 0 0 0 127 0" result="hardAlpha"/>
<feOffset dy="4"/>
<feGaussianBlur stdDeviation="2"/>
<feComposite in2="hardAlpha" operator="out"/>
<feColorMatrix type="matrix" values="0 0 0 0 0 0 0 0 0 0 0 0 0 0 0 0 0 0 0.25 0"/>
<feBlend mode="normal" in2="effect2_dropShadow_1_102" result="effect3_dropShadow_1_102"/>
<feBlend mode="normal" in="SourceGraphic" in2="effect3_dropShadow_1_102" result="shape"/>
</filter>
</defs>
</svg>
