<svg width="700" height="700" viewBox="0 0 700 700" fill="none" xmlns="http://www.w3.org/2000/svg">
<rect width="700" height="700" fill="white"/>
<path d="M350 191C178.5 191 39.3236 332.248 38 507H662C660.676 332.248 521.5 191 350 191Z" fill="#2F2E41"/>
<path d="M251.5 329C252.328 329 253 328.328 253 327.5C253 326.672 252.328 326 251.5 326C250.672 326 250 326.672 250 327.5C250 328.328 250.672 329 251.5 329Z" fill="#F2F2F2"/>
<path d="M427 387C427.552 387 428 386.776 428 386.5C428 386.224 427.552 386 427 386C426.448 386 426 386.224 426 386.5C426 386.776 426.448 387 427 387Z" fill="#F2F2F2"/>
<path d="M117 372C117.552 372 118 371.328 118 370.5C118 369.672 117.552 369 117 369C116.448 369 116 369.672 116 370.5C116 371.328 116.448 372 117 372Z" fill="#F2F2F2"/>
<path d="M581.5 328C582.328 328 583 327.328 583 326.5C583 325.672 582.328 325 581.5 325C580.672 325 580 325.672 580 326.5C580 327.328 580.672 328 581.5 328Z" fill="#F2F2F2"/>
<path d="M199 341C199.552 341 200 340.328 200 339.5C200 338.672 199.552 338 199 338C198.448 338 198 338.672 198 339.5C198 340.328 198.448 341 199 341Z" fill="#F2F2F2"/>
<path d="M394 316C394.552 316 395 315.328 395 314.5C395 313.672 394.552 313 394 313C393.448 313 393 313.672 393 314.5C393 315.328 393.448 316 394 316Z" fill="#F2F2F2"/>
<path d="M433.5 225C434.328 225 435 224.552 435 224C435 223.448 434.328 223 433.5 223C432.672 223 432 223.448 432 224C432 224.552 432.672 225 433.5 225Z" fill="#F2F2F2"/>
<path d="M186 372H185V373H186V372Z" fill="#F2F2F2"/>
<path d="M221 276H220V277H221V276Z" fill="#F2F2F2"/>
<path d="M307 348H306V349H307V348Z" fill="#F2F2F2"/>
<path d="M534 375H533V376H534V375Z" fill="#F2F2F2"/>
<path d="M463 279H462V280H463V279Z" fill="#F2F2F2"/>
<path d="M195 419H193V506H195V419Z" fill="#3F3D56"/>
<path d="M213.999 404.4C214.13 435.052 194.236 460 194.236 460C194.236 460 174.131 435.252 174.001 404.6C173.87 373.948 193.764 349 193.764 349C193.764 349 213.869 373.748 213.999 404.4Z" fill="#3F3D56"/>
<path d="M169 393H166V506H169V393Z" fill="#3F3D56"/>
<path d="M193.999 381.371C194.172 420.86 167.813 453 167.813 453C167.813 453 141.174 421.117 141.001 381.629C140.828 342.14 167.187 310 167.187 310C167.187 310 193.826 341.883 193.999 381.371Z" fill="#3F3D56"/>
<path d="M145 419H143V506H145V419Z" fill="#3F3D56"/>
<path d="M329 419H328V506H329V419Z" fill="#3F3D56"/>
<path d="M348.999 404.4C349.133 435.052 328.742 460 328.742 460C328.742 460 308.134 435.252 308.001 404.6C307.867 373.948 328.258 349 328.258 349C328.258 349 348.866 373.748 348.999 404.4Z" fill="#3F3D56"/>
<path d="M304 393H301V506H304V393Z" fill="#3F3D56"/>
<path d="M328.999 381.371C329.172 420.86 302.813 453 302.813 453C302.813 453 276.174 421.117 276.001 381.629C275.828 342.14 302.187 310 302.187 310C302.187 310 328.826 341.883 328.999 381.371Z" fill="#3F3D56"/>
<path d="M279 419H278V506H279V419Z" fill="#3F3D56"/>
<path d="M237.414 498.398C238.786 503.093 243.483 506 243.483 506C243.483 506 245.957 501.296 244.586 496.602C243.214 491.907 238.517 489 238.517 489C238.517 489 236.043 493.704 237.414 498.398Z" fill="#3F3D56"/>
<path d="M239.282 497.592C242.595 500.906 243 506 243 506C243 506 238.032 505.721 234.718 502.408C231.405 499.094 231 494 231 494C231 494 235.968 494.279 239.282 497.592Z" fill="#3F3D56"/>
<path d="M406.362 498.398C407.562 503.093 411.673 506 411.673 506C411.673 506 413.838 501.296 412.638 496.602C411.438 491.907 407.327 489 407.327 489C407.327 489 405.162 493.704 406.362 498.398Z" fill="#6D4AF2"/>
<path d="M408.282 497.592C411.595 500.906 412 506 412 506C412 506 407.032 505.721 403.718 502.408C400.405 499.094 400 494 400 494C400 494 404.968 494.279 408.282 497.592Z" fill="#6D4AF2"/>
<path d="M105.311 498.398C106.339 503.093 109.862 506 109.862 506C109.862 506 111.718 501.296 110.689 496.602C109.661 491.907 106.138 489 106.138 489C106.138 489 104.282 493.704 105.311 498.398Z" fill="#3F3D56"/>
<path d="M106.282 497.592C109.595 500.906 110 506 110 506C110 506 105.032 505.721 101.718 502.408C98.4047 499.094 98 494 98 494C98 494 102.968 494.279 106.282 497.592Z" fill="#3F3D56"/>
<path d="M289 329.563L347.05 421C348.346 415.457 349.001 409.772 349 404.067C348.934 389.188 343.958 375.709 338.875 365.8L336.19 366.496L338.715 365.491C335.723 359.602 332.158 354.049 328.078 348.92C328.078 348.92 326.597 350.709 324.433 353.913C316.806 328.095 301.54 310 301.54 310C296.775 316.091 292.576 322.641 289 329.563Z" fill="#3F3D56"/>
<path d="M306 244.5L380.5 516.5L512 509L331 239L306 244.5Z" fill="#D9D9D9" fill-opacity="0.62"/>
<g filter="url(#filter0_dii_16_1113)">
<path d="M177.088 317H171.904C171.499 317 171.2 316.915 171.008 316.744C170.837 316.552 170.752 316.253 170.752 315.848V300.136H166.048C165.643 300.136 165.344 300.051 165.152 299.88C164.981 299.688 164.896 299.389 164.896 298.984V295.112C164.896 294.707 164.981 294.419 165.152 294.248C165.344 294.056 165.643 293.96 166.048 293.96H182.944C183.349 293.96 183.637 294.056 183.808 294.248C184 294.419 184.096 294.707 184.096 295.112V298.984C184.096 299.389 184 299.688 183.808 299.88C183.637 300.051 183.349 300.136 182.944 300.136H178.24V315.848C178.24 316.253 178.144 316.552 177.952 316.744C177.781 316.915 177.493 317 177.088 317ZM194.279 300.68L192.775 305.544H197.799L196.295 300.68C196.209 300.488 196.113 300.349 196.007 300.264C195.921 300.179 195.815 300.136 195.687 300.136H194.887C194.759 300.136 194.641 300.179 194.535 300.264C194.449 300.349 194.364 300.488 194.279 300.68ZM192.455 315.848C192.455 316.253 192.359 316.552 192.167 316.744C191.996 316.915 191.708 317 191.303 317H186.599C186.193 317 185.895 316.915 185.703 316.744C185.532 316.552 185.447 316.253 185.447 315.848V307.4C185.447 306.76 185.543 306.024 185.735 305.192C185.948 304.36 186.268 303.389 186.695 302.28L189.479 295.016C189.607 294.653 189.799 294.387 190.055 294.216C190.332 294.045 190.684 293.96 191.111 293.96H199.719C200.124 293.96 200.455 294.045 200.711 294.216C200.988 294.387 201.191 294.653 201.319 295.016L204.103 302.28C204.529 303.389 204.839 304.36 205.031 305.192C205.244 306.024 205.351 306.76 205.351 307.4V315.848C205.351 316.253 205.255 316.552 205.063 316.744C204.892 316.915 204.604 317 204.199 317H199.367C198.94 317 198.62 316.915 198.407 316.744C198.215 316.552 198.119 316.253 198.119 315.848V311.368H192.455V315.848ZM226.742 317H210.454C210.048 317 209.75 316.915 209.558 316.744C209.387 316.552 209.302 316.253 209.302 315.848V295.112C209.302 294.707 209.387 294.419 209.558 294.248C209.75 294.056 210.048 293.96 210.454 293.96H215.414C215.819 293.96 216.107 294.056 216.278 294.248C216.47 294.419 216.566 294.707 216.566 295.112V310.952H220.95V305.768C220.95 305.363 221.035 305.075 221.206 304.904C221.398 304.712 221.696 304.616 222.102 304.616H226.742C227.147 304.616 227.435 304.712 227.606 304.904C227.798 305.075 227.894 305.363 227.894 305.768V315.848C227.894 316.253 227.798 316.552 227.606 316.744C227.435 316.915 227.147 317 226.742 317ZM247.552 317H232.704C232.298 317 232 316.915 231.808 316.744C231.637 316.552 231.552 316.253 231.552 315.848V295.112C231.552 294.707 231.637 294.419 231.808 294.248C232 294.056 232.298 293.96 232.704 293.96H247.552C247.957 293.96 248.245 294.056 248.416 294.248C248.608 294.419 248.704 294.707 248.704 295.112V298.856C248.704 299.261 248.608 299.56 248.416 299.752C248.245 299.923 247.957 300.008 247.552 300.008H238.72V302.472H244.96C245.365 302.472 245.653 302.568 245.824 302.76C246.016 302.931 246.112 303.219 246.112 303.624V307.048C246.112 307.453 246.016 307.752 245.824 307.944C245.653 308.115 245.365 308.2 244.96 308.2H238.72V310.952H247.552C247.957 310.952 248.245 311.048 248.416 311.24C248.608 311.411 248.704 311.699 248.704 312.104V315.848C248.704 316.253 248.608 316.552 248.416 316.744C248.245 316.915 247.957 317 247.552 317ZM258.441 317H253.641C253.236 317 252.937 316.915 252.745 316.744C252.575 316.552 252.489 316.253 252.489 315.848V295.112C252.489 294.707 252.575 294.419 252.745 294.248C252.937 294.056 253.236 293.96 253.641 293.96H256.969C257.375 293.96 257.716 294.024 257.993 294.152C258.292 294.28 258.58 294.504 258.857 294.824L265.065 301.928V295.112C265.065 294.707 265.151 294.419 265.321 294.248C265.513 294.056 265.812 293.96 266.217 293.96H271.017C271.423 293.96 271.711 294.056 271.881 294.248C272.073 294.419 272.169 294.707 272.169 295.112V315.848C272.169 316.253 272.073 316.552 271.881 316.744C271.711 316.915 271.423 317 271.017 317H266.217C265.812 317 265.513 316.915 265.321 316.744C265.151 316.552 265.065 316.253 265.065 315.848V311.912L259.593 305.288V315.848C259.593 316.253 259.497 316.552 259.305 316.744C259.135 316.915 258.847 317 258.441 317ZM287.463 317H282.279C281.874 317 281.575 316.915 281.383 316.744C281.212 316.552 281.127 316.253 281.127 315.848V300.136H276.423C276.018 300.136 275.719 300.051 275.527 299.88C275.356 299.688 275.271 299.389 275.271 298.984V295.112C275.271 294.707 275.356 294.419 275.527 294.248C275.719 294.056 276.018 293.96 276.423 293.96H293.319C293.724 293.96 294.012 294.056 294.183 294.248C294.375 294.419 294.471 294.707 294.471 295.112V298.984C294.471 299.389 294.375 299.688 294.183 299.88C294.012 300.051 293.724 300.136 293.319 300.136H288.615V315.848C288.615 316.253 288.519 316.552 288.327 316.744C288.156 316.915 287.868 317 287.463 317Z" fill="white"/>
</g>
<g filter="url(#filter1_dii_16_1113)">
<path d="M426.32 318H421.36C420.955 318 420.656 317.915 420.464 317.744C420.293 317.552 420.208 317.253 420.208 316.848V296.112C420.208 295.707 420.293 295.419 420.464 295.248C420.656 295.056 420.955 294.96 421.36 294.96H435.632C436.037 294.96 436.325 295.056 436.496 295.248C436.688 295.419 436.784 295.707 436.784 296.112V299.92C436.784 300.325 436.688 300.624 436.496 300.816C436.325 300.987 436.037 301.072 435.632 301.072H427.472V304.4H433.04C433.445 304.4 433.733 304.496 433.904 304.688C434.096 304.859 434.192 305.147 434.192 305.552V309.392C434.192 309.797 434.096 310.096 433.904 310.288C433.733 310.459 433.445 310.544 433.04 310.544H427.472V316.848C427.472 317.253 427.376 317.552 427.184 317.744C427.013 317.915 426.725 318 426.32 318ZM455.989 318H441.141C440.736 318 440.437 317.915 440.245 317.744C440.075 317.552 439.989 317.253 439.989 316.848V296.112C439.989 295.707 440.075 295.419 440.245 295.248C440.437 295.056 440.736 294.96 441.141 294.96H455.989C456.395 294.96 456.683 295.056 456.853 295.248C457.045 295.419 457.141 295.707 457.141 296.112V299.856C457.141 300.261 457.045 300.56 456.853 300.752C456.683 300.923 456.395 301.008 455.989 301.008H447.157V303.472H453.397C453.803 303.472 454.091 303.568 454.261 303.76C454.453 303.931 454.549 304.219 454.549 304.624V308.048C454.549 308.453 454.453 308.752 454.261 308.944C454.091 309.115 453.803 309.2 453.397 309.2H447.157V311.952H455.989C456.395 311.952 456.683 312.048 456.853 312.24C457.045 312.411 457.141 312.699 457.141 313.104V316.848C457.141 317.253 457.045 317.552 456.853 317.744C456.683 317.915 456.395 318 455.989 318ZM471.615 318H461.503C461.097 318 460.799 317.915 460.607 317.744C460.436 317.552 460.351 317.253 460.351 316.848V313.104C460.351 312.699 460.436 312.411 460.607 312.24C460.799 312.048 461.097 311.952 461.503 311.952H470.111C470.388 311.952 470.591 311.867 470.719 311.696C470.868 311.504 470.943 311.28 470.943 311.024C470.943 310.661 470.868 310.395 470.719 310.224C470.591 310.053 470.388 309.957 470.111 309.936L465.311 309.264C463.817 309.051 462.612 308.56 461.695 307.792C460.799 307.024 460.351 305.744 460.351 303.952V300.592C460.351 298.779 460.937 297.392 462.111 296.432C463.284 295.451 464.905 294.96 466.975 294.96H475.935C476.34 294.96 476.628 295.056 476.799 295.248C476.991 295.419 477.087 295.707 477.087 296.112V299.92C477.087 300.325 476.991 300.624 476.799 300.816C476.628 300.987 476.34 301.072 475.935 301.072H468.479C468.201 301.072 467.988 301.168 467.839 301.36C467.689 301.531 467.615 301.755 467.615 302.032C467.615 302.309 467.689 302.544 467.839 302.736C467.988 302.928 468.201 303.035 468.479 303.056L473.247 303.696C474.74 303.909 475.945 304.4 476.863 305.168C477.78 305.936 478.239 307.216 478.239 309.008V312.368C478.239 314.181 477.641 315.579 476.447 316.56C475.273 317.52 473.663 318 471.615 318ZM492.307 318H487.123C486.717 318 486.419 317.915 486.227 317.744C486.056 317.552 485.971 317.253 485.971 316.848V301.136H481.267C480.861 301.136 480.563 301.051 480.371 300.88C480.2 300.688 480.115 300.389 480.115 299.984V296.112C480.115 295.707 480.2 295.419 480.371 295.248C480.563 295.056 480.861 294.96 481.267 294.96H498.163C498.568 294.96 498.856 295.056 499.027 295.248C499.219 295.419 499.315 295.707 499.315 296.112V299.984C499.315 300.389 499.219 300.688 499.027 300.88C498.856 301.051 498.568 301.136 498.163 301.136H493.459V316.848C493.459 317.253 493.363 317.552 493.171 317.744C493 317.915 492.712 318 492.307 318Z" fill="white"/>
</g>
<g clip-path="url(#clip0_16_1113)">
<path d="M491.497 428.895C491.003 427.651 491.709 427.029 491.991 425.923C492.273 424.817 491.356 421.361 491.356 421.361C491.356 421.361 488.394 409.405 487.477 407.055C487.089 406.061 486.247 405.377 485.404 404.917C485.346 404.612 485.264 404.416 485.15 404.36C484.333 403.959 482.298 403.09 480.942 402.849C480.688 402.422 480.388 402.023 480.045 401.661C480.283 401.213 480.393 400.71 480.365 400.206C480.278 398.902 479.27 397.734 479.402 396.433C479.501 395.447 480.237 394.637 480.521 393.686C480.64 393.259 480.668 392.812 480.603 392.374C480.539 391.935 480.383 391.515 480.146 391.138C480.355 391.356 480.563 391.573 480.772 391.79C481.056 391.374 481.192 390.877 481.161 390.377C481.129 389.877 480.931 389.401 480.597 389.021C479.937 388.306 478.832 388.038 478.32 387.215C477.793 386.368 478.076 385.218 477.578 384.356C476.358 382.242 473.235 383.74 471.364 383.003C470.595 382.7 470.011 382.366 469.146 382.39C468.411 382.431 467.684 382.564 466.982 382.786C465.977 383.071 465.102 383.686 464.503 384.528C464.562 384.462 464.627 384.401 464.697 384.346C465.15 383.998 465.945 384.027 466.184 384.54C466.241 384.669 466.265 384.81 466.254 384.95C466.215 385.569 465.663 386.031 465.115 386.341C464.567 386.651 463.95 386.91 463.593 387.421C463.002 388.265 463.349 389.398 463.35 390.421C463.345 391.071 463.191 391.712 462.9 392.296C462.609 392.881 462.188 393.394 461.668 393.798L463.658 393C462.708 394.63 462.084 396.423 461.82 398.282L464.511 396.103C463.514 397.658 462.909 399.422 462.744 401.25L464.903 399.082C465.002 399.251 465.051 399.444 465.046 399.638L464.821 400.49C464.741 400.659 464.653 400.824 464.556 400.984C464.209 401.569 463.849 402.288 464.175 402.886L464.176 402.885C463.834 404.013 463.318 405.142 462.17 405.69C463.443 405.821 464.772 405.197 465.347 404.204C465.441 404.382 465.555 404.55 465.685 404.705C465.722 404.751 465.759 404.796 465.795 404.841L465.478 405.048L464.627 405.604C464.627 405.604 459.056 406.71 459.409 408.783C459.423 408.868 459.441 408.97 459.46 409.084L457.857 411.755L455.53 419.495C455.53 419.495 454.331 421.983 454.542 423.02C454.754 424.057 454.542 424.471 454.542 426.337C454.542 428.203 453.626 428.964 454.542 430.484C455.459 432.005 458.21 436.428 458.21 436.428L458.814 436.872C458.784 437.139 458.795 437.408 458.844 437.672C459.409 440.436 464.698 466.906 464.698 466.906C464.698 466.906 462.018 487.847 467.448 489.16C468.129 489.325 468.798 489.475 469.448 489.608L470.269 494.897L469.776 501.601C469.776 501.601 466.038 509.894 472.879 510.378C479.72 510.862 476.616 503.19 476.616 503.19C476.978 502.535 477.125 501.788 477.04 501.048C476.97 500.433 476.383 497.231 475.807 494.152C478.403 493.847 477.917 491.147 477.571 489.959C477.721 489.874 477.833 489.737 477.886 489.575C477.964 489.299 477.782 488.215 477.452 486.695C477.183 485.184 476.724 482.738 476.41 481.082L478.097 481.351L485.22 440.436C485.22 440.436 485.267 439.785 485.246 438.832C486.22 438.339 487.224 437.905 488.253 437.534C490.58 436.635 491.497 433.318 492.273 431.936C493.049 430.553 491.991 430.139 491.497 428.895ZM466.207 402.844C466.437 402.689 466.707 402.599 466.987 402.585C466.927 402.906 466.363 403 465.89 403.169C465.976 403.044 466.084 402.935 466.207 402.844ZM462.653 423.435C463.224 424.355 462.19 426.847 461.257 428.826C460.723 428.374 460.166 428.517 460.819 427.236C461.265 426.424 461.529 425.529 461.595 424.61C461.595 424.452 461.678 423.29 462.372 422.808C462.446 423.025 462.539 423.235 462.653 423.435ZM460.512 431.374C460.836 431.245 461.325 431.047 461.987 430.827C461.67 431.234 461.308 431.72 460.944 432.25C460.807 432.148 460.696 432.015 460.621 431.863C460.546 431.711 460.509 431.543 460.512 431.374ZM483.387 432.281C482.958 431.835 482.612 431.435 482.326 431.078C482.858 431.215 483.4 431.363 483.951 431.521C484.226 431.561 484.506 431.543 484.773 431.467C484.797 431.945 484.797 432.627 484.797 432.627L484.025 433.151C483.849 432.837 483.634 432.545 483.387 432.281ZM485.575 429.884C485.567 429.891 485.558 429.899 485.55 429.907C485.512 429.633 485.449 429.364 485.361 429.102C484.899 427.673 484.652 425.139 484.521 422.976L485.855 427.374C485.855 427.374 485.926 429.586 485.575 429.884Z" fill="#D0CDE1" fill-opacity="0.67"/>
<path d="M458.181 411.719C458.181 411.719 450.946 399.532 450.719 398.202C450.493 396.873 446.876 394.436 446.876 394.436C445.64 393.224 443.612 392.841 441.477 392.861C442.281 392.209 439.412 391.771 439.188 391.334C438.962 390.89 438.284 390.89 437.379 390.226C436.475 389.561 434.218 390.115 434.217 390.115C433.878 389.415 433.642 388.672 433.516 387.907C434.479 386.789 435.007 385.373 435.005 383.911C435.005 383.895 435.004 383.879 435.004 383.863C435.062 383.951 435.119 384.039 435.177 384.13C435.6 381.644 436.348 379.577 434.923 377.309C433.913 375.702 432.332 374.517 430.484 373.984L429.127 375.048L429.654 373.807C429.211 373.74 428.761 373.715 428.313 373.731L427.092 375.269L427.597 373.783C426.538 373.912 425.517 374.255 424.599 374.79C423.681 375.325 422.887 376.04 422.265 376.891C420.711 379.088 420.815 382.14 422.344 384.354C422.349 384.338 422.353 384.323 422.358 384.308C422.425 385.343 422.757 386.345 423.322 387.223C423.887 388.1 424.668 388.825 425.593 389.33L425.977 392.34C425.631 392.655 425.188 392.846 424.718 392.885C424.039 392.885 423.361 394.657 423.361 394.657C423.361 394.657 422.977 394.847 422.562 395.745C421.495 396.457 418.239 398.694 417.031 400.257C416.317 400.601 415.549 401.368 415.674 403.077C415.9 406.179 415.674 420.582 415.674 420.582C415.674 420.582 413.639 432.768 414.317 433.655C414.995 434.541 414.091 437.422 414.091 437.422L414.769 437.569V438.308C414.769 438.308 412.729 447.576 415.9 447.171C421.1 446.506 417.256 438.973 417.256 438.973V438.111L418.161 438.308C418.161 438.308 418.613 435.206 419.517 434.984C419.832 434.907 420.201 434.079 420.549 433.032C420.752 434.665 420.874 435.649 420.874 435.649L422.289 435.341L422.683 436.757C422.78 436.81 422.882 436.855 422.987 436.892L422.683 438.529C422.683 438.529 422.457 440.302 422.683 441.41C422.797 441.969 426.994 453.911 431.127 465.613L431.049 468.442C431.049 468.442 429.014 470.658 429.466 472.209C429.918 473.76 428.335 486.612 428.335 486.612L426.979 493.037L427.32 493.14L427.007 494.266C426.737 494.4 426.497 494.585 426.3 494.81C424.492 496.804 422.231 502.565 422.231 502.565C422.231 502.565 418.161 508.548 424.492 508.326C430.822 508.105 431.275 505.889 431.275 505.889C431.275 505.889 432.179 500.128 432.179 499.906C432.179 499.685 431.727 497.407 431.727 497.407L431.551 497.217L431.674 494.453L432.857 494.81C432.857 494.81 433.988 489.049 434.892 488.384C435.208 488.152 436.049 485.564 437.009 482.24C437.991 485.009 438.941 494.585 439.25 495.454C439.14 495.6 439.044 495.755 438.962 495.918C437.946 497.829 436.813 499.679 435.571 501.457C435.571 501.457 428.335 505.667 435.571 506.775C435.571 506.775 439.64 506.997 441.675 505.667C443.71 504.338 449.137 502.344 449.137 501.9C449.137 501.457 447.78 494.943 446.424 495.652L445.515 493.604L446.424 493.259L440.699 468.079C440.835 467.542 440.934 466.997 440.997 466.448C440.997 465.288 443.925 442.694 444.67 436.963C447.949 437.874 450.946 431.217 450.946 431.217L451.689 429.906L452.754 430.553C452.754 430.553 453.659 428.337 455.015 428.115C456.372 427.894 458.859 416.15 458.859 414.599C458.838 413.603 458.608 412.623 458.181 411.719ZM447.646 429.079C447.424 428.733 447.166 428.41 446.876 428.115C447.467 426.606 447.921 425.049 448.232 423.462C448.685 421.025 447.554 413.048 447.554 413.048L447.534 412.506C448.644 413.934 450.041 415.837 450.041 416.372C450.041 416.63 450.102 416.884 450.22 417.115C450.338 417.346 450.509 417.546 450.719 417.701L449.363 422.354C449.363 422.354 448.458 424.57 448.232 425.678C448.097 426.335 448.021 427.002 448.006 427.672L448.327 427.867L447.646 429.079Z" fill="#D0CDE1" fill-opacity="0.67"/>
<path d="M354.67 415.82L355.876 415.554L350.902 401.816L340.162 397.938C340.162 397.938 340.121 397.983 340.045 398.06C339.129 397.191 338.74 395.931 338.578 394.938C339.441 394.596 340.218 394.072 340.85 393.402C341.483 392.732 341.958 391.934 342.24 391.064C342.521 390.194 342.604 389.274 342.481 388.369C342.358 387.464 342.033 386.597 341.528 385.829C342.413 385.621 342.729 384.835 343.026 383.896C342.843 383.843 342.655 383.803 342.465 383.777C342.604 383.471 342.744 383.165 342.883 382.859C342.638 382.838 342.394 382.816 342.149 382.794C342.211 382.509 342.274 382.223 342.337 381.937C342.025 382.148 341.713 382.359 341.401 382.57C341.507 382.27 341.533 381.948 341.477 381.635C341.422 381.322 341.286 381.028 341.082 380.781C340.668 380.291 340.128 379.917 339.517 379.7C338.323 379.239 337.022 379.11 335.758 379.327C334.494 379.543 333.316 380.097 332.352 380.927L332.284 380.669C330.375 382.107 329.126 384.228 328.811 386.567C328.511 388.88 329.645 391.234 331.118 393.064C331.106 392.984 331.092 392.904 331.079 392.825C331.143 392.911 331.208 392.995 331.276 393.078L331.457 399.822L331.004 400.203C331.003 400.203 323.394 403.577 323.097 407.607L323.096 407.609C322.639 409.571 322.413 419.764 322.413 419.764H323.039L322.413 423.752L318.343 439.262C318.343 439.262 313.143 445.91 317.665 447.239C320.475 448.065 321.277 444.87 321.481 442.333C321.644 442.962 322.131 443.387 323.091 443.472C323.167 443.479 323.248 443.485 323.326 443.491C321.188 448.906 322.639 466.516 322.639 466.516C321.509 468.732 334.849 484.021 334.849 484.021L335.652 483.601L335.826 483.942C335.379 483.984 335.075 484.021 335.075 484.021V490.89C335.075 490.89 333.04 497.759 335.753 499.088C336.455 499.432 337.188 499.182 337.888 498.623C337.754 500.743 337.562 503.906 337.562 504.628C337.562 505.736 340.501 507.73 340.501 507.73C340.501 507.73 341.18 510.167 346.606 510.167C352.033 510.167 347.963 503.741 347.963 503.741L345.023 497.316C345.023 497.316 344.804 497.421 344.138 496.89L344.376 494.32L345.702 494.435L347.511 468.511C347.511 468.511 349.093 445.467 349.319 441.921C349.372 440.785 349.345 439.646 349.238 438.513L355.876 425.082L354.67 415.82ZM349.772 424.417L349.093 426.733V421.61L349.772 424.417ZM321.544 440.849C321.55 440.037 321.509 439.484 321.509 439.484L325.929 430.82L325.805 433.501C325.805 433.501 322.265 437.89 321.544 440.849ZM331.909 465.852L336.205 451.006L338.693 468.954L338.514 475.479C338.211 474.879 337.968 474.252 337.788 473.607C337.11 470.948 331.909 465.852 331.909 465.852Z" fill="#D0CDE1" fill-opacity="0.67"/>
<path d="M393.096 501.117C390.977 500.262 386.865 498.43 386.367 497.453C385.868 496.476 383.376 488.905 383.376 488.905L382.734 488.95C382.651 485.511 382.298 472.18 381.756 470.586C381.756 470.586 384.373 449.459 379.139 441.032L378.196 437.299C378.505 435.802 378.465 432.336 378.266 431.751C378.017 431.018 381.133 428.698 380.26 427.233C379.388 425.767 377.02 420.76 377.02 420.76C377.02 420.76 377.269 417.585 373.905 414.654C373.905 414.654 372.922 409.199 368.491 409.118C367.892 408.093 367.053 406.464 367.3 405.739C367.564 404.962 368.574 402.542 369.145 401.186C369.448 401.052 369.739 400.894 370.015 400.712C373.538 399.165 376.022 395.445 376.022 391.1C376.022 386.449 373.177 382.513 369.255 381.193C369.43 380.741 369.501 380.258 369.464 379.777C369.428 379.296 369.283 378.828 369.042 378.408C368.801 377.987 368.468 377.624 368.067 377.343C367.667 377.062 367.208 376.871 366.724 376.783C366.24 376.695 365.742 376.712 365.265 376.834C364.789 376.955 364.345 377.177 363.966 377.485C363.587 377.793 363.281 378.179 363.07 378.615C362.86 379.051 362.75 379.527 362.748 380.01C362.532 379.509 362.446 378.964 362.498 378.422C362.55 377.881 362.738 377.361 363.045 376.908C363.352 376.455 363.769 376.083 364.258 375.827C364.747 375.57 365.293 375.436 365.848 375.437C366.067 375.437 366.284 375.458 366.499 375.5C365.76 375.156 364.918 375.087 364.132 375.307C363.345 375.527 362.667 376.021 362.226 376.696C361.784 377.371 361.608 378.18 361.732 378.973C361.855 379.765 362.27 380.486 362.897 381.001C362.936 381.122 362.982 381.24 363.034 381.355C359.344 382.815 356.712 386.627 356.712 391.1C356.712 395.25 358.977 398.829 362.251 400.491C362.233 401.841 361.892 404.116 359.992 405.503C359.011 405.064 357.649 404.582 356.775 404.8C356.323 404.455 355.641 404.341 354.714 405.25C352.844 407.082 351.224 411.845 351.224 414.776C351.224 417.707 351.598 434.682 351.598 434.682C351.598 434.682 349.604 435.415 350.975 436.514C351.258 436.745 351.613 436.874 351.982 436.881L353.343 446.772C353.343 446.772 352.471 456.298 355.835 456.42C356.099 456.434 356.361 456.371 356.588 456.239L354.091 467.289C354.091 467.289 348.358 470.953 343.872 478.158C341.561 481.869 340.409 484.152 339.834 485.496L339.012 484.997L336.146 490.37C336.146 490.37 329.79 494.156 331.161 496.965C332.532 499.774 333.778 500.506 333.778 500.506L334.65 500.14L336.27 503.071C336.27 503.071 340.507 509.055 347.361 506.002C347.683 505.578 347.857 505.065 347.857 504.537C347.857 504.009 347.683 503.495 347.361 503.071C346.24 501.483 343.373 498.064 343.373 498.064L345.243 488.783L344.856 488.548L356.708 474.494C356.708 474.494 360.197 472.418 361.443 470.586C362.689 468.754 370.416 449.825 370.416 449.825L374.777 469.609C374.777 469.609 374.528 476.815 375.649 481.455C376.261 484.058 376.659 486.705 376.842 489.37L376.522 489.393L377.269 494.889C377.269 494.889 374.029 502.705 376.273 503.315C377.868 503.719 379.493 504.005 381.133 504.17L381.382 503.315C381.382 503.315 390.977 508.444 394.467 504.659C394.467 504.659 395.214 501.972 393.096 501.117ZM358.951 441.155C359.325 441.521 359.2 443.231 359.2 443.231L358.452 447.993L357.705 451.297C357.602 449.736 357.394 448.184 357.081 446.65L356.736 437.523C356.804 437.565 356.879 437.595 356.957 437.613C357.206 437.613 357.081 435.537 357.081 435.537C357.081 435.537 357.227 435.166 357.408 434.581C357.893 436.002 358.484 436.93 359.2 437.125L359.325 438.712C359.325 438.712 357.704 439.445 359.2 439.445C359.287 439.442 359.373 439.429 359.457 439.407L359.325 440.055C359.325 440.055 358.577 440.788 358.951 441.155Z" fill="#D0CDE1" fill-opacity="0.67"/>
<path d="M390.966 506.806C446.291 506.806 491.141 506.082 491.141 505.188C491.141 504.294 446.291 503.57 390.966 503.57C335.641 503.57 290.791 504.294 290.791 505.188C290.791 506.082 335.641 506.806 390.966 506.806Z" fill="#3F3D56"/>
<path d="M426.026 513.548C486.884 513.548 536.218 511.677 536.218 509.368C536.218 507.059 486.884 505.188 426.026 505.188C365.169 505.188 315.835 507.059 315.835 509.368C315.835 511.677 365.169 513.548 426.026 513.548Z" fill="#3F3D56"/>
<path d="M405.689 519.752C435.556 519.752 459.767 517.88 459.767 515.571C459.767 513.263 435.556 511.391 405.689 511.391C375.823 511.391 351.612 513.263 351.612 515.571C351.612 517.88 375.823 519.752 405.689 519.752Z" fill="#3F3D56"/>
<path d="M483.848 522.718C497.147 522.718 507.928 521.752 507.928 520.561C507.928 519.369 497.147 518.403 483.848 518.403C470.549 518.403 459.767 519.369 459.767 520.561C459.767 521.752 470.549 522.718 483.848 522.718Z" fill="#3F3D56"/>
<path d="M450.823 530C457.131 530 462.244 529.034 462.244 527.842C462.244 526.651 457.131 525.685 450.823 525.685C444.515 525.685 439.402 526.651 439.402 527.842C439.402 529.034 444.515 530 450.823 530Z" fill="#3F3D56"/>
<path d="M357.804 520.83C364.111 520.83 369.225 519.864 369.225 518.673C369.225 517.481 364.111 516.515 357.804 516.515C351.496 516.515 346.383 517.481 346.383 518.673C346.383 519.864 351.496 520.83 357.804 520.83Z" fill="#3F3D56"/>
<path d="M414.221 494.265L415.322 501.817L420.826 501.277L420.275 493.456L414.221 494.265Z" fill="#FFB8B8"/>
<path d="M388.076 494.265L386.976 501.817L381.471 501.277L382.022 493.456L388.076 494.265Z" fill="#FFB8B8"/>
<path d="M380.095 416.053C380.095 416.053 375.142 421.717 376.242 430.617C377.343 439.517 379.27 459.744 379.27 459.744L380.646 495.614L389.452 495.074L390.828 464.599L395.232 440.056L407.065 468.644C407.065 468.644 412.845 495.344 413.12 495.344C413.395 495.344 421.376 494.535 421.376 494.535L417.523 462.98C417.523 462.98 411.469 417.132 407.891 416.323C404.313 415.514 380.095 416.053 380.095 416.053Z" fill="#2F2E41"/>
<path d="M421.376 500.198C421.376 500.198 416.423 496.962 414.496 500.738C412.57 504.514 414.221 507.211 414.221 507.211C414.221 507.211 415.872 508.289 415.047 509.368C414.221 510.447 413.946 517.459 421.101 516.38C428.256 515.302 424.679 508.02 424.679 508.02L421.376 500.198Z" fill="#2F2E41"/>
<path d="M380.921 500.198C380.921 500.198 385.875 496.962 387.801 500.738C389.728 504.514 388.076 507.211 388.076 507.211C388.076 507.211 386.425 508.289 387.251 509.368C388.076 510.447 388.352 517.459 381.196 516.38C374.041 515.302 377.619 508.02 377.619 508.02L380.921 500.198Z" fill="#2F2E41"/>
<path d="M386.838 363.597C386.838 363.597 389.315 370.34 387.388 374.115C385.462 377.891 390.416 382.206 390.416 382.206C390.416 382.206 403.35 375.733 401.699 372.497C400.048 369.261 397.296 364.946 397.846 362.249L386.838 363.597Z" fill="#FFB8B8"/>
<path d="M391.654 366.159C396.518 366.159 400.461 362.295 400.461 357.529C400.461 352.762 396.518 348.899 391.654 348.899C386.79 348.899 382.847 352.762 382.847 357.529C382.847 362.295 386.79 366.159 391.654 366.159Z" fill="#FFB8B8"/>
<path d="M385.324 373.711C385.324 373.711 394.161 380.917 400.751 370.706L407.616 374.52L411.194 415.514C411.194 415.514 391.104 426.841 381.471 417.132L382.847 379.105L385.324 373.711Z" fill="#D0CDE1"/>
<path d="M388.099 369.674L375.692 377.756L380.095 397.714L374.316 428.729L383.673 414.974L388.099 369.674Z" fill="#575A89"/>
<path d="M399.065 367.424L402.112 369.396L414.496 373.711L412.57 407.153L417.799 428.729L410.368 432.505C410.368 432.505 408.992 422.256 400.461 417.132C391.929 412.008 397.118 368.959 399.065 367.424Z" fill="#575A89"/>
<path d="M378.444 419.829L382.022 422.256C382.022 422.256 377.481 426.976 376.655 426.167C376.416 425.942 376.231 425.668 376.112 425.365C375.993 425.062 375.944 424.737 375.967 424.414L375.142 422.526L378.444 419.829Z" fill="#FFB8B8"/>
<path d="M402.227 419.304L401.011 421.177C401.011 421.177 397.433 422.796 398.259 423.874C399.085 424.953 405.965 427.38 407.341 424.953L408.717 422.526L402.227 419.304Z" fill="#FFB8B8"/>
<path d="M377.343 377.486L375.417 377.756L372.252 397.849C372.252 397.849 371.014 401.489 372.39 410.12C373.766 418.75 375.128 424.37 375.128 424.37L381.196 420.099L378.444 413.086L382.022 387.465L377.343 377.486Z" fill="#575A89"/>
<path d="M410.093 373.171L414.496 373.711C414.496 373.711 419.45 378.835 420.275 384.229C421.101 389.623 420.826 404.995 420.826 404.995L408.166 424.683L401.286 419.829L410.918 403.108L406.24 383.15L410.093 373.171Z" fill="#575A89"/>
<path d="M400.052 349.723C398.72 347.604 396.636 346.042 394.2 345.339L392.41 346.742L393.106 345.105C392.521 345.018 391.929 344.984 391.337 345.005L389.727 347.034L390.394 345.075C388.997 345.245 387.651 345.697 386.441 346.402C385.231 347.107 384.184 348.051 383.364 349.172C381.315 352.068 380.97 356.094 382.985 359.012C383.538 357.346 384.21 355.783 384.763 354.117C385.198 354.175 385.638 354.177 386.074 354.123L386.747 352.584L386.935 354.058C389.021 353.88 392.115 353.489 394.093 353.13L393.901 352L395.051 352.939C395.657 352.803 396.017 352.679 395.987 352.584C397.458 354.908 398.916 356.392 400.386 358.716C400.945 355.438 401.93 352.713 400.052 349.723Z" fill="#2F2E41"/>
<path d="M399.564 358.426C399.893 358.426 400.16 357.903 400.16 357.258C400.16 356.612 399.893 356.089 399.564 356.089C399.235 356.089 398.968 356.612 398.968 357.258C398.968 357.903 399.235 358.426 399.564 358.426Z" fill="#FFB8B8"/>
<path d="M494.82 509.794C495.073 518.306 489.999 521.425 483.63 521.607C483.482 521.611 483.335 521.614 483.188 521.615C482.893 521.617 482.601 521.612 482.311 521.6C476.551 521.366 471.992 518.37 471.756 510.454C471.512 502.263 481.887 491.62 482.666 490.833L482.667 490.832C482.697 490.802 482.712 490.787 482.712 490.787C482.712 490.787 494.566 501.284 494.82 509.794Z" fill="#645CBB"/>
<path d="M483.172 520.317L487.217 514.421L483.18 520.951L483.188 521.615C482.893 521.617 482.601 521.612 482.311 521.6L482.512 513.073L482.506 513.007L482.514 512.994L482.533 512.188L478.103 505.885L482.528 511.585L482.543 511.756L482.695 505.313L478.868 498.777L482.706 504.181L482.666 490.833L482.666 490.788L482.667 490.832L482.921 501.352L486.409 497.079L482.933 502.258L483.009 508.021L486.218 502.397L483.02 508.869L483.063 512.073L487.73 504.238L483.077 513.191L483.172 520.317Z" fill="#3F3D56"/>
<path d="M347.309 497.119C347.563 505.63 342.489 508.749 336.12 508.931C335.972 508.935 335.825 508.938 335.678 508.939C335.383 508.941 335.09 508.936 334.801 508.925C329.041 508.69 324.482 505.694 324.246 497.779C324.002 489.587 334.377 478.944 335.155 478.157L335.157 478.156C335.186 478.126 335.202 478.111 335.202 478.111C335.202 478.111 347.056 488.608 347.309 497.119Z" fill="#645CBB"/>
<path d="M335.661 507.641L339.707 501.746L335.67 508.276L335.678 508.939C335.383 508.941 335.09 508.936 334.801 508.925L335.001 500.397L334.996 500.331L335.003 500.318L335.023 499.513L330.592 493.209L335.017 498.909L335.033 499.08L335.185 492.637L331.358 486.102L335.195 491.505L335.155 478.157L335.156 478.112L335.157 478.156L335.411 488.676L338.898 484.403L335.422 489.583L335.498 495.346L338.708 489.721L335.51 496.193L335.553 499.397L340.22 491.563L335.567 500.515L335.661 507.641Z" fill="#3F3D56"/>
<path d="M457.534 521.793C457.683 526.789 454.704 528.62 450.966 528.727C450.879 528.73 450.793 528.731 450.707 528.732C450.534 528.733 450.362 528.73 450.192 528.723C446.811 528.586 444.135 526.827 443.997 522.181C443.853 517.373 449.943 511.125 450.4 510.663L450.401 510.663C450.418 510.645 450.427 510.636 450.427 510.636C450.427 510.636 457.385 516.798 457.534 521.793Z" fill="#645CBB"/>
<path d="M450.697 527.97L453.072 524.509L450.702 528.342L450.707 528.732C450.534 528.733 450.362 528.73 450.192 528.723L450.31 523.718L450.307 523.679L450.311 523.672L450.322 523.199L447.722 519.499L450.319 522.845L450.328 522.945L450.417 519.163L448.171 515.327L450.424 518.498L450.4 510.663L450.4 510.637L450.401 510.663L450.55 516.838L452.597 514.33L450.557 517.37L450.601 520.753L452.485 517.451L450.608 521.25L450.633 523.131L453.373 518.532L450.642 523.787L450.697 527.97Z" fill="#3F3D56"/>
<path d="M549.976 358.806C549.984 358.781 549.992 358.756 550 358.731C549.997 358.742 549.992 358.752 549.989 358.763L549.976 358.806Z" fill="#2F2E41"/>
<path d="M511.518 501.912L531.902 472.206L511.559 505.108L511.602 508.45C510.114 508.461 508.64 508.437 507.181 508.377L508.192 465.409L508.164 465.078L508.202 465.014L508.298 460.954L485.976 429.192L508.272 457.915L508.351 458.773L509.115 426.309L489.834 393.38L509.17 420.606L508.968 353.349L508.968 353.125L508.975 353.345L510.255 406.353L527.827 384.821L510.312 410.919L510.696 439.958L526.866 411.617L510.755 444.227L510.969 460.374L534.484 420.896L511.04 466.007L511.518 501.912Z" fill="#3F3D56"/>
<path d="M303.381 500.76L317.251 480.546L303.409 502.935L303.438 505.21C302.425 505.217 301.423 505.201 300.43 505.16L301.118 475.922L301.099 475.696L301.124 475.652L301.19 472.89L286 451.277L301.172 470.822L301.226 471.406L301.746 449.315L288.625 426.907L301.783 445.434L301.646 399.668L301.646 399.515L301.65 399.665L302.521 435.735L314.479 421.084L302.56 438.843L302.821 458.602L313.825 439.318L302.862 461.507L303.007 472.495L319.009 445.631L303.056 476.328L303.381 500.76Z" fill="#3F3D56"/>
</g>
<path d="M316 252C325.389 252 333 244.389 333 235C333 225.611 325.389 218 316 218C306.611 218 299 225.611 299 235C299 244.389 306.611 252 316 252Z" fill="#F2F2F2"/>
<defs>
<filter id="filter0_dii_16_1113" x="160.896" y="293.96" width="137.575" height="31.04" filterUnits="userSpaceOnUse" color-interpolation-filters="sRGB">
<feFlood flood-opacity="0" result="BackgroundImageFix"/>
<feColorMatrix in="SourceAlpha" type="matrix" values="0 0 0 0 0 0 0 0 0 0 0 0 0 0 0 0 0 0 127 0" result="hardAlpha"/>
<feOffset dy="4"/>
<feGaussianBlur stdDeviation="2"/>
<feComposite in2="hardAlpha" operator="out"/>
<feColorMatrix type="matrix" values="0 0 0 0 0 0 0 0 0 0 0 0 0 0 0 0 0 0 0.25 0"/>
<feBlend mode="normal" in2="BackgroundImageFix" result="effect1_dropShadow_16_1113"/>
<feBlend mode="normal" in="SourceGraphic" in2="effect1_dropShadow_16_1113" result="shape"/>
<feColorMatrix in="SourceAlpha" type="matrix" values="0 0 0 0 0 0 0 0 0 0 0 0 0 0 0 0 0 0 127 0" result="hardAlpha"/>
<feOffset dy="4"/>
<feGaussianBlur stdDeviation="2"/>
<feComposite in2="hardAlpha" operator="arithmetic" k2="-1" k3="1"/>
<feColorMatrix type="matrix" values="0 0 0 0 0 0 0 0 0 0 0 0 0 0 0 0 0 0 0.25 0"/>
<feBlend mode="normal" in2="shape" result="effect2_innerShadow_16_1113"/>
<feColorMatrix in="SourceAlpha" type="matrix" values="0 0 0 0 0 0 0 0 0 0 0 0 0 0 0 0 0 0 127 0" result="hardAlpha"/>
<feOffset dy="4"/>
<feGaussianBlur stdDeviation="2"/>
<feComposite in2="hardAlpha" operator="arithmetic" k2="-1" k3="1"/>
<feColorMatrix type="matrix" values="0 0 0 0 0 0 0 0 0 0 0 0 0 0 0 0 0 0 0.25 0"/>
<feBlend mode="normal" in2="effect2_innerShadow_16_1113" result="effect3_innerShadow_16_1113"/>
</filter>
<filter id="filter1_dii_16_1113" x="416.208" y="294.96" width="87.1067" height="31.04" filterUnits="userSpaceOnUse" color-interpolation-filters="sRGB">
<feFlood flood-opacity="0" result="BackgroundImageFix"/>
<feColorMatrix in="SourceAlpha" type="matrix" values="0 0 0 0 0 0 0 0 0 0 0 0 0 0 0 0 0 0 127 0" result="hardAlpha"/>
<feOffset dy="4"/>
<feGaussianBlur stdDeviation="2"/>
<feComposite in2="hardAlpha" operator="out"/>
<feColorMatrix type="matrix" values="0 0 0 0 0 0 0 0 0 0 0 0 0 0 0 0 0 0 0.25 0"/>
<feBlend mode="normal" in2="BackgroundImageFix" result="effect1_dropShadow_16_1113"/>
<feBlend mode="normal" in="SourceGraphic" in2="effect1_dropShadow_16_1113" result="shape"/>
<feColorMatrix in="SourceAlpha" type="matrix" values="0 0 0 0 0 0 0 0 0 0 0 0 0 0 0 0 0 0 127 0" result="hardAlpha"/>
<feOffset dy="4"/>
<feGaussianBlur stdDeviation="2"/>
<feComposite in2="hardAlpha" operator="arithmetic" k2="-1" k3="1"/>
<feColorMatrix type="matrix" values="0 0 0 0 0 0 0 0 0 0 0 0 0 0 0 0 0 0 0.25 0"/>
<feBlend mode="normal" in2="shape" result="effect2_innerShadow_16_1113"/>
<feColorMatrix in="SourceAlpha" type="matrix" values="0 0 0 0 0 0 0 0 0 0 0 0 0 0 0 0 0 0 127 0" result="hardAlpha"/>
<feOffset dy="4"/>
<feGaussianBlur stdDeviation="2"/>
<feComposite in2="hardAlpha" operator="arithmetic" k2="-1" k3="1"/>
<feColorMatrix type="matrix" values="0 0 0 0 0 0 0 0 0 0 0 0 0 0 0 0 0 0 0.25 0"/>
<feBlend mode="normal" in2="effect2_innerShadow_16_1113" result="effect3_innerShadow_16_1113"/>
</filter>
<clipPath id="clip0_16_1113">
<rect width="264" height="185" fill="white" transform="translate(286 345)"/>
</clipPath>
</defs>
</svg>
